<?xml version="1.0" encoding="utf-8" standalone="no"?>
<!DOCTYPE svg PUBLIC "-//W3C//DTD SVG 1.1//EN"
  "http://www.w3.org/Graphics/SVG/1.1/DTD/svg11.dtd">
<svg xmlns:xlink="http://www.w3.org/1999/xlink" width="421.594687pt" height="351.99625pt" viewBox="0 0 421.594687 351.99625" xmlns="http://www.w3.org/2000/svg" version="1.1">
 <metadata>
  <rdf:RDF xmlns:dc="http://purl.org/dc/elements/1.1/" xmlns:cc="http://creativecommons.org/ns#" xmlns:rdf="http://www.w3.org/1999/02/22-rdf-syntax-ns#">
   <cc:Work>
    <dc:type rdf:resource="http://purl.org/dc/dcmitype/StillImage"/>
    <dc:date>2023-02-02T00:18:12.815017</dc:date>
    <dc:format>image/svg+xml</dc:format>
    <dc:creator>
     <cc:Agent>
      <dc:title>Matplotlib v3.5.2, https://matplotlib.org/</dc:title>
     </cc:Agent>
    </dc:creator>
   </cc:Work>
  </rdf:RDF>
 </metadata>
 <defs>
  <style type="text/css">*{stroke-linejoin: round; stroke-linecap: butt}</style>
 </defs>
 <g id="figure_1">
  <g id="patch_1">
   <path d="M 0 351.99625 
L 421.594687 351.99625 
L 421.594687 0 
L 0 0 
z
" style="fill: #ffffff"/>
  </g>
  <g id="axes_1">
   <g id="patch_2">
    <path d="M 49.104688 146.88 
L 414.394687 146.88 
L 414.394687 7.2 
L 49.104688 7.2 
z
" style="fill: #ffffff"/>
   </g>
   <g id="matplotlib.axis_1">
    <g id="xtick_1">
     <g id="line2d_1">
      <path d="M 65.708778 146.88 
L 65.708778 7.2 
" clip-path="url(#pac341e3644)" style="fill: none; stroke: #b0b0b0; stroke-width: 0.8; stroke-linecap: square"/>
     </g>
     <g id="line2d_2">
      <defs>
       <path id="m366da682af" d="M 0 0 
L 0 3.5 
" style="stroke: #000000; stroke-width: 0.8"/>
      </defs>
      <g>
       <use xlink:href="#m366da682af" x="65.708778" y="146.88" style="stroke: #000000; stroke-width: 0.8"/>
      </g>
     </g>
     <g id="text_1">
      <!-- 0 -->
      <g transform="translate(62.527528 161.478437)scale(0.1 -0.1)">
       <defs>
        <path id="DejaVuSans-30" d="M 2034 4250 
Q 1547 4250 1301 3770 
Q 1056 3291 1056 2328 
Q 1056 1369 1301 889 
Q 1547 409 2034 409 
Q 2525 409 2770 889 
Q 3016 1369 3016 2328 
Q 3016 3291 2770 3770 
Q 2525 4250 2034 4250 
z
M 2034 4750 
Q 2819 4750 3233 4129 
Q 3647 3509 3647 2328 
Q 3647 1150 3233 529 
Q 2819 -91 2034 -91 
Q 1250 -91 836 529 
Q 422 1150 422 2328 
Q 422 3509 836 4129 
Q 1250 4750 2034 4750 
z
" transform="scale(0.015625)"/>
       </defs>
       <use xlink:href="#DejaVuSans-30"/>
      </g>
     </g>
    </g>
    <g id="xtick_2">
     <g id="line2d_3">
      <path d="M 132.418666 146.88 
L 132.418666 7.2 
" clip-path="url(#pac341e3644)" style="fill: none; stroke: #b0b0b0; stroke-width: 0.8; stroke-linecap: square"/>
     </g>
     <g id="line2d_4">
      <g>
       <use xlink:href="#m366da682af" x="132.418666" y="146.88" style="stroke: #000000; stroke-width: 0.8"/>
      </g>
     </g>
     <g id="text_2">
      <!-- 5 -->
      <g transform="translate(129.237416 161.478437)scale(0.1 -0.1)">
       <defs>
        <path id="DejaVuSans-35" d="M 691 4666 
L 3169 4666 
L 3169 4134 
L 1269 4134 
L 1269 2991 
Q 1406 3038 1543 3061 
Q 1681 3084 1819 3084 
Q 2600 3084 3056 2656 
Q 3513 2228 3513 1497 
Q 3513 744 3044 326 
Q 2575 -91 1722 -91 
Q 1428 -91 1123 -41 
Q 819 9 494 109 
L 494 744 
Q 775 591 1075 516 
Q 1375 441 1709 441 
Q 2250 441 2565 725 
Q 2881 1009 2881 1497 
Q 2881 1984 2565 2268 
Q 2250 2553 1709 2553 
Q 1456 2553 1204 2497 
Q 953 2441 691 2322 
L 691 4666 
z
" transform="scale(0.015625)"/>
       </defs>
       <use xlink:href="#DejaVuSans-35"/>
      </g>
     </g>
    </g>
    <g id="xtick_3">
     <g id="line2d_5">
      <path d="M 199.128553 146.88 
L 199.128553 7.2 
" clip-path="url(#pac341e3644)" style="fill: none; stroke: #b0b0b0; stroke-width: 0.8; stroke-linecap: square"/>
     </g>
     <g id="line2d_6">
      <g>
       <use xlink:href="#m366da682af" x="199.128553" y="146.88" style="stroke: #000000; stroke-width: 0.8"/>
      </g>
     </g>
     <g id="text_3">
      <!-- 10 -->
      <g transform="translate(192.766053 161.478437)scale(0.1 -0.1)">
       <defs>
        <path id="DejaVuSans-31" d="M 794 531 
L 1825 531 
L 1825 4091 
L 703 3866 
L 703 4441 
L 1819 4666 
L 2450 4666 
L 2450 531 
L 3481 531 
L 3481 0 
L 794 0 
L 794 531 
z
" transform="scale(0.015625)"/>
       </defs>
       <use xlink:href="#DejaVuSans-31"/>
       <use xlink:href="#DejaVuSans-30" x="63.623047"/>
      </g>
     </g>
    </g>
    <g id="xtick_4">
     <g id="line2d_7">
      <path d="M 265.83844 146.88 
L 265.83844 7.2 
" clip-path="url(#pac341e3644)" style="fill: none; stroke: #b0b0b0; stroke-width: 0.8; stroke-linecap: square"/>
     </g>
     <g id="line2d_8">
      <g>
       <use xlink:href="#m366da682af" x="265.83844" y="146.88" style="stroke: #000000; stroke-width: 0.8"/>
      </g>
     </g>
     <g id="text_4">
      <!-- 15 -->
      <g transform="translate(259.47594 161.478437)scale(0.1 -0.1)">
       <use xlink:href="#DejaVuSans-31"/>
       <use xlink:href="#DejaVuSans-35" x="63.623047"/>
      </g>
     </g>
    </g>
    <g id="xtick_5">
     <g id="line2d_9">
      <path d="M 332.548327 146.88 
L 332.548327 7.2 
" clip-path="url(#pac341e3644)" style="fill: none; stroke: #b0b0b0; stroke-width: 0.8; stroke-linecap: square"/>
     </g>
     <g id="line2d_10">
      <g>
       <use xlink:href="#m366da682af" x="332.548327" y="146.88" style="stroke: #000000; stroke-width: 0.8"/>
      </g>
     </g>
     <g id="text_5">
      <!-- 20 -->
      <g transform="translate(326.185827 161.478437)scale(0.1 -0.1)">
       <defs>
        <path id="DejaVuSans-32" d="M 1228 531 
L 3431 531 
L 3431 0 
L 469 0 
L 469 531 
Q 828 903 1448 1529 
Q 2069 2156 2228 2338 
Q 2531 2678 2651 2914 
Q 2772 3150 2772 3378 
Q 2772 3750 2511 3984 
Q 2250 4219 1831 4219 
Q 1534 4219 1204 4116 
Q 875 4013 500 3803 
L 500 4441 
Q 881 4594 1212 4672 
Q 1544 4750 1819 4750 
Q 2544 4750 2975 4387 
Q 3406 4025 3406 3419 
Q 3406 3131 3298 2873 
Q 3191 2616 2906 2266 
Q 2828 2175 2409 1742 
Q 1991 1309 1228 531 
z
" transform="scale(0.015625)"/>
       </defs>
       <use xlink:href="#DejaVuSans-32"/>
       <use xlink:href="#DejaVuSans-30" x="63.623047"/>
      </g>
     </g>
    </g>
    <g id="xtick_6">
     <g id="line2d_11">
      <path d="M 399.258214 146.88 
L 399.258214 7.2 
" clip-path="url(#pac341e3644)" style="fill: none; stroke: #b0b0b0; stroke-width: 0.8; stroke-linecap: square"/>
     </g>
     <g id="line2d_12">
      <g>
       <use xlink:href="#m366da682af" x="399.258214" y="146.88" style="stroke: #000000; stroke-width: 0.8"/>
      </g>
     </g>
     <g id="text_6">
      <!-- 25 -->
      <g transform="translate(392.895714 161.478437)scale(0.1 -0.1)">
       <use xlink:href="#DejaVuSans-32"/>
       <use xlink:href="#DejaVuSans-35" x="63.623047"/>
      </g>
     </g>
    </g>
   </g>
   <g id="matplotlib.axis_2">
    <g id="ytick_1">
     <g id="line2d_13">
      <path d="M 49.104688 140.530909 
L 414.394687 140.530909 
" clip-path="url(#pac341e3644)" style="fill: none; stroke: #b0b0b0; stroke-width: 0.8; stroke-linecap: square"/>
     </g>
     <g id="line2d_14">
      <defs>
       <path id="m4f3aa30f71" d="M 0 0 
L -3.5 0 
" style="stroke: #000000; stroke-width: 0.8"/>
      </defs>
      <g>
       <use xlink:href="#m4f3aa30f71" x="49.104688" y="140.530909" style="stroke: #000000; stroke-width: 0.8"/>
      </g>
     </g>
     <g id="text_7">
      <!-- −10 -->
      <g transform="translate(21 144.330128)scale(0.1 -0.1)">
       <defs>
        <path id="DejaVuSans-2212" d="M 678 2272 
L 4684 2272 
L 4684 1741 
L 678 1741 
L 678 2272 
z
" transform="scale(0.015625)"/>
       </defs>
       <use xlink:href="#DejaVuSans-2212"/>
       <use xlink:href="#DejaVuSans-31" x="83.789062"/>
       <use xlink:href="#DejaVuSans-30" x="147.412109"/>
      </g>
     </g>
    </g>
    <g id="ytick_2">
     <g id="line2d_15">
      <path d="M 49.104688 105.301439 
L 414.394687 105.301439 
" clip-path="url(#pac341e3644)" style="fill: none; stroke: #b0b0b0; stroke-width: 0.8; stroke-linecap: square"/>
     </g>
     <g id="line2d_16">
      <g>
       <use xlink:href="#m4f3aa30f71" x="49.104688" y="105.301439" style="stroke: #000000; stroke-width: 0.8"/>
      </g>
     </g>
     <g id="text_8">
      <!-- −5 -->
      <g transform="translate(27.3625 109.100658)scale(0.1 -0.1)">
       <use xlink:href="#DejaVuSans-2212"/>
       <use xlink:href="#DejaVuSans-35" x="83.789062"/>
      </g>
     </g>
    </g>
    <g id="ytick_3">
     <g id="line2d_17">
      <path d="M 49.104688 70.07197 
L 414.394687 70.07197 
" clip-path="url(#pac341e3644)" style="fill: none; stroke: #b0b0b0; stroke-width: 0.8; stroke-linecap: square"/>
     </g>
     <g id="line2d_18">
      <g>
       <use xlink:href="#m4f3aa30f71" x="49.104688" y="70.07197" style="stroke: #000000; stroke-width: 0.8"/>
      </g>
     </g>
     <g id="text_9">
      <!-- 0 -->
      <g transform="translate(35.742188 73.871189)scale(0.1 -0.1)">
       <use xlink:href="#DejaVuSans-30"/>
      </g>
     </g>
    </g>
    <g id="ytick_4">
     <g id="line2d_19">
      <path d="M 49.104688 34.8425 
L 414.394687 34.8425 
" clip-path="url(#pac341e3644)" style="fill: none; stroke: #b0b0b0; stroke-width: 0.8; stroke-linecap: square"/>
     </g>
     <g id="line2d_20">
      <g>
       <use xlink:href="#m4f3aa30f71" x="49.104688" y="34.8425" style="stroke: #000000; stroke-width: 0.8"/>
      </g>
     </g>
     <g id="text_10">
      <!-- 5 -->
      <g transform="translate(35.742188 38.641719)scale(0.1 -0.1)">
       <use xlink:href="#DejaVuSans-35"/>
      </g>
     </g>
    </g>
    <g id="text_11">
     <!-- Angle $\theta\; (º)$ -->
     <g transform="translate(14.9 103.54)rotate(-90)scale(0.1 -0.1)">
      <defs>
       <path id="DejaVuSans-41" d="M 2188 4044 
L 1331 1722 
L 3047 1722 
L 2188 4044 
z
M 1831 4666 
L 2547 4666 
L 4325 0 
L 3669 0 
L 3244 1197 
L 1141 1197 
L 716 0 
L 50 0 
L 1831 4666 
z
" transform="scale(0.015625)"/>
       <path id="DejaVuSans-6e" d="M 3513 2113 
L 3513 0 
L 2938 0 
L 2938 2094 
Q 2938 2591 2744 2837 
Q 2550 3084 2163 3084 
Q 1697 3084 1428 2787 
Q 1159 2491 1159 1978 
L 1159 0 
L 581 0 
L 581 3500 
L 1159 3500 
L 1159 2956 
Q 1366 3272 1645 3428 
Q 1925 3584 2291 3584 
Q 2894 3584 3203 3211 
Q 3513 2838 3513 2113 
z
" transform="scale(0.015625)"/>
       <path id="DejaVuSans-67" d="M 2906 1791 
Q 2906 2416 2648 2759 
Q 2391 3103 1925 3103 
Q 1463 3103 1205 2759 
Q 947 2416 947 1791 
Q 947 1169 1205 825 
Q 1463 481 1925 481 
Q 2391 481 2648 825 
Q 2906 1169 2906 1791 
z
M 3481 434 
Q 3481 -459 3084 -895 
Q 2688 -1331 1869 -1331 
Q 1566 -1331 1297 -1286 
Q 1028 -1241 775 -1147 
L 775 -588 
Q 1028 -725 1275 -790 
Q 1522 -856 1778 -856 
Q 2344 -856 2625 -561 
Q 2906 -266 2906 331 
L 2906 616 
Q 2728 306 2450 153 
Q 2172 0 1784 0 
Q 1141 0 747 490 
Q 353 981 353 1791 
Q 353 2603 747 3093 
Q 1141 3584 1784 3584 
Q 2172 3584 2450 3431 
Q 2728 3278 2906 2969 
L 2906 3500 
L 3481 3500 
L 3481 434 
z
" transform="scale(0.015625)"/>
       <path id="DejaVuSans-6c" d="M 603 4863 
L 1178 4863 
L 1178 0 
L 603 0 
L 603 4863 
z
" transform="scale(0.015625)"/>
       <path id="DejaVuSans-65" d="M 3597 1894 
L 3597 1613 
L 953 1613 
Q 991 1019 1311 708 
Q 1631 397 2203 397 
Q 2534 397 2845 478 
Q 3156 559 3463 722 
L 3463 178 
Q 3153 47 2828 -22 
Q 2503 -91 2169 -91 
Q 1331 -91 842 396 
Q 353 884 353 1716 
Q 353 2575 817 3079 
Q 1281 3584 2069 3584 
Q 2775 3584 3186 3129 
Q 3597 2675 3597 1894 
z
M 3022 2063 
Q 3016 2534 2758 2815 
Q 2500 3097 2075 3097 
Q 1594 3097 1305 2825 
Q 1016 2553 972 2059 
L 3022 2063 
z
" transform="scale(0.015625)"/>
       <path id="DejaVuSans-20" transform="scale(0.015625)"/>
       <path id="DejaVuSans-Oblique-3b8" d="M 2913 2219 
L 925 2219 
Q 791 1284 928 888 
Q 1100 400 1566 400 
Q 2034 400 2391 891 
Q 2703 1322 2913 2219 
z
M 3009 2750 
Q 3094 3638 2984 3950 
Q 2813 4444 2353 4444 
Q 1875 4444 1525 3956 
Q 1250 3563 1034 2750 
L 3009 2750 
z
M 2444 4913 
Q 3194 4913 3494 4250 
Q 3794 3591 3566 2422 
Q 3341 1256 2781 594 
Q 2225 -72 1475 -72 
Q 722 -72 425 594 
Q 128 1256 353 2422 
Q 581 3591 1134 4250 
Q 1691 4913 2444 4913 
z
" transform="scale(0.015625)"/>
       <path id="DejaVuSans-28" d="M 1984 4856 
Q 1566 4138 1362 3434 
Q 1159 2731 1159 2009 
Q 1159 1288 1364 580 
Q 1569 -128 1984 -844 
L 1484 -844 
Q 1016 -109 783 600 
Q 550 1309 550 2009 
Q 550 2706 781 3412 
Q 1013 4119 1484 4856 
L 1984 4856 
z
" transform="scale(0.015625)"/>
       <path id="DejaVuSans-Oblique-ba" d="M 2463 3688 
Q 2463 4031 2308 4211 
Q 2153 4391 1850 4391 
Q 1488 4391 1223 4056 
Q 959 3722 959 3250 
Q 959 2909 1114 2725 
Q 1269 2541 1556 2541 
Q 1938 2541 2200 2870 
Q 2463 3200 2463 3688 
z
M 1941 4750 
Q 2403 4750 2679 4481 
Q 2956 4213 2956 3763 
Q 2956 3075 2540 2628 
Q 2125 2181 1491 2181 
Q 1022 2181 748 2462 
Q 475 2744 475 3225 
Q 475 3438 534 3645 
Q 594 3853 709 4050 
Q 903 4381 1228 4565 
Q 1553 4750 1941 4750 
z
M 325 1850 
L 2478 1850 
L 2406 1466 
L 256 1466 
L 325 1850 
z
" transform="scale(0.015625)"/>
       <path id="DejaVuSans-29" d="M 513 4856 
L 1013 4856 
Q 1481 4119 1714 3412 
Q 1947 2706 1947 2009 
Q 1947 1309 1714 600 
Q 1481 -109 1013 -844 
L 513 -844 
Q 928 -128 1133 580 
Q 1338 1288 1338 2009 
Q 1338 2731 1133 3434 
Q 928 4138 513 4856 
z
" transform="scale(0.015625)"/>
      </defs>
      <use xlink:href="#DejaVuSans-41" transform="translate(0 0.234375)"/>
      <use xlink:href="#DejaVuSans-6e" transform="translate(68.408203 0.234375)"/>
      <use xlink:href="#DejaVuSans-67" transform="translate(131.787109 0.234375)"/>
      <use xlink:href="#DejaVuSans-6c" transform="translate(195.263672 0.234375)"/>
      <use xlink:href="#DejaVuSans-65" transform="translate(223.046875 0.234375)"/>
      <use xlink:href="#DejaVuSans-20" transform="translate(284.570312 0.234375)"/>
      <use xlink:href="#DejaVuSans-Oblique-3b8" transform="translate(316.357422 0.234375)"/>
      <use xlink:href="#DejaVuSans-28" transform="translate(404.598198 0.234375)"/>
      <use xlink:href="#DejaVuSans-Oblique-ba" transform="translate(443.61187 0.234375)"/>
      <use xlink:href="#DejaVuSans-29" transform="translate(490.731011 0.234375)"/>
     </g>
    </g>
   </g>
   <g id="line2d_21">
    <path d="M 65.708778 140.530909 
L 69.044273 140.420126 
L 79.984694 140.069018 
L 93.059832 140.167307 
L 93.726931 139.724386 
L 94.39403 138.987137 
L 95.194549 137.718847 
L 96.128487 135.721317 
L 97.062425 133.183615 
L 98.129784 129.651886 
L 99.330562 124.924486 
L 100.798179 118.164075 
L 102.532636 108.980904 
L 104.667352 96.3171 
L 108.002847 74.911229 
L 111.605181 52.132607 
L 113.739897 40.037746 
L 115.474354 31.489127 
L 116.941972 25.370339 
L 118.14275 21.228511 
L 119.210108 18.255368 
L 120.144046 16.230351 
L 120.944565 14.937851 
L 121.745084 14.063743 
L 122.412182 13.659232 
L 122.945862 13.549091 
L 123.61296 13.65934 
L 124.280059 14.003763 
L 124.947158 14.579201 
L 125.747677 15.570807 
L 126.681615 17.134143 
L 127.748973 19.438929 
L 128.949751 22.658956 
L 130.283949 26.957712 
L 131.751567 32.46914 
L 133.486024 39.87245 
L 135.75416 50.631455 
L 144.026186 91.014909 
L 145.760643 97.871113 
L 147.22826 102.822066 
L 148.562458 106.545035 
L 149.629816 108.940762 
L 150.563755 110.587167 
L 151.497693 111.797763 
L 152.298212 112.480037 
L 152.965311 112.794364 
L 153.63241 112.875944 
L 154.432928 112.698248 
L 155.233447 112.277232 
L 156.033966 111.617022 
L 156.967904 110.550496 
L 158.035262 108.953163 
L 159.23604 106.696913 
L 160.570238 103.660322 
L 162.037855 99.742496 
L 163.772313 94.451515 
L 165.907029 87.195635 
L 169.642783 73.535406 
L 172.844857 62.145367 
L 174.846154 55.761509 
L 176.580611 50.942718 
L 178.048228 47.503731 
L 179.382426 44.955862 
L 180.449784 43.348056 
L 181.517142 42.144125 
L 182.451081 41.433466 
L 183.2516 41.08433 
L 184.052118 40.977754 
L 184.852637 41.102864 
L 185.786575 41.451485 
L 186.853933 42.095225 
L 187.921292 42.993123 
L 189.12207 44.293499 
L 190.456267 46.075284 
L 191.923885 48.405852 
L 193.658342 51.589624 
L 195.793058 56.00283 
L 199.128553 63.506144 
L 202.997726 72.108113 
L 205.132443 76.338426 
L 206.8669 79.320034 
L 208.334517 81.447068 
L 209.668715 83.022099 
L 210.869493 84.122015 
L 211.936851 84.832847 
L 213.004209 85.283504 
L 213.938148 85.460066 
L 214.872086 85.431612 
L 216.206284 85.116703 
L 217.807321 84.529548 
L 219.541778 83.662078 
L 221.543075 82.397744 
L 223.811211 80.689058 
L 226.879866 78.072342 
L 233.017175 72.770053 
L 235.418731 71.031679 
L 237.420028 69.852685 
L 239.154485 69.071119 
L 240.888942 68.538992 
L 242.489979 68.283935 
L 244.091017 68.262794 
L 247.159671 68.364635 
L 248.760709 68.398738 
L 250.762005 68.408327 
L 253.163561 68.385677 
L 261.435587 68.560417 
L 264.370822 68.690323 
L 266.238699 68.725394 
L 272.109169 68.879917 
L 278.513318 68.98385 
L 282.649331 69.055191 
L 297.192087 69.238716 
L 302.662298 69.236273 
L 309.066447 69.371003 
L 312.93562 69.360043 
L 321.207646 69.639111 
L 323.075523 69.628871 
L 325.07682 69.587841 
L 332.548327 69.576046 
L 336.017241 69.694704 
L 341.220612 69.711974 
L 349.225799 69.52322 
L 355.629948 69.649181 
L 362.834616 69.87996 
L 367.104049 69.702475 
L 370.706382 69.643251 
L 375.376075 69.619452 
L 379.245248 69.681114 
L 381.246545 69.757236 
L 389.118311 70.096344 
L 397.790597 70.445613 
L 397.790597 70.445613 
" clip-path="url(#pac341e3644)" style="fill: none; stroke: #1f77b4; stroke-width: 1.5; stroke-linecap: square"/>
   </g>
   <g id="patch_3">
    <path d="M 49.104688 146.88 
L 49.104688 7.2 
" style="fill: none; stroke: #000000; stroke-width: 0.8; stroke-linejoin: miter; stroke-linecap: square"/>
   </g>
   <g id="patch_4">
    <path d="M 414.394687 146.88 
L 414.394687 7.2 
" style="fill: none; stroke: #000000; stroke-width: 0.8; stroke-linejoin: miter; stroke-linecap: square"/>
   </g>
   <g id="patch_5">
    <path d="M 49.104687 146.88 
L 414.394688 146.88 
" style="fill: none; stroke: #000000; stroke-width: 0.8; stroke-linejoin: miter; stroke-linecap: square"/>
   </g>
   <g id="patch_6">
    <path d="M 49.104687 7.2 
L 414.394688 7.2 
" style="fill: none; stroke: #000000; stroke-width: 0.8; stroke-linejoin: miter; stroke-linecap: square"/>
   </g>
  </g>
  <g id="axes_2">
   <g id="patch_7">
    <path d="M 49.104688 314.44 
L 414.394687 314.44 
L 414.394687 174.76 
L 49.104688 174.76 
z
" style="fill: #ffffff"/>
   </g>
   <g id="matplotlib.axis_3">
    <g id="xtick_7">
     <g id="line2d_22">
      <path d="M 65.708778 314.44 
L 65.708778 174.76 
" clip-path="url(#p1c6a4f9872)" style="fill: none; stroke: #b0b0b0; stroke-width: 0.8; stroke-linecap: square"/>
     </g>
     <g id="line2d_23">
      <g>
       <use xlink:href="#m366da682af" x="65.708778" y="314.44" style="stroke: #000000; stroke-width: 0.8"/>
      </g>
     </g>
     <g id="text_12">
      <!-- 0 -->
      <g transform="translate(62.527528 329.038437)scale(0.1 -0.1)">
       <use xlink:href="#DejaVuSans-30"/>
      </g>
     </g>
    </g>
    <g id="xtick_8">
     <g id="line2d_24">
      <path d="M 132.418666 314.44 
L 132.418666 174.76 
" clip-path="url(#p1c6a4f9872)" style="fill: none; stroke: #b0b0b0; stroke-width: 0.8; stroke-linecap: square"/>
     </g>
     <g id="line2d_25">
      <g>
       <use xlink:href="#m366da682af" x="132.418666" y="314.44" style="stroke: #000000; stroke-width: 0.8"/>
      </g>
     </g>
     <g id="text_13">
      <!-- 5 -->
      <g transform="translate(129.237416 329.038437)scale(0.1 -0.1)">
       <use xlink:href="#DejaVuSans-35"/>
      </g>
     </g>
    </g>
    <g id="xtick_9">
     <g id="line2d_26">
      <path d="M 199.128553 314.44 
L 199.128553 174.76 
" clip-path="url(#p1c6a4f9872)" style="fill: none; stroke: #b0b0b0; stroke-width: 0.8; stroke-linecap: square"/>
     </g>
     <g id="line2d_27">
      <g>
       <use xlink:href="#m366da682af" x="199.128553" y="314.44" style="stroke: #000000; stroke-width: 0.8"/>
      </g>
     </g>
     <g id="text_14">
      <!-- 10 -->
      <g transform="translate(192.766053 329.038437)scale(0.1 -0.1)">
       <use xlink:href="#DejaVuSans-31"/>
       <use xlink:href="#DejaVuSans-30" x="63.623047"/>
      </g>
     </g>
    </g>
    <g id="xtick_10">
     <g id="line2d_28">
      <path d="M 265.83844 314.44 
L 265.83844 174.76 
" clip-path="url(#p1c6a4f9872)" style="fill: none; stroke: #b0b0b0; stroke-width: 0.8; stroke-linecap: square"/>
     </g>
     <g id="line2d_29">
      <g>
       <use xlink:href="#m366da682af" x="265.83844" y="314.44" style="stroke: #000000; stroke-width: 0.8"/>
      </g>
     </g>
     <g id="text_15">
      <!-- 15 -->
      <g transform="translate(259.47594 329.038437)scale(0.1 -0.1)">
       <use xlink:href="#DejaVuSans-31"/>
       <use xlink:href="#DejaVuSans-35" x="63.623047"/>
      </g>
     </g>
    </g>
    <g id="xtick_11">
     <g id="line2d_30">
      <path d="M 332.548327 314.44 
L 332.548327 174.76 
" clip-path="url(#p1c6a4f9872)" style="fill: none; stroke: #b0b0b0; stroke-width: 0.8; stroke-linecap: square"/>
     </g>
     <g id="line2d_31">
      <g>
       <use xlink:href="#m366da682af" x="332.548327" y="314.44" style="stroke: #000000; stroke-width: 0.8"/>
      </g>
     </g>
     <g id="text_16">
      <!-- 20 -->
      <g transform="translate(326.185827 329.038437)scale(0.1 -0.1)">
       <use xlink:href="#DejaVuSans-32"/>
       <use xlink:href="#DejaVuSans-30" x="63.623047"/>
      </g>
     </g>
    </g>
    <g id="xtick_12">
     <g id="line2d_32">
      <path d="M 399.258214 314.44 
L 399.258214 174.76 
" clip-path="url(#p1c6a4f9872)" style="fill: none; stroke: #b0b0b0; stroke-width: 0.8; stroke-linecap: square"/>
     </g>
     <g id="line2d_33">
      <g>
       <use xlink:href="#m366da682af" x="399.258214" y="314.44" style="stroke: #000000; stroke-width: 0.8"/>
      </g>
     </g>
     <g id="text_17">
      <!-- 25 -->
      <g transform="translate(392.895714 329.038437)scale(0.1 -0.1)">
       <use xlink:href="#DejaVuSans-32"/>
       <use xlink:href="#DejaVuSans-35" x="63.623047"/>
      </g>
     </g>
    </g>
    <g id="text_18">
     <!-- Time (s) -->
     <g transform="translate(211.420781 342.716562)scale(0.1 -0.1)">
      <defs>
       <path id="DejaVuSans-54" d="M -19 4666 
L 3928 4666 
L 3928 4134 
L 2272 4134 
L 2272 0 
L 1638 0 
L 1638 4134 
L -19 4134 
L -19 4666 
z
" transform="scale(0.015625)"/>
       <path id="DejaVuSans-69" d="M 603 3500 
L 1178 3500 
L 1178 0 
L 603 0 
L 603 3500 
z
M 603 4863 
L 1178 4863 
L 1178 4134 
L 603 4134 
L 603 4863 
z
" transform="scale(0.015625)"/>
       <path id="DejaVuSans-6d" d="M 3328 2828 
Q 3544 3216 3844 3400 
Q 4144 3584 4550 3584 
Q 5097 3584 5394 3201 
Q 5691 2819 5691 2113 
L 5691 0 
L 5113 0 
L 5113 2094 
Q 5113 2597 4934 2840 
Q 4756 3084 4391 3084 
Q 3944 3084 3684 2787 
Q 3425 2491 3425 1978 
L 3425 0 
L 2847 0 
L 2847 2094 
Q 2847 2600 2669 2842 
Q 2491 3084 2119 3084 
Q 1678 3084 1418 2786 
Q 1159 2488 1159 1978 
L 1159 0 
L 581 0 
L 581 3500 
L 1159 3500 
L 1159 2956 
Q 1356 3278 1631 3431 
Q 1906 3584 2284 3584 
Q 2666 3584 2933 3390 
Q 3200 3197 3328 2828 
z
" transform="scale(0.015625)"/>
       <path id="DejaVuSans-73" d="M 2834 3397 
L 2834 2853 
Q 2591 2978 2328 3040 
Q 2066 3103 1784 3103 
Q 1356 3103 1142 2972 
Q 928 2841 928 2578 
Q 928 2378 1081 2264 
Q 1234 2150 1697 2047 
L 1894 2003 
Q 2506 1872 2764 1633 
Q 3022 1394 3022 966 
Q 3022 478 2636 193 
Q 2250 -91 1575 -91 
Q 1294 -91 989 -36 
Q 684 19 347 128 
L 347 722 
Q 666 556 975 473 
Q 1284 391 1588 391 
Q 1994 391 2212 530 
Q 2431 669 2431 922 
Q 2431 1156 2273 1281 
Q 2116 1406 1581 1522 
L 1381 1569 
Q 847 1681 609 1914 
Q 372 2147 372 2553 
Q 372 3047 722 3315 
Q 1072 3584 1716 3584 
Q 2034 3584 2315 3537 
Q 2597 3491 2834 3397 
z
" transform="scale(0.015625)"/>
      </defs>
      <use xlink:href="#DejaVuSans-54"/>
      <use xlink:href="#DejaVuSans-69" x="57.958984"/>
      <use xlink:href="#DejaVuSans-6d" x="85.742188"/>
      <use xlink:href="#DejaVuSans-65" x="183.154297"/>
      <use xlink:href="#DejaVuSans-20" x="244.677734"/>
      <use xlink:href="#DejaVuSans-28" x="276.464844"/>
      <use xlink:href="#DejaVuSans-73" x="315.478516"/>
      <use xlink:href="#DejaVuSans-29" x="367.578125"/>
     </g>
    </g>
   </g>
   <g id="matplotlib.axis_4">
    <g id="ytick_5">
     <g id="line2d_34">
      <path d="M 49.104688 273.432601 
L 414.394687 273.432601 
" clip-path="url(#p1c6a4f9872)" style="fill: none; stroke: #b0b0b0; stroke-width: 0.8; stroke-linecap: square"/>
     </g>
     <g id="line2d_35">
      <g>
       <use xlink:href="#m4f3aa30f71" x="49.104688" y="273.432601" style="stroke: #000000; stroke-width: 0.8"/>
      </g>
     </g>
     <g id="text_19">
      <!-- −40 -->
      <g transform="translate(21 277.23182)scale(0.1 -0.1)">
       <defs>
        <path id="DejaVuSans-34" d="M 2419 4116 
L 825 1625 
L 2419 1625 
L 2419 4116 
z
M 2253 4666 
L 3047 4666 
L 3047 1625 
L 3713 1625 
L 3713 1100 
L 3047 1100 
L 3047 0 
L 2419 0 
L 2419 1100 
L 313 1100 
L 313 1709 
L 2253 4666 
z
" transform="scale(0.015625)"/>
       </defs>
       <use xlink:href="#DejaVuSans-2212"/>
       <use xlink:href="#DejaVuSans-34" x="83.789062"/>
       <use xlink:href="#DejaVuSans-30" x="147.412109"/>
      </g>
     </g>
    </g>
    <g id="ytick_6">
     <g id="line2d_36">
      <path d="M 49.104688 232.39993 
L 414.394687 232.39993 
" clip-path="url(#p1c6a4f9872)" style="fill: none; stroke: #b0b0b0; stroke-width: 0.8; stroke-linecap: square"/>
     </g>
     <g id="line2d_37">
      <g>
       <use xlink:href="#m4f3aa30f71" x="49.104688" y="232.39993" style="stroke: #000000; stroke-width: 0.8"/>
      </g>
     </g>
     <g id="text_20">
      <!-- −20 -->
      <g transform="translate(21 236.199149)scale(0.1 -0.1)">
       <use xlink:href="#DejaVuSans-2212"/>
       <use xlink:href="#DejaVuSans-32" x="83.789062"/>
       <use xlink:href="#DejaVuSans-30" x="147.412109"/>
      </g>
     </g>
    </g>
    <g id="ytick_7">
     <g id="line2d_38">
      <path d="M 49.104688 191.367259 
L 414.394687 191.367259 
" clip-path="url(#p1c6a4f9872)" style="fill: none; stroke: #b0b0b0; stroke-width: 0.8; stroke-linecap: square"/>
     </g>
     <g id="line2d_39">
      <g>
       <use xlink:href="#m4f3aa30f71" x="49.104688" y="191.367259" style="stroke: #000000; stroke-width: 0.8"/>
      </g>
     </g>
     <g id="text_21">
      <!-- 0 -->
      <g transform="translate(35.742188 195.166477)scale(0.1 -0.1)">
       <use xlink:href="#DejaVuSans-30"/>
      </g>
     </g>
    </g>
    <g id="text_22">
     <!-- Force (N) -->
     <g transform="translate(14.920313 267.353906)rotate(-90)scale(0.1 -0.1)">
      <defs>
       <path id="DejaVuSans-46" d="M 628 4666 
L 3309 4666 
L 3309 4134 
L 1259 4134 
L 1259 2759 
L 3109 2759 
L 3109 2228 
L 1259 2228 
L 1259 0 
L 628 0 
L 628 4666 
z
" transform="scale(0.015625)"/>
       <path id="DejaVuSans-6f" d="M 1959 3097 
Q 1497 3097 1228 2736 
Q 959 2375 959 1747 
Q 959 1119 1226 758 
Q 1494 397 1959 397 
Q 2419 397 2687 759 
Q 2956 1122 2956 1747 
Q 2956 2369 2687 2733 
Q 2419 3097 1959 3097 
z
M 1959 3584 
Q 2709 3584 3137 3096 
Q 3566 2609 3566 1747 
Q 3566 888 3137 398 
Q 2709 -91 1959 -91 
Q 1206 -91 779 398 
Q 353 888 353 1747 
Q 353 2609 779 3096 
Q 1206 3584 1959 3584 
z
" transform="scale(0.015625)"/>
       <path id="DejaVuSans-72" d="M 2631 2963 
Q 2534 3019 2420 3045 
Q 2306 3072 2169 3072 
Q 1681 3072 1420 2755 
Q 1159 2438 1159 1844 
L 1159 0 
L 581 0 
L 581 3500 
L 1159 3500 
L 1159 2956 
Q 1341 3275 1631 3429 
Q 1922 3584 2338 3584 
Q 2397 3584 2469 3576 
Q 2541 3569 2628 3553 
L 2631 2963 
z
" transform="scale(0.015625)"/>
       <path id="DejaVuSans-63" d="M 3122 3366 
L 3122 2828 
Q 2878 2963 2633 3030 
Q 2388 3097 2138 3097 
Q 1578 3097 1268 2742 
Q 959 2388 959 1747 
Q 959 1106 1268 751 
Q 1578 397 2138 397 
Q 2388 397 2633 464 
Q 2878 531 3122 666 
L 3122 134 
Q 2881 22 2623 -34 
Q 2366 -91 2075 -91 
Q 1284 -91 818 406 
Q 353 903 353 1747 
Q 353 2603 823 3093 
Q 1294 3584 2113 3584 
Q 2378 3584 2631 3529 
Q 2884 3475 3122 3366 
z
" transform="scale(0.015625)"/>
       <path id="DejaVuSans-4e" d="M 628 4666 
L 1478 4666 
L 3547 763 
L 3547 4666 
L 4159 4666 
L 4159 0 
L 3309 0 
L 1241 3903 
L 1241 0 
L 628 0 
L 628 4666 
z
" transform="scale(0.015625)"/>
      </defs>
      <use xlink:href="#DejaVuSans-46"/>
      <use xlink:href="#DejaVuSans-6f" x="53.894531"/>
      <use xlink:href="#DejaVuSans-72" x="115.076172"/>
      <use xlink:href="#DejaVuSans-63" x="153.939453"/>
      <use xlink:href="#DejaVuSans-65" x="208.919922"/>
      <use xlink:href="#DejaVuSans-20" x="270.443359"/>
      <use xlink:href="#DejaVuSans-28" x="302.230469"/>
      <use xlink:href="#DejaVuSans-4e" x="341.244141"/>
      <use xlink:href="#DejaVuSans-29" x="416.048828"/>
     </g>
    </g>
   </g>
   <g id="line2d_40">
    <path d="M 65.708778 297.832741 
L 67.042976 297.832741 
L 67.176396 287.574574 
L 68.377174 287.574574 
L 68.510594 308.090909 
L 69.711372 308.090909 
L 69.844791 287.574574 
L 71.045569 287.574574 
L 71.178989 308.090909 
L 72.379767 308.090909 
L 72.513187 287.574574 
L 73.713965 287.574574 
L 73.847385 308.090909 
L 75.048163 308.090909 
L 75.181582 287.574574 
L 76.38236 287.574574 
L 76.51578 308.090909 
L 77.716558 308.090909 
L 77.849978 287.574574 
L 79.050756 287.574574 
L 79.184176 308.090909 
L 80.384954 308.090909 
L 80.518373 287.574574 
L 81.719151 287.574574 
L 81.852571 308.090909 
L 83.053349 308.090909 
L 83.186769 287.574574 
L 84.387547 287.574574 
L 84.520967 308.090909 
L 85.721745 308.090909 
L 85.855164 287.574574 
L 87.055942 287.574574 
L 87.189362 308.090909 
L 88.39014 308.090909 
L 88.52356 287.574574 
L 89.724338 287.574574 
L 89.857758 308.090909 
L 91.058536 308.090909 
L 91.191955 287.574574 
L 92.392733 287.574574 
L 92.526153 201.625426 
L 123.079281 201.625426 
L 123.212701 181.109091 
L 153.765829 181.109091 
L 153.899249 201.625426 
L 184.452378 201.625426 
L 184.585797 181.109091 
L 215.138926 181.109091 
L 215.272345 201.625426 
L 244.491276 201.625426 
L 244.624696 181.109091 
L 247.159671 181.109091 
L 247.293091 201.625426 
L 248.493869 201.625426 
L 248.627289 181.109091 
L 251.162265 181.109091 
L 251.295684 201.625426 
L 252.496462 201.625426 
L 252.629882 181.109091 
L 253.83066 181.109091 
L 253.96408 201.625426 
L 255.164858 201.625426 
L 255.298278 181.109091 
L 257.833253 181.109091 
L 257.966673 201.625426 
L 259.167451 201.625426 
L 259.300871 181.109091 
L 260.501649 181.109091 
L 260.635069 201.625426 
L 261.835847 201.625426 
L 261.969266 181.109091 
L 264.504242 181.109091 
L 264.637662 201.625426 
L 265.83844 201.625426 
L 265.97186 181.109091 
L 267.172638 181.109091 
L 267.306057 201.625426 
L 268.506835 201.625426 
L 268.640255 181.109091 
L 271.175231 181.109091 
L 271.308651 201.625426 
L 272.509429 201.625426 
L 272.642848 181.109091 
L 273.843626 181.109091 
L 273.977046 201.625426 
L 275.177824 201.625426 
L 275.311244 181.109091 
L 277.84622 181.109091 
L 277.979639 201.625426 
L 279.180417 201.625426 
L 279.313837 181.109091 
L 280.514615 181.109091 
L 280.648035 201.625426 
L 281.848813 201.625426 
L 281.982233 181.109091 
L 283.18301 181.109091 
L 283.31643 201.625426 
L 284.517208 201.625426 
L 284.650628 181.109091 
L 287.185604 181.109091 
L 287.319023 201.625426 
L 288.519801 201.625426 
L 288.653221 181.109091 
L 289.853999 181.109091 
L 289.987419 201.625426 
L 291.188197 201.625426 
L 291.321617 181.109091 
L 292.522395 181.109091 
L 292.655814 201.625426 
L 293.856592 201.625426 
L 293.990012 181.109091 
L 296.524988 181.109091 
L 296.658408 201.625426 
L 297.859186 201.625426 
L 297.992605 181.109091 
L 299.193383 181.109091 
L 299.326803 201.625426 
L 300.527581 201.625426 
L 300.661001 181.109091 
L 301.861779 181.109091 
L 301.995199 201.625426 
L 303.195977 201.625426 
L 303.329396 181.109091 
L 304.530174 181.109091 
L 304.663594 201.625426 
L 305.864372 201.625426 
L 305.997792 181.109091 
L 308.532768 181.109091 
L 308.666187 201.625426 
L 309.866965 201.625426 
L 310.000385 181.109091 
L 311.201163 181.109091 
L 311.334583 201.625426 
L 312.535361 201.625426 
L 312.668781 181.109091 
L 313.869559 181.109091 
L 314.002978 201.625426 
L 315.203756 201.625426 
L 315.337176 181.109091 
L 316.537954 181.109091 
L 316.671374 201.625426 
L 317.872152 201.625426 
L 318.005572 181.109091 
L 319.20635 181.109091 
L 319.339769 201.625426 
L 320.540547 201.625426 
L 320.673967 181.109091 
L 323.208943 181.109091 
L 323.342363 201.625426 
L 324.543141 201.625426 
L 324.67656 181.109091 
L 325.877338 181.109091 
L 326.010758 201.625426 
L 327.211536 201.625426 
L 327.344956 181.109091 
L 328.545734 181.109091 
L 328.679154 201.625426 
L 329.879931 201.625426 
L 330.013351 181.109091 
L 331.214129 181.109091 
L 331.347549 201.625426 
L 332.548327 201.625426 
L 332.681747 181.109091 
L 333.882525 181.109091 
L 334.015944 201.625426 
L 335.216722 201.625426 
L 335.350142 181.109091 
L 336.55092 181.109091 
L 336.68434 201.625426 
L 337.885118 201.625426 
L 338.018538 181.109091 
L 340.553513 181.109091 
L 340.686933 201.625426 
L 341.887711 201.625426 
L 342.021131 181.109091 
L 343.221909 181.109091 
L 343.355329 201.625426 
L 344.556107 201.625426 
L 344.689526 181.109091 
L 345.890304 181.109091 
L 346.023724 201.625426 
L 347.224502 201.625426 
L 347.357922 181.109091 
L 348.5587 181.109091 
L 348.69212 201.625426 
L 349.892898 201.625426 
L 350.026317 181.109091 
L 351.227095 181.109091 
L 351.360515 201.625426 
L 352.561293 201.625426 
L 352.694713 181.109091 
L 353.895491 181.109091 
L 354.028911 201.625426 
L 355.229689 201.625426 
L 355.363108 181.109091 
L 356.563886 181.109091 
L 356.697306 201.625426 
L 357.898084 201.625426 
L 358.031504 181.109091 
L 359.232282 181.109091 
L 359.365702 201.625426 
L 360.56648 201.625426 
L 360.699899 181.109091 
L 363.234875 181.109091 
L 363.368295 201.625426 
L 364.569073 201.625426 
L 364.702493 181.109091 
L 365.903271 181.109091 
L 366.03669 201.625426 
L 367.237468 201.625426 
L 367.370888 181.109091 
L 368.571666 181.109091 
L 368.705086 201.625426 
L 369.905864 201.625426 
L 370.039284 181.109091 
L 371.240062 181.109091 
L 371.373481 201.625426 
L 372.574259 201.625426 
L 372.707679 181.109091 
L 373.908457 181.109091 
L 374.041877 201.625426 
L 375.242655 201.625426 
L 375.376075 181.109091 
L 376.576852 181.109091 
L 376.710272 201.625426 
L 377.91105 201.625426 
L 378.04447 181.109091 
L 379.245248 181.109091 
L 379.378668 201.625426 
L 380.579446 201.625426 
L 380.712865 181.109091 
L 381.913643 181.109091 
L 382.047063 201.625426 
L 383.247841 201.625426 
L 383.381261 181.109091 
L 384.582039 181.109091 
L 384.715459 201.625426 
L 385.916237 201.625426 
L 386.049656 181.109091 
L 387.250434 181.109091 
L 387.383854 201.625426 
L 388.584632 201.625426 
L 388.718052 181.109091 
L 389.91883 181.109091 
L 390.05225 201.625426 
L 391.253028 201.625426 
L 391.386447 181.109091 
L 392.587225 181.109091 
L 392.720645 201.625426 
L 393.921423 201.625426 
L 394.054843 181.109091 
L 395.255621 181.109091 
L 395.389041 201.625426 
L 396.589819 201.625426 
L 396.723238 181.109091 
L 397.790597 181.109091 
L 397.790597 181.109091 
" clip-path="url(#p1c6a4f9872)" style="fill: none; stroke: #1f77b4; stroke-width: 1.5; stroke-linecap: square"/>
   </g>
   <g id="patch_8">
    <path d="M 49.104688 314.44 
L 49.104688 174.76 
" style="fill: none; stroke: #000000; stroke-width: 0.8; stroke-linejoin: miter; stroke-linecap: square"/>
   </g>
   <g id="patch_9">
    <path d="M 414.394687 314.44 
L 414.394687 174.76 
" style="fill: none; stroke: #000000; stroke-width: 0.8; stroke-linejoin: miter; stroke-linecap: square"/>
   </g>
   <g id="patch_10">
    <path d="M 49.104687 314.44 
L 414.394688 314.44 
" style="fill: none; stroke: #000000; stroke-width: 0.8; stroke-linejoin: miter; stroke-linecap: square"/>
   </g>
   <g id="patch_11">
    <path d="M 49.104687 174.76 
L 414.394688 174.76 
" style="fill: none; stroke: #000000; stroke-width: 0.8; stroke-linejoin: miter; stroke-linecap: square"/>
   </g>
   <g id="legend_1">
    <g id="patch_12">
     <path d="M 56.104688 197.438125 
L 96.104688 197.438125 
Q 98.104688 197.438125 98.104688 195.438125 
L 98.104688 181.76 
Q 98.104688 179.76 96.104688 179.76 
L 56.104688 179.76 
Q 54.104688 179.76 54.104688 181.76 
L 54.104688 195.438125 
Q 54.104688 197.438125 56.104688 197.438125 
z
" style="fill: #ffffff; opacity: 0.8; stroke: #cccccc; stroke-linejoin: miter"/>
    </g>
    <g id="line2d_41">
     <path d="M 58.104688 187.858437 
L 68.104688 187.858437 
L 78.104688 187.858437 
" style="fill: none; stroke: #1f77b4; stroke-width: 1.5; stroke-linecap: square"/>
    </g>
    <g id="text_23">
     <!-- $f_x$ -->
     <g transform="translate(86.104688 191.358437)scale(0.1 -0.1)">
      <defs>
       <path id="DejaVuSans-Oblique-66" d="M 3059 4863 
L 2969 4384 
L 2419 4384 
Q 2106 4384 1964 4261 
Q 1822 4138 1753 3809 
L 1691 3500 
L 2638 3500 
L 2553 3053 
L 1606 3053 
L 1013 0 
L 434 0 
L 1031 3053 
L 481 3053 
L 563 3500 
L 1113 3500 
L 1159 3744 
Q 1278 4363 1576 4613 
Q 1875 4863 2516 4863 
L 3059 4863 
z
" transform="scale(0.015625)"/>
       <path id="DejaVuSans-Oblique-78" d="M 3841 3500 
L 2234 1784 
L 3219 0 
L 2559 0 
L 1819 1388 
L 531 0 
L -166 0 
L 1556 1844 
L 641 3500 
L 1300 3500 
L 1972 2234 
L 3144 3500 
L 3841 3500 
z
" transform="scale(0.015625)"/>
      </defs>
      <use xlink:href="#DejaVuSans-Oblique-66" transform="translate(0 0.015625)"/>
      <use xlink:href="#DejaVuSans-Oblique-78" transform="translate(35.205078 -16.390625)scale(0.7)"/>
     </g>
    </g>
   </g>
  </g>
 </g>
 <defs>
  <clipPath id="pac341e3644">
   <rect x="49.104688" y="7.2" width="365.29" height="139.68"/>
  </clipPath>
  <clipPath id="p1c6a4f9872">
   <rect x="49.104688" y="174.76" width="365.29" height="139.68"/>
  </clipPath>
 </defs>
</svg>
