<?xml version="1.0" encoding="utf-8" standalone="no"?>
<!DOCTYPE svg PUBLIC "-//W3C//DTD SVG 1.1//EN"
  "http://www.w3.org/Graphics/SVG/1.1/DTD/svg11.dtd">
<svg xmlns:xlink="http://www.w3.org/1999/xlink" width="421.594687pt" height="351.646723pt" viewBox="0 0 421.594687 351.646723" xmlns="http://www.w3.org/2000/svg" version="1.1">
 <metadata>
  <rdf:RDF xmlns:dc="http://purl.org/dc/elements/1.1/" xmlns:cc="http://creativecommons.org/ns#" xmlns:rdf="http://www.w3.org/1999/02/22-rdf-syntax-ns#">
   <cc:Work>
    <dc:type rdf:resource="http://purl.org/dc/dcmitype/StillImage"/>
    <dc:date>2023-02-02T07:20:34.001416</dc:date>
    <dc:format>image/svg+xml</dc:format>
    <dc:creator>
     <cc:Agent>
      <dc:title>Matplotlib v3.5.2, https://matplotlib.org/</dc:title>
     </cc:Agent>
    </dc:creator>
   </cc:Work>
  </rdf:RDF>
 </metadata>
 <defs>
  <style type="text/css">*{stroke-linejoin: round; stroke-linecap: butt}</style>
 </defs>
 <g id="figure_1">
  <g id="patch_1">
   <path d="M 0 351.646723 
L 421.594687 351.646723 
L 421.594687 0 
L 0 0 
z
" style="fill: #ffffff"/>
  </g>
  <g id="axes_1">
   <g id="patch_2">
    <path d="M 49.104688 147.569781 
L 414.394687 147.569781 
L 414.394687 8.92909 
L 49.104688 8.92909 
z
" style="fill: #ffffff"/>
   </g>
   <g id="matplotlib.axis_1">
    <g id="xtick_1">
     <g id="line2d_1">
      <path d="M 65.708778 147.569781 
L 65.708778 8.92909 
" clip-path="url(#pcfb34a1eb0)" style="fill: none; stroke: #b0b0b0; stroke-width: 0.8; stroke-linecap: square"/>
     </g>
     <g id="line2d_2">
      <defs>
       <path id="m3374b7600b" d="M 0 0 
L 0 3.5 
" style="stroke: #000000; stroke-width: 0.8"/>
      </defs>
      <g>
       <use xlink:href="#m3374b7600b" x="65.708778" y="147.569781" style="stroke: #000000; stroke-width: 0.8"/>
      </g>
     </g>
     <g id="text_1">
      <!-- 0 -->
      <g transform="translate(62.527528 162.168219)scale(0.1 -0.1)">
       <defs>
        <path id="DejaVuSans-30" d="M 2034 4250 
Q 1547 4250 1301 3770 
Q 1056 3291 1056 2328 
Q 1056 1369 1301 889 
Q 1547 409 2034 409 
Q 2525 409 2770 889 
Q 3016 1369 3016 2328 
Q 3016 3291 2770 3770 
Q 2525 4250 2034 4250 
z
M 2034 4750 
Q 2819 4750 3233 4129 
Q 3647 3509 3647 2328 
Q 3647 1150 3233 529 
Q 2819 -91 2034 -91 
Q 1250 -91 836 529 
Q 422 1150 422 2328 
Q 422 3509 836 4129 
Q 1250 4750 2034 4750 
z
" transform="scale(0.015625)"/>
       </defs>
       <use xlink:href="#DejaVuSans-30"/>
      </g>
     </g>
    </g>
    <g id="xtick_2">
     <g id="line2d_3">
      <path d="M 132.418666 147.569781 
L 132.418666 8.92909 
" clip-path="url(#pcfb34a1eb0)" style="fill: none; stroke: #b0b0b0; stroke-width: 0.8; stroke-linecap: square"/>
     </g>
     <g id="line2d_4">
      <g>
       <use xlink:href="#m3374b7600b" x="132.418666" y="147.569781" style="stroke: #000000; stroke-width: 0.8"/>
      </g>
     </g>
     <g id="text_2">
      <!-- 5 -->
      <g transform="translate(129.237416 162.168219)scale(0.1 -0.1)">
       <defs>
        <path id="DejaVuSans-35" d="M 691 4666 
L 3169 4666 
L 3169 4134 
L 1269 4134 
L 1269 2991 
Q 1406 3038 1543 3061 
Q 1681 3084 1819 3084 
Q 2600 3084 3056 2656 
Q 3513 2228 3513 1497 
Q 3513 744 3044 326 
Q 2575 -91 1722 -91 
Q 1428 -91 1123 -41 
Q 819 9 494 109 
L 494 744 
Q 775 591 1075 516 
Q 1375 441 1709 441 
Q 2250 441 2565 725 
Q 2881 1009 2881 1497 
Q 2881 1984 2565 2268 
Q 2250 2553 1709 2553 
Q 1456 2553 1204 2497 
Q 953 2441 691 2322 
L 691 4666 
z
" transform="scale(0.015625)"/>
       </defs>
       <use xlink:href="#DejaVuSans-35"/>
      </g>
     </g>
    </g>
    <g id="xtick_3">
     <g id="line2d_5">
      <path d="M 199.128553 147.569781 
L 199.128553 8.92909 
" clip-path="url(#pcfb34a1eb0)" style="fill: none; stroke: #b0b0b0; stroke-width: 0.8; stroke-linecap: square"/>
     </g>
     <g id="line2d_6">
      <g>
       <use xlink:href="#m3374b7600b" x="199.128553" y="147.569781" style="stroke: #000000; stroke-width: 0.8"/>
      </g>
     </g>
     <g id="text_3">
      <!-- 10 -->
      <g transform="translate(192.766053 162.168219)scale(0.1 -0.1)">
       <defs>
        <path id="DejaVuSans-31" d="M 794 531 
L 1825 531 
L 1825 4091 
L 703 3866 
L 703 4441 
L 1819 4666 
L 2450 4666 
L 2450 531 
L 3481 531 
L 3481 0 
L 794 0 
L 794 531 
z
" transform="scale(0.015625)"/>
       </defs>
       <use xlink:href="#DejaVuSans-31"/>
       <use xlink:href="#DejaVuSans-30" x="63.623047"/>
      </g>
     </g>
    </g>
    <g id="xtick_4">
     <g id="line2d_7">
      <path d="M 265.83844 147.569781 
L 265.83844 8.92909 
" clip-path="url(#pcfb34a1eb0)" style="fill: none; stroke: #b0b0b0; stroke-width: 0.8; stroke-linecap: square"/>
     </g>
     <g id="line2d_8">
      <g>
       <use xlink:href="#m3374b7600b" x="265.83844" y="147.569781" style="stroke: #000000; stroke-width: 0.8"/>
      </g>
     </g>
     <g id="text_4">
      <!-- 15 -->
      <g transform="translate(259.47594 162.168219)scale(0.1 -0.1)">
       <use xlink:href="#DejaVuSans-31"/>
       <use xlink:href="#DejaVuSans-35" x="63.623047"/>
      </g>
     </g>
    </g>
    <g id="xtick_5">
     <g id="line2d_9">
      <path d="M 332.548327 147.569781 
L 332.548327 8.92909 
" clip-path="url(#pcfb34a1eb0)" style="fill: none; stroke: #b0b0b0; stroke-width: 0.8; stroke-linecap: square"/>
     </g>
     <g id="line2d_10">
      <g>
       <use xlink:href="#m3374b7600b" x="332.548327" y="147.569781" style="stroke: #000000; stroke-width: 0.8"/>
      </g>
     </g>
     <g id="text_5">
      <!-- 20 -->
      <g transform="translate(326.185827 162.168219)scale(0.1 -0.1)">
       <defs>
        <path id="DejaVuSans-32" d="M 1228 531 
L 3431 531 
L 3431 0 
L 469 0 
L 469 531 
Q 828 903 1448 1529 
Q 2069 2156 2228 2338 
Q 2531 2678 2651 2914 
Q 2772 3150 2772 3378 
Q 2772 3750 2511 3984 
Q 2250 4219 1831 4219 
Q 1534 4219 1204 4116 
Q 875 4013 500 3803 
L 500 4441 
Q 881 4594 1212 4672 
Q 1544 4750 1819 4750 
Q 2544 4750 2975 4387 
Q 3406 4025 3406 3419 
Q 3406 3131 3298 2873 
Q 3191 2616 2906 2266 
Q 2828 2175 2409 1742 
Q 1991 1309 1228 531 
z
" transform="scale(0.015625)"/>
       </defs>
       <use xlink:href="#DejaVuSans-32"/>
       <use xlink:href="#DejaVuSans-30" x="63.623047"/>
      </g>
     </g>
    </g>
    <g id="xtick_6">
     <g id="line2d_11">
      <path d="M 399.258214 147.569781 
L 399.258214 8.92909 
" clip-path="url(#pcfb34a1eb0)" style="fill: none; stroke: #b0b0b0; stroke-width: 0.8; stroke-linecap: square"/>
     </g>
     <g id="line2d_12">
      <g>
       <use xlink:href="#m3374b7600b" x="399.258214" y="147.569781" style="stroke: #000000; stroke-width: 0.8"/>
      </g>
     </g>
     <g id="text_6">
      <!-- 25 -->
      <g transform="translate(392.895714 162.168219)scale(0.1 -0.1)">
       <use xlink:href="#DejaVuSans-32"/>
       <use xlink:href="#DejaVuSans-35" x="63.623047"/>
      </g>
     </g>
    </g>
   </g>
   <g id="matplotlib.axis_2">
    <g id="ytick_1">
     <g id="line2d_13">
      <path d="M 49.104688 141.267932 
L 414.394687 141.267932 
" clip-path="url(#pcfb34a1eb0)" style="fill: none; stroke: #b0b0b0; stroke-width: 0.8; stroke-linecap: square"/>
     </g>
     <g id="line2d_14">
      <defs>
       <path id="m88ca607e6f" d="M 0 0 
L -3.5 0 
" style="stroke: #000000; stroke-width: 0.8"/>
      </defs>
      <g>
       <use xlink:href="#m88ca607e6f" x="49.104688" y="141.267932" style="stroke: #000000; stroke-width: 0.8"/>
      </g>
     </g>
     <g id="text_7">
      <!-- −10 -->
      <g transform="translate(21 145.06715)scale(0.1 -0.1)">
       <defs>
        <path id="DejaVuSans-2212" d="M 678 2272 
L 4684 2272 
L 4684 1741 
L 678 1741 
L 678 2272 
z
" transform="scale(0.015625)"/>
       </defs>
       <use xlink:href="#DejaVuSans-2212"/>
       <use xlink:href="#DejaVuSans-31" x="83.789062"/>
       <use xlink:href="#DejaVuSans-30" x="147.412109"/>
      </g>
     </g>
    </g>
    <g id="ytick_2">
     <g id="line2d_15">
      <path d="M 49.104688 97.845027 
L 414.394687 97.845027 
" clip-path="url(#pcfb34a1eb0)" style="fill: none; stroke: #b0b0b0; stroke-width: 0.8; stroke-linecap: square"/>
     </g>
     <g id="line2d_16">
      <g>
       <use xlink:href="#m88ca607e6f" x="49.104688" y="97.845027" style="stroke: #000000; stroke-width: 0.8"/>
      </g>
     </g>
     <g id="text_8">
      <!-- −5 -->
      <g transform="translate(27.3625 101.644246)scale(0.1 -0.1)">
       <use xlink:href="#DejaVuSans-2212"/>
       <use xlink:href="#DejaVuSans-35" x="83.789062"/>
      </g>
     </g>
    </g>
    <g id="ytick_3">
     <g id="line2d_17">
      <path d="M 49.104688 54.422123 
L 414.394687 54.422123 
" clip-path="url(#pcfb34a1eb0)" style="fill: none; stroke: #b0b0b0; stroke-width: 0.8; stroke-linecap: square"/>
     </g>
     <g id="line2d_18">
      <g>
       <use xlink:href="#m88ca607e6f" x="49.104688" y="54.422123" style="stroke: #000000; stroke-width: 0.8"/>
      </g>
     </g>
     <g id="text_9">
      <!-- 0 -->
      <g transform="translate(35.742188 58.221342)scale(0.1 -0.1)">
       <use xlink:href="#DejaVuSans-30"/>
      </g>
     </g>
    </g>
    <g id="ytick_4">
     <g id="line2d_19">
      <path d="M 49.104688 10.999219 
L 414.394687 10.999219 
" clip-path="url(#pcfb34a1eb0)" style="fill: none; stroke: #b0b0b0; stroke-width: 0.8; stroke-linecap: square"/>
     </g>
     <g id="line2d_20">
      <g>
       <use xlink:href="#m88ca607e6f" x="49.104688" y="10.999219" style="stroke: #000000; stroke-width: 0.8"/>
      </g>
     </g>
     <g id="text_10">
      <!-- 5 -->
      <g transform="translate(35.742188 14.798438)scale(0.1 -0.1)">
       <use xlink:href="#DejaVuSans-35"/>
      </g>
     </g>
    </g>
    <g id="text_11">
     <!-- Angle $\theta\; (º)$ -->
     <g transform="translate(14.9 104.749435)rotate(-90)scale(0.1 -0.1)">
      <defs>
       <path id="DejaVuSans-41" d="M 2188 4044 
L 1331 1722 
L 3047 1722 
L 2188 4044 
z
M 1831 4666 
L 2547 4666 
L 4325 0 
L 3669 0 
L 3244 1197 
L 1141 1197 
L 716 0 
L 50 0 
L 1831 4666 
z
" transform="scale(0.015625)"/>
       <path id="DejaVuSans-6e" d="M 3513 2113 
L 3513 0 
L 2938 0 
L 2938 2094 
Q 2938 2591 2744 2837 
Q 2550 3084 2163 3084 
Q 1697 3084 1428 2787 
Q 1159 2491 1159 1978 
L 1159 0 
L 581 0 
L 581 3500 
L 1159 3500 
L 1159 2956 
Q 1366 3272 1645 3428 
Q 1925 3584 2291 3584 
Q 2894 3584 3203 3211 
Q 3513 2838 3513 2113 
z
" transform="scale(0.015625)"/>
       <path id="DejaVuSans-67" d="M 2906 1791 
Q 2906 2416 2648 2759 
Q 2391 3103 1925 3103 
Q 1463 3103 1205 2759 
Q 947 2416 947 1791 
Q 947 1169 1205 825 
Q 1463 481 1925 481 
Q 2391 481 2648 825 
Q 2906 1169 2906 1791 
z
M 3481 434 
Q 3481 -459 3084 -895 
Q 2688 -1331 1869 -1331 
Q 1566 -1331 1297 -1286 
Q 1028 -1241 775 -1147 
L 775 -588 
Q 1028 -725 1275 -790 
Q 1522 -856 1778 -856 
Q 2344 -856 2625 -561 
Q 2906 -266 2906 331 
L 2906 616 
Q 2728 306 2450 153 
Q 2172 0 1784 0 
Q 1141 0 747 490 
Q 353 981 353 1791 
Q 353 2603 747 3093 
Q 1141 3584 1784 3584 
Q 2172 3584 2450 3431 
Q 2728 3278 2906 2969 
L 2906 3500 
L 3481 3500 
L 3481 434 
z
" transform="scale(0.015625)"/>
       <path id="DejaVuSans-6c" d="M 603 4863 
L 1178 4863 
L 1178 0 
L 603 0 
L 603 4863 
z
" transform="scale(0.015625)"/>
       <path id="DejaVuSans-65" d="M 3597 1894 
L 3597 1613 
L 953 1613 
Q 991 1019 1311 708 
Q 1631 397 2203 397 
Q 2534 397 2845 478 
Q 3156 559 3463 722 
L 3463 178 
Q 3153 47 2828 -22 
Q 2503 -91 2169 -91 
Q 1331 -91 842 396 
Q 353 884 353 1716 
Q 353 2575 817 3079 
Q 1281 3584 2069 3584 
Q 2775 3584 3186 3129 
Q 3597 2675 3597 1894 
z
M 3022 2063 
Q 3016 2534 2758 2815 
Q 2500 3097 2075 3097 
Q 1594 3097 1305 2825 
Q 1016 2553 972 2059 
L 3022 2063 
z
" transform="scale(0.015625)"/>
       <path id="DejaVuSans-20" transform="scale(0.015625)"/>
       <path id="DejaVuSans-Oblique-3b8" d="M 2913 2219 
L 925 2219 
Q 791 1284 928 888 
Q 1100 400 1566 400 
Q 2034 400 2391 891 
Q 2703 1322 2913 2219 
z
M 3009 2750 
Q 3094 3638 2984 3950 
Q 2813 4444 2353 4444 
Q 1875 4444 1525 3956 
Q 1250 3563 1034 2750 
L 3009 2750 
z
M 2444 4913 
Q 3194 4913 3494 4250 
Q 3794 3591 3566 2422 
Q 3341 1256 2781 594 
Q 2225 -72 1475 -72 
Q 722 -72 425 594 
Q 128 1256 353 2422 
Q 581 3591 1134 4250 
Q 1691 4913 2444 4913 
z
" transform="scale(0.015625)"/>
       <path id="DejaVuSans-28" d="M 1984 4856 
Q 1566 4138 1362 3434 
Q 1159 2731 1159 2009 
Q 1159 1288 1364 580 
Q 1569 -128 1984 -844 
L 1484 -844 
Q 1016 -109 783 600 
Q 550 1309 550 2009 
Q 550 2706 781 3412 
Q 1013 4119 1484 4856 
L 1984 4856 
z
" transform="scale(0.015625)"/>
       <path id="DejaVuSans-Oblique-ba" d="M 2463 3688 
Q 2463 4031 2308 4211 
Q 2153 4391 1850 4391 
Q 1488 4391 1223 4056 
Q 959 3722 959 3250 
Q 959 2909 1114 2725 
Q 1269 2541 1556 2541 
Q 1938 2541 2200 2870 
Q 2463 3200 2463 3688 
z
M 1941 4750 
Q 2403 4750 2679 4481 
Q 2956 4213 2956 3763 
Q 2956 3075 2540 2628 
Q 2125 2181 1491 2181 
Q 1022 2181 748 2462 
Q 475 2744 475 3225 
Q 475 3438 534 3645 
Q 594 3853 709 4050 
Q 903 4381 1228 4565 
Q 1553 4750 1941 4750 
z
M 325 1850 
L 2478 1850 
L 2406 1466 
L 256 1466 
L 325 1850 
z
" transform="scale(0.015625)"/>
       <path id="DejaVuSans-29" d="M 513 4856 
L 1013 4856 
Q 1481 4119 1714 3412 
Q 1947 2706 1947 2009 
Q 1947 1309 1714 600 
Q 1481 -109 1013 -844 
L 513 -844 
Q 928 -128 1133 580 
Q 1338 1288 1338 2009 
Q 1338 2731 1133 3434 
Q 928 4138 513 4856 
z
" transform="scale(0.015625)"/>
      </defs>
      <use xlink:href="#DejaVuSans-41" transform="translate(0 0.234375)"/>
      <use xlink:href="#DejaVuSans-6e" transform="translate(68.408203 0.234375)"/>
      <use xlink:href="#DejaVuSans-67" transform="translate(131.787109 0.234375)"/>
      <use xlink:href="#DejaVuSans-6c" transform="translate(195.263672 0.234375)"/>
      <use xlink:href="#DejaVuSans-65" transform="translate(223.046875 0.234375)"/>
      <use xlink:href="#DejaVuSans-20" transform="translate(284.570312 0.234375)"/>
      <use xlink:href="#DejaVuSans-Oblique-3b8" transform="translate(316.357422 0.234375)"/>
      <use xlink:href="#DejaVuSans-28" transform="translate(404.598198 0.234375)"/>
      <use xlink:href="#DejaVuSans-Oblique-ba" transform="translate(443.61187 0.234375)"/>
      <use xlink:href="#DejaVuSans-29" transform="translate(490.731011 0.234375)"/>
     </g>
    </g>
   </g>
   <g id="line2d_21">
    <path d="M 65.708778 141.267932 
L 92.792993 141.199527 
L 93.326672 140.880923 
L 93.860351 140.303645 
L 94.52745 139.237677 
L 95.327968 137.471189 
L 96.261907 134.78569 
L 97.329265 130.956575 
L 98.530043 125.787942 
L 99.99766 118.421189 
L 101.865537 107.749052 
L 104.400513 91.822423 
L 109.737304 57.99658 
L 111.87202 46.070636 
L 113.606477 37.568726 
L 115.207515 30.833021 
L 116.541712 26.107373 
L 117.74249 22.575932 
L 118.943268 19.742058 
L 120.010627 17.81026 
L 120.944565 16.569031 
L 121.745084 15.83119 
L 122.545602 15.387903 
L 123.212701 15.237662 
L 123.8798 15.278897 
L 124.680319 15.574043 
L 125.480837 16.122549 
L 126.414776 17.066923 
L 127.482134 18.516105 
L 128.682912 20.571641 
L 130.01711 23.31524 
L 131.618147 27.13168 
L 133.752863 32.865738 
L 137.622037 44.091931 
L 140.824111 53.063929 
L 142.958828 58.407685 
L 144.693285 62.208221 
L 146.294322 65.212544 
L 147.76194 67.503595 
L 149.096137 69.184582 
L 150.296915 70.364687 
L 151.497693 71.230425 
L 152.565051 71.740585 
L 153.63241 72.01386 
L 154.699768 72.059071 
L 155.767126 71.887959 
L 156.967904 71.454242 
L 158.168682 70.786284 
L 159.50288 69.798958 
L 161.103917 68.322547 
L 162.971794 66.280424 
L 165.50677 63.140316 
L 172.711437 53.980036 
L 174.846154 51.70723 
L 176.714031 50.015787 
L 178.448488 48.726624 
L 180.049525 47.793055 
L 181.650562 47.111619 
L 183.2516 46.680695 
L 184.852637 46.491779 
L 186.453674 46.530816 
L 188.188131 46.808176 
L 190.056008 47.347084 
L 192.190724 48.213938 
L 194.7257 49.499664 
L 198.728293 51.820415 
L 203.397985 54.4681 
L 206.199801 55.805677 
L 208.734776 56.767619 
L 211.002913 57.398707 
L 213.271049 57.802639 
L 215.539185 57.98315 
L 217.940741 57.947806 
L 220.475717 57.689777 
L 223.410952 57.166146 
L 227.413545 56.202893 
L 236.486089 53.937964 
L 240.088423 53.313221 
L 243.423918 52.955511 
L 246.759412 52.816683 
L 250.361746 52.890106 
L 254.631179 53.210145 
L 261.435587 53.984319 
L 268.907095 54.764748 
L 273.977046 55.06698 
L 279.046997 55.143752 
L 284.917468 54.996961 
L 296.791827 54.396972 
L 304.930434 54.132421 
L 312.535361 54.114006 
L 323.876042 54.344946 
L 337.484859 54.562169 
L 349.892898 54.510359 
L 375.242655 54.361455 
L 397.790597 54.448388 
L 397.790597 54.448388 
" clip-path="url(#pcfb34a1eb0)" style="fill: none; stroke: #1f77b4; stroke-width: 1.5; stroke-linecap: square"/>
   </g>
   <g id="patch_3">
    <path d="M 49.104688 147.569781 
L 49.104688 8.92909 
" style="fill: none; stroke: #000000; stroke-width: 0.8; stroke-linejoin: miter; stroke-linecap: square"/>
   </g>
   <g id="patch_4">
    <path d="M 414.394687 147.569781 
L 414.394687 8.92909 
" style="fill: none; stroke: #000000; stroke-width: 0.8; stroke-linejoin: miter; stroke-linecap: square"/>
   </g>
   <g id="patch_5">
    <path d="M 49.104687 147.569781 
L 414.394688 147.569781 
" style="fill: none; stroke: #000000; stroke-width: 0.8; stroke-linejoin: miter; stroke-linecap: square"/>
   </g>
   <g id="patch_6">
    <path d="M 49.104687 8.92909 
L 414.394688 8.92909 
" style="fill: none; stroke: #000000; stroke-width: 0.8; stroke-linejoin: miter; stroke-linecap: square"/>
   </g>
  </g>
  <g id="axes_2">
   <g id="patch_7">
    <path d="M 49.104688 314.090473 
L 414.394687 314.090473 
L 414.394687 175.449781 
L 49.104688 175.449781 
z
" style="fill: #ffffff"/>
   </g>
   <g id="matplotlib.axis_3">
    <g id="xtick_7">
     <g id="line2d_22">
      <path d="M 65.708778 314.090473 
L 65.708778 175.449781 
" clip-path="url(#p09ecf7cfd3)" style="fill: none; stroke: #b0b0b0; stroke-width: 0.8; stroke-linecap: square"/>
     </g>
     <g id="line2d_23">
      <g>
       <use xlink:href="#m3374b7600b" x="65.708778" y="314.090473" style="stroke: #000000; stroke-width: 0.8"/>
      </g>
     </g>
     <g id="text_12">
      <!-- 0 -->
      <g transform="translate(62.527528 328.68891)scale(0.1 -0.1)">
       <use xlink:href="#DejaVuSans-30"/>
      </g>
     </g>
    </g>
    <g id="xtick_8">
     <g id="line2d_24">
      <path d="M 132.418666 314.090473 
L 132.418666 175.449781 
" clip-path="url(#p09ecf7cfd3)" style="fill: none; stroke: #b0b0b0; stroke-width: 0.8; stroke-linecap: square"/>
     </g>
     <g id="line2d_25">
      <g>
       <use xlink:href="#m3374b7600b" x="132.418666" y="314.090473" style="stroke: #000000; stroke-width: 0.8"/>
      </g>
     </g>
     <g id="text_13">
      <!-- 5 -->
      <g transform="translate(129.237416 328.68891)scale(0.1 -0.1)">
       <use xlink:href="#DejaVuSans-35"/>
      </g>
     </g>
    </g>
    <g id="xtick_9">
     <g id="line2d_26">
      <path d="M 199.128553 314.090473 
L 199.128553 175.449781 
" clip-path="url(#p09ecf7cfd3)" style="fill: none; stroke: #b0b0b0; stroke-width: 0.8; stroke-linecap: square"/>
     </g>
     <g id="line2d_27">
      <g>
       <use xlink:href="#m3374b7600b" x="199.128553" y="314.090473" style="stroke: #000000; stroke-width: 0.8"/>
      </g>
     </g>
     <g id="text_14">
      <!-- 10 -->
      <g transform="translate(192.766053 328.68891)scale(0.1 -0.1)">
       <use xlink:href="#DejaVuSans-31"/>
       <use xlink:href="#DejaVuSans-30" x="63.623047"/>
      </g>
     </g>
    </g>
    <g id="xtick_10">
     <g id="line2d_28">
      <path d="M 265.83844 314.090473 
L 265.83844 175.449781 
" clip-path="url(#p09ecf7cfd3)" style="fill: none; stroke: #b0b0b0; stroke-width: 0.8; stroke-linecap: square"/>
     </g>
     <g id="line2d_29">
      <g>
       <use xlink:href="#m3374b7600b" x="265.83844" y="314.090473" style="stroke: #000000; stroke-width: 0.8"/>
      </g>
     </g>
     <g id="text_15">
      <!-- 15 -->
      <g transform="translate(259.47594 328.68891)scale(0.1 -0.1)">
       <use xlink:href="#DejaVuSans-31"/>
       <use xlink:href="#DejaVuSans-35" x="63.623047"/>
      </g>
     </g>
    </g>
    <g id="xtick_11">
     <g id="line2d_30">
      <path d="M 332.548327 314.090473 
L 332.548327 175.449781 
" clip-path="url(#p09ecf7cfd3)" style="fill: none; stroke: #b0b0b0; stroke-width: 0.8; stroke-linecap: square"/>
     </g>
     <g id="line2d_31">
      <g>
       <use xlink:href="#m3374b7600b" x="332.548327" y="314.090473" style="stroke: #000000; stroke-width: 0.8"/>
      </g>
     </g>
     <g id="text_16">
      <!-- 20 -->
      <g transform="translate(326.185827 328.68891)scale(0.1 -0.1)">
       <use xlink:href="#DejaVuSans-32"/>
       <use xlink:href="#DejaVuSans-30" x="63.623047"/>
      </g>
     </g>
    </g>
    <g id="xtick_12">
     <g id="line2d_32">
      <path d="M 399.258214 314.090473 
L 399.258214 175.449781 
" clip-path="url(#p09ecf7cfd3)" style="fill: none; stroke: #b0b0b0; stroke-width: 0.8; stroke-linecap: square"/>
     </g>
     <g id="line2d_33">
      <g>
       <use xlink:href="#m3374b7600b" x="399.258214" y="314.090473" style="stroke: #000000; stroke-width: 0.8"/>
      </g>
     </g>
     <g id="text_17">
      <!-- 25 -->
      <g transform="translate(392.895714 328.68891)scale(0.1 -0.1)">
       <use xlink:href="#DejaVuSans-32"/>
       <use xlink:href="#DejaVuSans-35" x="63.623047"/>
      </g>
     </g>
    </g>
    <g id="text_18">
     <!-- Time (s) -->
     <g transform="translate(211.420781 342.367035)scale(0.1 -0.1)">
      <defs>
       <path id="DejaVuSans-54" d="M -19 4666 
L 3928 4666 
L 3928 4134 
L 2272 4134 
L 2272 0 
L 1638 0 
L 1638 4134 
L -19 4134 
L -19 4666 
z
" transform="scale(0.015625)"/>
       <path id="DejaVuSans-69" d="M 603 3500 
L 1178 3500 
L 1178 0 
L 603 0 
L 603 3500 
z
M 603 4863 
L 1178 4863 
L 1178 4134 
L 603 4134 
L 603 4863 
z
" transform="scale(0.015625)"/>
       <path id="DejaVuSans-6d" d="M 3328 2828 
Q 3544 3216 3844 3400 
Q 4144 3584 4550 3584 
Q 5097 3584 5394 3201 
Q 5691 2819 5691 2113 
L 5691 0 
L 5113 0 
L 5113 2094 
Q 5113 2597 4934 2840 
Q 4756 3084 4391 3084 
Q 3944 3084 3684 2787 
Q 3425 2491 3425 1978 
L 3425 0 
L 2847 0 
L 2847 2094 
Q 2847 2600 2669 2842 
Q 2491 3084 2119 3084 
Q 1678 3084 1418 2786 
Q 1159 2488 1159 1978 
L 1159 0 
L 581 0 
L 581 3500 
L 1159 3500 
L 1159 2956 
Q 1356 3278 1631 3431 
Q 1906 3584 2284 3584 
Q 2666 3584 2933 3390 
Q 3200 3197 3328 2828 
z
" transform="scale(0.015625)"/>
       <path id="DejaVuSans-73" d="M 2834 3397 
L 2834 2853 
Q 2591 2978 2328 3040 
Q 2066 3103 1784 3103 
Q 1356 3103 1142 2972 
Q 928 2841 928 2578 
Q 928 2378 1081 2264 
Q 1234 2150 1697 2047 
L 1894 2003 
Q 2506 1872 2764 1633 
Q 3022 1394 3022 966 
Q 3022 478 2636 193 
Q 2250 -91 1575 -91 
Q 1294 -91 989 -36 
Q 684 19 347 128 
L 347 722 
Q 666 556 975 473 
Q 1284 391 1588 391 
Q 1994 391 2212 530 
Q 2431 669 2431 922 
Q 2431 1156 2273 1281 
Q 2116 1406 1581 1522 
L 1381 1569 
Q 847 1681 609 1914 
Q 372 2147 372 2553 
Q 372 3047 722 3315 
Q 1072 3584 1716 3584 
Q 2034 3584 2315 3537 
Q 2597 3491 2834 3397 
z
" transform="scale(0.015625)"/>
      </defs>
      <use xlink:href="#DejaVuSans-54"/>
      <use xlink:href="#DejaVuSans-69" x="57.958984"/>
      <use xlink:href="#DejaVuSans-6d" x="85.742188"/>
      <use xlink:href="#DejaVuSans-65" x="183.154297"/>
      <use xlink:href="#DejaVuSans-20" x="244.677734"/>
      <use xlink:href="#DejaVuSans-28" x="276.464844"/>
      <use xlink:href="#DejaVuSans-73" x="315.478516"/>
      <use xlink:href="#DejaVuSans-29" x="367.578125"/>
     </g>
    </g>
   </g>
   <g id="matplotlib.axis_4">
    <g id="ytick_5">
     <g id="line2d_34">
      <path d="M 49.104688 307.784172 
L 414.394687 307.784172 
" clip-path="url(#p09ecf7cfd3)" style="fill: none; stroke: #b0b0b0; stroke-width: 0.8; stroke-linecap: square"/>
     </g>
     <g id="line2d_35">
      <g>
       <use xlink:href="#m88ca607e6f" x="49.104688" y="307.784172" style="stroke: #000000; stroke-width: 0.8"/>
      </g>
     </g>
     <g id="text_19">
      <!-- 0 -->
      <g transform="translate(35.742188 311.58339)scale(0.1 -0.1)">
       <use xlink:href="#DejaVuSans-30"/>
      </g>
     </g>
    </g>
    <g id="ytick_6">
     <g id="line2d_36">
      <path d="M 49.104688 280.731092 
L 414.394687 280.731092 
" clip-path="url(#p09ecf7cfd3)" style="fill: none; stroke: #b0b0b0; stroke-width: 0.8; stroke-linecap: square"/>
     </g>
     <g id="line2d_37">
      <g>
       <use xlink:href="#m88ca607e6f" x="49.104688" y="280.731092" style="stroke: #000000; stroke-width: 0.8"/>
      </g>
     </g>
     <g id="text_20">
      <!-- 5 -->
      <g transform="translate(35.742188 284.530311)scale(0.1 -0.1)">
       <use xlink:href="#DejaVuSans-35"/>
      </g>
     </g>
    </g>
    <g id="ytick_7">
     <g id="line2d_38">
      <path d="M 49.104688 253.678013 
L 414.394687 253.678013 
" clip-path="url(#p09ecf7cfd3)" style="fill: none; stroke: #b0b0b0; stroke-width: 0.8; stroke-linecap: square"/>
     </g>
     <g id="line2d_39">
      <g>
       <use xlink:href="#m88ca607e6f" x="49.104688" y="253.678013" style="stroke: #000000; stroke-width: 0.8"/>
      </g>
     </g>
     <g id="text_21">
      <!-- 10 -->
      <g transform="translate(29.379688 257.477231)scale(0.1 -0.1)">
       <use xlink:href="#DejaVuSans-31"/>
       <use xlink:href="#DejaVuSans-30" x="63.623047"/>
      </g>
     </g>
    </g>
    <g id="ytick_8">
     <g id="line2d_40">
      <path d="M 49.104688 226.624933 
L 414.394687 226.624933 
" clip-path="url(#p09ecf7cfd3)" style="fill: none; stroke: #b0b0b0; stroke-width: 0.8; stroke-linecap: square"/>
     </g>
     <g id="line2d_41">
      <g>
       <use xlink:href="#m88ca607e6f" x="49.104688" y="226.624933" style="stroke: #000000; stroke-width: 0.8"/>
      </g>
     </g>
     <g id="text_22">
      <!-- 15 -->
      <g transform="translate(29.379688 230.424152)scale(0.1 -0.1)">
       <use xlink:href="#DejaVuSans-31"/>
       <use xlink:href="#DejaVuSans-35" x="63.623047"/>
      </g>
     </g>
    </g>
    <g id="ytick_9">
     <g id="line2d_42">
      <path d="M 49.104688 199.571854 
L 414.394687 199.571854 
" clip-path="url(#p09ecf7cfd3)" style="fill: none; stroke: #b0b0b0; stroke-width: 0.8; stroke-linecap: square"/>
     </g>
     <g id="line2d_43">
      <g>
       <use xlink:href="#m88ca607e6f" x="49.104688" y="199.571854" style="stroke: #000000; stroke-width: 0.8"/>
      </g>
     </g>
     <g id="text_23">
      <!-- 20 -->
      <g transform="translate(29.379688 203.371073)scale(0.1 -0.1)">
       <use xlink:href="#DejaVuSans-32"/>
       <use xlink:href="#DejaVuSans-30" x="63.623047"/>
      </g>
     </g>
    </g>
    <g id="text_24">
     <!-- Energy (J) -->
     <g transform="translate(23.3 269.242002)rotate(-90)scale(0.1 -0.1)">
      <defs>
       <path id="DejaVuSans-45" d="M 628 4666 
L 3578 4666 
L 3578 4134 
L 1259 4134 
L 1259 2753 
L 3481 2753 
L 3481 2222 
L 1259 2222 
L 1259 531 
L 3634 531 
L 3634 0 
L 628 0 
L 628 4666 
z
" transform="scale(0.015625)"/>
       <path id="DejaVuSans-72" d="M 2631 2963 
Q 2534 3019 2420 3045 
Q 2306 3072 2169 3072 
Q 1681 3072 1420 2755 
Q 1159 2438 1159 1844 
L 1159 0 
L 581 0 
L 581 3500 
L 1159 3500 
L 1159 2956 
Q 1341 3275 1631 3429 
Q 1922 3584 2338 3584 
Q 2397 3584 2469 3576 
Q 2541 3569 2628 3553 
L 2631 2963 
z
" transform="scale(0.015625)"/>
       <path id="DejaVuSans-79" d="M 2059 -325 
Q 1816 -950 1584 -1140 
Q 1353 -1331 966 -1331 
L 506 -1331 
L 506 -850 
L 844 -850 
Q 1081 -850 1212 -737 
Q 1344 -625 1503 -206 
L 1606 56 
L 191 3500 
L 800 3500 
L 1894 763 
L 2988 3500 
L 3597 3500 
L 2059 -325 
z
" transform="scale(0.015625)"/>
       <path id="DejaVuSans-4a" d="M 628 4666 
L 1259 4666 
L 1259 325 
Q 1259 -519 939 -900 
Q 619 -1281 -91 -1281 
L -331 -1281 
L -331 -750 
L -134 -750 
Q 284 -750 456 -515 
Q 628 -281 628 325 
L 628 4666 
z
" transform="scale(0.015625)"/>
      </defs>
      <use xlink:href="#DejaVuSans-45"/>
      <use xlink:href="#DejaVuSans-6e" x="63.183594"/>
      <use xlink:href="#DejaVuSans-65" x="126.5625"/>
      <use xlink:href="#DejaVuSans-72" x="188.085938"/>
      <use xlink:href="#DejaVuSans-67" x="227.449219"/>
      <use xlink:href="#DejaVuSans-79" x="290.925781"/>
      <use xlink:href="#DejaVuSans-20" x="350.105469"/>
      <use xlink:href="#DejaVuSans-28" x="381.892578"/>
      <use xlink:href="#DejaVuSans-4a" x="420.90625"/>
      <use xlink:href="#DejaVuSans-29" x="450.398438"/>
     </g>
    </g>
   </g>
   <g id="line2d_44">
    <path d="M 65.708778 307.784172 
L 92.659573 307.699169 
L 93.059832 307.219541 
L 93.460091 306.319995 
L 94.12719 304.01739 
L 94.794289 300.80503 
L 95.861647 294.22062 
L 97.329265 283.207304 
L 100.2645 260.327424 
L 101.331858 253.428698 
L 102.265797 248.439769 
L 103.199735 244.595568 
L 104.000254 242.377556 
L 104.533933 241.396617 
L 105.067612 240.887013 
L 105.467871 240.768944 
L 105.86813 240.883683 
L 106.26839 241.237628 
L 106.802069 242.05767 
L 107.469168 243.594856 
L 108.136267 245.687058 
L 109.070205 249.385343 
L 110.270983 255.266219 
L 111.87202 264.395755 
L 115.741194 287.178623 
L 117.208811 294.366733 
L 118.409589 299.191663 
L 119.476947 302.592672 
L 120.410886 304.864311 
L 121.211405 306.248198 
L 121.878503 307.067135 
L 122.545602 307.561753 
L 123.212701 307.774426 
L 123.8798 307.719535 
L 124.546899 307.42202 
L 125.347418 306.800074 
L 126.414776 305.592606 
L 127.748973 303.664853 
L 132.151826 296.922786 
L 133.219184 295.749276 
L 134.286542 294.881295 
L 135.220481 294.396733 
L 136.154419 294.187291 
L 136.954938 294.214149 
L 137.888876 294.479244 
L 138.822815 294.973845 
L 140.023593 295.899108 
L 141.49121 297.379147 
L 144.159606 300.578971 
L 146.427742 303.270154 
L 148.162199 305.032592 
L 149.496397 306.114881 
L 150.697175 306.857961 
L 151.897953 307.377588 
L 153.098731 307.680245 
L 154.432928 307.784038 
L 155.900546 307.659721 
L 157.635003 307.273403 
L 161.504176 306.044457 
L 163.772313 305.434018 
L 165.773609 305.108803 
L 167.774906 305.030518 
L 169.776202 305.185405 
L 172.044339 305.581346 
L 177.11429 306.801995 
L 180.182945 307.401797 
L 182.71792 307.690248 
L 185.519736 307.783881 
L 188.98865 307.6597 
L 198.061194 307.226369 
L 202.597467 307.319954 
L 216.339704 307.78417 
L 397.790597 307.784167 
L 397.790597 307.784167 
" clip-path="url(#p09ecf7cfd3)" style="fill: none; stroke: #1f77b4; stroke-width: 1.5; stroke-linecap: square"/>
   </g>
   <g id="line2d_45">
    <path d="M 65.708778 181.751881 
L 92.659573 181.836647 
L 93.059832 182.316465 
L 93.460091 183.216026 
L 93.993771 185.052414 
L 94.660869 188.290047 
L 95.461388 193.455486 
L 96.395326 200.992045 
L 97.596104 212.572756 
L 99.463981 233.150522 
L 102.666056 268.528139 
L 104.133673 282.159969 
L 105.334451 291.339332 
L 106.40181 297.811325 
L 107.335748 302.118507 
L 108.136267 304.81003 
L 108.803366 306.370713 
L 109.337045 307.193732 
L 109.870724 307.658302 
L 110.404403 307.786857 
L 110.804662 307.678026 
L 111.338341 307.280157 
L 112.00544 306.417346 
L 112.805959 304.924424 
L 113.739897 302.68366 
L 115.207515 298.467835 
L 118.543009 288.641247 
L 119.743787 285.868165 
L 120.677725 284.189634 
L 121.478244 283.124303 
L 122.278763 282.426363 
L 122.945862 282.125894 
L 123.61296 282.081373 
L 124.280059 282.282113 
L 124.947158 282.71905 
L 125.747677 283.529603 
L 126.681615 284.827848 
L 127.748973 286.700006 
L 129.216591 289.763253 
L 134.820221 302.048102 
L 136.154419 304.206085 
L 137.355197 305.721414 
L 138.422555 306.712185 
L 139.356494 307.306308 
L 140.290432 307.658171 
L 141.224371 307.786827 
L 142.291729 307.693141 
L 143.492507 307.333546 
L 144.960124 306.628143 
L 147.36168 305.170294 
L 149.763236 303.785927 
L 151.364273 303.101087 
L 152.831891 302.711776 
L 154.166089 302.574704 
L 155.633706 302.659313 
L 157.101324 302.964736 
L 158.835781 303.552994 
L 161.370757 304.677446 
L 165.50677 306.515226 
L 167.641486 307.20172 
L 169.642783 307.605693 
L 171.644079 307.777421 
L 173.778796 307.744553 
L 176.84745 307.447009 
L 182.85134 306.806329 
L 185.919995 306.735229 
L 189.388909 306.897145 
L 202.197207 307.782522 
L 207.400579 307.729876 
L 217.673901 307.578368 
L 253.030141 307.757827 
L 323.475782 307.788489 
L 394.455102 307.788378 
L 397.790597 307.788574 
L 397.790597 307.788574 
" clip-path="url(#p09ecf7cfd3)" style="fill: none; stroke: #ff7f0e; stroke-width: 1.5; stroke-linecap: square"/>
   </g>
   <g id="line2d_46">
    <path d="M 65.708778 181.751881 
L 94.12719 181.851445 
L 95.061129 182.188697 
L 95.995067 183.079534 
L 96.528746 183.759151 
L 97.729524 186.108735 
L 98.930302 189.643569 
L 99.597401 192.132708 
L 100.798179 197.355646 
L 102.265797 205.082558 
L 104.133673 216.46615 
L 107.869427 241.012591 
L 109.870724 253.093245 
L 111.605181 262.004227 
L 112.939379 267.715564 
L 114.140156 271.942534 
L 115.340934 275.311324 
L 116.541712 277.870832 
L 117.74249 279.699027 
L 118.943268 280.882245 
L 119.610367 281.31179 
L 120.677725 281.77765 
L 122.011923 282.022521 
L 124.280059 282.065383 
L 125.881097 282.143937 
L 127.482134 282.487442 
L 128.816332 283.046453 
L 130.150529 283.890898 
L 131.618147 285.147808 
L 133.219184 286.859705 
L 135.087061 289.179823 
L 140.690692 296.487797 
L 142.691988 298.587907 
L 144.159606 299.837061 
L 145.493803 300.740546 
L 146.828001 301.430905 
L 148.162199 301.926125 
L 149.629816 302.280262 
L 151.230854 302.483483 
L 154.166089 302.571874 
L 158.969201 302.692061 
L 161.237337 302.959666 
L 163.905732 303.477545 
L 167.508066 304.408738 
L 172.578018 305.7026 
L 175.780092 306.269292 
L 178.715327 306.57214 
L 182.184241 306.712836 
L 198.061194 307.080126 
L 207.400579 307.497908 
L 215.806024 307.57437 
L 236.35267 307.71727 
L 252.629882 307.746647 
L 327.344956 307.787854 
L 397.790597 307.788569 
L 397.790597 307.788569 
" clip-path="url(#p09ecf7cfd3)" style="fill: none; stroke: #2ca02c; stroke-width: 1.5; stroke-linecap: square"/>
   </g>
   <g id="patch_8">
    <path d="M 49.104688 314.090473 
L 49.104688 175.449781 
" style="fill: none; stroke: #000000; stroke-width: 0.8; stroke-linejoin: miter; stroke-linecap: square"/>
   </g>
   <g id="patch_9">
    <path d="M 414.394687 314.090473 
L 414.394687 175.449781 
" style="fill: none; stroke: #000000; stroke-width: 0.8; stroke-linejoin: miter; stroke-linecap: square"/>
   </g>
   <g id="patch_10">
    <path d="M 49.104687 314.090473 
L 414.394688 314.090473 
" style="fill: none; stroke: #000000; stroke-width: 0.8; stroke-linejoin: miter; stroke-linecap: square"/>
   </g>
   <g id="patch_11">
    <path d="M 49.104687 175.449781 
L 414.394688 175.449781 
" style="fill: none; stroke: #000000; stroke-width: 0.8; stroke-linejoin: miter; stroke-linecap: square"/>
   </g>
   <g id="legend_1">
    <g id="patch_12">
     <path d="M 364.294687 228.504469 
L 407.394687 228.504469 
Q 409.394687 228.504469 409.394687 226.504469 
L 409.394687 182.449781 
Q 409.394687 180.449781 407.394687 180.449781 
L 364.294687 180.449781 
Q 362.294687 180.449781 362.294687 182.449781 
L 362.294687 226.504469 
Q 362.294687 228.504469 364.294687 228.504469 
z
" style="fill: #ffffff; opacity: 0.8; stroke: #cccccc; stroke-linejoin: miter"/>
    </g>
    <g id="line2d_47">
     <path d="M 366.294687 188.548219 
L 376.294687 188.548219 
L 386.294687 188.548219 
" style="fill: none; stroke: #1f77b4; stroke-width: 1.5; stroke-linecap: square"/>
    </g>
    <g id="text_25">
     <!-- $E_k$ -->
     <g transform="translate(394.294687 192.048219)scale(0.1 -0.1)">
      <defs>
       <path id="DejaVuSans-Oblique-45" d="M 1081 4666 
L 4031 4666 
L 3928 4134 
L 1606 4134 
L 1338 2753 
L 3566 2753 
L 3463 2222 
L 1234 2222 
L 909 531 
L 3284 531 
L 3181 0 
L 172 0 
L 1081 4666 
z
" transform="scale(0.015625)"/>
       <path id="DejaVuSans-Oblique-6b" d="M 1172 4863 
L 1747 4863 
L 1197 2028 
L 3169 3500 
L 3916 3500 
L 1716 1825 
L 3322 0 
L 2625 0 
L 1131 1709 
L 800 0 
L 225 0 
L 1172 4863 
z
" transform="scale(0.015625)"/>
      </defs>
      <use xlink:href="#DejaVuSans-Oblique-45" transform="translate(0 0.09375)"/>
      <use xlink:href="#DejaVuSans-Oblique-6b" transform="translate(63.183594 -16.3125)scale(0.7)"/>
     </g>
    </g>
    <g id="line2d_48">
     <path d="M 366.294687 203.226344 
L 376.294687 203.226344 
L 386.294687 203.226344 
" style="fill: none; stroke: #ff7f0e; stroke-width: 1.5; stroke-linecap: square"/>
    </g>
    <g id="text_26">
     <!-- $E_p$ -->
     <g transform="translate(394.294687 206.726344)scale(0.1 -0.1)">
      <defs>
       <path id="DejaVuSans-Oblique-70" d="M 3175 2156 
Q 3175 2616 2975 2859 
Q 2775 3103 2400 3103 
Q 2144 3103 1911 2972 
Q 1678 2841 1497 2591 
Q 1319 2344 1212 1994 
Q 1106 1644 1106 1300 
Q 1106 863 1306 627 
Q 1506 391 1875 391 
Q 2147 391 2380 519 
Q 2613 647 2778 891 
Q 2956 1147 3065 1494 
Q 3175 1841 3175 2156 
z
M 1394 2969 
Q 1625 3272 1939 3428 
Q 2253 3584 2638 3584 
Q 3175 3584 3472 3232 
Q 3769 2881 3769 2247 
Q 3769 1728 3584 1258 
Q 3400 788 3053 416 
Q 2822 169 2531 39 
Q 2241 -91 1919 -91 
Q 1547 -91 1294 64 
Q 1041 219 916 525 
L 556 -1331 
L -19 -1331 
L 922 3500 
L 1497 3500 
L 1394 2969 
z
" transform="scale(0.015625)"/>
      </defs>
      <use xlink:href="#DejaVuSans-Oblique-45" transform="translate(0 0.09375)"/>
      <use xlink:href="#DejaVuSans-Oblique-70" transform="translate(63.183594 -16.3125)scale(0.7)"/>
     </g>
    </g>
    <g id="line2d_49">
     <path d="M 366.294687 218.924781 
L 376.294687 218.924781 
L 386.294687 218.924781 
" style="fill: none; stroke: #2ca02c; stroke-width: 1.5; stroke-linecap: square"/>
    </g>
    <g id="text_27">
     <!-- $E$ -->
     <g transform="translate(394.294687 222.424781)scale(0.1 -0.1)">
      <use xlink:href="#DejaVuSans-Oblique-45" transform="translate(0 0.09375)"/>
     </g>
    </g>
   </g>
  </g>
 </g>
 <defs>
  <clipPath id="pcfb34a1eb0">
   <rect x="49.104688" y="8.92909" width="365.29" height="138.640692"/>
  </clipPath>
  <clipPath id="p09ecf7cfd3">
   <rect x="49.104688" y="175.449781" width="365.29" height="138.640692"/>
  </clipPath>
 </defs>
</svg>
