<?xml version="1.0" encoding="utf-8" standalone="no"?>
<!DOCTYPE svg PUBLIC "-//W3C//DTD SVG 1.1//EN"
  "http://www.w3.org/Graphics/SVG/1.1/DTD/svg11.dtd">
<!-- Created with matplotlib (https://matplotlib.org/) -->
<svg height="207.99625pt" version="1.1" viewBox="0 0 422.940313 207.99625" width="422.940313pt" xmlns="http://www.w3.org/2000/svg" xmlns:xlink="http://www.w3.org/1999/xlink">
 <metadata>
  <rdf:RDF xmlns:cc="http://creativecommons.org/ns#" xmlns:dc="http://purl.org/dc/elements/1.1/" xmlns:rdf="http://www.w3.org/1999/02/22-rdf-syntax-ns#">
   <cc:Work>
    <dc:type rdf:resource="http://purl.org/dc/dcmitype/StillImage"/>
    <dc:date>2021-02-06T19:42:17.547343</dc:date>
    <dc:format>image/svg+xml</dc:format>
    <dc:creator>
     <cc:Agent>
      <dc:title>Matplotlib v3.3.2, https://matplotlib.org/</dc:title>
     </cc:Agent>
    </dc:creator>
   </cc:Work>
  </rdf:RDF>
 </metadata>
 <defs>
  <style type="text/css">*{stroke-linecap:butt;stroke-linejoin:round;}</style>
 </defs>
 <g id="figure_1">
  <g id="patch_1">
   <path d="M 0 207.99625 
L 422.940313 207.99625 
L 422.940313 0 
L 0 0 
z
" style="fill:none;"/>
  </g>
  <g id="axes_1">
   <g id="patch_2">
    <path d="M 42.620313 170.44 
L 415.740312 170.44 
L 415.740312 7.2 
L 42.620313 7.2 
z
" style="fill:#ffffff;"/>
   </g>
   <g id="matplotlib.axis_1">
    <g id="xtick_1">
     <g id="line2d_1">
      <path clip-path="url(#p19beea47fa)" d="M 59.580313 170.44 
L 59.580313 7.2 
" style="fill:none;stroke:#b0b0b0;stroke-linecap:square;stroke-width:0.8;"/>
     </g>
     <g id="line2d_2">
      <defs>
       <path d="M 0 0 
L 0 3.5 
" id="mfbcb364208" style="stroke:#000000;stroke-width:0.8;"/>
      </defs>
      <g>
       <use style="stroke:#000000;stroke-width:0.8;" x="59.580313" xlink:href="#mfbcb364208" y="170.44"/>
      </g>
     </g>
     <g id="text_1">
      <!-- 0 -->
      <g transform="translate(56.399063 185.038438)scale(0.1 -0.1)">
       <defs>
        <path d="M 31.78125 66.40625 
Q 24.171875 66.40625 20.328125 58.90625 
Q 16.5 51.421875 16.5 36.375 
Q 16.5 21.390625 20.328125 13.890625 
Q 24.171875 6.390625 31.78125 6.390625 
Q 39.453125 6.390625 43.28125 13.890625 
Q 47.125 21.390625 47.125 36.375 
Q 47.125 51.421875 43.28125 58.90625 
Q 39.453125 66.40625 31.78125 66.40625 
z
M 31.78125 74.21875 
Q 44.046875 74.21875 50.515625 64.515625 
Q 56.984375 54.828125 56.984375 36.375 
Q 56.984375 17.96875 50.515625 8.265625 
Q 44.046875 -1.421875 31.78125 -1.421875 
Q 19.53125 -1.421875 13.0625 8.265625 
Q 6.59375 17.96875 6.59375 36.375 
Q 6.59375 54.828125 13.0625 64.515625 
Q 19.53125 74.21875 31.78125 74.21875 
z
" id="DejaVuSans-48"/>
       </defs>
       <use xlink:href="#DejaVuSans-48"/>
      </g>
     </g>
    </g>
    <g id="xtick_2">
     <g id="line2d_3">
      <path clip-path="url(#p19beea47fa)" d="M 127.433883 170.44 
L 127.433883 7.2 
" style="fill:none;stroke:#b0b0b0;stroke-linecap:square;stroke-width:0.8;"/>
     </g>
     <g id="line2d_4">
      <g>
       <use style="stroke:#000000;stroke-width:0.8;" x="127.433883" xlink:href="#mfbcb364208" y="170.44"/>
      </g>
     </g>
     <g id="text_2">
      <!-- 10 -->
      <g transform="translate(121.071383 185.038438)scale(0.1 -0.1)">
       <defs>
        <path d="M 12.40625 8.296875 
L 28.515625 8.296875 
L 28.515625 63.921875 
L 10.984375 60.40625 
L 10.984375 69.390625 
L 28.421875 72.90625 
L 38.28125 72.90625 
L 38.28125 8.296875 
L 54.390625 8.296875 
L 54.390625 0 
L 12.40625 0 
z
" id="DejaVuSans-49"/>
       </defs>
       <use xlink:href="#DejaVuSans-49"/>
       <use x="63.623047" xlink:href="#DejaVuSans-48"/>
      </g>
     </g>
    </g>
    <g id="xtick_3">
     <g id="line2d_5">
      <path clip-path="url(#p19beea47fa)" d="M 195.287454 170.44 
L 195.287454 7.2 
" style="fill:none;stroke:#b0b0b0;stroke-linecap:square;stroke-width:0.8;"/>
     </g>
     <g id="line2d_6">
      <g>
       <use style="stroke:#000000;stroke-width:0.8;" x="195.287454" xlink:href="#mfbcb364208" y="170.44"/>
      </g>
     </g>
     <g id="text_3">
      <!-- 20 -->
      <g transform="translate(188.924954 185.038438)scale(0.1 -0.1)">
       <defs>
        <path d="M 19.1875 8.296875 
L 53.609375 8.296875 
L 53.609375 0 
L 7.328125 0 
L 7.328125 8.296875 
Q 12.9375 14.109375 22.625 23.890625 
Q 32.328125 33.6875 34.8125 36.53125 
Q 39.546875 41.84375 41.421875 45.53125 
Q 43.3125 49.21875 43.3125 52.78125 
Q 43.3125 58.59375 39.234375 62.25 
Q 35.15625 65.921875 28.609375 65.921875 
Q 23.96875 65.921875 18.8125 64.3125 
Q 13.671875 62.703125 7.8125 59.421875 
L 7.8125 69.390625 
Q 13.765625 71.78125 18.9375 73 
Q 24.125 74.21875 28.421875 74.21875 
Q 39.75 74.21875 46.484375 68.546875 
Q 53.21875 62.890625 53.21875 53.421875 
Q 53.21875 48.921875 51.53125 44.890625 
Q 49.859375 40.875 45.40625 35.40625 
Q 44.1875 33.984375 37.640625 27.21875 
Q 31.109375 20.453125 19.1875 8.296875 
z
" id="DejaVuSans-50"/>
       </defs>
       <use xlink:href="#DejaVuSans-50"/>
       <use x="63.623047" xlink:href="#DejaVuSans-48"/>
      </g>
     </g>
    </g>
    <g id="xtick_4">
     <g id="line2d_7">
      <path clip-path="url(#p19beea47fa)" d="M 263.141025 170.44 
L 263.141025 7.2 
" style="fill:none;stroke:#b0b0b0;stroke-linecap:square;stroke-width:0.8;"/>
     </g>
     <g id="line2d_8">
      <g>
       <use style="stroke:#000000;stroke-width:0.8;" x="263.141025" xlink:href="#mfbcb364208" y="170.44"/>
      </g>
     </g>
     <g id="text_4">
      <!-- 30 -->
      <g transform="translate(256.778525 185.038438)scale(0.1 -0.1)">
       <defs>
        <path d="M 40.578125 39.3125 
Q 47.65625 37.796875 51.625 33 
Q 55.609375 28.21875 55.609375 21.1875 
Q 55.609375 10.40625 48.1875 4.484375 
Q 40.765625 -1.421875 27.09375 -1.421875 
Q 22.515625 -1.421875 17.65625 -0.515625 
Q 12.796875 0.390625 7.625 2.203125 
L 7.625 11.71875 
Q 11.71875 9.328125 16.59375 8.109375 
Q 21.484375 6.890625 26.8125 6.890625 
Q 36.078125 6.890625 40.9375 10.546875 
Q 45.796875 14.203125 45.796875 21.1875 
Q 45.796875 27.640625 41.28125 31.265625 
Q 36.765625 34.90625 28.71875 34.90625 
L 20.21875 34.90625 
L 20.21875 43.015625 
L 29.109375 43.015625 
Q 36.375 43.015625 40.234375 45.921875 
Q 44.09375 48.828125 44.09375 54.296875 
Q 44.09375 59.90625 40.109375 62.90625 
Q 36.140625 65.921875 28.71875 65.921875 
Q 24.65625 65.921875 20.015625 65.03125 
Q 15.375 64.15625 9.8125 62.3125 
L 9.8125 71.09375 
Q 15.4375 72.65625 20.34375 73.4375 
Q 25.25 74.21875 29.59375 74.21875 
Q 40.828125 74.21875 47.359375 69.109375 
Q 53.90625 64.015625 53.90625 55.328125 
Q 53.90625 49.265625 50.4375 45.09375 
Q 46.96875 40.921875 40.578125 39.3125 
z
" id="DejaVuSans-51"/>
       </defs>
       <use xlink:href="#DejaVuSans-51"/>
       <use x="63.623047" xlink:href="#DejaVuSans-48"/>
      </g>
     </g>
    </g>
    <g id="xtick_5">
     <g id="line2d_9">
      <path clip-path="url(#p19beea47fa)" d="M 330.994595 170.44 
L 330.994595 7.2 
" style="fill:none;stroke:#b0b0b0;stroke-linecap:square;stroke-width:0.8;"/>
     </g>
     <g id="line2d_10">
      <g>
       <use style="stroke:#000000;stroke-width:0.8;" x="330.994595" xlink:href="#mfbcb364208" y="170.44"/>
      </g>
     </g>
     <g id="text_5">
      <!-- 40 -->
      <g transform="translate(324.632095 185.038438)scale(0.1 -0.1)">
       <defs>
        <path d="M 37.796875 64.3125 
L 12.890625 25.390625 
L 37.796875 25.390625 
z
M 35.203125 72.90625 
L 47.609375 72.90625 
L 47.609375 25.390625 
L 58.015625 25.390625 
L 58.015625 17.1875 
L 47.609375 17.1875 
L 47.609375 0 
L 37.796875 0 
L 37.796875 17.1875 
L 4.890625 17.1875 
L 4.890625 26.703125 
z
" id="DejaVuSans-52"/>
       </defs>
       <use xlink:href="#DejaVuSans-52"/>
       <use x="63.623047" xlink:href="#DejaVuSans-48"/>
      </g>
     </g>
    </g>
    <g id="xtick_6">
     <g id="line2d_11">
      <path clip-path="url(#p19beea47fa)" d="M 398.848166 170.44 
L 398.848166 7.2 
" style="fill:none;stroke:#b0b0b0;stroke-linecap:square;stroke-width:0.8;"/>
     </g>
     <g id="line2d_12">
      <g>
       <use style="stroke:#000000;stroke-width:0.8;" x="398.848166" xlink:href="#mfbcb364208" y="170.44"/>
      </g>
     </g>
     <g id="text_6">
      <!-- 50 -->
      <g transform="translate(392.485666 185.038438)scale(0.1 -0.1)">
       <defs>
        <path d="M 10.796875 72.90625 
L 49.515625 72.90625 
L 49.515625 64.59375 
L 19.828125 64.59375 
L 19.828125 46.734375 
Q 21.96875 47.46875 24.109375 47.828125 
Q 26.265625 48.1875 28.421875 48.1875 
Q 40.625 48.1875 47.75 41.5 
Q 54.890625 34.8125 54.890625 23.390625 
Q 54.890625 11.625 47.5625 5.09375 
Q 40.234375 -1.421875 26.90625 -1.421875 
Q 22.3125 -1.421875 17.546875 -0.640625 
Q 12.796875 0.140625 7.71875 1.703125 
L 7.71875 11.625 
Q 12.109375 9.234375 16.796875 8.0625 
Q 21.484375 6.890625 26.703125 6.890625 
Q 35.15625 6.890625 40.078125 11.328125 
Q 45.015625 15.765625 45.015625 23.390625 
Q 45.015625 31 40.078125 35.4375 
Q 35.15625 39.890625 26.703125 39.890625 
Q 22.75 39.890625 18.8125 39.015625 
Q 14.890625 38.140625 10.796875 36.28125 
z
" id="DejaVuSans-53"/>
       </defs>
       <use xlink:href="#DejaVuSans-53"/>
       <use x="63.623047" xlink:href="#DejaVuSans-48"/>
      </g>
     </g>
    </g>
    <g id="text_7">
     <!-- Time (s) -->
     <g transform="translate(208.851406 198.716563)scale(0.1 -0.1)">
      <defs>
       <path d="M -0.296875 72.90625 
L 61.375 72.90625 
L 61.375 64.59375 
L 35.5 64.59375 
L 35.5 0 
L 25.59375 0 
L 25.59375 64.59375 
L -0.296875 64.59375 
z
" id="DejaVuSans-84"/>
       <path d="M 9.421875 54.6875 
L 18.40625 54.6875 
L 18.40625 0 
L 9.421875 0 
z
M 9.421875 75.984375 
L 18.40625 75.984375 
L 18.40625 64.59375 
L 9.421875 64.59375 
z
" id="DejaVuSans-105"/>
       <path d="M 52 44.1875 
Q 55.375 50.25 60.0625 53.125 
Q 64.75 56 71.09375 56 
Q 79.640625 56 84.28125 50.015625 
Q 88.921875 44.046875 88.921875 33.015625 
L 88.921875 0 
L 79.890625 0 
L 79.890625 32.71875 
Q 79.890625 40.578125 77.09375 44.375 
Q 74.3125 48.1875 68.609375 48.1875 
Q 61.625 48.1875 57.5625 43.546875 
Q 53.515625 38.921875 53.515625 30.90625 
L 53.515625 0 
L 44.484375 0 
L 44.484375 32.71875 
Q 44.484375 40.625 41.703125 44.40625 
Q 38.921875 48.1875 33.109375 48.1875 
Q 26.21875 48.1875 22.15625 43.53125 
Q 18.109375 38.875 18.109375 30.90625 
L 18.109375 0 
L 9.078125 0 
L 9.078125 54.6875 
L 18.109375 54.6875 
L 18.109375 46.1875 
Q 21.1875 51.21875 25.484375 53.609375 
Q 29.78125 56 35.6875 56 
Q 41.65625 56 45.828125 52.96875 
Q 50 49.953125 52 44.1875 
z
" id="DejaVuSans-109"/>
       <path d="M 56.203125 29.59375 
L 56.203125 25.203125 
L 14.890625 25.203125 
Q 15.484375 15.921875 20.484375 11.0625 
Q 25.484375 6.203125 34.421875 6.203125 
Q 39.59375 6.203125 44.453125 7.46875 
Q 49.3125 8.734375 54.109375 11.28125 
L 54.109375 2.78125 
Q 49.265625 0.734375 44.1875 -0.34375 
Q 39.109375 -1.421875 33.890625 -1.421875 
Q 20.796875 -1.421875 13.15625 6.1875 
Q 5.515625 13.8125 5.515625 26.8125 
Q 5.515625 40.234375 12.765625 48.109375 
Q 20.015625 56 32.328125 56 
Q 43.359375 56 49.78125 48.890625 
Q 56.203125 41.796875 56.203125 29.59375 
z
M 47.21875 32.234375 
Q 47.125 39.59375 43.09375 43.984375 
Q 39.0625 48.390625 32.421875 48.390625 
Q 24.90625 48.390625 20.390625 44.140625 
Q 15.875 39.890625 15.1875 32.171875 
z
" id="DejaVuSans-101"/>
       <path id="DejaVuSans-32"/>
       <path d="M 31 75.875 
Q 24.46875 64.65625 21.28125 53.65625 
Q 18.109375 42.671875 18.109375 31.390625 
Q 18.109375 20.125 21.3125 9.0625 
Q 24.515625 -2 31 -13.1875 
L 23.1875 -13.1875 
Q 15.875 -1.703125 12.234375 9.375 
Q 8.59375 20.453125 8.59375 31.390625 
Q 8.59375 42.28125 12.203125 53.3125 
Q 15.828125 64.359375 23.1875 75.875 
z
" id="DejaVuSans-40"/>
       <path d="M 44.28125 53.078125 
L 44.28125 44.578125 
Q 40.484375 46.53125 36.375 47.5 
Q 32.28125 48.484375 27.875 48.484375 
Q 21.1875 48.484375 17.84375 46.4375 
Q 14.5 44.390625 14.5 40.28125 
Q 14.5 37.15625 16.890625 35.375 
Q 19.28125 33.59375 26.515625 31.984375 
L 29.59375 31.296875 
Q 39.15625 29.25 43.1875 25.515625 
Q 47.21875 21.78125 47.21875 15.09375 
Q 47.21875 7.46875 41.1875 3.015625 
Q 35.15625 -1.421875 24.609375 -1.421875 
Q 20.21875 -1.421875 15.453125 -0.5625 
Q 10.6875 0.296875 5.421875 2 
L 5.421875 11.28125 
Q 10.40625 8.6875 15.234375 7.390625 
Q 20.0625 6.109375 24.8125 6.109375 
Q 31.15625 6.109375 34.5625 8.28125 
Q 37.984375 10.453125 37.984375 14.40625 
Q 37.984375 18.0625 35.515625 20.015625 
Q 33.0625 21.96875 24.703125 23.78125 
L 21.578125 24.515625 
Q 13.234375 26.265625 9.515625 29.90625 
Q 5.8125 33.546875 5.8125 39.890625 
Q 5.8125 47.609375 11.28125 51.796875 
Q 16.75 56 26.8125 56 
Q 31.78125 56 36.171875 55.265625 
Q 40.578125 54.546875 44.28125 53.078125 
z
" id="DejaVuSans-115"/>
       <path d="M 8.015625 75.875 
L 15.828125 75.875 
Q 23.140625 64.359375 26.78125 53.3125 
Q 30.421875 42.28125 30.421875 31.390625 
Q 30.421875 20.453125 26.78125 9.375 
Q 23.140625 -1.703125 15.828125 -13.1875 
L 8.015625 -13.1875 
Q 14.5 -2 17.703125 9.0625 
Q 20.90625 20.125 20.90625 31.390625 
Q 20.90625 42.671875 17.703125 53.65625 
Q 14.5 64.65625 8.015625 75.875 
z
" id="DejaVuSans-41"/>
      </defs>
      <use xlink:href="#DejaVuSans-84"/>
      <use x="57.958984" xlink:href="#DejaVuSans-105"/>
      <use x="85.742188" xlink:href="#DejaVuSans-109"/>
      <use x="183.154297" xlink:href="#DejaVuSans-101"/>
      <use x="244.677734" xlink:href="#DejaVuSans-32"/>
      <use x="276.464844" xlink:href="#DejaVuSans-40"/>
      <use x="315.478516" xlink:href="#DejaVuSans-115"/>
      <use x="367.578125" xlink:href="#DejaVuSans-41"/>
     </g>
    </g>
   </g>
   <g id="matplotlib.axis_2">
    <g id="ytick_1">
     <g id="line2d_13">
      <path clip-path="url(#p19beea47fa)" d="M 42.620313 148.179719 
L 415.740312 148.179719 
" style="fill:none;stroke:#b0b0b0;stroke-linecap:square;stroke-width:0.8;"/>
     </g>
     <g id="line2d_14">
      <defs>
       <path d="M 0 0 
L -3.5 0 
" id="m3c6c26e6ab" style="stroke:#000000;stroke-width:0.8;"/>
      </defs>
      <g>
       <use style="stroke:#000000;stroke-width:0.8;" x="42.620313" xlink:href="#m3c6c26e6ab" y="148.179719"/>
      </g>
     </g>
     <g id="text_8">
      <!-- −4 -->
      <g transform="translate(20.878125 151.978938)scale(0.1 -0.1)">
       <defs>
        <path d="M 10.59375 35.5 
L 73.1875 35.5 
L 73.1875 27.203125 
L 10.59375 27.203125 
z
" id="DejaVuSans-8722"/>
       </defs>
       <use xlink:href="#DejaVuSans-8722"/>
       <use x="83.789062" xlink:href="#DejaVuSans-52"/>
      </g>
     </g>
    </g>
    <g id="ytick_2">
     <g id="line2d_15">
      <path clip-path="url(#p19beea47fa)" d="M 42.620313 118.499146 
L 415.740312 118.499146 
" style="fill:none;stroke:#b0b0b0;stroke-linecap:square;stroke-width:0.8;"/>
     </g>
     <g id="line2d_16">
      <g>
       <use style="stroke:#000000;stroke-width:0.8;" x="42.620313" xlink:href="#m3c6c26e6ab" y="118.499146"/>
      </g>
     </g>
     <g id="text_9">
      <!-- −2 -->
      <g transform="translate(20.878125 122.298364)scale(0.1 -0.1)">
       <use xlink:href="#DejaVuSans-8722"/>
       <use x="83.789062" xlink:href="#DejaVuSans-50"/>
      </g>
     </g>
    </g>
    <g id="ytick_3">
     <g id="line2d_17">
      <path clip-path="url(#p19beea47fa)" d="M 42.620313 88.818572 
L 415.740312 88.818572 
" style="fill:none;stroke:#b0b0b0;stroke-linecap:square;stroke-width:0.8;"/>
     </g>
     <g id="line2d_18">
      <g>
       <use style="stroke:#000000;stroke-width:0.8;" x="42.620313" xlink:href="#m3c6c26e6ab" y="88.818572"/>
      </g>
     </g>
     <g id="text_10">
      <!-- 0 -->
      <g transform="translate(29.257813 92.617791)scale(0.1 -0.1)">
       <use xlink:href="#DejaVuSans-48"/>
      </g>
     </g>
    </g>
    <g id="ytick_4">
     <g id="line2d_19">
      <path clip-path="url(#p19beea47fa)" d="M 42.620313 59.137999 
L 415.740312 59.137999 
" style="fill:none;stroke:#b0b0b0;stroke-linecap:square;stroke-width:0.8;"/>
     </g>
     <g id="line2d_20">
      <g>
       <use style="stroke:#000000;stroke-width:0.8;" x="42.620313" xlink:href="#m3c6c26e6ab" y="59.137999"/>
      </g>
     </g>
     <g id="text_11">
      <!-- 2 -->
      <g transform="translate(29.257813 62.937218)scale(0.1 -0.1)">
       <use xlink:href="#DejaVuSans-50"/>
      </g>
     </g>
    </g>
    <g id="ytick_5">
     <g id="line2d_21">
      <path clip-path="url(#p19beea47fa)" d="M 42.620313 29.457425 
L 415.740312 29.457425 
" style="fill:none;stroke:#b0b0b0;stroke-linecap:square;stroke-width:0.8;"/>
     </g>
     <g id="line2d_22">
      <g>
       <use style="stroke:#000000;stroke-width:0.8;" x="42.620313" xlink:href="#m3c6c26e6ab" y="29.457425"/>
      </g>
     </g>
     <g id="text_12">
      <!-- 4 -->
      <g transform="translate(29.257813 33.256644)scale(0.1 -0.1)">
       <use xlink:href="#DejaVuSans-52"/>
      </g>
     </g>
    </g>
    <g id="text_13">
     <!-- $\theta (º)$ -->
     <g transform="translate(14.798438 98.17)rotate(-90)scale(0.1 -0.1)">
      <defs>
       <path d="M 45.515625 34.671875 
L 14.453125 34.671875 
Q 12.359375 20.0625 14.5 13.875 
Q 17.1875 6.25 24.46875 6.25 
Q 31.78125 6.25 37.359375 13.921875 
Q 42.234375 20.65625 45.515625 34.671875 
z
M 47.015625 42.96875 
Q 48.34375 56.84375 46.625 61.71875 
Q 43.953125 69.4375 36.765625 69.4375 
Q 29.296875 69.4375 23.828125 61.8125 
Q 19.53125 55.671875 16.15625 42.96875 
z
M 38.1875 76.765625 
Q 49.90625 76.765625 54.59375 66.40625 
Q 59.28125 56.109375 55.71875 37.84375 
Q 52.203125 19.625 43.453125 9.28125 
Q 34.765625 -1.125 23.046875 -1.125 
Q 11.28125 -1.125 6.640625 9.28125 
Q 2 19.625 5.515625 37.84375 
Q 9.078125 56.109375 17.71875 66.40625 
Q 26.421875 76.765625 38.1875 76.765625 
z
" id="DejaVuSans-Oblique-952"/>
       <path d="M 38.484375 57.625 
Q 38.484375 62.984375 36.0625 65.796875 
Q 33.640625 68.609375 28.90625 68.609375 
Q 23.25 68.609375 19.109375 63.375 
Q 14.984375 58.15625 14.984375 50.78125 
Q 14.984375 45.453125 17.40625 42.578125 
Q 19.828125 39.703125 24.3125 39.703125 
Q 30.28125 39.703125 34.375 44.84375 
Q 38.484375 50 38.484375 57.625 
z
M 30.328125 74.21875 
Q 37.546875 74.21875 41.859375 70.015625 
Q 46.1875 65.828125 46.1875 58.796875 
Q 46.1875 48.046875 39.6875 41.0625 
Q 33.203125 34.078125 23.296875 34.078125 
Q 15.96875 34.078125 11.6875 38.46875 
Q 7.421875 42.875 7.421875 50.390625 
Q 7.421875 53.71875 8.34375 56.953125 
Q 9.28125 60.203125 11.078125 63.28125 
Q 14.109375 68.453125 19.1875 71.328125 
Q 24.265625 74.21875 30.328125 74.21875 
z
M 5.078125 28.90625 
L 38.71875 28.90625 
L 37.59375 22.90625 
L 4 22.90625 
z
" id="DejaVuSans-Oblique-186"/>
      </defs>
      <use transform="translate(0 0.234375)" xlink:href="#DejaVuSans-Oblique-952"/>
      <use transform="translate(61.181641 0.234375)" xlink:href="#DejaVuSans-40"/>
      <use transform="translate(100.195312 0.234375)" xlink:href="#DejaVuSans-Oblique-186"/>
      <use transform="translate(147.314453 0.234375)" xlink:href="#DejaVuSans-41"/>
     </g>
    </g>
   </g>
   <g id="line2d_23">
    <path clip-path="url(#p19beea47fa)" d="M 59.580313 163.019997 
L 66.56923 162.957217 
L 66.840645 162.678395 
L 67.179912 162.017589 
L 67.654887 160.51553 
L 68.197716 157.991564 
L 68.876252 153.671367 
L 69.690495 146.88811 
L 70.640445 137.005664 
L 71.861809 121.754636 
L 73.626002 96.468064 
L 76.747266 51.454434 
L 78.036484 36.198622 
L 79.054287 26.622003 
L 79.86853 20.833809 
L 80.547066 17.408608 
L 81.089894 15.631665 
L 81.497016 14.875678 
L 81.836284 14.627754 
L 82.107698 14.680448 
L 82.379112 14.956157 
L 82.71838 15.613083 
L 83.193355 17.109766 
L 83.736184 19.627723 
L 84.414719 23.94072 
L 85.228962 30.715967 
L 86.178912 40.590211 
L 87.400276 55.832956 
L 89.164469 81.112962 
L 92.285734 126.132278 
L 93.574951 141.39652 
L 94.592755 150.98183 
L 95.406998 156.778007 
L 96.085534 160.210392 
L 96.628362 161.993333 
L 97.035484 162.753919 
L 97.374751 163.005715 
L 97.646166 162.956131 
L 97.91758 162.683535 
L 98.256848 162.030489 
L 98.731823 160.539182 
L 99.274651 158.027233 
L 99.953187 153.721438 
L 100.76743 146.954203 
L 101.71738 137.088166 
L 102.938744 121.853711 
L 104.702937 96.580285 
L 107.824201 51.555309 
L 109.113419 36.28265 
L 110.131223 26.688656 
L 110.945466 20.884501 
L 111.624001 17.444936 
L 112.16683 15.655999 
L 112.573951 14.890816 
L 112.913219 14.635149 
L 113.184633 14.681621 
L 113.456048 14.951105 
L 113.795316 15.600273 
L 114.27029 17.086204 
L 114.813119 19.592145 
L 115.491655 23.890736 
L 116.305898 30.649958 
L 117.255848 40.507784 
L 118.477212 55.733943 
L 120.173551 79.989481 
L 123.430523 126.908217 
L 124.71974 142.026546 
L 125.737544 151.466044 
L 126.551787 157.130567 
L 127.230323 160.445819 
L 127.773151 162.131769 
L 128.180272 162.818458 
L 128.51954 163.008319 
L 128.790955 162.909165 
L 129.130222 162.471908 
L 129.537344 161.490593 
L 130.012319 159.724885 
L 130.623001 156.498233 
L 131.36939 151.16224 
L 132.251487 143.041442 
L 133.337144 130.717836 
L 134.694215 112.564773 
L 137.747626 67.499452 
L 139.376112 45.671896 
L 140.529622 32.895002 
L 141.479572 24.620271 
L 142.293815 19.396609 
L 142.904497 16.704159 
L 143.447326 15.231043 
L 143.854447 14.70628 
L 144.125862 14.634943 
L 144.397276 14.786757 
L 144.736544 15.289574 
L 145.143665 16.348764 
L 145.686494 18.522091 
L 146.297176 21.975785 
L 147.043565 27.571684 
L 147.925662 35.967143 
L 149.011319 48.568349 
L 150.436244 67.930459 
L 155.253847 135.95386 
L 156.339504 147.293878 
L 157.221601 154.462914 
L 157.96799 158.910623 
L 158.578672 161.368852 
L 159.053647 162.519023 
L 159.460769 162.964996 
L 159.732183 162.983645 
L 160.003597 162.779199 
L 160.342865 162.210912 
L 160.749986 161.074029 
L 161.292815 158.799453 
L 161.903497 155.236438 
L 162.649886 149.515849 
L 163.531983 140.989306 
L 164.61764 128.256751 
L 166.110419 107.800202 
L 170.656608 43.31874 
L 171.810118 31.012537 
L 172.760068 23.203143 
L 173.506458 18.747771 
L 174.11714 16.282907 
L 174.592115 15.127417 
L 174.999236 14.676815 
L 175.270651 14.65506 
L 175.542065 14.856396 
L 175.881333 15.420802 
L 176.288454 16.553064 
L 176.831283 18.821589 
L 177.441965 22.378031 
L 178.188354 28.091065 
L 179.070451 36.609575 
L 180.156108 49.333931 
L 181.648886 69.782908 
L 186.195075 134.271916 
L 187.348586 146.586887 
L 188.298536 154.405057 
L 189.044925 158.868086 
L 189.655608 161.339583 
L 190.130583 162.500391 
L 190.537704 162.955621 
L 190.809118 162.980481 
L 191.080533 162.782255 
L 191.4198 162.221728 
L 191.826922 161.094087 
L 192.36975 158.831613 
L 192.980433 155.281743 
L 193.726822 149.576268 
L 194.608918 141.065794 
L 195.694575 128.349642 
L 197.187354 107.908249 
L 201.733543 43.411732 
L 202.887054 31.088003 
L 203.837004 23.261064 
L 204.583393 18.790381 
L 205.194075 16.312256 
L 205.66905 15.146132 
L 206.076172 14.686275 
L 206.347586 14.658311 
L 206.619 14.853427 
L 206.958268 15.410075 
L 207.36539 16.533095 
L 207.908218 18.78952 
L 208.5189 22.332815 
L 209.265289 28.030732 
L 210.147386 36.533166 
L 211.233043 49.241108 
L 212.657968 68.693731 
L 217.407718 135.77151 
L 218.493375 147.145283 
L 219.375472 154.347072 
L 220.121861 158.825403 
L 220.732543 161.310156 
L 221.207518 162.481593 
L 221.614639 162.946076 
L 221.886054 162.977144 
L 222.157468 162.785135 
L 222.496736 162.232366 
L 222.903857 161.113966 
L 223.446686 158.863592 
L 224.057368 155.326871 
L 224.803757 149.636515 
L 225.685854 141.142123 
L 226.771511 128.442398 
L 228.196436 108.997134 
L 232.946186 41.911266 
L 234.031843 30.529075 
L 234.913939 23.319113 
L 235.660329 18.833138 
L 236.271011 16.341762 
L 236.745986 15.165012 
L 237.153107 14.695905 
L 237.424521 14.661735 
L 237.695936 14.850635 
L 238.035203 15.399526 
L 238.442325 16.513307 
L 238.985153 18.75763 
L 239.595836 22.287776 
L 240.342225 27.97057 
L 241.224321 36.456916 
L 242.309978 49.14842 
L 243.734903 68.586313 
L 248.484653 135.68023 
L 249.57031 147.070829 
L 250.452407 154.288958 
L 251.198796 158.782574 
L 251.809478 161.280571 
L 252.284453 162.462631 
L 252.691575 162.93636 
L 252.962989 162.973633 
L 253.234403 162.78784 
L 253.573671 162.242826 
L 253.980793 161.133665 
L 254.523621 158.895392 
L 255.134303 155.371822 
L 255.880693 149.696592 
L 256.762789 141.218295 
L 257.848446 128.535018 
L 259.273371 109.104504 
L 264.023121 42.00258 
L 265.108778 30.603581 
L 265.990875 23.377291 
L 266.737264 18.876039 
L 267.347946 16.371425 
L 267.822921 15.184057 
L 268.230042 14.705706 
L 268.501457 14.665332 
L 268.772871 14.848018 
L 269.112139 15.389155 
L 269.51926 16.493697 
L 270.062089 18.725919 
L 270.672771 22.242914 
L 271.41916 27.910578 
L 272.301257 36.380823 
L 273.386914 49.055868 
L 274.811839 68.478991 
L 279.561589 135.588881 
L 280.647246 146.996272 
L 281.529342 154.230716 
L 282.275732 158.7396 
L 282.886414 161.250829 
L 283.361389 162.443503 
L 283.76851 162.926474 
L 284.039924 162.969949 
L 284.311339 162.790369 
L 284.650607 162.253109 
L 285.057728 161.153185 
L 285.600557 158.927013 
L 286.211239 155.416595 
L 286.957628 149.756498 
L 287.839724 141.294308 
L 288.925382 128.627502 
L 290.350306 109.211778 
L 295.100056 42.093964 
L 296.185714 30.67819 
L 297.06781 23.435597 
L 297.814199 18.919086 
L 298.424881 16.401246 
L 298.899856 15.203267 
L 299.306978 14.715677 
L 299.578392 14.669103 
L 299.849806 14.845577 
L 300.189074 15.378961 
L 300.596196 16.474267 
L 301.139024 18.694389 
L 301.749706 22.198229 
L 302.496096 27.850757 
L 303.378192 36.304889 
L 304.463849 48.963451 
L 305.888774 68.371766 
L 310.638524 135.497463 
L 311.724181 146.921611 
L 312.606278 154.172347 
L 313.352667 158.69648 
L 313.963349 161.22093 
L 314.438324 162.424211 
L 314.845446 162.916418 
L 315.11686 162.966092 
L 315.388274 162.792723 
L 315.727542 162.263214 
L 316.134663 161.172526 
L 316.677492 158.958454 
L 317.288174 155.461192 
L 318.034563 149.816234 
L 318.91666 141.370164 
L 320.002317 128.719851 
L 321.427242 109.318955 
L 326.176992 42.185416 
L 327.262649 30.752902 
L 328.144745 23.494031 
L 328.891135 18.962279 
L 329.501817 16.431223 
L 329.976792 15.222642 
L 330.383913 14.725818 
L 330.655328 14.673046 
L 330.926742 14.843311 
L 331.26601 15.368945 
L 331.673131 16.455016 
L 332.21596 18.663037 
L 332.826642 22.153721 
L 333.573031 27.791107 
L 334.455127 36.229112 
L 335.540785 48.871169 
L 336.96571 68.264637 
L 341.783313 136.192815 
L 342.86897 147.474492 
L 343.751067 154.589612 
L 344.497456 158.988496 
L 345.108138 161.405413 
L 345.583113 162.523036 
L 345.922381 162.906192 
L 346.193795 162.962062 
L 346.465209 162.794901 
L 346.804477 162.273141 
L 347.211599 161.191687 
L 347.754427 158.989716 
L 348.365109 155.505611 
L 349.111499 149.875799 
L 349.993595 141.445862 
L 351.079252 128.812065 
L 352.504177 109.426036 
L 357.321781 41.489637 
L 358.407438 30.199487 
L 359.289534 23.076162 
L 360.035924 18.669616 
L 360.646606 16.246069 
L 361.121581 15.123133 
L 361.460849 14.736129 
L 361.732263 14.677162 
L 362.003677 14.84122 
L 362.342945 15.359106 
L 362.750066 16.435944 
L 363.292895 18.631865 
L 363.903577 22.10939 
L 364.649966 27.731627 
L 365.532063 36.153493 
L 366.61772 48.779024 
L 368.042645 68.157605 
L 372.860248 136.102182 
L 373.945906 147.400797 
L 374.828002 154.532321 
L 375.574391 158.946524 
L 376.185073 161.376698 
L 376.660048 162.504945 
L 376.999316 162.895797 
L 377.270731 162.95786 
L 377.542145 162.796905 
L 377.881413 162.282892 
L 378.288534 161.21067 
L 378.831363 159.020799 
L 379.442045 155.549853 
L 380.188434 149.935194 
L 381.070531 141.521401 
L 382.156188 128.904142 
L 383.581113 109.533019 
L 388.398716 41.580305 
L 389.484373 30.273235 
L 390.36647 23.133518 
L 391.112859 18.711662 
L 391.723541 16.274863 
L 392.198516 15.141307 
L 392.537784 14.746609 
L 392.809198 14.681451 
L 393.080613 14.839304 
L 393.41988 15.349444 
L 393.827002 16.41705 
L 394.36983 18.600871 
L 394.980513 22.065236 
L 395.726902 27.672318 
L 396.608998 36.078033 
L 397.694655 48.687014 
L 398.780312 63.221865 
L 398.780312 63.221865 
" style="fill:none;stroke:#1f77b4;stroke-linecap:square;stroke-width:1.5;"/>
   </g>
   <g id="line2d_24">
    <defs>
     <path d="M 0 2 
C 0.530406 2 1.03916 1.789267 1.414214 1.414214 
C 1.789267 1.03916 2 0.530406 2 0 
C 2 -0.530406 1.789267 -1.03916 1.414214 -1.414214 
C 1.03916 -1.789267 0.530406 -2 0 -2 
C -0.530406 -2 -1.03916 -1.789267 -1.414214 -1.414214 
C -1.789267 -1.03916 -2 -0.530406 -2 0 
C -2 0.530406 -1.789267 1.03916 -1.414214 1.414214 
C -1.03916 1.789267 -0.530406 2 0 2 
z
" id="m6172ef7308" style="stroke:#ff7f0e;"/>
    </defs>
    <g clip-path="url(#p19beea47fa)">
     <use style="fill:#ff7f0e;stroke:#ff7f0e;" x="112.981073" xlink:href="#m6172ef7308" y="14.62584"/>
    </g>
   </g>
   <g id="line2d_25">
    <defs>
     <path d="M 0 2 
C 0.530406 2 1.03916 1.789267 1.414214 1.414214 
C 1.789267 1.03916 2 0.530406 2 0 
C 2 -0.530406 1.789267 -1.03916 1.414214 -1.414214 
C 1.03916 -1.789267 0.530406 -2 0 -2 
C -0.530406 -2 -1.03916 -1.789267 -1.414214 -1.414214 
C -1.789267 -1.03916 -2 -0.530406 -2 0 
C -2 0.530406 -1.789267 1.03916 -1.414214 1.414214 
C -1.03916 1.789267 -0.530406 2 0 2 
z
" id="m7f86bd84db" style="stroke:#2ca02c;"/>
    </defs>
    <g clip-path="url(#p19beea47fa)">
     <use style="fill:#2ca02c;stroke:#2ca02c;" x="144.058008" xlink:href="#m7f86bd84db" y="14.631854"/>
    </g>
   </g>
   <g id="patch_3">
    <path d="M 42.620313 170.44 
L 42.620313 7.2 
" style="fill:none;stroke:#000000;stroke-linecap:square;stroke-linejoin:miter;stroke-width:0.8;"/>
   </g>
   <g id="patch_4">
    <path d="M 415.740312 170.44 
L 415.740312 7.2 
" style="fill:none;stroke:#000000;stroke-linecap:square;stroke-linejoin:miter;stroke-width:0.8;"/>
   </g>
   <g id="patch_5">
    <path d="M 42.620313 170.44 
L 415.740312 170.44 
" style="fill:none;stroke:#000000;stroke-linecap:square;stroke-linejoin:miter;stroke-width:0.8;"/>
   </g>
   <g id="patch_6">
    <path d="M 42.620313 7.2 
L 415.740312 7.2 
" style="fill:none;stroke:#000000;stroke-linecap:square;stroke-linejoin:miter;stroke-width:0.8;"/>
   </g>
  </g>
 </g>
 <defs>
  <clipPath id="p19beea47fa">
   <rect height="163.24" width="373.12" x="42.620313" y="7.2"/>
  </clipPath>
 </defs>
</svg>
