<?xml version="1.0" encoding="utf-8" standalone="no"?>
<!DOCTYPE svg PUBLIC "-//W3C//DTD SVG 1.1//EN"
  "http://www.w3.org/Graphics/SVG/1.1/DTD/svg11.dtd">
<svg xmlns:xlink="http://www.w3.org/1999/xlink" width="422.940313pt" height="207.99625pt" viewBox="0 0 422.940313 207.99625" xmlns="http://www.w3.org/2000/svg" version="1.1">
 <metadata>
  <rdf:RDF xmlns:dc="http://purl.org/dc/elements/1.1/" xmlns:cc="http://creativecommons.org/ns#" xmlns:rdf="http://www.w3.org/1999/02/22-rdf-syntax-ns#">
   <cc:Work>
    <dc:type rdf:resource="http://purl.org/dc/dcmitype/StillImage"/>
    <dc:date>2023-02-02T07:20:32.879172</dc:date>
    <dc:format>image/svg+xml</dc:format>
    <dc:creator>
     <cc:Agent>
      <dc:title>Matplotlib v3.5.2, https://matplotlib.org/</dc:title>
     </cc:Agent>
    </dc:creator>
   </cc:Work>
  </rdf:RDF>
 </metadata>
 <defs>
  <style type="text/css">*{stroke-linejoin: round; stroke-linecap: butt}</style>
 </defs>
 <g id="figure_1">
  <g id="patch_1">
   <path d="M 0 207.99625 
L 422.940313 207.99625 
L 422.940313 0 
L 0 0 
z
" style="fill: #ffffff"/>
  </g>
  <g id="axes_1">
   <g id="patch_2">
    <path d="M 42.620313 170.44 
L 415.740312 170.44 
L 415.740312 7.2 
L 42.620313 7.2 
z
" style="fill: #ffffff"/>
   </g>
   <g id="matplotlib.axis_1">
    <g id="xtick_1">
     <g id="line2d_1">
      <path d="M 59.580313 170.44 
L 59.580313 7.2 
" clip-path="url(#p7708fd7066)" style="fill: none; stroke: #b0b0b0; stroke-width: 0.8; stroke-linecap: square"/>
     </g>
     <g id="line2d_2">
      <defs>
       <path id="m23b1152805" d="M 0 0 
L 0 3.5 
" style="stroke: #000000; stroke-width: 0.8"/>
      </defs>
      <g>
       <use xlink:href="#m23b1152805" x="59.580313" y="170.44" style="stroke: #000000; stroke-width: 0.8"/>
      </g>
     </g>
     <g id="text_1">
      <!-- 0 -->
      <g transform="translate(56.399063 185.038437)scale(0.1 -0.1)">
       <defs>
        <path id="DejaVuSans-30" d="M 2034 4250 
Q 1547 4250 1301 3770 
Q 1056 3291 1056 2328 
Q 1056 1369 1301 889 
Q 1547 409 2034 409 
Q 2525 409 2770 889 
Q 3016 1369 3016 2328 
Q 3016 3291 2770 3770 
Q 2525 4250 2034 4250 
z
M 2034 4750 
Q 2819 4750 3233 4129 
Q 3647 3509 3647 2328 
Q 3647 1150 3233 529 
Q 2819 -91 2034 -91 
Q 1250 -91 836 529 
Q 422 1150 422 2328 
Q 422 3509 836 4129 
Q 1250 4750 2034 4750 
z
" transform="scale(0.015625)"/>
       </defs>
       <use xlink:href="#DejaVuSans-30"/>
      </g>
     </g>
    </g>
    <g id="xtick_2">
     <g id="line2d_3">
      <path d="M 127.433883 170.44 
L 127.433883 7.2 
" clip-path="url(#p7708fd7066)" style="fill: none; stroke: #b0b0b0; stroke-width: 0.8; stroke-linecap: square"/>
     </g>
     <g id="line2d_4">
      <g>
       <use xlink:href="#m23b1152805" x="127.433883" y="170.44" style="stroke: #000000; stroke-width: 0.8"/>
      </g>
     </g>
     <g id="text_2">
      <!-- 10 -->
      <g transform="translate(121.071383 185.038437)scale(0.1 -0.1)">
       <defs>
        <path id="DejaVuSans-31" d="M 794 531 
L 1825 531 
L 1825 4091 
L 703 3866 
L 703 4441 
L 1819 4666 
L 2450 4666 
L 2450 531 
L 3481 531 
L 3481 0 
L 794 0 
L 794 531 
z
" transform="scale(0.015625)"/>
       </defs>
       <use xlink:href="#DejaVuSans-31"/>
       <use xlink:href="#DejaVuSans-30" x="63.623047"/>
      </g>
     </g>
    </g>
    <g id="xtick_3">
     <g id="line2d_5">
      <path d="M 195.287454 170.44 
L 195.287454 7.2 
" clip-path="url(#p7708fd7066)" style="fill: none; stroke: #b0b0b0; stroke-width: 0.8; stroke-linecap: square"/>
     </g>
     <g id="line2d_6">
      <g>
       <use xlink:href="#m23b1152805" x="195.287454" y="170.44" style="stroke: #000000; stroke-width: 0.8"/>
      </g>
     </g>
     <g id="text_3">
      <!-- 20 -->
      <g transform="translate(188.924954 185.038437)scale(0.1 -0.1)">
       <defs>
        <path id="DejaVuSans-32" d="M 1228 531 
L 3431 531 
L 3431 0 
L 469 0 
L 469 531 
Q 828 903 1448 1529 
Q 2069 2156 2228 2338 
Q 2531 2678 2651 2914 
Q 2772 3150 2772 3378 
Q 2772 3750 2511 3984 
Q 2250 4219 1831 4219 
Q 1534 4219 1204 4116 
Q 875 4013 500 3803 
L 500 4441 
Q 881 4594 1212 4672 
Q 1544 4750 1819 4750 
Q 2544 4750 2975 4387 
Q 3406 4025 3406 3419 
Q 3406 3131 3298 2873 
Q 3191 2616 2906 2266 
Q 2828 2175 2409 1742 
Q 1991 1309 1228 531 
z
" transform="scale(0.015625)"/>
       </defs>
       <use xlink:href="#DejaVuSans-32"/>
       <use xlink:href="#DejaVuSans-30" x="63.623047"/>
      </g>
     </g>
    </g>
    <g id="xtick_4">
     <g id="line2d_7">
      <path d="M 263.141025 170.44 
L 263.141025 7.2 
" clip-path="url(#p7708fd7066)" style="fill: none; stroke: #b0b0b0; stroke-width: 0.8; stroke-linecap: square"/>
     </g>
     <g id="line2d_8">
      <g>
       <use xlink:href="#m23b1152805" x="263.141025" y="170.44" style="stroke: #000000; stroke-width: 0.8"/>
      </g>
     </g>
     <g id="text_4">
      <!-- 30 -->
      <g transform="translate(256.778525 185.038437)scale(0.1 -0.1)">
       <defs>
        <path id="DejaVuSans-33" d="M 2597 2516 
Q 3050 2419 3304 2112 
Q 3559 1806 3559 1356 
Q 3559 666 3084 287 
Q 2609 -91 1734 -91 
Q 1441 -91 1130 -33 
Q 819 25 488 141 
L 488 750 
Q 750 597 1062 519 
Q 1375 441 1716 441 
Q 2309 441 2620 675 
Q 2931 909 2931 1356 
Q 2931 1769 2642 2001 
Q 2353 2234 1838 2234 
L 1294 2234 
L 1294 2753 
L 1863 2753 
Q 2328 2753 2575 2939 
Q 2822 3125 2822 3475 
Q 2822 3834 2567 4026 
Q 2313 4219 1838 4219 
Q 1578 4219 1281 4162 
Q 984 4106 628 3988 
L 628 4550 
Q 988 4650 1302 4700 
Q 1616 4750 1894 4750 
Q 2613 4750 3031 4423 
Q 3450 4097 3450 3541 
Q 3450 3153 3228 2886 
Q 3006 2619 2597 2516 
z
" transform="scale(0.015625)"/>
       </defs>
       <use xlink:href="#DejaVuSans-33"/>
       <use xlink:href="#DejaVuSans-30" x="63.623047"/>
      </g>
     </g>
    </g>
    <g id="xtick_5">
     <g id="line2d_9">
      <path d="M 330.994595 170.44 
L 330.994595 7.2 
" clip-path="url(#p7708fd7066)" style="fill: none; stroke: #b0b0b0; stroke-width: 0.8; stroke-linecap: square"/>
     </g>
     <g id="line2d_10">
      <g>
       <use xlink:href="#m23b1152805" x="330.994595" y="170.44" style="stroke: #000000; stroke-width: 0.8"/>
      </g>
     </g>
     <g id="text_5">
      <!-- 40 -->
      <g transform="translate(324.632095 185.038437)scale(0.1 -0.1)">
       <defs>
        <path id="DejaVuSans-34" d="M 2419 4116 
L 825 1625 
L 2419 1625 
L 2419 4116 
z
M 2253 4666 
L 3047 4666 
L 3047 1625 
L 3713 1625 
L 3713 1100 
L 3047 1100 
L 3047 0 
L 2419 0 
L 2419 1100 
L 313 1100 
L 313 1709 
L 2253 4666 
z
" transform="scale(0.015625)"/>
       </defs>
       <use xlink:href="#DejaVuSans-34"/>
       <use xlink:href="#DejaVuSans-30" x="63.623047"/>
      </g>
     </g>
    </g>
    <g id="xtick_6">
     <g id="line2d_11">
      <path d="M 398.848166 170.44 
L 398.848166 7.2 
" clip-path="url(#p7708fd7066)" style="fill: none; stroke: #b0b0b0; stroke-width: 0.8; stroke-linecap: square"/>
     </g>
     <g id="line2d_12">
      <g>
       <use xlink:href="#m23b1152805" x="398.848166" y="170.44" style="stroke: #000000; stroke-width: 0.8"/>
      </g>
     </g>
     <g id="text_6">
      <!-- 50 -->
      <g transform="translate(392.485666 185.038437)scale(0.1 -0.1)">
       <defs>
        <path id="DejaVuSans-35" d="M 691 4666 
L 3169 4666 
L 3169 4134 
L 1269 4134 
L 1269 2991 
Q 1406 3038 1543 3061 
Q 1681 3084 1819 3084 
Q 2600 3084 3056 2656 
Q 3513 2228 3513 1497 
Q 3513 744 3044 326 
Q 2575 -91 1722 -91 
Q 1428 -91 1123 -41 
Q 819 9 494 109 
L 494 744 
Q 775 591 1075 516 
Q 1375 441 1709 441 
Q 2250 441 2565 725 
Q 2881 1009 2881 1497 
Q 2881 1984 2565 2268 
Q 2250 2553 1709 2553 
Q 1456 2553 1204 2497 
Q 953 2441 691 2322 
L 691 4666 
z
" transform="scale(0.015625)"/>
       </defs>
       <use xlink:href="#DejaVuSans-35"/>
       <use xlink:href="#DejaVuSans-30" x="63.623047"/>
      </g>
     </g>
    </g>
    <g id="text_7">
     <!-- Time (s) -->
     <g transform="translate(208.851406 198.716563)scale(0.1 -0.1)">
      <defs>
       <path id="DejaVuSans-54" d="M -19 4666 
L 3928 4666 
L 3928 4134 
L 2272 4134 
L 2272 0 
L 1638 0 
L 1638 4134 
L -19 4134 
L -19 4666 
z
" transform="scale(0.015625)"/>
       <path id="DejaVuSans-69" d="M 603 3500 
L 1178 3500 
L 1178 0 
L 603 0 
L 603 3500 
z
M 603 4863 
L 1178 4863 
L 1178 4134 
L 603 4134 
L 603 4863 
z
" transform="scale(0.015625)"/>
       <path id="DejaVuSans-6d" d="M 3328 2828 
Q 3544 3216 3844 3400 
Q 4144 3584 4550 3584 
Q 5097 3584 5394 3201 
Q 5691 2819 5691 2113 
L 5691 0 
L 5113 0 
L 5113 2094 
Q 5113 2597 4934 2840 
Q 4756 3084 4391 3084 
Q 3944 3084 3684 2787 
Q 3425 2491 3425 1978 
L 3425 0 
L 2847 0 
L 2847 2094 
Q 2847 2600 2669 2842 
Q 2491 3084 2119 3084 
Q 1678 3084 1418 2786 
Q 1159 2488 1159 1978 
L 1159 0 
L 581 0 
L 581 3500 
L 1159 3500 
L 1159 2956 
Q 1356 3278 1631 3431 
Q 1906 3584 2284 3584 
Q 2666 3584 2933 3390 
Q 3200 3197 3328 2828 
z
" transform="scale(0.015625)"/>
       <path id="DejaVuSans-65" d="M 3597 1894 
L 3597 1613 
L 953 1613 
Q 991 1019 1311 708 
Q 1631 397 2203 397 
Q 2534 397 2845 478 
Q 3156 559 3463 722 
L 3463 178 
Q 3153 47 2828 -22 
Q 2503 -91 2169 -91 
Q 1331 -91 842 396 
Q 353 884 353 1716 
Q 353 2575 817 3079 
Q 1281 3584 2069 3584 
Q 2775 3584 3186 3129 
Q 3597 2675 3597 1894 
z
M 3022 2063 
Q 3016 2534 2758 2815 
Q 2500 3097 2075 3097 
Q 1594 3097 1305 2825 
Q 1016 2553 972 2059 
L 3022 2063 
z
" transform="scale(0.015625)"/>
       <path id="DejaVuSans-20" transform="scale(0.015625)"/>
       <path id="DejaVuSans-28" d="M 1984 4856 
Q 1566 4138 1362 3434 
Q 1159 2731 1159 2009 
Q 1159 1288 1364 580 
Q 1569 -128 1984 -844 
L 1484 -844 
Q 1016 -109 783 600 
Q 550 1309 550 2009 
Q 550 2706 781 3412 
Q 1013 4119 1484 4856 
L 1984 4856 
z
" transform="scale(0.015625)"/>
       <path id="DejaVuSans-73" d="M 2834 3397 
L 2834 2853 
Q 2591 2978 2328 3040 
Q 2066 3103 1784 3103 
Q 1356 3103 1142 2972 
Q 928 2841 928 2578 
Q 928 2378 1081 2264 
Q 1234 2150 1697 2047 
L 1894 2003 
Q 2506 1872 2764 1633 
Q 3022 1394 3022 966 
Q 3022 478 2636 193 
Q 2250 -91 1575 -91 
Q 1294 -91 989 -36 
Q 684 19 347 128 
L 347 722 
Q 666 556 975 473 
Q 1284 391 1588 391 
Q 1994 391 2212 530 
Q 2431 669 2431 922 
Q 2431 1156 2273 1281 
Q 2116 1406 1581 1522 
L 1381 1569 
Q 847 1681 609 1914 
Q 372 2147 372 2553 
Q 372 3047 722 3315 
Q 1072 3584 1716 3584 
Q 2034 3584 2315 3537 
Q 2597 3491 2834 3397 
z
" transform="scale(0.015625)"/>
       <path id="DejaVuSans-29" d="M 513 4856 
L 1013 4856 
Q 1481 4119 1714 3412 
Q 1947 2706 1947 2009 
Q 1947 1309 1714 600 
Q 1481 -109 1013 -844 
L 513 -844 
Q 928 -128 1133 580 
Q 1338 1288 1338 2009 
Q 1338 2731 1133 3434 
Q 928 4138 513 4856 
z
" transform="scale(0.015625)"/>
      </defs>
      <use xlink:href="#DejaVuSans-54"/>
      <use xlink:href="#DejaVuSans-69" x="57.958984"/>
      <use xlink:href="#DejaVuSans-6d" x="85.742188"/>
      <use xlink:href="#DejaVuSans-65" x="183.154297"/>
      <use xlink:href="#DejaVuSans-20" x="244.677734"/>
      <use xlink:href="#DejaVuSans-28" x="276.464844"/>
      <use xlink:href="#DejaVuSans-73" x="315.478516"/>
      <use xlink:href="#DejaVuSans-29" x="367.578125"/>
     </g>
    </g>
   </g>
   <g id="matplotlib.axis_2">
    <g id="ytick_1">
     <g id="line2d_13">
      <path d="M 42.620313 148.179714 
L 415.740312 148.179714 
" clip-path="url(#p7708fd7066)" style="fill: none; stroke: #b0b0b0; stroke-width: 0.8; stroke-linecap: square"/>
     </g>
     <g id="line2d_14">
      <defs>
       <path id="m2cd57123b4" d="M 0 0 
L -3.5 0 
" style="stroke: #000000; stroke-width: 0.8"/>
      </defs>
      <g>
       <use xlink:href="#m2cd57123b4" x="42.620313" y="148.179714" style="stroke: #000000; stroke-width: 0.8"/>
      </g>
     </g>
     <g id="text_8">
      <!-- −4 -->
      <g transform="translate(20.878125 151.978933)scale(0.1 -0.1)">
       <defs>
        <path id="DejaVuSans-2212" d="M 678 2272 
L 4684 2272 
L 4684 1741 
L 678 1741 
L 678 2272 
z
" transform="scale(0.015625)"/>
       </defs>
       <use xlink:href="#DejaVuSans-2212"/>
       <use xlink:href="#DejaVuSans-34" x="83.789062"/>
      </g>
     </g>
    </g>
    <g id="ytick_2">
     <g id="line2d_15">
      <path d="M 42.620313 118.499143 
L 415.740312 118.499143 
" clip-path="url(#p7708fd7066)" style="fill: none; stroke: #b0b0b0; stroke-width: 0.8; stroke-linecap: square"/>
     </g>
     <g id="line2d_16">
      <g>
       <use xlink:href="#m2cd57123b4" x="42.620313" y="118.499143" style="stroke: #000000; stroke-width: 0.8"/>
      </g>
     </g>
     <g id="text_9">
      <!-- −2 -->
      <g transform="translate(20.878125 122.298362)scale(0.1 -0.1)">
       <use xlink:href="#DejaVuSans-2212"/>
       <use xlink:href="#DejaVuSans-32" x="83.789062"/>
      </g>
     </g>
    </g>
    <g id="ytick_3">
     <g id="line2d_17">
      <path d="M 42.620313 88.818572 
L 415.740312 88.818572 
" clip-path="url(#p7708fd7066)" style="fill: none; stroke: #b0b0b0; stroke-width: 0.8; stroke-linecap: square"/>
     </g>
     <g id="line2d_18">
      <g>
       <use xlink:href="#m2cd57123b4" x="42.620313" y="88.818572" style="stroke: #000000; stroke-width: 0.8"/>
      </g>
     </g>
     <g id="text_10">
      <!-- 0 -->
      <g transform="translate(29.257813 92.617791)scale(0.1 -0.1)">
       <use xlink:href="#DejaVuSans-30"/>
      </g>
     </g>
    </g>
    <g id="ytick_4">
     <g id="line2d_19">
      <path d="M 42.620313 59.138001 
L 415.740312 59.138001 
" clip-path="url(#p7708fd7066)" style="fill: none; stroke: #b0b0b0; stroke-width: 0.8; stroke-linecap: square"/>
     </g>
     <g id="line2d_20">
      <g>
       <use xlink:href="#m2cd57123b4" x="42.620313" y="59.138001" style="stroke: #000000; stroke-width: 0.8"/>
      </g>
     </g>
     <g id="text_11">
      <!-- 2 -->
      <g transform="translate(29.257813 62.93722)scale(0.1 -0.1)">
       <use xlink:href="#DejaVuSans-32"/>
      </g>
     </g>
    </g>
    <g id="ytick_5">
     <g id="line2d_21">
      <path d="M 42.620313 29.45743 
L 415.740312 29.45743 
" clip-path="url(#p7708fd7066)" style="fill: none; stroke: #b0b0b0; stroke-width: 0.8; stroke-linecap: square"/>
     </g>
     <g id="line2d_22">
      <g>
       <use xlink:href="#m2cd57123b4" x="42.620313" y="29.45743" style="stroke: #000000; stroke-width: 0.8"/>
      </g>
     </g>
     <g id="text_12">
      <!-- 4 -->
      <g transform="translate(29.257813 33.256649)scale(0.1 -0.1)">
       <use xlink:href="#DejaVuSans-34"/>
      </g>
     </g>
    </g>
    <g id="text_13">
     <!-- $\theta (º)$ -->
     <g transform="translate(14.798438 98.17)rotate(-90)scale(0.1 -0.1)">
      <defs>
       <path id="DejaVuSans-Oblique-3b8" d="M 2913 2219 
L 925 2219 
Q 791 1284 928 888 
Q 1100 400 1566 400 
Q 2034 400 2391 891 
Q 2703 1322 2913 2219 
z
M 3009 2750 
Q 3094 3638 2984 3950 
Q 2813 4444 2353 4444 
Q 1875 4444 1525 3956 
Q 1250 3563 1034 2750 
L 3009 2750 
z
M 2444 4913 
Q 3194 4913 3494 4250 
Q 3794 3591 3566 2422 
Q 3341 1256 2781 594 
Q 2225 -72 1475 -72 
Q 722 -72 425 594 
Q 128 1256 353 2422 
Q 581 3591 1134 4250 
Q 1691 4913 2444 4913 
z
" transform="scale(0.015625)"/>
       <path id="DejaVuSans-Oblique-ba" d="M 2463 3688 
Q 2463 4031 2308 4211 
Q 2153 4391 1850 4391 
Q 1488 4391 1223 4056 
Q 959 3722 959 3250 
Q 959 2909 1114 2725 
Q 1269 2541 1556 2541 
Q 1938 2541 2200 2870 
Q 2463 3200 2463 3688 
z
M 1941 4750 
Q 2403 4750 2679 4481 
Q 2956 4213 2956 3763 
Q 2956 3075 2540 2628 
Q 2125 2181 1491 2181 
Q 1022 2181 748 2462 
Q 475 2744 475 3225 
Q 475 3438 534 3645 
Q 594 3853 709 4050 
Q 903 4381 1228 4565 
Q 1553 4750 1941 4750 
z
M 325 1850 
L 2478 1850 
L 2406 1466 
L 256 1466 
L 325 1850 
z
" transform="scale(0.015625)"/>
      </defs>
      <use xlink:href="#DejaVuSans-Oblique-3b8" transform="translate(0 0.234375)"/>
      <use xlink:href="#DejaVuSans-28" transform="translate(61.181641 0.234375)"/>
      <use xlink:href="#DejaVuSans-Oblique-ba" transform="translate(100.195312 0.234375)"/>
      <use xlink:href="#DejaVuSans-29" transform="translate(147.314453 0.234375)"/>
     </g>
    </g>
   </g>
   <g id="line2d_23">
    <path d="M 59.580313 163.02 
L 66.56923 162.957217 
L 66.840645 162.678394 
L 67.179912 162.017589 
L 67.654887 160.515529 
L 68.197716 157.991563 
L 68.876252 153.671365 
L 69.690495 146.888107 
L 70.640445 137.005661 
L 71.861809 121.754632 
L 73.626002 96.46806 
L 76.747266 51.454431 
L 78.036484 36.198619 
L 79.054287 26.622001 
L 79.86853 20.833808 
L 80.547066 17.408607 
L 81.089894 15.631664 
L 81.497016 14.875677 
L 81.836284 14.627754 
L 82.107698 14.680449 
L 82.379112 14.956158 
L 82.71838 15.613084 
L 83.193355 17.109767 
L 83.736184 19.627725 
L 84.414719 23.940722 
L 85.228962 30.71597 
L 86.178912 40.590214 
L 87.400276 55.83296 
L 89.164469 81.112966 
L 92.285734 126.132281 
L 93.574951 141.396522 
L 94.592755 150.981832 
L 95.406998 156.778008 
L 96.085534 160.210393 
L 96.628362 161.993334 
L 97.035484 162.753919 
L 97.374751 163.005715 
L 97.646166 162.956131 
L 97.91758 162.683535 
L 98.256848 162.030488 
L 98.731823 160.539181 
L 99.274651 158.027232 
L 99.953187 153.721437 
L 100.76743 146.9542 
L 101.71738 137.088163 
L 102.938744 121.853707 
L 104.702937 96.580281 
L 107.824201 51.555306 
L 109.113419 36.282647 
L 110.131223 26.688654 
L 110.945466 20.8845 
L 111.624001 17.444935 
L 112.16683 15.655998 
L 112.573951 14.890816 
L 112.913219 14.635149 
L 113.184633 14.681622 
L 113.456048 14.951106 
L 113.795316 15.600274 
L 114.27029 17.086205 
L 114.813119 19.592146 
L 115.491655 23.890738 
L 116.305898 30.64996 
L 117.255848 40.507787 
L 118.477212 55.733946 
L 120.173551 79.989485 
L 123.430523 126.908221 
L 124.71974 142.026549 
L 125.737544 151.466047 
L 126.551787 157.130568 
L 127.230323 160.44582 
L 127.773151 162.13177 
L 128.180272 162.818458 
L 128.51954 163.008319 
L 128.790955 162.909165 
L 129.130222 162.471908 
L 129.537344 161.490592 
L 130.012319 159.724884 
L 130.623001 156.498232 
L 131.36939 151.162238 
L 132.251487 143.041439 
L 133.337144 130.717833 
L 134.694215 112.564769 
L 137.747626 67.499448 
L 139.376112 45.671893 
L 140.529622 32.894999 
L 141.479572 24.620269 
L 142.293815 19.396608 
L 142.904497 16.704158 
L 143.447326 15.231042 
L 143.854447 14.70628 
L 144.125862 14.634943 
L 144.397276 14.786758 
L 144.736544 15.289574 
L 145.143665 16.348765 
L 145.686494 18.522092 
L 146.297176 21.975787 
L 147.043565 27.571686 
L 147.925662 35.967145 
L 149.011319 48.568352 
L 150.436244 67.930463 
L 155.253847 135.953863 
L 156.339504 147.293881 
L 157.221601 154.462916 
L 157.96799 158.910625 
L 158.578672 161.368853 
L 159.053647 162.519023 
L 159.460769 162.964996 
L 159.732183 162.983645 
L 160.003597 162.779199 
L 160.342865 162.210911 
L 160.749986 161.074028 
L 161.292815 158.799452 
L 161.903497 155.236437 
L 162.649886 149.515847 
L 163.531983 140.989304 
L 164.61764 128.256748 
L 166.110419 107.800198 
L 170.656608 43.318737 
L 171.810118 31.012534 
L 172.760068 23.203141 
L 173.506458 18.74777 
L 174.11714 16.282907 
L 174.592115 15.127416 
L 174.999236 14.676814 
L 175.270651 14.65506 
L 175.542065 14.856396 
L 175.881333 15.420803 
L 176.288454 16.553065 
L 176.831283 18.821591 
L 177.441965 22.378033 
L 178.188354 28.091067 
L 179.070451 36.609577 
L 180.156108 49.333934 
L 181.648886 69.782911 
L 186.195075 134.271919 
L 187.348586 146.58689 
L 188.298536 154.405059 
L 189.044925 158.868088 
L 189.655608 161.339584 
L 190.130583 162.500391 
L 190.537704 162.955621 
L 190.809118 162.980481 
L 191.080533 162.782255 
L 191.4198 162.221727 
L 191.826922 161.094086 
L 192.36975 158.831611 
L 192.980433 155.281742 
L 193.726822 149.576265 
L 194.608918 141.065791 
L 195.694575 128.349639 
L 197.187354 107.908245 
L 201.733543 43.411729 
L 202.887054 31.088001 
L 203.837004 23.261062 
L 204.583393 18.79038 
L 205.194075 16.312255 
L 205.66905 15.146131 
L 206.076172 14.686275 
L 206.347586 14.658311 
L 206.619 14.853428 
L 206.958268 15.410076 
L 207.36539 16.533096 
L 207.908218 18.789521 
L 208.5189 22.332817 
L 209.265289 28.030734 
L 210.147386 36.533169 
L 211.233043 49.241111 
L 212.657968 68.693735 
L 217.407718 135.771513 
L 218.493375 147.145286 
L 219.375472 154.347074 
L 220.121861 158.825405 
L 220.732543 161.310156 
L 221.207518 162.481594 
L 221.614639 162.946076 
L 221.886054 162.977143 
L 222.157468 162.785135 
L 222.496736 162.232366 
L 222.903857 161.113965 
L 223.446686 158.863591 
L 224.057368 155.32687 
L 224.803757 149.636513 
L 225.685854 141.142121 
L 226.771511 128.442394 
L 228.196436 108.997131 
L 232.946186 41.911263 
L 234.031843 30.529073 
L 234.913939 23.319112 
L 235.660329 18.833136 
L 236.271011 16.341761 
L 236.745986 15.165011 
L 237.153107 14.695905 
L 237.424521 14.661735 
L 237.695936 14.850635 
L 238.035203 15.399527 
L 238.442325 16.513307 
L 238.985153 18.757631 
L 239.595836 22.287778 
L 240.342225 27.970572 
L 241.224321 36.456918 
L 242.309978 49.148423 
L 243.734903 68.586317 
L 248.484653 135.680233 
L 249.57031 147.070832 
L 250.452407 154.28896 
L 251.198796 158.782576 
L 251.809478 161.280572 
L 252.284453 162.462631 
L 252.691575 162.93636 
L 252.962989 162.973633 
L 253.234403 162.78784 
L 253.573671 162.242826 
L 253.980793 161.133664 
L 254.523621 158.895391 
L 255.134303 155.37182 
L 255.880693 149.69659 
L 256.762789 141.218292 
L 257.848446 128.535015 
L 259.273371 109.104501 
L 264.023121 42.002577 
L 265.108778 30.603579 
L 265.990875 23.37729 
L 266.737264 18.876038 
L 267.347946 16.371424 
L 267.822921 15.184057 
L 268.230042 14.705706 
L 268.501457 14.665332 
L 268.772871 14.848019 
L 269.112139 15.389155 
L 269.51926 16.493698 
L 270.062089 18.725921 
L 270.672771 22.242916 
L 271.41916 27.91058 
L 272.301257 36.380826 
L 273.386914 49.055871 
L 274.811839 68.478995 
L 279.561589 135.588884 
L 280.647246 146.996274 
L 281.529342 154.230718 
L 282.275732 158.739601 
L 282.886414 161.25083 
L 283.361389 162.443503 
L 283.76851 162.926474 
L 284.039924 162.969949 
L 284.311339 162.790369 
L 284.650607 162.253108 
L 285.057728 161.153184 
L 285.600557 158.927012 
L 286.211239 155.416594 
L 286.957628 149.756496 
L 287.839724 141.294306 
L 288.925382 128.627499 
L 290.350306 109.211775 
L 295.100056 42.093961 
L 296.185714 30.678188 
L 297.06781 23.435595 
L 297.814199 18.919085 
L 298.424881 16.401245 
L 298.899856 15.203267 
L 299.306978 14.715677 
L 299.578392 14.669103 
L 299.849806 14.845577 
L 300.189074 15.378962 
L 300.596196 16.474268 
L 301.139024 18.69439 
L 301.749706 22.198231 
L 302.496096 27.850759 
L 303.378192 36.304891 
L 304.463849 48.963454 
L 305.888774 68.371769 
L 310.638524 135.497466 
L 311.724181 146.921613 
L 312.606278 154.172348 
L 313.352667 158.696482 
L 313.963349 161.22093 
L 314.438324 162.424211 
L 314.845446 162.916418 
L 315.11686 162.966092 
L 315.388274 162.792722 
L 315.727542 162.263213 
L 316.134663 161.172525 
L 316.677492 158.958453 
L 317.288174 155.46119 
L 318.034563 149.816232 
L 318.91666 141.370162 
L 320.002317 128.719848 
L 321.427242 109.318952 
L 326.176992 42.185413 
L 327.262649 30.7529 
L 328.144745 23.494029 
L 328.891135 18.962277 
L 329.501817 16.431223 
L 329.976792 15.222641 
L 330.383913 14.725818 
L 330.655328 14.673046 
L 330.926742 14.843311 
L 331.26601 15.368945 
L 331.673131 16.455017 
L 332.21596 18.663038 
L 332.826642 22.153723 
L 333.573031 27.791109 
L 334.455127 36.229114 
L 335.540785 48.871173 
L 336.96571 68.26464 
L 341.783313 136.192818 
L 342.86897 147.474494 
L 343.751067 154.589613 
L 344.497456 158.988497 
L 345.108138 161.405413 
L 345.583113 162.523037 
L 345.922381 162.906192 
L 346.193795 162.962062 
L 346.465209 162.794901 
L 346.804477 162.273141 
L 347.211599 161.191686 
L 347.754427 158.989715 
L 348.365109 155.505609 
L 349.111499 149.875797 
L 349.993595 141.445859 
L 351.079252 128.812062 
L 352.504177 109.426032 
L 357.321781 41.489634 
L 358.407438 30.199485 
L 359.289534 23.076161 
L 360.035924 18.669615 
L 360.646606 16.246069 
L 361.121581 15.123133 
L 361.460849 14.736129 
L 361.732263 14.677162 
L 362.003677 14.84122 
L 362.342945 15.359106 
L 362.750066 16.435944 
L 363.292895 18.631866 
L 363.903577 22.109392 
L 364.649966 27.731629 
L 365.532063 36.153496 
L 366.61772 48.779027 
L 368.042645 68.157608 
L 372.860248 136.102185 
L 373.945906 147.400799 
L 374.828002 154.532322 
L 375.574391 158.946525 
L 376.185073 161.376699 
L 376.660048 162.504946 
L 376.999316 162.895797 
L 377.270731 162.95786 
L 377.542145 162.796905 
L 377.881413 162.282891 
L 378.288534 161.210669 
L 378.831363 159.020798 
L 379.442045 155.549852 
L 380.188434 149.935192 
L 381.070531 141.521399 
L 382.156188 128.904139 
L 383.581113 109.533016 
L 388.398716 41.580302 
L 389.484373 30.273232 
L 390.36647 23.133516 
L 391.112859 18.71166 
L 391.723541 16.274862 
L 392.198516 15.141306 
L 392.537784 14.746609 
L 392.809198 14.681451 
L 393.080613 14.839304 
L 393.41988 15.349445 
L 393.827002 16.417051 
L 394.36983 18.600873 
L 394.980513 22.065238 
L 395.726902 27.67232 
L 396.608998 36.078035 
L 397.694655 48.687017 
L 398.780312 63.221869 
L 398.780312 63.221869 
" clip-path="url(#p7708fd7066)" style="fill: none; stroke: #1f77b4; stroke-width: 1.5; stroke-linecap: square"/>
   </g>
   <g id="line2d_24">
    <defs>
     <path id="m05c315ecc8" d="M 0 2 
C 0.530406 2 1.03916 1.789267 1.414214 1.414214 
C 1.789267 1.03916 2 0.530406 2 0 
C 2 -0.530406 1.789267 -1.03916 1.414214 -1.414214 
C 1.03916 -1.789267 0.530406 -2 0 -2 
C -0.530406 -2 -1.03916 -1.789267 -1.414214 -1.414214 
C -1.789267 -1.03916 -2 -0.530406 -2 0 
C -2 0.530406 -1.789267 1.03916 -1.414214 1.414214 
C -1.03916 1.789267 -0.530406 2 0 2 
z
" style="stroke: #ff7f0e"/>
    </defs>
    <g clip-path="url(#p7708fd7066)">
     <use xlink:href="#m05c315ecc8" x="112.981073" y="14.62584" style="fill: #ff7f0e; stroke: #ff7f0e"/>
    </g>
   </g>
   <g id="line2d_25">
    <defs>
     <path id="m2da01e59d1" d="M 0 2 
C 0.530406 2 1.03916 1.789267 1.414214 1.414214 
C 1.789267 1.03916 2 0.530406 2 0 
C 2 -0.530406 1.789267 -1.03916 1.414214 -1.414214 
C 1.03916 -1.789267 0.530406 -2 0 -2 
C -0.530406 -2 -1.03916 -1.789267 -1.414214 -1.414214 
C -1.789267 -1.03916 -2 -0.530406 -2 0 
C -2 0.530406 -1.789267 1.03916 -1.414214 1.414214 
C -1.03916 1.789267 -0.530406 2 0 2 
z
" style="stroke: #2ca02c"/>
    </defs>
    <g clip-path="url(#p7708fd7066)">
     <use xlink:href="#m2da01e59d1" x="144.058008" y="14.631854" style="fill: #2ca02c; stroke: #2ca02c"/>
    </g>
   </g>
   <g id="patch_3">
    <path d="M 42.620313 170.44 
L 42.620313 7.2 
" style="fill: none; stroke: #000000; stroke-width: 0.8; stroke-linejoin: miter; stroke-linecap: square"/>
   </g>
   <g id="patch_4">
    <path d="M 415.740312 170.44 
L 415.740312 7.2 
" style="fill: none; stroke: #000000; stroke-width: 0.8; stroke-linejoin: miter; stroke-linecap: square"/>
   </g>
   <g id="patch_5">
    <path d="M 42.620313 170.44 
L 415.740312 170.44 
" style="fill: none; stroke: #000000; stroke-width: 0.8; stroke-linejoin: miter; stroke-linecap: square"/>
   </g>
   <g id="patch_6">
    <path d="M 42.620313 7.2 
L 415.740312 7.2 
" style="fill: none; stroke: #000000; stroke-width: 0.8; stroke-linejoin: miter; stroke-linecap: square"/>
   </g>
  </g>
 </g>
 <defs>
  <clipPath id="p7708fd7066">
   <rect x="42.620313" y="7.2" width="373.12" height="163.24"/>
  </clipPath>
 </defs>
</svg>
