<?xml version="1.0" encoding="utf-8" standalone="no"?>
<!DOCTYPE svg PUBLIC "-//W3C//DTD SVG 1.1//EN"
  "http://www.w3.org/Graphics/SVG/1.1/DTD/svg11.dtd">
<!-- Created with matplotlib (https://matplotlib.org/) -->
<svg height="351.610346pt" version="1.1" viewBox="0 0 421.594687 351.610346" width="421.594687pt" xmlns="http://www.w3.org/2000/svg" xmlns:xlink="http://www.w3.org/1999/xlink">
 <metadata>
  <rdf:RDF xmlns:cc="http://creativecommons.org/ns#" xmlns:dc="http://purl.org/dc/elements/1.1/" xmlns:rdf="http://www.w3.org/1999/02/22-rdf-syntax-ns#">
   <cc:Work>
    <dc:type rdf:resource="http://purl.org/dc/dcmitype/StillImage"/>
    <dc:date>2021-02-01T12:25:23.455215</dc:date>
    <dc:format>image/svg+xml</dc:format>
    <dc:creator>
     <cc:Agent>
      <dc:title>Matplotlib v3.3.2, https://matplotlib.org/</dc:title>
     </cc:Agent>
    </dc:creator>
   </cc:Work>
  </rdf:RDF>
 </metadata>
 <defs>
  <style type="text/css">*{stroke-linecap:butt;stroke-linejoin:round;}</style>
 </defs>
 <g id="figure_1">
  <g id="patch_1">
   <path d="M 0 351.610346 
L 421.594687 351.610346 
L 421.594687 0 
L 0 0 
z
" style="fill:none;"/>
  </g>
  <g id="axes_1">
   <g id="patch_2">
    <path d="M 49.104688 147.55173 
L 414.394687 147.55173 
L 414.394687 8.929363 
L 49.104688 8.929363 
z
" style="fill:#ffffff;"/>
   </g>
   <g id="matplotlib.axis_1">
    <g id="xtick_1">
     <g id="line2d_1">
      <path clip-path="url(#pa348e8c7d1)" d="M 65.708778 147.55173 
L 65.708778 8.929363 
" style="fill:none;stroke:#b0b0b0;stroke-linecap:square;stroke-width:0.8;"/>
     </g>
     <g id="line2d_2">
      <defs>
       <path d="M 0 0 
L 0 3.5 
" id="m257736c273" style="stroke:#000000;stroke-width:0.8;"/>
      </defs>
      <g>
       <use style="stroke:#000000;stroke-width:0.8;" x="65.708778" xlink:href="#m257736c273" y="147.55173"/>
      </g>
     </g>
     <g id="text_1">
      <!-- 0 -->
      <g transform="translate(62.527528 162.150167)scale(0.1 -0.1)">
       <defs>
        <path d="M 31.78125 66.40625 
Q 24.171875 66.40625 20.328125 58.90625 
Q 16.5 51.421875 16.5 36.375 
Q 16.5 21.390625 20.328125 13.890625 
Q 24.171875 6.390625 31.78125 6.390625 
Q 39.453125 6.390625 43.28125 13.890625 
Q 47.125 21.390625 47.125 36.375 
Q 47.125 51.421875 43.28125 58.90625 
Q 39.453125 66.40625 31.78125 66.40625 
z
M 31.78125 74.21875 
Q 44.046875 74.21875 50.515625 64.515625 
Q 56.984375 54.828125 56.984375 36.375 
Q 56.984375 17.96875 50.515625 8.265625 
Q 44.046875 -1.421875 31.78125 -1.421875 
Q 19.53125 -1.421875 13.0625 8.265625 
Q 6.59375 17.96875 6.59375 36.375 
Q 6.59375 54.828125 13.0625 64.515625 
Q 19.53125 74.21875 31.78125 74.21875 
z
" id="DejaVuSans-48"/>
       </defs>
       <use xlink:href="#DejaVuSans-48"/>
      </g>
     </g>
    </g>
    <g id="xtick_2">
     <g id="line2d_3">
      <path clip-path="url(#pa348e8c7d1)" d="M 132.418666 147.55173 
L 132.418666 8.929363 
" style="fill:none;stroke:#b0b0b0;stroke-linecap:square;stroke-width:0.8;"/>
     </g>
     <g id="line2d_4">
      <g>
       <use style="stroke:#000000;stroke-width:0.8;" x="132.418666" xlink:href="#m257736c273" y="147.55173"/>
      </g>
     </g>
     <g id="text_2">
      <!-- 5 -->
      <g transform="translate(129.237416 162.150167)scale(0.1 -0.1)">
       <defs>
        <path d="M 10.796875 72.90625 
L 49.515625 72.90625 
L 49.515625 64.59375 
L 19.828125 64.59375 
L 19.828125 46.734375 
Q 21.96875 47.46875 24.109375 47.828125 
Q 26.265625 48.1875 28.421875 48.1875 
Q 40.625 48.1875 47.75 41.5 
Q 54.890625 34.8125 54.890625 23.390625 
Q 54.890625 11.625 47.5625 5.09375 
Q 40.234375 -1.421875 26.90625 -1.421875 
Q 22.3125 -1.421875 17.546875 -0.640625 
Q 12.796875 0.140625 7.71875 1.703125 
L 7.71875 11.625 
Q 12.109375 9.234375 16.796875 8.0625 
Q 21.484375 6.890625 26.703125 6.890625 
Q 35.15625 6.890625 40.078125 11.328125 
Q 45.015625 15.765625 45.015625 23.390625 
Q 45.015625 31 40.078125 35.4375 
Q 35.15625 39.890625 26.703125 39.890625 
Q 22.75 39.890625 18.8125 39.015625 
Q 14.890625 38.140625 10.796875 36.28125 
z
" id="DejaVuSans-53"/>
       </defs>
       <use xlink:href="#DejaVuSans-53"/>
      </g>
     </g>
    </g>
    <g id="xtick_3">
     <g id="line2d_5">
      <path clip-path="url(#pa348e8c7d1)" d="M 199.128553 147.55173 
L 199.128553 8.929363 
" style="fill:none;stroke:#b0b0b0;stroke-linecap:square;stroke-width:0.8;"/>
     </g>
     <g id="line2d_6">
      <g>
       <use style="stroke:#000000;stroke-width:0.8;" x="199.128553" xlink:href="#m257736c273" y="147.55173"/>
      </g>
     </g>
     <g id="text_3">
      <!-- 10 -->
      <g transform="translate(192.766053 162.150167)scale(0.1 -0.1)">
       <defs>
        <path d="M 12.40625 8.296875 
L 28.515625 8.296875 
L 28.515625 63.921875 
L 10.984375 60.40625 
L 10.984375 69.390625 
L 28.421875 72.90625 
L 38.28125 72.90625 
L 38.28125 8.296875 
L 54.390625 8.296875 
L 54.390625 0 
L 12.40625 0 
z
" id="DejaVuSans-49"/>
       </defs>
       <use xlink:href="#DejaVuSans-49"/>
       <use x="63.623047" xlink:href="#DejaVuSans-48"/>
      </g>
     </g>
    </g>
    <g id="xtick_4">
     <g id="line2d_7">
      <path clip-path="url(#pa348e8c7d1)" d="M 265.83844 147.55173 
L 265.83844 8.929363 
" style="fill:none;stroke:#b0b0b0;stroke-linecap:square;stroke-width:0.8;"/>
     </g>
     <g id="line2d_8">
      <g>
       <use style="stroke:#000000;stroke-width:0.8;" x="265.83844" xlink:href="#m257736c273" y="147.55173"/>
      </g>
     </g>
     <g id="text_4">
      <!-- 15 -->
      <g transform="translate(259.47594 162.150167)scale(0.1 -0.1)">
       <use xlink:href="#DejaVuSans-49"/>
       <use x="63.623047" xlink:href="#DejaVuSans-53"/>
      </g>
     </g>
    </g>
    <g id="xtick_5">
     <g id="line2d_9">
      <path clip-path="url(#pa348e8c7d1)" d="M 332.548327 147.55173 
L 332.548327 8.929363 
" style="fill:none;stroke:#b0b0b0;stroke-linecap:square;stroke-width:0.8;"/>
     </g>
     <g id="line2d_10">
      <g>
       <use style="stroke:#000000;stroke-width:0.8;" x="332.548327" xlink:href="#m257736c273" y="147.55173"/>
      </g>
     </g>
     <g id="text_5">
      <!-- 20 -->
      <g transform="translate(326.185827 162.150167)scale(0.1 -0.1)">
       <defs>
        <path d="M 19.1875 8.296875 
L 53.609375 8.296875 
L 53.609375 0 
L 7.328125 0 
L 7.328125 8.296875 
Q 12.9375 14.109375 22.625 23.890625 
Q 32.328125 33.6875 34.8125 36.53125 
Q 39.546875 41.84375 41.421875 45.53125 
Q 43.3125 49.21875 43.3125 52.78125 
Q 43.3125 58.59375 39.234375 62.25 
Q 35.15625 65.921875 28.609375 65.921875 
Q 23.96875 65.921875 18.8125 64.3125 
Q 13.671875 62.703125 7.8125 59.421875 
L 7.8125 69.390625 
Q 13.765625 71.78125 18.9375 73 
Q 24.125 74.21875 28.421875 74.21875 
Q 39.75 74.21875 46.484375 68.546875 
Q 53.21875 62.890625 53.21875 53.421875 
Q 53.21875 48.921875 51.53125 44.890625 
Q 49.859375 40.875 45.40625 35.40625 
Q 44.1875 33.984375 37.640625 27.21875 
Q 31.109375 20.453125 19.1875 8.296875 
z
" id="DejaVuSans-50"/>
       </defs>
       <use xlink:href="#DejaVuSans-50"/>
       <use x="63.623047" xlink:href="#DejaVuSans-48"/>
      </g>
     </g>
    </g>
    <g id="xtick_6">
     <g id="line2d_11">
      <path clip-path="url(#pa348e8c7d1)" d="M 399.258214 147.55173 
L 399.258214 8.929363 
" style="fill:none;stroke:#b0b0b0;stroke-linecap:square;stroke-width:0.8;"/>
     </g>
     <g id="line2d_12">
      <g>
       <use style="stroke:#000000;stroke-width:0.8;" x="399.258214" xlink:href="#m257736c273" y="147.55173"/>
      </g>
     </g>
     <g id="text_6">
      <!-- 25 -->
      <g transform="translate(392.895714 162.150167)scale(0.1 -0.1)">
       <use xlink:href="#DejaVuSans-50"/>
       <use x="63.623047" xlink:href="#DejaVuSans-53"/>
      </g>
     </g>
    </g>
   </g>
   <g id="matplotlib.axis_2">
    <g id="ytick_1">
     <g id="line2d_13">
      <path clip-path="url(#pa348e8c7d1)" d="M 49.104688 141.250713 
L 414.394687 141.250713 
" style="fill:none;stroke:#b0b0b0;stroke-linecap:square;stroke-width:0.8;"/>
     </g>
     <g id="line2d_14">
      <defs>
       <path d="M 0 0 
L -3.5 0 
" id="md5f79c981b" style="stroke:#000000;stroke-width:0.8;"/>
      </defs>
      <g>
       <use style="stroke:#000000;stroke-width:0.8;" x="49.104688" xlink:href="#md5f79c981b" y="141.250713"/>
      </g>
     </g>
     <g id="text_7">
      <!-- −10 -->
      <g transform="translate(21 145.049932)scale(0.1 -0.1)">
       <defs>
        <path d="M 10.59375 35.5 
L 73.1875 35.5 
L 73.1875 27.203125 
L 10.59375 27.203125 
z
" id="DejaVuSans-8722"/>
       </defs>
       <use xlink:href="#DejaVuSans-8722"/>
       <use x="83.789062" xlink:href="#DejaVuSans-49"/>
       <use x="147.412109" xlink:href="#DejaVuSans-48"/>
      </g>
     </g>
    </g>
    <g id="ytick_2">
     <g id="line2d_15">
      <path clip-path="url(#pa348e8c7d1)" d="M 49.104688 97.833548 
L 414.394687 97.833548 
" style="fill:none;stroke:#b0b0b0;stroke-linecap:square;stroke-width:0.8;"/>
     </g>
     <g id="line2d_16">
      <g>
       <use style="stroke:#000000;stroke-width:0.8;" x="49.104688" xlink:href="#md5f79c981b" y="97.833548"/>
      </g>
     </g>
     <g id="text_8">
      <!-- −5 -->
      <g transform="translate(27.3625 101.632767)scale(0.1 -0.1)">
       <use xlink:href="#DejaVuSans-8722"/>
       <use x="83.789062" xlink:href="#DejaVuSans-53"/>
      </g>
     </g>
    </g>
    <g id="ytick_3">
     <g id="line2d_17">
      <path clip-path="url(#pa348e8c7d1)" d="M 49.104688 54.416383 
L 414.394687 54.416383 
" style="fill:none;stroke:#b0b0b0;stroke-linecap:square;stroke-width:0.8;"/>
     </g>
     <g id="line2d_18">
      <g>
       <use style="stroke:#000000;stroke-width:0.8;" x="49.104688" xlink:href="#md5f79c981b" y="54.416383"/>
      </g>
     </g>
     <g id="text_9">
      <!-- 0 -->
      <g transform="translate(35.742188 58.215602)scale(0.1 -0.1)">
       <use xlink:href="#DejaVuSans-48"/>
      </g>
     </g>
    </g>
    <g id="ytick_4">
     <g id="line2d_19">
      <path clip-path="url(#pa348e8c7d1)" d="M 49.104688 10.999219 
L 414.394687 10.999219 
" style="fill:none;stroke:#b0b0b0;stroke-linecap:square;stroke-width:0.8;"/>
     </g>
     <g id="line2d_20">
      <g>
       <use style="stroke:#000000;stroke-width:0.8;" x="49.104688" xlink:href="#md5f79c981b" y="10.999219"/>
      </g>
     </g>
     <g id="text_10">
      <!-- 5 -->
      <g transform="translate(35.742188 14.798438)scale(0.1 -0.1)">
       <use xlink:href="#DejaVuSans-53"/>
      </g>
     </g>
    </g>
    <g id="text_11">
     <!-- Angle $\theta\; (º)$ -->
     <g transform="translate(14.9 104.740546)rotate(-90)scale(0.1 -0.1)">
      <defs>
       <path d="M 34.1875 63.1875 
L 20.796875 26.90625 
L 47.609375 26.90625 
z
M 28.609375 72.90625 
L 39.796875 72.90625 
L 67.578125 0 
L 57.328125 0 
L 50.6875 18.703125 
L 17.828125 18.703125 
L 11.1875 0 
L 0.78125 0 
z
" id="DejaVuSans-65"/>
       <path d="M 54.890625 33.015625 
L 54.890625 0 
L 45.90625 0 
L 45.90625 32.71875 
Q 45.90625 40.484375 42.875 44.328125 
Q 39.84375 48.1875 33.796875 48.1875 
Q 26.515625 48.1875 22.3125 43.546875 
Q 18.109375 38.921875 18.109375 30.90625 
L 18.109375 0 
L 9.078125 0 
L 9.078125 54.6875 
L 18.109375 54.6875 
L 18.109375 46.1875 
Q 21.34375 51.125 25.703125 53.5625 
Q 30.078125 56 35.796875 56 
Q 45.21875 56 50.046875 50.171875 
Q 54.890625 44.34375 54.890625 33.015625 
z
" id="DejaVuSans-110"/>
       <path d="M 45.40625 27.984375 
Q 45.40625 37.75 41.375 43.109375 
Q 37.359375 48.484375 30.078125 48.484375 
Q 22.859375 48.484375 18.828125 43.109375 
Q 14.796875 37.75 14.796875 27.984375 
Q 14.796875 18.265625 18.828125 12.890625 
Q 22.859375 7.515625 30.078125 7.515625 
Q 37.359375 7.515625 41.375 12.890625 
Q 45.40625 18.265625 45.40625 27.984375 
z
M 54.390625 6.78125 
Q 54.390625 -7.171875 48.1875 -13.984375 
Q 42 -20.796875 29.203125 -20.796875 
Q 24.46875 -20.796875 20.265625 -20.09375 
Q 16.0625 -19.390625 12.109375 -17.921875 
L 12.109375 -9.1875 
Q 16.0625 -11.328125 19.921875 -12.34375 
Q 23.78125 -13.375 27.78125 -13.375 
Q 36.625 -13.375 41.015625 -8.765625 
Q 45.40625 -4.15625 45.40625 5.171875 
L 45.40625 9.625 
Q 42.625 4.78125 38.28125 2.390625 
Q 33.9375 0 27.875 0 
Q 17.828125 0 11.671875 7.65625 
Q 5.515625 15.328125 5.515625 27.984375 
Q 5.515625 40.671875 11.671875 48.328125 
Q 17.828125 56 27.875 56 
Q 33.9375 56 38.28125 53.609375 
Q 42.625 51.21875 45.40625 46.390625 
L 45.40625 54.6875 
L 54.390625 54.6875 
z
" id="DejaVuSans-103"/>
       <path d="M 9.421875 75.984375 
L 18.40625 75.984375 
L 18.40625 0 
L 9.421875 0 
z
" id="DejaVuSans-108"/>
       <path d="M 56.203125 29.59375 
L 56.203125 25.203125 
L 14.890625 25.203125 
Q 15.484375 15.921875 20.484375 11.0625 
Q 25.484375 6.203125 34.421875 6.203125 
Q 39.59375 6.203125 44.453125 7.46875 
Q 49.3125 8.734375 54.109375 11.28125 
L 54.109375 2.78125 
Q 49.265625 0.734375 44.1875 -0.34375 
Q 39.109375 -1.421875 33.890625 -1.421875 
Q 20.796875 -1.421875 13.15625 6.1875 
Q 5.515625 13.8125 5.515625 26.8125 
Q 5.515625 40.234375 12.765625 48.109375 
Q 20.015625 56 32.328125 56 
Q 43.359375 56 49.78125 48.890625 
Q 56.203125 41.796875 56.203125 29.59375 
z
M 47.21875 32.234375 
Q 47.125 39.59375 43.09375 43.984375 
Q 39.0625 48.390625 32.421875 48.390625 
Q 24.90625 48.390625 20.390625 44.140625 
Q 15.875 39.890625 15.1875 32.171875 
z
" id="DejaVuSans-101"/>
       <path id="DejaVuSans-32"/>
       <path d="M 45.515625 34.671875 
L 14.453125 34.671875 
Q 12.359375 20.0625 14.5 13.875 
Q 17.1875 6.25 24.46875 6.25 
Q 31.78125 6.25 37.359375 13.921875 
Q 42.234375 20.65625 45.515625 34.671875 
z
M 47.015625 42.96875 
Q 48.34375 56.84375 46.625 61.71875 
Q 43.953125 69.4375 36.765625 69.4375 
Q 29.296875 69.4375 23.828125 61.8125 
Q 19.53125 55.671875 16.15625 42.96875 
z
M 38.1875 76.765625 
Q 49.90625 76.765625 54.59375 66.40625 
Q 59.28125 56.109375 55.71875 37.84375 
Q 52.203125 19.625 43.453125 9.28125 
Q 34.765625 -1.125 23.046875 -1.125 
Q 11.28125 -1.125 6.640625 9.28125 
Q 2 19.625 5.515625 37.84375 
Q 9.078125 56.109375 17.71875 66.40625 
Q 26.421875 76.765625 38.1875 76.765625 
z
" id="DejaVuSans-Oblique-952"/>
       <path d="M 31 75.875 
Q 24.46875 64.65625 21.28125 53.65625 
Q 18.109375 42.671875 18.109375 31.390625 
Q 18.109375 20.125 21.3125 9.0625 
Q 24.515625 -2 31 -13.1875 
L 23.1875 -13.1875 
Q 15.875 -1.703125 12.234375 9.375 
Q 8.59375 20.453125 8.59375 31.390625 
Q 8.59375 42.28125 12.203125 53.3125 
Q 15.828125 64.359375 23.1875 75.875 
z
" id="DejaVuSans-40"/>
       <path d="M 38.484375 57.625 
Q 38.484375 62.984375 36.0625 65.796875 
Q 33.640625 68.609375 28.90625 68.609375 
Q 23.25 68.609375 19.109375 63.375 
Q 14.984375 58.15625 14.984375 50.78125 
Q 14.984375 45.453125 17.40625 42.578125 
Q 19.828125 39.703125 24.3125 39.703125 
Q 30.28125 39.703125 34.375 44.84375 
Q 38.484375 50 38.484375 57.625 
z
M 30.328125 74.21875 
Q 37.546875 74.21875 41.859375 70.015625 
Q 46.1875 65.828125 46.1875 58.796875 
Q 46.1875 48.046875 39.6875 41.0625 
Q 33.203125 34.078125 23.296875 34.078125 
Q 15.96875 34.078125 11.6875 38.46875 
Q 7.421875 42.875 7.421875 50.390625 
Q 7.421875 53.71875 8.34375 56.953125 
Q 9.28125 60.203125 11.078125 63.28125 
Q 14.109375 68.453125 19.1875 71.328125 
Q 24.265625 74.21875 30.328125 74.21875 
z
M 5.078125 28.90625 
L 38.71875 28.90625 
L 37.59375 22.90625 
L 4 22.90625 
z
" id="DejaVuSans-Oblique-186"/>
       <path d="M 8.015625 75.875 
L 15.828125 75.875 
Q 23.140625 64.359375 26.78125 53.3125 
Q 30.421875 42.28125 30.421875 31.390625 
Q 30.421875 20.453125 26.78125 9.375 
Q 23.140625 -1.703125 15.828125 -13.1875 
L 8.015625 -13.1875 
Q 14.5 -2 17.703125 9.0625 
Q 20.90625 20.125 20.90625 31.390625 
Q 20.90625 42.671875 17.703125 53.65625 
Q 14.5 64.65625 8.015625 75.875 
z
" id="DejaVuSans-41"/>
      </defs>
      <use transform="translate(0 0.234375)" xlink:href="#DejaVuSans-65"/>
      <use transform="translate(68.408203 0.234375)" xlink:href="#DejaVuSans-110"/>
      <use transform="translate(131.787109 0.234375)" xlink:href="#DejaVuSans-103"/>
      <use transform="translate(195.263672 0.234375)" xlink:href="#DejaVuSans-108"/>
      <use transform="translate(223.046875 0.234375)" xlink:href="#DejaVuSans-101"/>
      <use transform="translate(284.570312 0.234375)" xlink:href="#DejaVuSans-32"/>
      <use transform="translate(316.357422 0.234375)" xlink:href="#DejaVuSans-Oblique-952"/>
      <use transform="translate(404.598198 0.234375)" xlink:href="#DejaVuSans-40"/>
      <use transform="translate(443.61187 0.234375)" xlink:href="#DejaVuSans-Oblique-186"/>
      <use transform="translate(490.731011 0.234375)" xlink:href="#DejaVuSans-41"/>
     </g>
    </g>
   </g>
   <g id="line2d_21">
    <path clip-path="url(#pa348e8c7d1)" d="M 65.708778 141.250712 
L 92.792993 141.182318 
L 93.326672 140.863755 
L 93.860351 140.286554 
L 94.52745 139.220727 
L 95.327968 137.454473 
L 96.261907 134.769328 
L 97.329265 130.940719 
L 98.530043 125.772769 
L 99.99766 118.40699 
L 101.865537 107.736264 
L 104.400513 91.81174 
L 109.737304 57.990369 
L 111.87202 46.066001 
L 113.606477 37.565214 
L 115.207515 30.830399 
L 116.541712 26.105376 
L 117.74249 22.574402 
L 118.943268 19.740903 
L 120.010627 17.80936 
L 120.944565 16.568295 
L 121.745084 15.830551 
L 122.545602 15.387323 
L 123.212701 15.237101 
L 123.8798 15.278331 
L 124.680319 15.573439 
L 125.480837 16.121871 
L 126.414776 17.066121 
L 127.482134 18.515112 
L 128.682912 20.570375 
L 130.01711 23.313612 
L 131.618147 27.129547 
L 133.752863 32.862847 
L 137.622037 44.087557 
L 140.824111 53.058369 
L 142.958828 58.401419 
L 144.693285 62.201452 
L 146.294322 65.205379 
L 147.76194 67.496126 
L 149.096137 69.176891 
L 150.296915 70.35684 
L 151.497693 71.222464 
L 152.565051 71.732557 
L 153.63241 72.005795 
L 154.699768 72.051 
L 155.767126 71.879911 
L 156.967904 71.446251 
L 158.168682 70.778381 
L 159.50288 69.791186 
L 161.103917 68.31497 
L 162.971794 66.273117 
L 165.50677 63.133424 
L 172.711437 53.974354 
L 174.846154 51.701849 
L 176.714031 50.01063 
L 178.448488 48.721637 
L 180.049525 47.788192 
L 181.650562 47.106846 
L 183.2516 46.675978 
L 184.852637 46.487087 
L 186.453674 46.52612 
L 188.188131 46.803442 
L 190.056008 47.34228 
L 192.190724 48.209019 
L 194.7257 49.494575 
L 198.728293 51.815019 
L 203.397985 54.462354 
L 206.199801 55.799754 
L 208.734776 56.76157 
L 211.002913 57.392574 
L 213.271049 57.796453 
L 215.539185 57.97694 
L 217.940741 57.941601 
L 220.475717 57.683605 
L 223.410952 57.160043 
L 227.413545 56.196918 
L 236.486089 53.932288 
L 240.088423 53.307628 
L 243.423918 52.949965 
L 246.759412 52.811155 
L 250.361746 52.884569 
L 254.631179 53.204566 
L 261.435587 53.978637 
L 268.907095 54.758964 
L 273.977046 55.061156 
L 279.046997 55.137917 
L 284.917468 54.991146 
L 296.791827 54.391236 
L 304.930434 54.12672 
L 312.535361 54.108307 
L 323.876042 54.339216 
L 337.484859 54.556411 
L 349.892898 54.504608 
L 375.242655 54.355723 
L 397.790597 54.442645 
L 397.790597 54.442645 
" style="fill:none;stroke:#1f77b4;stroke-linecap:square;stroke-width:1.5;"/>
   </g>
   <g id="patch_3">
    <path d="M 49.104688 147.55173 
L 49.104688 8.929363 
" style="fill:none;stroke:#000000;stroke-linecap:square;stroke-linejoin:miter;stroke-width:0.8;"/>
   </g>
   <g id="patch_4">
    <path d="M 414.394687 147.55173 
L 414.394687 8.929363 
" style="fill:none;stroke:#000000;stroke-linecap:square;stroke-linejoin:miter;stroke-width:0.8;"/>
   </g>
   <g id="patch_5">
    <path d="M 49.104687 147.55173 
L 414.394688 147.55173 
" style="fill:none;stroke:#000000;stroke-linecap:square;stroke-linejoin:miter;stroke-width:0.8;"/>
   </g>
   <g id="patch_6">
    <path d="M 49.104687 8.929363 
L 414.394688 8.929363 
" style="fill:none;stroke:#000000;stroke-linecap:square;stroke-linejoin:miter;stroke-width:0.8;"/>
   </g>
  </g>
  <g id="axes_2">
   <g id="patch_7">
    <path d="M 49.104688 314.054096 
L 414.394687 314.054096 
L 414.394687 175.43173 
L 49.104688 175.43173 
z
" style="fill:#ffffff;"/>
   </g>
   <g id="matplotlib.axis_3">
    <g id="xtick_7">
     <g id="line2d_22">
      <path clip-path="url(#p550708d5dd)" d="M 65.708778 314.054096 
L 65.708778 175.43173 
" style="fill:none;stroke:#b0b0b0;stroke-linecap:square;stroke-width:0.8;"/>
     </g>
     <g id="line2d_23">
      <g>
       <use style="stroke:#000000;stroke-width:0.8;" x="65.708778" xlink:href="#m257736c273" y="314.054096"/>
      </g>
     </g>
     <g id="text_12">
      <!-- 0 -->
      <g transform="translate(62.527528 328.652534)scale(0.1 -0.1)">
       <use xlink:href="#DejaVuSans-48"/>
      </g>
     </g>
    </g>
    <g id="xtick_8">
     <g id="line2d_24">
      <path clip-path="url(#p550708d5dd)" d="M 132.418666 314.054096 
L 132.418666 175.43173 
" style="fill:none;stroke:#b0b0b0;stroke-linecap:square;stroke-width:0.8;"/>
     </g>
     <g id="line2d_25">
      <g>
       <use style="stroke:#000000;stroke-width:0.8;" x="132.418666" xlink:href="#m257736c273" y="314.054096"/>
      </g>
     </g>
     <g id="text_13">
      <!-- 5 -->
      <g transform="translate(129.237416 328.652534)scale(0.1 -0.1)">
       <use xlink:href="#DejaVuSans-53"/>
      </g>
     </g>
    </g>
    <g id="xtick_9">
     <g id="line2d_26">
      <path clip-path="url(#p550708d5dd)" d="M 199.128553 314.054096 
L 199.128553 175.43173 
" style="fill:none;stroke:#b0b0b0;stroke-linecap:square;stroke-width:0.8;"/>
     </g>
     <g id="line2d_27">
      <g>
       <use style="stroke:#000000;stroke-width:0.8;" x="199.128553" xlink:href="#m257736c273" y="314.054096"/>
      </g>
     </g>
     <g id="text_14">
      <!-- 10 -->
      <g transform="translate(192.766053 328.652534)scale(0.1 -0.1)">
       <use xlink:href="#DejaVuSans-49"/>
       <use x="63.623047" xlink:href="#DejaVuSans-48"/>
      </g>
     </g>
    </g>
    <g id="xtick_10">
     <g id="line2d_28">
      <path clip-path="url(#p550708d5dd)" d="M 265.83844 314.054096 
L 265.83844 175.43173 
" style="fill:none;stroke:#b0b0b0;stroke-linecap:square;stroke-width:0.8;"/>
     </g>
     <g id="line2d_29">
      <g>
       <use style="stroke:#000000;stroke-width:0.8;" x="265.83844" xlink:href="#m257736c273" y="314.054096"/>
      </g>
     </g>
     <g id="text_15">
      <!-- 15 -->
      <g transform="translate(259.47594 328.652534)scale(0.1 -0.1)">
       <use xlink:href="#DejaVuSans-49"/>
       <use x="63.623047" xlink:href="#DejaVuSans-53"/>
      </g>
     </g>
    </g>
    <g id="xtick_11">
     <g id="line2d_30">
      <path clip-path="url(#p550708d5dd)" d="M 332.548327 314.054096 
L 332.548327 175.43173 
" style="fill:none;stroke:#b0b0b0;stroke-linecap:square;stroke-width:0.8;"/>
     </g>
     <g id="line2d_31">
      <g>
       <use style="stroke:#000000;stroke-width:0.8;" x="332.548327" xlink:href="#m257736c273" y="314.054096"/>
      </g>
     </g>
     <g id="text_16">
      <!-- 20 -->
      <g transform="translate(326.185827 328.652534)scale(0.1 -0.1)">
       <use xlink:href="#DejaVuSans-50"/>
       <use x="63.623047" xlink:href="#DejaVuSans-48"/>
      </g>
     </g>
    </g>
    <g id="xtick_12">
     <g id="line2d_32">
      <path clip-path="url(#p550708d5dd)" d="M 399.258214 314.054096 
L 399.258214 175.43173 
" style="fill:none;stroke:#b0b0b0;stroke-linecap:square;stroke-width:0.8;"/>
     </g>
     <g id="line2d_33">
      <g>
       <use style="stroke:#000000;stroke-width:0.8;" x="399.258214" xlink:href="#m257736c273" y="314.054096"/>
      </g>
     </g>
     <g id="text_17">
      <!-- 25 -->
      <g transform="translate(392.895714 328.652534)scale(0.1 -0.1)">
       <use xlink:href="#DejaVuSans-50"/>
       <use x="63.623047" xlink:href="#DejaVuSans-53"/>
      </g>
     </g>
    </g>
    <g id="text_18">
     <!-- Time (s) -->
     <g transform="translate(211.420781 342.330659)scale(0.1 -0.1)">
      <defs>
       <path d="M -0.296875 72.90625 
L 61.375 72.90625 
L 61.375 64.59375 
L 35.5 64.59375 
L 35.5 0 
L 25.59375 0 
L 25.59375 64.59375 
L -0.296875 64.59375 
z
" id="DejaVuSans-84"/>
       <path d="M 9.421875 54.6875 
L 18.40625 54.6875 
L 18.40625 0 
L 9.421875 0 
z
M 9.421875 75.984375 
L 18.40625 75.984375 
L 18.40625 64.59375 
L 9.421875 64.59375 
z
" id="DejaVuSans-105"/>
       <path d="M 52 44.1875 
Q 55.375 50.25 60.0625 53.125 
Q 64.75 56 71.09375 56 
Q 79.640625 56 84.28125 50.015625 
Q 88.921875 44.046875 88.921875 33.015625 
L 88.921875 0 
L 79.890625 0 
L 79.890625 32.71875 
Q 79.890625 40.578125 77.09375 44.375 
Q 74.3125 48.1875 68.609375 48.1875 
Q 61.625 48.1875 57.5625 43.546875 
Q 53.515625 38.921875 53.515625 30.90625 
L 53.515625 0 
L 44.484375 0 
L 44.484375 32.71875 
Q 44.484375 40.625 41.703125 44.40625 
Q 38.921875 48.1875 33.109375 48.1875 
Q 26.21875 48.1875 22.15625 43.53125 
Q 18.109375 38.875 18.109375 30.90625 
L 18.109375 0 
L 9.078125 0 
L 9.078125 54.6875 
L 18.109375 54.6875 
L 18.109375 46.1875 
Q 21.1875 51.21875 25.484375 53.609375 
Q 29.78125 56 35.6875 56 
Q 41.65625 56 45.828125 52.96875 
Q 50 49.953125 52 44.1875 
z
" id="DejaVuSans-109"/>
       <path d="M 44.28125 53.078125 
L 44.28125 44.578125 
Q 40.484375 46.53125 36.375 47.5 
Q 32.28125 48.484375 27.875 48.484375 
Q 21.1875 48.484375 17.84375 46.4375 
Q 14.5 44.390625 14.5 40.28125 
Q 14.5 37.15625 16.890625 35.375 
Q 19.28125 33.59375 26.515625 31.984375 
L 29.59375 31.296875 
Q 39.15625 29.25 43.1875 25.515625 
Q 47.21875 21.78125 47.21875 15.09375 
Q 47.21875 7.46875 41.1875 3.015625 
Q 35.15625 -1.421875 24.609375 -1.421875 
Q 20.21875 -1.421875 15.453125 -0.5625 
Q 10.6875 0.296875 5.421875 2 
L 5.421875 11.28125 
Q 10.40625 8.6875 15.234375 7.390625 
Q 20.0625 6.109375 24.8125 6.109375 
Q 31.15625 6.109375 34.5625 8.28125 
Q 37.984375 10.453125 37.984375 14.40625 
Q 37.984375 18.0625 35.515625 20.015625 
Q 33.0625 21.96875 24.703125 23.78125 
L 21.578125 24.515625 
Q 13.234375 26.265625 9.515625 29.90625 
Q 5.8125 33.546875 5.8125 39.890625 
Q 5.8125 47.609375 11.28125 51.796875 
Q 16.75 56 26.8125 56 
Q 31.78125 56 36.171875 55.265625 
Q 40.578125 54.546875 44.28125 53.078125 
z
" id="DejaVuSans-115"/>
      </defs>
      <use xlink:href="#DejaVuSans-84"/>
      <use x="57.958984" xlink:href="#DejaVuSans-105"/>
      <use x="85.742188" xlink:href="#DejaVuSans-109"/>
      <use x="183.154297" xlink:href="#DejaVuSans-101"/>
      <use x="244.677734" xlink:href="#DejaVuSans-32"/>
      <use x="276.464844" xlink:href="#DejaVuSans-40"/>
      <use x="315.478516" xlink:href="#DejaVuSans-115"/>
      <use x="367.578125" xlink:href="#DejaVuSans-41"/>
     </g>
    </g>
   </g>
   <g id="matplotlib.axis_4">
    <g id="ytick_5">
     <g id="line2d_34">
      <path clip-path="url(#p550708d5dd)" d="M 49.104688 307.748628 
L 414.394687 307.748628 
" style="fill:none;stroke:#b0b0b0;stroke-linecap:square;stroke-width:0.8;"/>
     </g>
     <g id="line2d_35">
      <g>
       <use style="stroke:#000000;stroke-width:0.8;" x="49.104688" xlink:href="#md5f79c981b" y="307.748628"/>
      </g>
     </g>
     <g id="text_19">
      <!-- 0 -->
      <g transform="translate(35.742188 311.547847)scale(0.1 -0.1)">
       <use xlink:href="#DejaVuSans-48"/>
      </g>
     </g>
    </g>
    <g id="ytick_6">
     <g id="line2d_36">
      <path clip-path="url(#p550708d5dd)" d="M 49.104688 280.699125 
L 414.394687 280.699125 
" style="fill:none;stroke:#b0b0b0;stroke-linecap:square;stroke-width:0.8;"/>
     </g>
     <g id="line2d_37">
      <g>
       <use style="stroke:#000000;stroke-width:0.8;" x="49.104688" xlink:href="#md5f79c981b" y="280.699125"/>
      </g>
     </g>
     <g id="text_20">
      <!-- 5 -->
      <g transform="translate(35.742188 284.498344)scale(0.1 -0.1)">
       <use xlink:href="#DejaVuSans-53"/>
      </g>
     </g>
    </g>
    <g id="ytick_7">
     <g id="line2d_38">
      <path clip-path="url(#p550708d5dd)" d="M 49.104688 253.649621 
L 414.394687 253.649621 
" style="fill:none;stroke:#b0b0b0;stroke-linecap:square;stroke-width:0.8;"/>
     </g>
     <g id="line2d_39">
      <g>
       <use style="stroke:#000000;stroke-width:0.8;" x="49.104688" xlink:href="#md5f79c981b" y="253.649621"/>
      </g>
     </g>
     <g id="text_21">
      <!-- 10 -->
      <g transform="translate(29.379688 257.44884)scale(0.1 -0.1)">
       <use xlink:href="#DejaVuSans-49"/>
       <use x="63.623047" xlink:href="#DejaVuSans-48"/>
      </g>
     </g>
    </g>
    <g id="ytick_8">
     <g id="line2d_40">
      <path clip-path="url(#p550708d5dd)" d="M 49.104688 226.600118 
L 414.394687 226.600118 
" style="fill:none;stroke:#b0b0b0;stroke-linecap:square;stroke-width:0.8;"/>
     </g>
     <g id="line2d_41">
      <g>
       <use style="stroke:#000000;stroke-width:0.8;" x="49.104688" xlink:href="#md5f79c981b" y="226.600118"/>
      </g>
     </g>
     <g id="text_22">
      <!-- 15 -->
      <g transform="translate(29.379688 230.399336)scale(0.1 -0.1)">
       <use xlink:href="#DejaVuSans-49"/>
       <use x="63.623047" xlink:href="#DejaVuSans-53"/>
      </g>
     </g>
    </g>
    <g id="ytick_9">
     <g id="line2d_42">
      <path clip-path="url(#p550708d5dd)" d="M 49.104688 199.550614 
L 414.394687 199.550614 
" style="fill:none;stroke:#b0b0b0;stroke-linecap:square;stroke-width:0.8;"/>
     </g>
     <g id="line2d_43">
      <g>
       <use style="stroke:#000000;stroke-width:0.8;" x="49.104688" xlink:href="#md5f79c981b" y="199.550614"/>
      </g>
     </g>
     <g id="text_23">
      <!-- 20 -->
      <g transform="translate(29.379688 203.349833)scale(0.1 -0.1)">
       <use xlink:href="#DejaVuSans-50"/>
       <use x="63.623047" xlink:href="#DejaVuSans-48"/>
      </g>
     </g>
    </g>
    <g id="text_24">
     <!-- Energy (J) -->
     <g transform="translate(23.3 269.214788)rotate(-90)scale(0.1 -0.1)">
      <defs>
       <path d="M 9.8125 72.90625 
L 55.90625 72.90625 
L 55.90625 64.59375 
L 19.671875 64.59375 
L 19.671875 43.015625 
L 54.390625 43.015625 
L 54.390625 34.71875 
L 19.671875 34.71875 
L 19.671875 8.296875 
L 56.78125 8.296875 
L 56.78125 0 
L 9.8125 0 
z
" id="DejaVuSans-69"/>
       <path d="M 41.109375 46.296875 
Q 39.59375 47.171875 37.8125 47.578125 
Q 36.03125 48 33.890625 48 
Q 26.265625 48 22.1875 43.046875 
Q 18.109375 38.09375 18.109375 28.8125 
L 18.109375 0 
L 9.078125 0 
L 9.078125 54.6875 
L 18.109375 54.6875 
L 18.109375 46.1875 
Q 20.953125 51.171875 25.484375 53.578125 
Q 30.03125 56 36.53125 56 
Q 37.453125 56 38.578125 55.875 
Q 39.703125 55.765625 41.0625 55.515625 
z
" id="DejaVuSans-114"/>
       <path d="M 32.171875 -5.078125 
Q 28.375 -14.84375 24.75 -17.8125 
Q 21.140625 -20.796875 15.09375 -20.796875 
L 7.90625 -20.796875 
L 7.90625 -13.28125 
L 13.1875 -13.28125 
Q 16.890625 -13.28125 18.9375 -11.515625 
Q 21 -9.765625 23.484375 -3.21875 
L 25.09375 0.875 
L 2.984375 54.6875 
L 12.5 54.6875 
L 29.59375 11.921875 
L 46.6875 54.6875 
L 56.203125 54.6875 
z
" id="DejaVuSans-121"/>
       <path d="M 9.8125 72.90625 
L 19.671875 72.90625 
L 19.671875 5.078125 
Q 19.671875 -8.109375 14.671875 -14.0625 
Q 9.671875 -20.015625 -1.421875 -20.015625 
L -5.171875 -20.015625 
L -5.171875 -11.71875 
L -2.09375 -11.71875 
Q 4.4375 -11.71875 7.125 -8.046875 
Q 9.8125 -4.390625 9.8125 5.078125 
z
" id="DejaVuSans-74"/>
      </defs>
      <use xlink:href="#DejaVuSans-69"/>
      <use x="63.183594" xlink:href="#DejaVuSans-110"/>
      <use x="126.5625" xlink:href="#DejaVuSans-101"/>
      <use x="188.085938" xlink:href="#DejaVuSans-114"/>
      <use x="227.449219" xlink:href="#DejaVuSans-103"/>
      <use x="290.925781" xlink:href="#DejaVuSans-121"/>
      <use x="350.105469" xlink:href="#DejaVuSans-32"/>
      <use x="381.892578" xlink:href="#DejaVuSans-40"/>
      <use x="420.90625" xlink:href="#DejaVuSans-74"/>
      <use x="450.398438" xlink:href="#DejaVuSans-41"/>
     </g>
    </g>
   </g>
   <g id="line2d_44">
    <path clip-path="url(#p550708d5dd)" d="M 65.708778 307.748628 
L 92.659573 307.663638 
L 93.059832 307.184073 
L 93.460091 306.284645 
L 94.12719 303.982345 
L 94.794289 300.770409 
L 95.861647 294.18687 
L 97.329265 283.175009 
L 100.2645 260.298153 
L 101.331858 253.400339 
L 102.265797 248.41207 
L 103.199735 244.568377 
L 104.000254 242.350659 
L 104.533933 241.369849 
L 105.067612 240.860312 
L 105.467871 240.742258 
L 105.86813 240.856983 
L 106.26839 241.210881 
L 106.802069 242.030815 
L 107.469168 243.567797 
L 108.136267 245.659723 
L 109.070205 249.357519 
L 110.270983 255.237617 
L 111.87202 264.365946 
L 115.741194 287.145804 
L 117.208811 294.332964 
L 118.409589 299.157255 
L 119.476947 302.557815 
L 120.410886 304.829154 
L 121.211405 306.212858 
L 121.878503 307.031687 
L 122.545602 307.526239 
L 123.212701 307.738884 
L 123.8798 307.684001 
L 124.546899 307.386525 
L 125.347418 306.764661 
L 126.414776 305.557353 
L 127.748973 303.629854 
L 132.151826 296.888679 
L 133.219184 295.715323 
L 134.286542 294.847458 
L 135.220481 294.36296 
L 136.154419 294.153545 
L 136.954938 294.1804 
L 137.888876 294.445459 
L 138.822815 294.939995 
L 140.023593 295.865136 
L 141.49121 297.34498 
L 144.159606 300.54438 
L 146.427742 303.235207 
L 148.162199 304.997413 
L 149.496397 306.079559 
L 150.697175 306.82254 
L 151.897953 307.342099 
L 153.098731 307.644716 
L 154.432928 307.748495 
L 155.900546 307.624194 
L 157.635003 307.237927 
L 161.504176 306.009144 
L 163.772313 305.398786 
L 165.773609 305.073613 
L 167.774906 304.995339 
L 169.776202 305.150206 
L 172.044339 305.546095 
L 177.11429 306.766582 
L 180.182945 307.366304 
L 182.71792 307.654717 
L 185.519736 307.748338 
L 188.98865 307.624174 
L 198.061194 307.1909 
L 202.597467 307.284472 
L 216.339704 307.748627 
L 397.790597 307.748624 
L 397.790597 307.748624 
" style="fill:none;stroke:#1f77b4;stroke-linecap:square;stroke-width:1.5;"/>
   </g>
   <g id="line2d_45">
    <path clip-path="url(#p550708d5dd)" d="M 65.708778 181.732999 
L 92.659573 181.817751 
L 93.059832 182.297505 
L 93.460091 183.196948 
L 93.993771 185.033093 
L 94.660869 188.270298 
L 95.461388 193.435054 
L 96.395326 200.970617 
L 97.596104 212.549798 
L 99.463981 233.124843 
L 102.666056 268.497784 
L 104.133673 282.127812 
L 105.334451 291.305963 
L 106.40181 297.777099 
L 107.335748 302.083712 
L 108.136267 304.77488 
L 108.803366 306.335357 
L 109.337045 307.158268 
L 109.870724 307.622776 
L 110.404403 307.751314 
L 110.804662 307.642497 
L 111.338341 307.244681 
L 112.00544 306.381983 
L 112.805959 304.889259 
L 113.739897 302.648792 
L 115.207515 298.433524 
L 118.543009 288.608235 
L 119.743787 285.835519 
L 120.677725 284.157209 
L 121.478244 283.09202 
L 122.278763 282.394171 
L 122.945862 282.093742 
L 123.61296 282.049228 
L 124.280059 282.249941 
L 124.947158 282.68682 
L 125.747677 283.497265 
L 126.681615 284.795339 
L 127.748973 286.66725 
L 129.216591 289.730091 
L 134.820221 302.013318 
L 136.154419 304.171015 
L 137.355197 305.686144 
L 138.422555 306.676784 
L 139.356494 307.270827 
L 140.290432 307.622644 
L 141.224371 307.751284 
L 142.291729 307.65761 
L 143.492507 307.298063 
L 144.960124 306.592753 
L 147.36168 305.135096 
L 149.763236 303.750913 
L 151.364273 303.066163 
L 152.831891 302.676903 
L 154.166089 302.539849 
L 155.633706 302.624448 
L 157.101324 302.92983 
L 158.835781 303.51801 
L 161.370757 304.642314 
L 165.50677 306.479851 
L 167.641486 307.166254 
L 169.642783 307.570174 
L 171.644079 307.741879 
L 173.778796 307.709015 
L 176.84745 307.411511 
L 182.85134 306.770915 
L 185.919995 306.699825 
L 189.388909 306.86172 
L 202.197207 307.746979 
L 207.400579 307.694341 
L 217.673901 307.542852 
L 253.030141 307.722287 
L 323.208943 307.752907 
L 386.850175 307.75286 
L 397.790597 307.75303 
L 397.790597 307.75303 
" style="fill:none;stroke:#ff7f0e;stroke-linecap:square;stroke-width:1.5;"/>
   </g>
   <g id="line2d_46">
    <path clip-path="url(#p550708d5dd)" d="M 65.708778 181.732999 
L 94.12719 181.832547 
L 95.061129 182.169754 
L 95.995067 183.060474 
L 96.528746 183.74 
L 97.729524 186.089275 
L 98.930302 189.623641 
L 99.597401 192.112451 
L 100.798179 197.334699 
L 102.265797 205.060589 
L 104.133673 216.442677 
L 107.869427 240.985874 
L 109.870724 253.06493 
L 111.605181 261.974735 
L 112.939379 267.685317 
L 114.140156 271.911729 
L 115.340934 275.280073 
L 116.541712 277.839242 
L 117.74249 279.667196 
L 118.943268 280.850257 
L 119.610367 281.279746 
L 120.677725 281.745544 
L 122.011923 281.990383 
L 124.280059 282.03324 
L 125.881097 282.111783 
L 127.482134 282.455243 
L 128.816332 283.01418 
L 130.150529 283.858513 
L 131.618147 285.115257 
L 133.219184 286.826928 
L 135.087061 289.146739 
L 140.690692 296.453747 
L 142.691988 298.55358 
L 144.159606 299.802568 
L 145.493803 300.705934 
L 146.828001 301.396202 
L 148.162199 301.891356 
L 149.629816 302.245446 
L 151.230854 302.448641 
L 154.166089 302.53702 
L 158.969201 302.657191 
L 161.237337 302.92476 
L 163.905732 303.442571 
L 167.508066 304.373642 
L 172.578018 305.667332 
L 175.780092 306.233949 
L 178.715327 306.536757 
L 182.184241 306.677435 
L 198.061194 307.044675 
L 207.400579 307.462403 
L 215.806024 307.538854 
L 236.486089 307.682882 
L 261.569007 307.727508 
L 362.167517 307.752934 
L 397.790597 307.753026 
L 397.790597 307.753026 
" style="fill:none;stroke:#2ca02c;stroke-linecap:square;stroke-width:1.5;"/>
   </g>
   <g id="patch_8">
    <path d="M 49.104688 314.054096 
L 49.104688 175.43173 
" style="fill:none;stroke:#000000;stroke-linecap:square;stroke-linejoin:miter;stroke-width:0.8;"/>
   </g>
   <g id="patch_9">
    <path d="M 414.394687 314.054096 
L 414.394687 175.43173 
" style="fill:none;stroke:#000000;stroke-linecap:square;stroke-linejoin:miter;stroke-width:0.8;"/>
   </g>
   <g id="patch_10">
    <path d="M 49.104687 314.054096 
L 414.394688 314.054096 
" style="fill:none;stroke:#000000;stroke-linecap:square;stroke-linejoin:miter;stroke-width:0.8;"/>
   </g>
   <g id="patch_11">
    <path d="M 49.104687 175.43173 
L 414.394688 175.43173 
" style="fill:none;stroke:#000000;stroke-linecap:square;stroke-linejoin:miter;stroke-width:0.8;"/>
   </g>
   <g id="legend_1">
    <g id="patch_12">
     <path d="M 364.294687 228.486417 
L 407.394687 228.486417 
Q 409.394687 228.486417 409.394687 226.486417 
L 409.394687 182.43173 
Q 409.394687 180.43173 407.394687 180.43173 
L 364.294687 180.43173 
Q 362.294687 180.43173 362.294687 182.43173 
L 362.294687 226.486417 
Q 362.294687 228.486417 364.294687 228.486417 
z
" style="fill:#ffffff;opacity:0.8;stroke:#cccccc;stroke-linejoin:miter;"/>
    </g>
    <g id="line2d_47">
     <path d="M 366.294687 188.530167 
L 386.294687 188.530167 
" style="fill:none;stroke:#1f77b4;stroke-linecap:square;stroke-width:1.5;"/>
    </g>
    <g id="line2d_48"/>
    <g id="text_25">
     <!-- $E_k$ -->
     <g transform="translate(394.294687 192.030167)scale(0.1 -0.1)">
      <defs>
       <path d="M 16.890625 72.90625 
L 62.984375 72.90625 
L 61.375 64.59375 
L 25.09375 64.59375 
L 20.90625 43.015625 
L 55.71875 43.015625 
L 54.109375 34.71875 
L 19.28125 34.71875 
L 14.203125 8.296875 
L 51.3125 8.296875 
L 49.703125 0 
L 2.6875 0 
z
" id="DejaVuSans-Oblique-69"/>
       <path d="M 18.3125 75.984375 
L 27.296875 75.984375 
L 18.703125 31.6875 
L 49.515625 54.6875 
L 61.1875 54.6875 
L 26.8125 28.515625 
L 51.90625 0 
L 41.015625 0 
L 17.671875 26.703125 
L 12.5 0 
L 3.515625 0 
z
" id="DejaVuSans-Oblique-107"/>
      </defs>
      <use transform="translate(0 0.09375)" xlink:href="#DejaVuSans-Oblique-69"/>
      <use transform="translate(63.183594 -16.3125)scale(0.7)" xlink:href="#DejaVuSans-Oblique-107"/>
     </g>
    </g>
    <g id="line2d_49">
     <path d="M 366.294687 203.208292 
L 386.294687 203.208292 
" style="fill:none;stroke:#ff7f0e;stroke-linecap:square;stroke-width:1.5;"/>
    </g>
    <g id="line2d_50"/>
    <g id="text_26">
     <!-- $E_p$ -->
     <g transform="translate(394.294687 206.708292)scale(0.1 -0.1)">
      <defs>
       <path d="M 49.609375 33.6875 
Q 49.609375 40.875 46.484375 44.671875 
Q 43.359375 48.484375 37.5 48.484375 
Q 33.5 48.484375 29.859375 46.4375 
Q 26.21875 44.390625 23.390625 40.484375 
Q 20.609375 36.625 18.9375 31.15625 
Q 17.28125 25.6875 17.28125 20.3125 
Q 17.28125 13.484375 20.40625 9.796875 
Q 23.53125 6.109375 29.296875 6.109375 
Q 33.546875 6.109375 37.1875 8.109375 
Q 40.828125 10.109375 43.40625 13.921875 
Q 46.1875 17.921875 47.890625 23.34375 
Q 49.609375 28.765625 49.609375 33.6875 
z
M 21.78125 46.390625 
Q 25.390625 51.125 30.296875 53.5625 
Q 35.203125 56 41.21875 56 
Q 49.609375 56 54.25 50.5 
Q 58.890625 45.015625 58.890625 35.109375 
Q 58.890625 27 56 19.65625 
Q 53.125 12.3125 47.703125 6.5 
Q 44.09375 2.640625 39.546875 0.609375 
Q 35.015625 -1.421875 29.984375 -1.421875 
Q 24.171875 -1.421875 20.21875 1 
Q 16.265625 3.421875 14.3125 8.203125 
L 8.6875 -20.796875 
L -0.296875 -20.796875 
L 14.40625 54.6875 
L 23.390625 54.6875 
z
" id="DejaVuSans-Oblique-112"/>
      </defs>
      <use transform="translate(0 0.09375)" xlink:href="#DejaVuSans-Oblique-69"/>
      <use transform="translate(63.183594 -16.3125)scale(0.7)" xlink:href="#DejaVuSans-Oblique-112"/>
     </g>
    </g>
    <g id="line2d_51">
     <path d="M 366.294687 218.90673 
L 386.294687 218.90673 
" style="fill:none;stroke:#2ca02c;stroke-linecap:square;stroke-width:1.5;"/>
    </g>
    <g id="line2d_52"/>
    <g id="text_27">
     <!-- $E$ -->
     <g transform="translate(394.294687 222.40673)scale(0.1 -0.1)">
      <use transform="translate(0 0.09375)" xlink:href="#DejaVuSans-Oblique-69"/>
     </g>
    </g>
   </g>
  </g>
 </g>
 <defs>
  <clipPath id="pa348e8c7d1">
   <rect height="138.622367" width="365.29" x="49.104688" y="8.929363"/>
  </clipPath>
  <clipPath id="p550708d5dd">
   <rect height="138.622367" width="365.29" x="49.104688" y="175.43173"/>
  </clipPath>
 </defs>
</svg>
