<?xml version="1.0" encoding="utf-8" standalone="no"?>
<!DOCTYPE svg PUBLIC "-//W3C//DTD SVG 1.1//EN"
  "http://www.w3.org/Graphics/SVG/1.1/DTD/svg11.dtd">
<!-- Created with matplotlib (https://matplotlib.org/) -->
<svg height="351.99625pt" version="1.1" viewBox="0 0 421.594687 351.99625" width="421.594687pt" xmlns="http://www.w3.org/2000/svg" xmlns:xlink="http://www.w3.org/1999/xlink">
 <metadata>
  <rdf:RDF xmlns:cc="http://creativecommons.org/ns#" xmlns:dc="http://purl.org/dc/elements/1.1/" xmlns:rdf="http://www.w3.org/1999/02/22-rdf-syntax-ns#">
   <cc:Work>
    <dc:type rdf:resource="http://purl.org/dc/dcmitype/StillImage"/>
    <dc:date>2021-02-06T19:42:21.801059</dc:date>
    <dc:format>image/svg+xml</dc:format>
    <dc:creator>
     <cc:Agent>
      <dc:title>Matplotlib v3.3.2, https://matplotlib.org/</dc:title>
     </cc:Agent>
    </dc:creator>
   </cc:Work>
  </rdf:RDF>
 </metadata>
 <defs>
  <style type="text/css">*{stroke-linecap:butt;stroke-linejoin:round;}</style>
 </defs>
 <g id="figure_1">
  <g id="patch_1">
   <path d="M 0 351.99625 
L 421.594687 351.99625 
L 421.594687 0 
L 0 0 
z
" style="fill:none;"/>
  </g>
  <g id="axes_1">
   <g id="patch_2">
    <path d="M 49.104688 146.88 
L 414.394687 146.88 
L 414.394687 7.2 
L 49.104688 7.2 
z
" style="fill:#ffffff;"/>
   </g>
   <g id="matplotlib.axis_1">
    <g id="xtick_1">
     <g id="line2d_1">
      <path clip-path="url(#p1a0bfcf1a3)" d="M 65.708778 146.88 
L 65.708778 7.2 
" style="fill:none;stroke:#b0b0b0;stroke-linecap:square;stroke-width:0.8;"/>
     </g>
     <g id="line2d_2">
      <defs>
       <path d="M 0 0 
L 0 3.5 
" id="mc305094b00" style="stroke:#000000;stroke-width:0.8;"/>
      </defs>
      <g>
       <use style="stroke:#000000;stroke-width:0.8;" x="65.708778" xlink:href="#mc305094b00" y="146.88"/>
      </g>
     </g>
     <g id="text_1">
      <!-- 0 -->
      <g transform="translate(62.527528 161.478437)scale(0.1 -0.1)">
       <defs>
        <path d="M 31.78125 66.40625 
Q 24.171875 66.40625 20.328125 58.90625 
Q 16.5 51.421875 16.5 36.375 
Q 16.5 21.390625 20.328125 13.890625 
Q 24.171875 6.390625 31.78125 6.390625 
Q 39.453125 6.390625 43.28125 13.890625 
Q 47.125 21.390625 47.125 36.375 
Q 47.125 51.421875 43.28125 58.90625 
Q 39.453125 66.40625 31.78125 66.40625 
z
M 31.78125 74.21875 
Q 44.046875 74.21875 50.515625 64.515625 
Q 56.984375 54.828125 56.984375 36.375 
Q 56.984375 17.96875 50.515625 8.265625 
Q 44.046875 -1.421875 31.78125 -1.421875 
Q 19.53125 -1.421875 13.0625 8.265625 
Q 6.59375 17.96875 6.59375 36.375 
Q 6.59375 54.828125 13.0625 64.515625 
Q 19.53125 74.21875 31.78125 74.21875 
z
" id="DejaVuSans-48"/>
       </defs>
       <use xlink:href="#DejaVuSans-48"/>
      </g>
     </g>
    </g>
    <g id="xtick_2">
     <g id="line2d_3">
      <path clip-path="url(#p1a0bfcf1a3)" d="M 132.418666 146.88 
L 132.418666 7.2 
" style="fill:none;stroke:#b0b0b0;stroke-linecap:square;stroke-width:0.8;"/>
     </g>
     <g id="line2d_4">
      <g>
       <use style="stroke:#000000;stroke-width:0.8;" x="132.418666" xlink:href="#mc305094b00" y="146.88"/>
      </g>
     </g>
     <g id="text_2">
      <!-- 5 -->
      <g transform="translate(129.237416 161.478437)scale(0.1 -0.1)">
       <defs>
        <path d="M 10.796875 72.90625 
L 49.515625 72.90625 
L 49.515625 64.59375 
L 19.828125 64.59375 
L 19.828125 46.734375 
Q 21.96875 47.46875 24.109375 47.828125 
Q 26.265625 48.1875 28.421875 48.1875 
Q 40.625 48.1875 47.75 41.5 
Q 54.890625 34.8125 54.890625 23.390625 
Q 54.890625 11.625 47.5625 5.09375 
Q 40.234375 -1.421875 26.90625 -1.421875 
Q 22.3125 -1.421875 17.546875 -0.640625 
Q 12.796875 0.140625 7.71875 1.703125 
L 7.71875 11.625 
Q 12.109375 9.234375 16.796875 8.0625 
Q 21.484375 6.890625 26.703125 6.890625 
Q 35.15625 6.890625 40.078125 11.328125 
Q 45.015625 15.765625 45.015625 23.390625 
Q 45.015625 31 40.078125 35.4375 
Q 35.15625 39.890625 26.703125 39.890625 
Q 22.75 39.890625 18.8125 39.015625 
Q 14.890625 38.140625 10.796875 36.28125 
z
" id="DejaVuSans-53"/>
       </defs>
       <use xlink:href="#DejaVuSans-53"/>
      </g>
     </g>
    </g>
    <g id="xtick_3">
     <g id="line2d_5">
      <path clip-path="url(#p1a0bfcf1a3)" d="M 199.128553 146.88 
L 199.128553 7.2 
" style="fill:none;stroke:#b0b0b0;stroke-linecap:square;stroke-width:0.8;"/>
     </g>
     <g id="line2d_6">
      <g>
       <use style="stroke:#000000;stroke-width:0.8;" x="199.128553" xlink:href="#mc305094b00" y="146.88"/>
      </g>
     </g>
     <g id="text_3">
      <!-- 10 -->
      <g transform="translate(192.766053 161.478437)scale(0.1 -0.1)">
       <defs>
        <path d="M 12.40625 8.296875 
L 28.515625 8.296875 
L 28.515625 63.921875 
L 10.984375 60.40625 
L 10.984375 69.390625 
L 28.421875 72.90625 
L 38.28125 72.90625 
L 38.28125 8.296875 
L 54.390625 8.296875 
L 54.390625 0 
L 12.40625 0 
z
" id="DejaVuSans-49"/>
       </defs>
       <use xlink:href="#DejaVuSans-49"/>
       <use x="63.623047" xlink:href="#DejaVuSans-48"/>
      </g>
     </g>
    </g>
    <g id="xtick_4">
     <g id="line2d_7">
      <path clip-path="url(#p1a0bfcf1a3)" d="M 265.83844 146.88 
L 265.83844 7.2 
" style="fill:none;stroke:#b0b0b0;stroke-linecap:square;stroke-width:0.8;"/>
     </g>
     <g id="line2d_8">
      <g>
       <use style="stroke:#000000;stroke-width:0.8;" x="265.83844" xlink:href="#mc305094b00" y="146.88"/>
      </g>
     </g>
     <g id="text_4">
      <!-- 15 -->
      <g transform="translate(259.47594 161.478437)scale(0.1 -0.1)">
       <use xlink:href="#DejaVuSans-49"/>
       <use x="63.623047" xlink:href="#DejaVuSans-53"/>
      </g>
     </g>
    </g>
    <g id="xtick_5">
     <g id="line2d_9">
      <path clip-path="url(#p1a0bfcf1a3)" d="M 332.548327 146.88 
L 332.548327 7.2 
" style="fill:none;stroke:#b0b0b0;stroke-linecap:square;stroke-width:0.8;"/>
     </g>
     <g id="line2d_10">
      <g>
       <use style="stroke:#000000;stroke-width:0.8;" x="332.548327" xlink:href="#mc305094b00" y="146.88"/>
      </g>
     </g>
     <g id="text_5">
      <!-- 20 -->
      <g transform="translate(326.185827 161.478437)scale(0.1 -0.1)">
       <defs>
        <path d="M 19.1875 8.296875 
L 53.609375 8.296875 
L 53.609375 0 
L 7.328125 0 
L 7.328125 8.296875 
Q 12.9375 14.109375 22.625 23.890625 
Q 32.328125 33.6875 34.8125 36.53125 
Q 39.546875 41.84375 41.421875 45.53125 
Q 43.3125 49.21875 43.3125 52.78125 
Q 43.3125 58.59375 39.234375 62.25 
Q 35.15625 65.921875 28.609375 65.921875 
Q 23.96875 65.921875 18.8125 64.3125 
Q 13.671875 62.703125 7.8125 59.421875 
L 7.8125 69.390625 
Q 13.765625 71.78125 18.9375 73 
Q 24.125 74.21875 28.421875 74.21875 
Q 39.75 74.21875 46.484375 68.546875 
Q 53.21875 62.890625 53.21875 53.421875 
Q 53.21875 48.921875 51.53125 44.890625 
Q 49.859375 40.875 45.40625 35.40625 
Q 44.1875 33.984375 37.640625 27.21875 
Q 31.109375 20.453125 19.1875 8.296875 
z
" id="DejaVuSans-50"/>
       </defs>
       <use xlink:href="#DejaVuSans-50"/>
       <use x="63.623047" xlink:href="#DejaVuSans-48"/>
      </g>
     </g>
    </g>
    <g id="xtick_6">
     <g id="line2d_11">
      <path clip-path="url(#p1a0bfcf1a3)" d="M 399.258214 146.88 
L 399.258214 7.2 
" style="fill:none;stroke:#b0b0b0;stroke-linecap:square;stroke-width:0.8;"/>
     </g>
     <g id="line2d_12">
      <g>
       <use style="stroke:#000000;stroke-width:0.8;" x="399.258214" xlink:href="#mc305094b00" y="146.88"/>
      </g>
     </g>
     <g id="text_6">
      <!-- 25 -->
      <g transform="translate(392.895714 161.478437)scale(0.1 -0.1)">
       <use xlink:href="#DejaVuSans-50"/>
       <use x="63.623047" xlink:href="#DejaVuSans-53"/>
      </g>
     </g>
    </g>
   </g>
   <g id="matplotlib.axis_2">
    <g id="ytick_1">
     <g id="line2d_13">
      <path clip-path="url(#p1a0bfcf1a3)" d="M 49.104688 140.05645 
L 414.394687 140.05645 
" style="fill:none;stroke:#b0b0b0;stroke-linecap:square;stroke-width:0.8;"/>
     </g>
     <g id="line2d_14">
      <defs>
       <path d="M 0 0 
L -3.5 0 
" id="ma0b4304848" style="stroke:#000000;stroke-width:0.8;"/>
      </defs>
      <g>
       <use style="stroke:#000000;stroke-width:0.8;" x="49.104688" xlink:href="#ma0b4304848" y="140.05645"/>
      </g>
     </g>
     <g id="text_7">
      <!-- −10 -->
      <g transform="translate(21 143.855669)scale(0.1 -0.1)">
       <defs>
        <path d="M 10.59375 35.5 
L 73.1875 35.5 
L 73.1875 27.203125 
L 10.59375 27.203125 
z
" id="DejaVuSans-8722"/>
       </defs>
       <use xlink:href="#DejaVuSans-8722"/>
       <use x="83.789062" xlink:href="#DejaVuSans-49"/>
       <use x="147.412109" xlink:href="#DejaVuSans-48"/>
      </g>
     </g>
    </g>
    <g id="ytick_2">
     <g id="line2d_15">
      <path clip-path="url(#p1a0bfcf1a3)" d="M 49.104688 105.069022 
L 414.394687 105.069022 
" style="fill:none;stroke:#b0b0b0;stroke-linecap:square;stroke-width:0.8;"/>
     </g>
     <g id="line2d_16">
      <g>
       <use style="stroke:#000000;stroke-width:0.8;" x="49.104688" xlink:href="#ma0b4304848" y="105.069022"/>
      </g>
     </g>
     <g id="text_8">
      <!-- −5 -->
      <g transform="translate(27.3625 108.868241)scale(0.1 -0.1)">
       <use xlink:href="#DejaVuSans-8722"/>
       <use x="83.789062" xlink:href="#DejaVuSans-53"/>
      </g>
     </g>
    </g>
    <g id="ytick_3">
     <g id="line2d_17">
      <path clip-path="url(#p1a0bfcf1a3)" d="M 49.104688 70.081594 
L 414.394687 70.081594 
" style="fill:none;stroke:#b0b0b0;stroke-linecap:square;stroke-width:0.8;"/>
     </g>
     <g id="line2d_18">
      <g>
       <use style="stroke:#000000;stroke-width:0.8;" x="49.104688" xlink:href="#ma0b4304848" y="70.081594"/>
      </g>
     </g>
     <g id="text_9">
      <!-- 0 -->
      <g transform="translate(35.742188 73.880813)scale(0.1 -0.1)">
       <use xlink:href="#DejaVuSans-48"/>
      </g>
     </g>
    </g>
    <g id="ytick_4">
     <g id="line2d_19">
      <path clip-path="url(#p1a0bfcf1a3)" d="M 49.104688 35.094166 
L 414.394687 35.094166 
" style="fill:none;stroke:#b0b0b0;stroke-linecap:square;stroke-width:0.8;"/>
     </g>
     <g id="line2d_20">
      <g>
       <use style="stroke:#000000;stroke-width:0.8;" x="49.104688" xlink:href="#ma0b4304848" y="35.094166"/>
      </g>
     </g>
     <g id="text_10">
      <!-- 5 -->
      <g transform="translate(35.742188 38.893385)scale(0.1 -0.1)">
       <use xlink:href="#DejaVuSans-53"/>
      </g>
     </g>
    </g>
    <g id="text_11">
     <!-- Angle $\theta\; (º)$ -->
     <g transform="translate(14.9 103.54)rotate(-90)scale(0.1 -0.1)">
      <defs>
       <path d="M 34.1875 63.1875 
L 20.796875 26.90625 
L 47.609375 26.90625 
z
M 28.609375 72.90625 
L 39.796875 72.90625 
L 67.578125 0 
L 57.328125 0 
L 50.6875 18.703125 
L 17.828125 18.703125 
L 11.1875 0 
L 0.78125 0 
z
" id="DejaVuSans-65"/>
       <path d="M 54.890625 33.015625 
L 54.890625 0 
L 45.90625 0 
L 45.90625 32.71875 
Q 45.90625 40.484375 42.875 44.328125 
Q 39.84375 48.1875 33.796875 48.1875 
Q 26.515625 48.1875 22.3125 43.546875 
Q 18.109375 38.921875 18.109375 30.90625 
L 18.109375 0 
L 9.078125 0 
L 9.078125 54.6875 
L 18.109375 54.6875 
L 18.109375 46.1875 
Q 21.34375 51.125 25.703125 53.5625 
Q 30.078125 56 35.796875 56 
Q 45.21875 56 50.046875 50.171875 
Q 54.890625 44.34375 54.890625 33.015625 
z
" id="DejaVuSans-110"/>
       <path d="M 45.40625 27.984375 
Q 45.40625 37.75 41.375 43.109375 
Q 37.359375 48.484375 30.078125 48.484375 
Q 22.859375 48.484375 18.828125 43.109375 
Q 14.796875 37.75 14.796875 27.984375 
Q 14.796875 18.265625 18.828125 12.890625 
Q 22.859375 7.515625 30.078125 7.515625 
Q 37.359375 7.515625 41.375 12.890625 
Q 45.40625 18.265625 45.40625 27.984375 
z
M 54.390625 6.78125 
Q 54.390625 -7.171875 48.1875 -13.984375 
Q 42 -20.796875 29.203125 -20.796875 
Q 24.46875 -20.796875 20.265625 -20.09375 
Q 16.0625 -19.390625 12.109375 -17.921875 
L 12.109375 -9.1875 
Q 16.0625 -11.328125 19.921875 -12.34375 
Q 23.78125 -13.375 27.78125 -13.375 
Q 36.625 -13.375 41.015625 -8.765625 
Q 45.40625 -4.15625 45.40625 5.171875 
L 45.40625 9.625 
Q 42.625 4.78125 38.28125 2.390625 
Q 33.9375 0 27.875 0 
Q 17.828125 0 11.671875 7.65625 
Q 5.515625 15.328125 5.515625 27.984375 
Q 5.515625 40.671875 11.671875 48.328125 
Q 17.828125 56 27.875 56 
Q 33.9375 56 38.28125 53.609375 
Q 42.625 51.21875 45.40625 46.390625 
L 45.40625 54.6875 
L 54.390625 54.6875 
z
" id="DejaVuSans-103"/>
       <path d="M 9.421875 75.984375 
L 18.40625 75.984375 
L 18.40625 0 
L 9.421875 0 
z
" id="DejaVuSans-108"/>
       <path d="M 56.203125 29.59375 
L 56.203125 25.203125 
L 14.890625 25.203125 
Q 15.484375 15.921875 20.484375 11.0625 
Q 25.484375 6.203125 34.421875 6.203125 
Q 39.59375 6.203125 44.453125 7.46875 
Q 49.3125 8.734375 54.109375 11.28125 
L 54.109375 2.78125 
Q 49.265625 0.734375 44.1875 -0.34375 
Q 39.109375 -1.421875 33.890625 -1.421875 
Q 20.796875 -1.421875 13.15625 6.1875 
Q 5.515625 13.8125 5.515625 26.8125 
Q 5.515625 40.234375 12.765625 48.109375 
Q 20.015625 56 32.328125 56 
Q 43.359375 56 49.78125 48.890625 
Q 56.203125 41.796875 56.203125 29.59375 
z
M 47.21875 32.234375 
Q 47.125 39.59375 43.09375 43.984375 
Q 39.0625 48.390625 32.421875 48.390625 
Q 24.90625 48.390625 20.390625 44.140625 
Q 15.875 39.890625 15.1875 32.171875 
z
" id="DejaVuSans-101"/>
       <path id="DejaVuSans-32"/>
       <path d="M 45.515625 34.671875 
L 14.453125 34.671875 
Q 12.359375 20.0625 14.5 13.875 
Q 17.1875 6.25 24.46875 6.25 
Q 31.78125 6.25 37.359375 13.921875 
Q 42.234375 20.65625 45.515625 34.671875 
z
M 47.015625 42.96875 
Q 48.34375 56.84375 46.625 61.71875 
Q 43.953125 69.4375 36.765625 69.4375 
Q 29.296875 69.4375 23.828125 61.8125 
Q 19.53125 55.671875 16.15625 42.96875 
z
M 38.1875 76.765625 
Q 49.90625 76.765625 54.59375 66.40625 
Q 59.28125 56.109375 55.71875 37.84375 
Q 52.203125 19.625 43.453125 9.28125 
Q 34.765625 -1.125 23.046875 -1.125 
Q 11.28125 -1.125 6.640625 9.28125 
Q 2 19.625 5.515625 37.84375 
Q 9.078125 56.109375 17.71875 66.40625 
Q 26.421875 76.765625 38.1875 76.765625 
z
" id="DejaVuSans-Oblique-952"/>
       <path d="M 31 75.875 
Q 24.46875 64.65625 21.28125 53.65625 
Q 18.109375 42.671875 18.109375 31.390625 
Q 18.109375 20.125 21.3125 9.0625 
Q 24.515625 -2 31 -13.1875 
L 23.1875 -13.1875 
Q 15.875 -1.703125 12.234375 9.375 
Q 8.59375 20.453125 8.59375 31.390625 
Q 8.59375 42.28125 12.203125 53.3125 
Q 15.828125 64.359375 23.1875 75.875 
z
" id="DejaVuSans-40"/>
       <path d="M 38.484375 57.625 
Q 38.484375 62.984375 36.0625 65.796875 
Q 33.640625 68.609375 28.90625 68.609375 
Q 23.25 68.609375 19.109375 63.375 
Q 14.984375 58.15625 14.984375 50.78125 
Q 14.984375 45.453125 17.40625 42.578125 
Q 19.828125 39.703125 24.3125 39.703125 
Q 30.28125 39.703125 34.375 44.84375 
Q 38.484375 50 38.484375 57.625 
z
M 30.328125 74.21875 
Q 37.546875 74.21875 41.859375 70.015625 
Q 46.1875 65.828125 46.1875 58.796875 
Q 46.1875 48.046875 39.6875 41.0625 
Q 33.203125 34.078125 23.296875 34.078125 
Q 15.96875 34.078125 11.6875 38.46875 
Q 7.421875 42.875 7.421875 50.390625 
Q 7.421875 53.71875 8.34375 56.953125 
Q 9.28125 60.203125 11.078125 63.28125 
Q 14.109375 68.453125 19.1875 71.328125 
Q 24.265625 74.21875 30.328125 74.21875 
z
M 5.078125 28.90625 
L 38.71875 28.90625 
L 37.59375 22.90625 
L 4 22.90625 
z
" id="DejaVuSans-Oblique-186"/>
       <path d="M 8.015625 75.875 
L 15.828125 75.875 
Q 23.140625 64.359375 26.78125 53.3125 
Q 30.421875 42.28125 30.421875 31.390625 
Q 30.421875 20.453125 26.78125 9.375 
Q 23.140625 -1.703125 15.828125 -13.1875 
L 8.015625 -13.1875 
Q 14.5 -2 17.703125 9.0625 
Q 20.90625 20.125 20.90625 31.390625 
Q 20.90625 42.671875 17.703125 53.65625 
Q 14.5 64.65625 8.015625 75.875 
z
" id="DejaVuSans-41"/>
      </defs>
      <use transform="translate(0 0.234375)" xlink:href="#DejaVuSans-65"/>
      <use transform="translate(68.408203 0.234375)" xlink:href="#DejaVuSans-110"/>
      <use transform="translate(131.787109 0.234375)" xlink:href="#DejaVuSans-103"/>
      <use transform="translate(195.263672 0.234375)" xlink:href="#DejaVuSans-108"/>
      <use transform="translate(223.046875 0.234375)" xlink:href="#DejaVuSans-101"/>
      <use transform="translate(284.570312 0.234375)" xlink:href="#DejaVuSans-32"/>
      <use transform="translate(316.357422 0.234375)" xlink:href="#DejaVuSans-Oblique-952"/>
      <use transform="translate(404.598198 0.234375)" xlink:href="#DejaVuSans-40"/>
      <use transform="translate(443.61187 0.234375)" xlink:href="#DejaVuSans-Oblique-186"/>
      <use transform="translate(490.731011 0.234375)" xlink:href="#DejaVuSans-41"/>
     </g>
    </g>
   </g>
   <g id="line2d_21">
    <path clip-path="url(#p1a0bfcf1a3)" d="M 65.708778 140.056449 
L 67.710075 140.166471 
L 78.650497 140.515209 
L 92.392733 140.234012 
L 92.926412 140.095009 
L 93.593511 139.654799 
L 94.26061 138.920426 
L 95.061129 137.655787 
L 95.995067 135.662757 
L 96.929006 133.129775 
L 97.996364 129.603648 
L 99.197142 124.88273 
L 100.664759 118.130351 
L 102.399216 108.956575 
L 104.533933 96.303754 
L 107.869427 74.912552 
L 111.471761 52.144653 
L 113.606477 40.053022 
L 115.340934 31.505149 
L 116.808552 25.385642 
L 118.00933 21.242304 
L 119.076688 18.267138 
L 120.010627 16.239841 
L 120.811145 14.945021 
L 121.611664 14.068272 
L 122.278763 13.661325 
L 122.812442 13.549091 
L 123.479541 13.665321 
L 124.14664 14.020004 
L 124.947158 14.750582 
L 125.747677 15.809114 
L 126.681615 17.448941 
L 127.748973 19.838194 
L 128.949751 23.148282 
L 130.283949 27.53934 
L 131.751567 33.140871 
L 133.486024 40.632532 
L 135.75416 51.473084 
L 143.625927 90.086011 
L 145.360384 97.085693 
L 146.828001 102.179075 
L 148.162199 106.04538 
L 149.362977 108.840456 
L 150.430335 110.744485 
L 151.364273 111.943322 
L 152.164792 112.614878 
L 152.831891 112.919876 
L 153.49899 112.991816 
L 154.166089 112.841836 
L 154.966607 112.432838 
L 155.767126 111.783347 
L 156.701064 110.727589 
L 157.768423 109.140149 
L 158.969201 106.89181 
L 160.303398 103.85987 
L 161.771016 99.94203 
L 163.505473 94.644106 
L 165.640189 87.36971 
L 169.242523 74.147227 
L 172.578018 62.196933 
L 174.712734 55.36633 
L 176.447191 50.563608 
L 177.914809 47.146693 
L 179.115587 44.85076 
L 180.182945 43.218375 
L 181.250303 41.990964 
L 182.184241 41.260883 
L 182.98476 40.896076 
L 183.785279 40.774842 
L 184.585797 40.896719 
L 185.519736 41.267576 
L 186.587094 41.939426 
L 187.654452 42.867989 
L 188.85523 44.205454 
L 190.189428 46.031008 
L 191.657045 48.411878 
L 193.391502 51.656491 
L 195.526219 56.143933 
L 198.861713 63.753852 
L 202.730887 72.450895 
L 204.865603 76.715216 
L 206.60006 79.713197 
L 208.067678 81.845766 
L 209.401875 83.419087 
L 210.602653 84.512001 
L 211.670011 85.212348 
L 212.73737 85.648641 
L 213.671308 85.80959 
L 214.605247 85.762826 
L 215.672605 85.475172 
L 217.273642 84.819145 
L 219.008099 83.867144 
L 221.009396 82.495893 
L 223.277532 80.659367 
L 226.479606 77.744806 
L 231.949817 72.731012 
L 234.351373 70.853171 
L 236.35267 69.564146 
L 238.087127 68.695636 
L 239.688164 68.124357 
L 241.289201 67.790298 
L 242.756819 67.700301 
L 246.492573 67.872203 
L 248.627289 67.941651 
L 250.228326 68.04663 
L 252.363043 68.126536 
L 254.0975 68.196183 
L 256.098796 68.26226 
L 258.500352 68.316711 
L 260.501649 68.300865 
L 262.102686 68.311528 
L 270.641552 68.561799 
L 273.843626 68.536008 
L 275.444664 68.602773 
L 277.44596 68.646366 
L 279.980936 68.654865 
L 288.519801 68.838219 
L 290.521098 68.909806 
L 294.923951 68.897149 
L 297.458926 68.950698 
L 300.260742 68.899015 
L 302.528878 68.937223 
L 318.80609 69.242789 
L 322.275004 69.276354 
L 328.278894 69.278469 
L 330.68045 69.271199 
L 334.816463 69.337234 
L 337.484859 69.406916 
L 341.087193 69.294221 
L 344.956366 69.34984 
L 349.759478 69.419832 
L 351.760774 69.36535 
L 358.298343 69.347346 
L 361.900677 69.507278 
L 363.768554 69.579675 
L 371.106642 69.478056 
L 374.975815 69.587145 
L 384.582039 69.496138 
L 386.449916 69.500416 
L 393.788003 69.640603 
L 395.7893 69.703035 
L 397.790597 69.598929 
L 397.790597 69.598929 
" style="fill:none;stroke:#1f77b4;stroke-linecap:square;stroke-width:1.5;"/>
   </g>
   <g id="patch_3">
    <path d="M 49.104688 146.88 
L 49.104688 7.2 
" style="fill:none;stroke:#000000;stroke-linecap:square;stroke-linejoin:miter;stroke-width:0.8;"/>
   </g>
   <g id="patch_4">
    <path d="M 414.394687 146.88 
L 414.394687 7.2 
" style="fill:none;stroke:#000000;stroke-linecap:square;stroke-linejoin:miter;stroke-width:0.8;"/>
   </g>
   <g id="patch_5">
    <path d="M 49.104687 146.88 
L 414.394688 146.88 
" style="fill:none;stroke:#000000;stroke-linecap:square;stroke-linejoin:miter;stroke-width:0.8;"/>
   </g>
   <g id="patch_6">
    <path d="M 49.104687 7.2 
L 414.394688 7.2 
" style="fill:none;stroke:#000000;stroke-linecap:square;stroke-linejoin:miter;stroke-width:0.8;"/>
   </g>
  </g>
  <g id="axes_2">
   <g id="patch_7">
    <path d="M 49.104688 314.44 
L 414.394687 314.44 
L 414.394687 174.76 
L 49.104688 174.76 
z
" style="fill:#ffffff;"/>
   </g>
   <g id="matplotlib.axis_3">
    <g id="xtick_7">
     <g id="line2d_22">
      <path clip-path="url(#pc3f999abc6)" d="M 65.708778 314.44 
L 65.708778 174.76 
" style="fill:none;stroke:#b0b0b0;stroke-linecap:square;stroke-width:0.8;"/>
     </g>
     <g id="line2d_23">
      <g>
       <use style="stroke:#000000;stroke-width:0.8;" x="65.708778" xlink:href="#mc305094b00" y="314.44"/>
      </g>
     </g>
     <g id="text_12">
      <!-- 0 -->
      <g transform="translate(62.527528 329.038437)scale(0.1 -0.1)">
       <use xlink:href="#DejaVuSans-48"/>
      </g>
     </g>
    </g>
    <g id="xtick_8">
     <g id="line2d_24">
      <path clip-path="url(#pc3f999abc6)" d="M 132.418666 314.44 
L 132.418666 174.76 
" style="fill:none;stroke:#b0b0b0;stroke-linecap:square;stroke-width:0.8;"/>
     </g>
     <g id="line2d_25">
      <g>
       <use style="stroke:#000000;stroke-width:0.8;" x="132.418666" xlink:href="#mc305094b00" y="314.44"/>
      </g>
     </g>
     <g id="text_13">
      <!-- 5 -->
      <g transform="translate(129.237416 329.038437)scale(0.1 -0.1)">
       <use xlink:href="#DejaVuSans-53"/>
      </g>
     </g>
    </g>
    <g id="xtick_9">
     <g id="line2d_26">
      <path clip-path="url(#pc3f999abc6)" d="M 199.128553 314.44 
L 199.128553 174.76 
" style="fill:none;stroke:#b0b0b0;stroke-linecap:square;stroke-width:0.8;"/>
     </g>
     <g id="line2d_27">
      <g>
       <use style="stroke:#000000;stroke-width:0.8;" x="199.128553" xlink:href="#mc305094b00" y="314.44"/>
      </g>
     </g>
     <g id="text_14">
      <!-- 10 -->
      <g transform="translate(192.766053 329.038437)scale(0.1 -0.1)">
       <use xlink:href="#DejaVuSans-49"/>
       <use x="63.623047" xlink:href="#DejaVuSans-48"/>
      </g>
     </g>
    </g>
    <g id="xtick_10">
     <g id="line2d_28">
      <path clip-path="url(#pc3f999abc6)" d="M 265.83844 314.44 
L 265.83844 174.76 
" style="fill:none;stroke:#b0b0b0;stroke-linecap:square;stroke-width:0.8;"/>
     </g>
     <g id="line2d_29">
      <g>
       <use style="stroke:#000000;stroke-width:0.8;" x="265.83844" xlink:href="#mc305094b00" y="314.44"/>
      </g>
     </g>
     <g id="text_15">
      <!-- 15 -->
      <g transform="translate(259.47594 329.038437)scale(0.1 -0.1)">
       <use xlink:href="#DejaVuSans-49"/>
       <use x="63.623047" xlink:href="#DejaVuSans-53"/>
      </g>
     </g>
    </g>
    <g id="xtick_11">
     <g id="line2d_30">
      <path clip-path="url(#pc3f999abc6)" d="M 332.548327 314.44 
L 332.548327 174.76 
" style="fill:none;stroke:#b0b0b0;stroke-linecap:square;stroke-width:0.8;"/>
     </g>
     <g id="line2d_31">
      <g>
       <use style="stroke:#000000;stroke-width:0.8;" x="332.548327" xlink:href="#mc305094b00" y="314.44"/>
      </g>
     </g>
     <g id="text_16">
      <!-- 20 -->
      <g transform="translate(326.185827 329.038437)scale(0.1 -0.1)">
       <use xlink:href="#DejaVuSans-50"/>
       <use x="63.623047" xlink:href="#DejaVuSans-48"/>
      </g>
     </g>
    </g>
    <g id="xtick_12">
     <g id="line2d_32">
      <path clip-path="url(#pc3f999abc6)" d="M 399.258214 314.44 
L 399.258214 174.76 
" style="fill:none;stroke:#b0b0b0;stroke-linecap:square;stroke-width:0.8;"/>
     </g>
     <g id="line2d_33">
      <g>
       <use style="stroke:#000000;stroke-width:0.8;" x="399.258214" xlink:href="#mc305094b00" y="314.44"/>
      </g>
     </g>
     <g id="text_17">
      <!-- 25 -->
      <g transform="translate(392.895714 329.038437)scale(0.1 -0.1)">
       <use xlink:href="#DejaVuSans-50"/>
       <use x="63.623047" xlink:href="#DejaVuSans-53"/>
      </g>
     </g>
    </g>
    <g id="text_18">
     <!-- Time (s) -->
     <g transform="translate(211.420781 342.716562)scale(0.1 -0.1)">
      <defs>
       <path d="M -0.296875 72.90625 
L 61.375 72.90625 
L 61.375 64.59375 
L 35.5 64.59375 
L 35.5 0 
L 25.59375 0 
L 25.59375 64.59375 
L -0.296875 64.59375 
z
" id="DejaVuSans-84"/>
       <path d="M 9.421875 54.6875 
L 18.40625 54.6875 
L 18.40625 0 
L 9.421875 0 
z
M 9.421875 75.984375 
L 18.40625 75.984375 
L 18.40625 64.59375 
L 9.421875 64.59375 
z
" id="DejaVuSans-105"/>
       <path d="M 52 44.1875 
Q 55.375 50.25 60.0625 53.125 
Q 64.75 56 71.09375 56 
Q 79.640625 56 84.28125 50.015625 
Q 88.921875 44.046875 88.921875 33.015625 
L 88.921875 0 
L 79.890625 0 
L 79.890625 32.71875 
Q 79.890625 40.578125 77.09375 44.375 
Q 74.3125 48.1875 68.609375 48.1875 
Q 61.625 48.1875 57.5625 43.546875 
Q 53.515625 38.921875 53.515625 30.90625 
L 53.515625 0 
L 44.484375 0 
L 44.484375 32.71875 
Q 44.484375 40.625 41.703125 44.40625 
Q 38.921875 48.1875 33.109375 48.1875 
Q 26.21875 48.1875 22.15625 43.53125 
Q 18.109375 38.875 18.109375 30.90625 
L 18.109375 0 
L 9.078125 0 
L 9.078125 54.6875 
L 18.109375 54.6875 
L 18.109375 46.1875 
Q 21.1875 51.21875 25.484375 53.609375 
Q 29.78125 56 35.6875 56 
Q 41.65625 56 45.828125 52.96875 
Q 50 49.953125 52 44.1875 
z
" id="DejaVuSans-109"/>
       <path d="M 44.28125 53.078125 
L 44.28125 44.578125 
Q 40.484375 46.53125 36.375 47.5 
Q 32.28125 48.484375 27.875 48.484375 
Q 21.1875 48.484375 17.84375 46.4375 
Q 14.5 44.390625 14.5 40.28125 
Q 14.5 37.15625 16.890625 35.375 
Q 19.28125 33.59375 26.515625 31.984375 
L 29.59375 31.296875 
Q 39.15625 29.25 43.1875 25.515625 
Q 47.21875 21.78125 47.21875 15.09375 
Q 47.21875 7.46875 41.1875 3.015625 
Q 35.15625 -1.421875 24.609375 -1.421875 
Q 20.21875 -1.421875 15.453125 -0.5625 
Q 10.6875 0.296875 5.421875 2 
L 5.421875 11.28125 
Q 10.40625 8.6875 15.234375 7.390625 
Q 20.0625 6.109375 24.8125 6.109375 
Q 31.15625 6.109375 34.5625 8.28125 
Q 37.984375 10.453125 37.984375 14.40625 
Q 37.984375 18.0625 35.515625 20.015625 
Q 33.0625 21.96875 24.703125 23.78125 
L 21.578125 24.515625 
Q 13.234375 26.265625 9.515625 29.90625 
Q 5.8125 33.546875 5.8125 39.890625 
Q 5.8125 47.609375 11.28125 51.796875 
Q 16.75 56 26.8125 56 
Q 31.78125 56 36.171875 55.265625 
Q 40.578125 54.546875 44.28125 53.078125 
z
" id="DejaVuSans-115"/>
      </defs>
      <use xlink:href="#DejaVuSans-84"/>
      <use x="57.958984" xlink:href="#DejaVuSans-105"/>
      <use x="85.742188" xlink:href="#DejaVuSans-109"/>
      <use x="183.154297" xlink:href="#DejaVuSans-101"/>
      <use x="244.677734" xlink:href="#DejaVuSans-32"/>
      <use x="276.464844" xlink:href="#DejaVuSans-40"/>
      <use x="315.478516" xlink:href="#DejaVuSans-115"/>
      <use x="367.578125" xlink:href="#DejaVuSans-41"/>
     </g>
    </g>
   </g>
   <g id="matplotlib.axis_4">
    <g id="ytick_5">
     <g id="line2d_34">
      <path clip-path="url(#pc3f999abc6)" d="M 49.104688 273.432601 
L 414.394687 273.432601 
" style="fill:none;stroke:#b0b0b0;stroke-linecap:square;stroke-width:0.8;"/>
     </g>
     <g id="line2d_35">
      <g>
       <use style="stroke:#000000;stroke-width:0.8;" x="49.104688" xlink:href="#ma0b4304848" y="273.432601"/>
      </g>
     </g>
     <g id="text_19">
      <!-- −40 -->
      <g transform="translate(21 277.23182)scale(0.1 -0.1)">
       <defs>
        <path d="M 37.796875 64.3125 
L 12.890625 25.390625 
L 37.796875 25.390625 
z
M 35.203125 72.90625 
L 47.609375 72.90625 
L 47.609375 25.390625 
L 58.015625 25.390625 
L 58.015625 17.1875 
L 47.609375 17.1875 
L 47.609375 0 
L 37.796875 0 
L 37.796875 17.1875 
L 4.890625 17.1875 
L 4.890625 26.703125 
z
" id="DejaVuSans-52"/>
       </defs>
       <use xlink:href="#DejaVuSans-8722"/>
       <use x="83.789062" xlink:href="#DejaVuSans-52"/>
       <use x="147.412109" xlink:href="#DejaVuSans-48"/>
      </g>
     </g>
    </g>
    <g id="ytick_6">
     <g id="line2d_36">
      <path clip-path="url(#pc3f999abc6)" d="M 49.104688 232.39993 
L 414.394687 232.39993 
" style="fill:none;stroke:#b0b0b0;stroke-linecap:square;stroke-width:0.8;"/>
     </g>
     <g id="line2d_37">
      <g>
       <use style="stroke:#000000;stroke-width:0.8;" x="49.104688" xlink:href="#ma0b4304848" y="232.39993"/>
      </g>
     </g>
     <g id="text_20">
      <!-- −20 -->
      <g transform="translate(21 236.199149)scale(0.1 -0.1)">
       <use xlink:href="#DejaVuSans-8722"/>
       <use x="83.789062" xlink:href="#DejaVuSans-50"/>
       <use x="147.412109" xlink:href="#DejaVuSans-48"/>
      </g>
     </g>
    </g>
    <g id="ytick_7">
     <g id="line2d_38">
      <path clip-path="url(#pc3f999abc6)" d="M 49.104688 191.367259 
L 414.394687 191.367259 
" style="fill:none;stroke:#b0b0b0;stroke-linecap:square;stroke-width:0.8;"/>
     </g>
     <g id="line2d_39">
      <g>
       <use style="stroke:#000000;stroke-width:0.8;" x="49.104688" xlink:href="#ma0b4304848" y="191.367259"/>
      </g>
     </g>
     <g id="text_21">
      <!-- 0 -->
      <g transform="translate(35.742188 195.166477)scale(0.1 -0.1)">
       <use xlink:href="#DejaVuSans-48"/>
      </g>
     </g>
    </g>
    <g id="text_22">
     <!-- Force (N) -->
     <g transform="translate(14.920313 267.353906)rotate(-90)scale(0.1 -0.1)">
      <defs>
       <path d="M 9.8125 72.90625 
L 51.703125 72.90625 
L 51.703125 64.59375 
L 19.671875 64.59375 
L 19.671875 43.109375 
L 48.578125 43.109375 
L 48.578125 34.8125 
L 19.671875 34.8125 
L 19.671875 0 
L 9.8125 0 
z
" id="DejaVuSans-70"/>
       <path d="M 30.609375 48.390625 
Q 23.390625 48.390625 19.1875 42.75 
Q 14.984375 37.109375 14.984375 27.296875 
Q 14.984375 17.484375 19.15625 11.84375 
Q 23.34375 6.203125 30.609375 6.203125 
Q 37.796875 6.203125 41.984375 11.859375 
Q 46.1875 17.53125 46.1875 27.296875 
Q 46.1875 37.015625 41.984375 42.703125 
Q 37.796875 48.390625 30.609375 48.390625 
z
M 30.609375 56 
Q 42.328125 56 49.015625 48.375 
Q 55.71875 40.765625 55.71875 27.296875 
Q 55.71875 13.875 49.015625 6.21875 
Q 42.328125 -1.421875 30.609375 -1.421875 
Q 18.84375 -1.421875 12.171875 6.21875 
Q 5.515625 13.875 5.515625 27.296875 
Q 5.515625 40.765625 12.171875 48.375 
Q 18.84375 56 30.609375 56 
z
" id="DejaVuSans-111"/>
       <path d="M 41.109375 46.296875 
Q 39.59375 47.171875 37.8125 47.578125 
Q 36.03125 48 33.890625 48 
Q 26.265625 48 22.1875 43.046875 
Q 18.109375 38.09375 18.109375 28.8125 
L 18.109375 0 
L 9.078125 0 
L 9.078125 54.6875 
L 18.109375 54.6875 
L 18.109375 46.1875 
Q 20.953125 51.171875 25.484375 53.578125 
Q 30.03125 56 36.53125 56 
Q 37.453125 56 38.578125 55.875 
Q 39.703125 55.765625 41.0625 55.515625 
z
" id="DejaVuSans-114"/>
       <path d="M 48.78125 52.59375 
L 48.78125 44.1875 
Q 44.96875 46.296875 41.140625 47.34375 
Q 37.3125 48.390625 33.40625 48.390625 
Q 24.65625 48.390625 19.8125 42.84375 
Q 14.984375 37.3125 14.984375 27.296875 
Q 14.984375 17.28125 19.8125 11.734375 
Q 24.65625 6.203125 33.40625 6.203125 
Q 37.3125 6.203125 41.140625 7.25 
Q 44.96875 8.296875 48.78125 10.40625 
L 48.78125 2.09375 
Q 45.015625 0.34375 40.984375 -0.53125 
Q 36.96875 -1.421875 32.421875 -1.421875 
Q 20.0625 -1.421875 12.78125 6.34375 
Q 5.515625 14.109375 5.515625 27.296875 
Q 5.515625 40.671875 12.859375 48.328125 
Q 20.21875 56 33.015625 56 
Q 37.15625 56 41.109375 55.140625 
Q 45.0625 54.296875 48.78125 52.59375 
z
" id="DejaVuSans-99"/>
       <path d="M 9.8125 72.90625 
L 23.09375 72.90625 
L 55.421875 11.921875 
L 55.421875 72.90625 
L 64.984375 72.90625 
L 64.984375 0 
L 51.703125 0 
L 19.390625 60.984375 
L 19.390625 0 
L 9.8125 0 
z
" id="DejaVuSans-78"/>
      </defs>
      <use xlink:href="#DejaVuSans-70"/>
      <use x="53.894531" xlink:href="#DejaVuSans-111"/>
      <use x="115.076172" xlink:href="#DejaVuSans-114"/>
      <use x="153.939453" xlink:href="#DejaVuSans-99"/>
      <use x="208.919922" xlink:href="#DejaVuSans-101"/>
      <use x="270.443359" xlink:href="#DejaVuSans-32"/>
      <use x="302.230469" xlink:href="#DejaVuSans-40"/>
      <use x="341.244141" xlink:href="#DejaVuSans-78"/>
      <use x="416.048828" xlink:href="#DejaVuSans-41"/>
     </g>
    </g>
   </g>
   <g id="line2d_40">
    <path clip-path="url(#pc3f999abc6)" d="M 65.708778 297.832741 
L 65.72212 308.090909 
L 67.042976 308.090909 
L 67.176396 287.574573 
L 68.377174 287.574573 
L 68.510594 308.090909 
L 69.711372 308.090909 
L 69.844791 287.574573 
L 71.045569 287.574573 
L 71.178989 308.090909 
L 72.379767 308.090909 
L 72.513187 287.574573 
L 73.713965 287.574573 
L 73.847385 308.090909 
L 75.048163 308.090909 
L 75.181582 287.574573 
L 76.38236 287.574573 
L 76.51578 308.090909 
L 77.716558 308.090909 
L 77.849978 287.574573 
L 79.050756 287.574573 
L 79.184176 308.090909 
L 80.384954 308.090909 
L 80.518373 287.574573 
L 81.719151 287.574573 
L 81.852571 308.090909 
L 83.053349 308.090909 
L 83.186769 287.574573 
L 84.387547 287.574573 
L 84.520967 308.090909 
L 85.721745 308.090909 
L 85.855164 287.574573 
L 87.055942 287.574573 
L 87.189362 308.090909 
L 88.39014 308.090909 
L 88.52356 287.574573 
L 89.724338 287.574573 
L 89.857758 308.090909 
L 91.058536 308.090909 
L 91.191955 287.574573 
L 92.392733 287.574573 
L 92.526153 201.625427 
L 123.079281 201.625427 
L 123.212701 181.109091 
L 153.765829 181.109091 
L 153.899249 201.625427 
L 184.452378 201.625427 
L 184.585797 181.109091 
L 215.138926 181.109091 
L 215.272345 201.625427 
L 243.157078 201.625427 
L 243.290498 181.109091 
L 244.491276 181.109091 
L 244.624696 201.625427 
L 245.825474 201.625427 
L 245.958893 181.109091 
L 248.493869 181.109091 
L 248.627289 201.625427 
L 249.828067 201.625427 
L 249.961487 181.109091 
L 252.496462 181.109091 
L 252.629882 201.625427 
L 253.83066 201.625427 
L 253.96408 181.109091 
L 256.499056 181.109091 
L 256.632475 201.625427 
L 257.833253 201.625427 
L 257.966673 181.109091 
L 260.501649 181.109091 
L 260.635069 201.625427 
L 261.835847 201.625427 
L 261.969266 181.109091 
L 263.170044 181.109091 
L 263.303464 201.625427 
L 264.504242 201.625427 
L 264.637662 181.109091 
L 267.172638 181.109091 
L 267.306057 201.625427 
L 268.506835 201.625427 
L 268.640255 181.109091 
L 271.175231 181.109091 
L 271.308651 201.625427 
L 272.509429 201.625427 
L 272.642848 181.109091 
L 273.843626 181.109091 
L 273.977046 201.625427 
L 275.177824 201.625427 
L 275.311244 181.109091 
L 277.84622 181.109091 
L 277.979639 201.625427 
L 279.180417 201.625427 
L 279.313837 181.109091 
L 280.514615 181.109091 
L 280.648035 201.625427 
L 281.848813 201.625427 
L 281.982233 181.109091 
L 284.517208 181.109091 
L 284.650628 201.625427 
L 285.851406 201.625427 
L 285.984826 181.109091 
L 287.185604 181.109091 
L 287.319023 201.625427 
L 288.519801 201.625427 
L 288.653221 181.109091 
L 291.188197 181.109091 
L 291.321617 201.625427 
L 292.522395 201.625427 
L 292.655814 181.109091 
L 293.856592 181.109091 
L 293.990012 201.625427 
L 295.19079 201.625427 
L 295.32421 181.109091 
L 297.859186 181.109091 
L 297.992605 201.625427 
L 299.193383 201.625427 
L 299.326803 181.109091 
L 300.527581 181.109091 
L 300.661001 201.625427 
L 301.861779 201.625427 
L 301.995199 181.109091 
L 303.195977 181.109091 
L 303.329396 201.625427 
L 304.530174 201.625427 
L 304.663594 181.109091 
L 307.19857 181.109091 
L 307.33199 201.625427 
L 308.532768 201.625427 
L 308.666187 181.109091 
L 309.866965 181.109091 
L 310.000385 201.625427 
L 311.201163 201.625427 
L 311.334583 181.109091 
L 312.535361 181.109091 
L 312.668781 201.625427 
L 313.869559 201.625427 
L 314.002978 181.109091 
L 316.537954 181.109091 
L 316.671374 201.625427 
L 317.872152 201.625427 
L 318.005572 181.109091 
L 319.20635 181.109091 
L 319.339769 201.625427 
L 320.540547 201.625427 
L 320.673967 181.109091 
L 321.874745 181.109091 
L 322.008165 201.625427 
L 323.208943 201.625427 
L 323.342363 181.109091 
L 325.877338 181.109091 
L 326.010758 201.625427 
L 327.211536 201.625427 
L 327.344956 181.109091 
L 328.545734 181.109091 
L 328.679154 201.625427 
L 329.879931 201.625427 
L 330.013351 181.109091 
L 331.214129 181.109091 
L 331.347549 201.625427 
L 332.548327 201.625427 
L 332.681747 181.109091 
L 333.882525 181.109091 
L 334.015944 201.625427 
L 335.216722 201.625427 
L 335.350142 181.109091 
L 337.885118 181.109091 
L 338.018538 201.625427 
L 339.219316 201.625427 
L 339.352735 181.109091 
L 340.553513 181.109091 
L 340.686933 201.625427 
L 341.887711 201.625427 
L 342.021131 181.109091 
L 343.221909 181.109091 
L 343.355329 201.625427 
L 344.556107 201.625427 
L 344.689526 181.109091 
L 345.890304 181.109091 
L 346.023724 201.625427 
L 347.224502 201.625427 
L 347.357922 181.109091 
L 349.892898 181.109091 
L 350.026317 201.625427 
L 351.227095 201.625427 
L 351.360515 181.109091 
L 352.561293 181.109091 
L 352.694713 201.625427 
L 353.895491 201.625427 
L 354.028911 181.109091 
L 355.229689 181.109091 
L 355.363108 201.625427 
L 356.563886 201.625427 
L 356.697306 181.109091 
L 357.898084 181.109091 
L 358.031504 201.625427 
L 359.232282 201.625427 
L 359.365702 181.109091 
L 360.56648 181.109091 
L 360.699899 201.625427 
L 361.900677 201.625427 
L 362.034097 181.109091 
L 364.569073 181.109091 
L 364.702493 201.625427 
L 365.903271 201.625427 
L 366.03669 181.109091 
L 367.237468 181.109091 
L 367.370888 201.625427 
L 368.571666 201.625427 
L 368.705086 181.109091 
L 369.905864 181.109091 
L 370.039284 201.625427 
L 371.240062 201.625427 
L 371.373481 181.109091 
L 372.574259 181.109091 
L 372.707679 201.625427 
L 373.908457 201.625427 
L 374.041877 181.109091 
L 375.242655 181.109091 
L 375.376075 201.625427 
L 376.576852 201.625427 
L 376.710272 181.109091 
L 379.245248 181.109091 
L 379.378668 201.625427 
L 380.579446 201.625427 
L 380.712865 181.109091 
L 381.913643 181.109091 
L 382.047063 201.625427 
L 383.247841 201.625427 
L 383.381261 181.109091 
L 384.582039 181.109091 
L 384.715459 201.625427 
L 385.916237 201.625427 
L 386.049656 181.109091 
L 387.250434 181.109091 
L 387.383854 201.625427 
L 388.584632 201.625427 
L 388.718052 181.109091 
L 389.91883 181.109091 
L 390.05225 201.625427 
L 391.253028 201.625427 
L 391.386447 181.109091 
L 392.587225 181.109091 
L 392.720645 201.625427 
L 393.921423 201.625427 
L 394.054843 181.109091 
L 396.589819 181.109091 
L 396.723238 201.625427 
L 397.790597 201.625427 
L 397.790597 201.625427 
" style="fill:none;stroke:#1f77b4;stroke-linecap:square;stroke-width:1.5;"/>
   </g>
   <g id="patch_8">
    <path d="M 49.104688 314.44 
L 49.104688 174.76 
" style="fill:none;stroke:#000000;stroke-linecap:square;stroke-linejoin:miter;stroke-width:0.8;"/>
   </g>
   <g id="patch_9">
    <path d="M 414.394687 314.44 
L 414.394687 174.76 
" style="fill:none;stroke:#000000;stroke-linecap:square;stroke-linejoin:miter;stroke-width:0.8;"/>
   </g>
   <g id="patch_10">
    <path d="M 49.104687 314.44 
L 414.394688 314.44 
" style="fill:none;stroke:#000000;stroke-linecap:square;stroke-linejoin:miter;stroke-width:0.8;"/>
   </g>
   <g id="patch_11">
    <path d="M 49.104687 174.76 
L 414.394688 174.76 
" style="fill:none;stroke:#000000;stroke-linecap:square;stroke-linejoin:miter;stroke-width:0.8;"/>
   </g>
   <g id="legend_1">
    <g id="patch_12">
     <path d="M 56.104688 197.438125 
L 96.104688 197.438125 
Q 98.104688 197.438125 98.104688 195.438125 
L 98.104688 181.76 
Q 98.104688 179.76 96.104688 179.76 
L 56.104688 179.76 
Q 54.104688 179.76 54.104688 181.76 
L 54.104688 195.438125 
Q 54.104688 197.438125 56.104688 197.438125 
z
" style="fill:#ffffff;opacity:0.8;stroke:#cccccc;stroke-linejoin:miter;"/>
    </g>
    <g id="line2d_41">
     <path d="M 58.104688 187.858437 
L 78.104688 187.858437 
" style="fill:none;stroke:#1f77b4;stroke-linecap:square;stroke-width:1.5;"/>
    </g>
    <g id="line2d_42"/>
    <g id="text_23">
     <!-- $f_x$ -->
     <g transform="translate(86.104688 191.358437)scale(0.1 -0.1)">
      <defs>
       <path d="M 47.796875 75.984375 
L 46.390625 68.5 
L 37.796875 68.5 
Q 32.90625 68.5 30.6875 66.578125 
Q 28.46875 64.65625 27.390625 59.515625 
L 26.421875 54.6875 
L 41.21875 54.6875 
L 39.890625 47.703125 
L 25.09375 47.703125 
L 15.828125 0 
L 6.78125 0 
L 16.109375 47.703125 
L 7.515625 47.703125 
L 8.796875 54.6875 
L 17.390625 54.6875 
L 18.109375 58.5 
Q 19.96875 68.171875 24.625 72.078125 
Q 29.296875 75.984375 39.3125 75.984375 
z
" id="DejaVuSans-Oblique-102"/>
       <path d="M 60.015625 54.6875 
L 34.90625 27.875 
L 50.296875 0 
L 39.984375 0 
L 28.421875 21.6875 
L 8.296875 0 
L -2.59375 0 
L 24.3125 28.8125 
L 10.015625 54.6875 
L 20.3125 54.6875 
L 30.8125 34.90625 
L 49.125 54.6875 
z
" id="DejaVuSans-Oblique-120"/>
      </defs>
      <use transform="translate(0 0.015625)" xlink:href="#DejaVuSans-Oblique-102"/>
      <use transform="translate(35.205078 -16.390625)scale(0.7)" xlink:href="#DejaVuSans-Oblique-120"/>
     </g>
    </g>
   </g>
  </g>
 </g>
 <defs>
  <clipPath id="p1a0bfcf1a3">
   <rect height="139.68" width="365.29" x="49.104688" y="7.2"/>
  </clipPath>
  <clipPath id="pc3f999abc6">
   <rect height="139.68" width="365.29" x="49.104688" y="174.76"/>
  </clipPath>
 </defs>
</svg>
