<?xml version="1.0" encoding="utf-8" standalone="no"?>
<!DOCTYPE svg PUBLIC "-//W3C//DTD SVG 1.1//EN"
  "http://www.w3.org/Graphics/SVG/1.1/DTD/svg11.dtd">
<svg xmlns:xlink="http://www.w3.org/1999/xlink" width="421.594687pt" height="351.99625pt" viewBox="0 0 421.594687 351.99625" xmlns="http://www.w3.org/2000/svg" version="1.1">
 <metadata>
  <rdf:RDF xmlns:dc="http://purl.org/dc/elements/1.1/" xmlns:cc="http://creativecommons.org/ns#" xmlns:rdf="http://www.w3.org/1999/02/22-rdf-syntax-ns#">
   <cc:Work>
    <dc:type rdf:resource="http://purl.org/dc/dcmitype/StillImage"/>
    <dc:date>2023-02-02T07:20:33.765579</dc:date>
    <dc:format>image/svg+xml</dc:format>
    <dc:creator>
     <cc:Agent>
      <dc:title>Matplotlib v3.5.2, https://matplotlib.org/</dc:title>
     </cc:Agent>
    </dc:creator>
   </cc:Work>
  </rdf:RDF>
 </metadata>
 <defs>
  <style type="text/css">*{stroke-linejoin: round; stroke-linecap: butt}</style>
 </defs>
 <g id="figure_1">
  <g id="patch_1">
   <path d="M 0 351.99625 
L 421.594687 351.99625 
L 421.594687 0 
L 0 0 
z
" style="fill: #ffffff"/>
  </g>
  <g id="axes_1">
   <g id="patch_2">
    <path d="M 49.104688 146.88 
L 414.394687 146.88 
L 414.394687 7.2 
L 49.104688 7.2 
z
" style="fill: #ffffff"/>
   </g>
   <g id="matplotlib.axis_1">
    <g id="xtick_1">
     <g id="line2d_1">
      <path d="M 65.708778 146.88 
L 65.708778 7.2 
" clip-path="url(#pbf6affaff3)" style="fill: none; stroke: #b0b0b0; stroke-width: 0.8; stroke-linecap: square"/>
     </g>
     <g id="line2d_2">
      <defs>
       <path id="mf19528be2c" d="M 0 0 
L 0 3.5 
" style="stroke: #000000; stroke-width: 0.8"/>
      </defs>
      <g>
       <use xlink:href="#mf19528be2c" x="65.708778" y="146.88" style="stroke: #000000; stroke-width: 0.8"/>
      </g>
     </g>
     <g id="text_1">
      <!-- 0 -->
      <g transform="translate(62.527528 161.478437)scale(0.1 -0.1)">
       <defs>
        <path id="DejaVuSans-30" d="M 2034 4250 
Q 1547 4250 1301 3770 
Q 1056 3291 1056 2328 
Q 1056 1369 1301 889 
Q 1547 409 2034 409 
Q 2525 409 2770 889 
Q 3016 1369 3016 2328 
Q 3016 3291 2770 3770 
Q 2525 4250 2034 4250 
z
M 2034 4750 
Q 2819 4750 3233 4129 
Q 3647 3509 3647 2328 
Q 3647 1150 3233 529 
Q 2819 -91 2034 -91 
Q 1250 -91 836 529 
Q 422 1150 422 2328 
Q 422 3509 836 4129 
Q 1250 4750 2034 4750 
z
" transform="scale(0.015625)"/>
       </defs>
       <use xlink:href="#DejaVuSans-30"/>
      </g>
     </g>
    </g>
    <g id="xtick_2">
     <g id="line2d_3">
      <path d="M 121.259434 146.88 
L 121.259434 7.2 
" clip-path="url(#pbf6affaff3)" style="fill: none; stroke: #b0b0b0; stroke-width: 0.8; stroke-linecap: square"/>
     </g>
     <g id="line2d_4">
      <g>
       <use xlink:href="#mf19528be2c" x="121.259434" y="146.88" style="stroke: #000000; stroke-width: 0.8"/>
      </g>
     </g>
     <g id="text_2">
      <!-- 5 -->
      <g transform="translate(118.078184 161.478437)scale(0.1 -0.1)">
       <defs>
        <path id="DejaVuSans-35" d="M 691 4666 
L 3169 4666 
L 3169 4134 
L 1269 4134 
L 1269 2991 
Q 1406 3038 1543 3061 
Q 1681 3084 1819 3084 
Q 2600 3084 3056 2656 
Q 3513 2228 3513 1497 
Q 3513 744 3044 326 
Q 2575 -91 1722 -91 
Q 1428 -91 1123 -41 
Q 819 9 494 109 
L 494 744 
Q 775 591 1075 516 
Q 1375 441 1709 441 
Q 2250 441 2565 725 
Q 2881 1009 2881 1497 
Q 2881 1984 2565 2268 
Q 2250 2553 1709 2553 
Q 1456 2553 1204 2497 
Q 953 2441 691 2322 
L 691 4666 
z
" transform="scale(0.015625)"/>
       </defs>
       <use xlink:href="#DejaVuSans-35"/>
      </g>
     </g>
    </g>
    <g id="xtick_3">
     <g id="line2d_5">
      <path d="M 176.810089 146.88 
L 176.810089 7.2 
" clip-path="url(#pbf6affaff3)" style="fill: none; stroke: #b0b0b0; stroke-width: 0.8; stroke-linecap: square"/>
     </g>
     <g id="line2d_6">
      <g>
       <use xlink:href="#mf19528be2c" x="176.810089" y="146.88" style="stroke: #000000; stroke-width: 0.8"/>
      </g>
     </g>
     <g id="text_3">
      <!-- 10 -->
      <g transform="translate(170.447589 161.478437)scale(0.1 -0.1)">
       <defs>
        <path id="DejaVuSans-31" d="M 794 531 
L 1825 531 
L 1825 4091 
L 703 3866 
L 703 4441 
L 1819 4666 
L 2450 4666 
L 2450 531 
L 3481 531 
L 3481 0 
L 794 0 
L 794 531 
z
" transform="scale(0.015625)"/>
       </defs>
       <use xlink:href="#DejaVuSans-31"/>
       <use xlink:href="#DejaVuSans-30" x="63.623047"/>
      </g>
     </g>
    </g>
    <g id="xtick_4">
     <g id="line2d_7">
      <path d="M 232.360745 146.88 
L 232.360745 7.2 
" clip-path="url(#pbf6affaff3)" style="fill: none; stroke: #b0b0b0; stroke-width: 0.8; stroke-linecap: square"/>
     </g>
     <g id="line2d_8">
      <g>
       <use xlink:href="#mf19528be2c" x="232.360745" y="146.88" style="stroke: #000000; stroke-width: 0.8"/>
      </g>
     </g>
     <g id="text_4">
      <!-- 15 -->
      <g transform="translate(225.998245 161.478437)scale(0.1 -0.1)">
       <use xlink:href="#DejaVuSans-31"/>
       <use xlink:href="#DejaVuSans-35" x="63.623047"/>
      </g>
     </g>
    </g>
    <g id="xtick_5">
     <g id="line2d_9">
      <path d="M 287.9114 146.88 
L 287.9114 7.2 
" clip-path="url(#pbf6affaff3)" style="fill: none; stroke: #b0b0b0; stroke-width: 0.8; stroke-linecap: square"/>
     </g>
     <g id="line2d_10">
      <g>
       <use xlink:href="#mf19528be2c" x="287.9114" y="146.88" style="stroke: #000000; stroke-width: 0.8"/>
      </g>
     </g>
     <g id="text_5">
      <!-- 20 -->
      <g transform="translate(281.5489 161.478437)scale(0.1 -0.1)">
       <defs>
        <path id="DejaVuSans-32" d="M 1228 531 
L 3431 531 
L 3431 0 
L 469 0 
L 469 531 
Q 828 903 1448 1529 
Q 2069 2156 2228 2338 
Q 2531 2678 2651 2914 
Q 2772 3150 2772 3378 
Q 2772 3750 2511 3984 
Q 2250 4219 1831 4219 
Q 1534 4219 1204 4116 
Q 875 4013 500 3803 
L 500 4441 
Q 881 4594 1212 4672 
Q 1544 4750 1819 4750 
Q 2544 4750 2975 4387 
Q 3406 4025 3406 3419 
Q 3406 3131 3298 2873 
Q 3191 2616 2906 2266 
Q 2828 2175 2409 1742 
Q 1991 1309 1228 531 
z
" transform="scale(0.015625)"/>
       </defs>
       <use xlink:href="#DejaVuSans-32"/>
       <use xlink:href="#DejaVuSans-30" x="63.623047"/>
      </g>
     </g>
    </g>
    <g id="xtick_6">
     <g id="line2d_11">
      <path d="M 343.462056 146.88 
L 343.462056 7.2 
" clip-path="url(#pbf6affaff3)" style="fill: none; stroke: #b0b0b0; stroke-width: 0.8; stroke-linecap: square"/>
     </g>
     <g id="line2d_12">
      <g>
       <use xlink:href="#mf19528be2c" x="343.462056" y="146.88" style="stroke: #000000; stroke-width: 0.8"/>
      </g>
     </g>
     <g id="text_6">
      <!-- 25 -->
      <g transform="translate(337.099556 161.478437)scale(0.1 -0.1)">
       <use xlink:href="#DejaVuSans-32"/>
       <use xlink:href="#DejaVuSans-35" x="63.623047"/>
      </g>
     </g>
    </g>
    <g id="xtick_7">
     <g id="line2d_13">
      <path d="M 399.012711 146.88 
L 399.012711 7.2 
" clip-path="url(#pbf6affaff3)" style="fill: none; stroke: #b0b0b0; stroke-width: 0.8; stroke-linecap: square"/>
     </g>
     <g id="line2d_14">
      <g>
       <use xlink:href="#mf19528be2c" x="399.012711" y="146.88" style="stroke: #000000; stroke-width: 0.8"/>
      </g>
     </g>
     <g id="text_7">
      <!-- 30 -->
      <g transform="translate(392.650211 161.478437)scale(0.1 -0.1)">
       <defs>
        <path id="DejaVuSans-33" d="M 2597 2516 
Q 3050 2419 3304 2112 
Q 3559 1806 3559 1356 
Q 3559 666 3084 287 
Q 2609 -91 1734 -91 
Q 1441 -91 1130 -33 
Q 819 25 488 141 
L 488 750 
Q 750 597 1062 519 
Q 1375 441 1716 441 
Q 2309 441 2620 675 
Q 2931 909 2931 1356 
Q 2931 1769 2642 2001 
Q 2353 2234 1838 2234 
L 1294 2234 
L 1294 2753 
L 1863 2753 
Q 2328 2753 2575 2939 
Q 2822 3125 2822 3475 
Q 2822 3834 2567 4026 
Q 2313 4219 1838 4219 
Q 1578 4219 1281 4162 
Q 984 4106 628 3988 
L 628 4550 
Q 988 4650 1302 4700 
Q 1616 4750 1894 4750 
Q 2613 4750 3031 4423 
Q 3450 4097 3450 3541 
Q 3450 3153 3228 2886 
Q 3006 2619 2597 2516 
z
" transform="scale(0.015625)"/>
       </defs>
       <use xlink:href="#DejaVuSans-33"/>
       <use xlink:href="#DejaVuSans-30" x="63.623047"/>
      </g>
     </g>
    </g>
   </g>
   <g id="matplotlib.axis_2">
    <g id="ytick_1">
     <g id="line2d_15">
      <path d="M 49.104688 140.530909 
L 414.394687 140.530909 
" clip-path="url(#pbf6affaff3)" style="fill: none; stroke: #b0b0b0; stroke-width: 0.8; stroke-linecap: square"/>
     </g>
     <g id="line2d_16">
      <defs>
       <path id="m2d2aed39fe" d="M 0 0 
L -3.5 0 
" style="stroke: #000000; stroke-width: 0.8"/>
      </defs>
      <g>
       <use xlink:href="#m2d2aed39fe" x="49.104688" y="140.530909" style="stroke: #000000; stroke-width: 0.8"/>
      </g>
     </g>
     <g id="text_8">
      <!-- −10 -->
      <g transform="translate(21 144.330128)scale(0.1 -0.1)">
       <defs>
        <path id="DejaVuSans-2212" d="M 678 2272 
L 4684 2272 
L 4684 1741 
L 678 1741 
L 678 2272 
z
" transform="scale(0.015625)"/>
       </defs>
       <use xlink:href="#DejaVuSans-2212"/>
       <use xlink:href="#DejaVuSans-31" x="83.789062"/>
       <use xlink:href="#DejaVuSans-30" x="147.412109"/>
      </g>
     </g>
    </g>
    <g id="ytick_2">
     <g id="line2d_17">
      <path d="M 49.104688 108.784499 
L 414.394687 108.784499 
" clip-path="url(#pbf6affaff3)" style="fill: none; stroke: #b0b0b0; stroke-width: 0.8; stroke-linecap: square"/>
     </g>
     <g id="line2d_18">
      <g>
       <use xlink:href="#m2d2aed39fe" x="49.104688" y="108.784499" style="stroke: #000000; stroke-width: 0.8"/>
      </g>
     </g>
     <g id="text_9">
      <!-- −5 -->
      <g transform="translate(27.3625 112.583718)scale(0.1 -0.1)">
       <use xlink:href="#DejaVuSans-2212"/>
       <use xlink:href="#DejaVuSans-35" x="83.789062"/>
      </g>
     </g>
    </g>
    <g id="ytick_3">
     <g id="line2d_19">
      <path d="M 49.104688 77.03809 
L 414.394687 77.03809 
" clip-path="url(#pbf6affaff3)" style="fill: none; stroke: #b0b0b0; stroke-width: 0.8; stroke-linecap: square"/>
     </g>
     <g id="line2d_20">
      <g>
       <use xlink:href="#m2d2aed39fe" x="49.104688" y="77.03809" style="stroke: #000000; stroke-width: 0.8"/>
      </g>
     </g>
     <g id="text_10">
      <!-- 0 -->
      <g transform="translate(35.742188 80.837308)scale(0.1 -0.1)">
       <use xlink:href="#DejaVuSans-30"/>
      </g>
     </g>
    </g>
    <g id="ytick_4">
     <g id="line2d_21">
      <path d="M 49.104688 45.29168 
L 414.394687 45.29168 
" clip-path="url(#pbf6affaff3)" style="fill: none; stroke: #b0b0b0; stroke-width: 0.8; stroke-linecap: square"/>
     </g>
     <g id="line2d_22">
      <g>
       <use xlink:href="#m2d2aed39fe" x="49.104688" y="45.29168" style="stroke: #000000; stroke-width: 0.8"/>
      </g>
     </g>
     <g id="text_11">
      <!-- 5 -->
      <g transform="translate(35.742188 49.090899)scale(0.1 -0.1)">
       <use xlink:href="#DejaVuSans-35"/>
      </g>
     </g>
    </g>
    <g id="ytick_5">
     <g id="line2d_23">
      <path d="M 49.104688 13.54527 
L 414.394687 13.54527 
" clip-path="url(#pbf6affaff3)" style="fill: none; stroke: #b0b0b0; stroke-width: 0.8; stroke-linecap: square"/>
     </g>
     <g id="line2d_24">
      <g>
       <use xlink:href="#m2d2aed39fe" x="49.104688" y="13.54527" style="stroke: #000000; stroke-width: 0.8"/>
      </g>
     </g>
     <g id="text_12">
      <!-- 10 -->
      <g transform="translate(29.379688 17.344489)scale(0.1 -0.1)">
       <use xlink:href="#DejaVuSans-31"/>
       <use xlink:href="#DejaVuSans-30" x="63.623047"/>
      </g>
     </g>
    </g>
    <g id="text_13">
     <!-- Angle $\theta\; (º)$ -->
     <g transform="translate(14.9 103.54)rotate(-90)scale(0.1 -0.1)">
      <defs>
       <path id="DejaVuSans-41" d="M 2188 4044 
L 1331 1722 
L 3047 1722 
L 2188 4044 
z
M 1831 4666 
L 2547 4666 
L 4325 0 
L 3669 0 
L 3244 1197 
L 1141 1197 
L 716 0 
L 50 0 
L 1831 4666 
z
" transform="scale(0.015625)"/>
       <path id="DejaVuSans-6e" d="M 3513 2113 
L 3513 0 
L 2938 0 
L 2938 2094 
Q 2938 2591 2744 2837 
Q 2550 3084 2163 3084 
Q 1697 3084 1428 2787 
Q 1159 2491 1159 1978 
L 1159 0 
L 581 0 
L 581 3500 
L 1159 3500 
L 1159 2956 
Q 1366 3272 1645 3428 
Q 1925 3584 2291 3584 
Q 2894 3584 3203 3211 
Q 3513 2838 3513 2113 
z
" transform="scale(0.015625)"/>
       <path id="DejaVuSans-67" d="M 2906 1791 
Q 2906 2416 2648 2759 
Q 2391 3103 1925 3103 
Q 1463 3103 1205 2759 
Q 947 2416 947 1791 
Q 947 1169 1205 825 
Q 1463 481 1925 481 
Q 2391 481 2648 825 
Q 2906 1169 2906 1791 
z
M 3481 434 
Q 3481 -459 3084 -895 
Q 2688 -1331 1869 -1331 
Q 1566 -1331 1297 -1286 
Q 1028 -1241 775 -1147 
L 775 -588 
Q 1028 -725 1275 -790 
Q 1522 -856 1778 -856 
Q 2344 -856 2625 -561 
Q 2906 -266 2906 331 
L 2906 616 
Q 2728 306 2450 153 
Q 2172 0 1784 0 
Q 1141 0 747 490 
Q 353 981 353 1791 
Q 353 2603 747 3093 
Q 1141 3584 1784 3584 
Q 2172 3584 2450 3431 
Q 2728 3278 2906 2969 
L 2906 3500 
L 3481 3500 
L 3481 434 
z
" transform="scale(0.015625)"/>
       <path id="DejaVuSans-6c" d="M 603 4863 
L 1178 4863 
L 1178 0 
L 603 0 
L 603 4863 
z
" transform="scale(0.015625)"/>
       <path id="DejaVuSans-65" d="M 3597 1894 
L 3597 1613 
L 953 1613 
Q 991 1019 1311 708 
Q 1631 397 2203 397 
Q 2534 397 2845 478 
Q 3156 559 3463 722 
L 3463 178 
Q 3153 47 2828 -22 
Q 2503 -91 2169 -91 
Q 1331 -91 842 396 
Q 353 884 353 1716 
Q 353 2575 817 3079 
Q 1281 3584 2069 3584 
Q 2775 3584 3186 3129 
Q 3597 2675 3597 1894 
z
M 3022 2063 
Q 3016 2534 2758 2815 
Q 2500 3097 2075 3097 
Q 1594 3097 1305 2825 
Q 1016 2553 972 2059 
L 3022 2063 
z
" transform="scale(0.015625)"/>
       <path id="DejaVuSans-20" transform="scale(0.015625)"/>
       <path id="DejaVuSans-Oblique-3b8" d="M 2913 2219 
L 925 2219 
Q 791 1284 928 888 
Q 1100 400 1566 400 
Q 2034 400 2391 891 
Q 2703 1322 2913 2219 
z
M 3009 2750 
Q 3094 3638 2984 3950 
Q 2813 4444 2353 4444 
Q 1875 4444 1525 3956 
Q 1250 3563 1034 2750 
L 3009 2750 
z
M 2444 4913 
Q 3194 4913 3494 4250 
Q 3794 3591 3566 2422 
Q 3341 1256 2781 594 
Q 2225 -72 1475 -72 
Q 722 -72 425 594 
Q 128 1256 353 2422 
Q 581 3591 1134 4250 
Q 1691 4913 2444 4913 
z
" transform="scale(0.015625)"/>
       <path id="DejaVuSans-28" d="M 1984 4856 
Q 1566 4138 1362 3434 
Q 1159 2731 1159 2009 
Q 1159 1288 1364 580 
Q 1569 -128 1984 -844 
L 1484 -844 
Q 1016 -109 783 600 
Q 550 1309 550 2009 
Q 550 2706 781 3412 
Q 1013 4119 1484 4856 
L 1984 4856 
z
" transform="scale(0.015625)"/>
       <path id="DejaVuSans-Oblique-ba" d="M 2463 3688 
Q 2463 4031 2308 4211 
Q 2153 4391 1850 4391 
Q 1488 4391 1223 4056 
Q 959 3722 959 3250 
Q 959 2909 1114 2725 
Q 1269 2541 1556 2541 
Q 1938 2541 2200 2870 
Q 2463 3200 2463 3688 
z
M 1941 4750 
Q 2403 4750 2679 4481 
Q 2956 4213 2956 3763 
Q 2956 3075 2540 2628 
Q 2125 2181 1491 2181 
Q 1022 2181 748 2462 
Q 475 2744 475 3225 
Q 475 3438 534 3645 
Q 594 3853 709 4050 
Q 903 4381 1228 4565 
Q 1553 4750 1941 4750 
z
M 325 1850 
L 2478 1850 
L 2406 1466 
L 256 1466 
L 325 1850 
z
" transform="scale(0.015625)"/>
       <path id="DejaVuSans-29" d="M 513 4856 
L 1013 4856 
Q 1481 4119 1714 3412 
Q 1947 2706 1947 2009 
Q 1947 1309 1714 600 
Q 1481 -109 1013 -844 
L 513 -844 
Q 928 -128 1133 580 
Q 1338 1288 1338 2009 
Q 1338 2731 1133 3434 
Q 928 4138 513 4856 
z
" transform="scale(0.015625)"/>
      </defs>
      <use xlink:href="#DejaVuSans-41" transform="translate(0 0.234375)"/>
      <use xlink:href="#DejaVuSans-6e" transform="translate(68.408203 0.234375)"/>
      <use xlink:href="#DejaVuSans-67" transform="translate(131.787109 0.234375)"/>
      <use xlink:href="#DejaVuSans-6c" transform="translate(195.263672 0.234375)"/>
      <use xlink:href="#DejaVuSans-65" transform="translate(223.046875 0.234375)"/>
      <use xlink:href="#DejaVuSans-20" transform="translate(284.570312 0.234375)"/>
      <use xlink:href="#DejaVuSans-Oblique-3b8" transform="translate(316.357422 0.234375)"/>
      <use xlink:href="#DejaVuSans-28" transform="translate(404.598198 0.234375)"/>
      <use xlink:href="#DejaVuSans-Oblique-ba" transform="translate(443.61187 0.234375)"/>
      <use xlink:href="#DejaVuSans-29" transform="translate(490.731011 0.234375)"/>
     </g>
    </g>
   </g>
   <g id="line2d_25">
    <path d="M 65.708778 140.530909 
L 88.373446 140.440472 
L 88.928952 140.060402 
L 89.484459 139.385264 
L 90.151067 138.190112 
L 90.928776 136.275335 
L 91.817586 133.422498 
L 92.817498 129.406951 
L 93.928511 124.015948 
L 95.261727 116.394269 
L 96.817145 106.175409 
L 98.92807 90.672302 
L 105.149744 43.800265 
L 106.816263 33.462416 
L 108.149479 26.495143 
L 109.260492 21.723374 
L 110.260404 18.312355 
L 111.149215 16.026758 
L 111.926924 14.625847 
L 112.593532 13.880451 
L 113.149038 13.584374 
L 113.593443 13.561381 
L 114.037849 13.728606 
L 114.593355 14.204322 
L 115.148862 14.974231 
L 115.81547 16.281336 
L 116.593179 18.323335 
L 117.481989 21.315682 
L 118.481901 25.478683 
L 119.704015 31.622466 
L 121.037231 39.494093 
L 122.703751 50.731755 
L 124.925777 67.352113 
L 130.147539 106.96823 
L 131.92516 118.426349 
L 133.369477 126.298405 
L 134.591591 131.750552 
L 135.591503 135.29411 
L 136.480313 137.703513 
L 137.258023 139.216175 
L 137.92463 140.059089 
L 138.480137 140.437156 
L 138.924542 140.525941 
L 139.368948 140.424475 
L 139.924454 140.030614 
L 140.479961 139.341823 
L 141.146568 138.13056 
L 141.924278 136.197497 
L 142.813088 133.324638 
L 143.813 129.287969 
L 144.924013 123.875614 
L 146.257229 116.231799 
L 147.812647 105.992672 
L 149.923572 90.472887 
L 156.145245 43.630032 
L 157.811765 33.318381 
L 159.144981 26.376476 
L 160.255994 21.628309 
L 161.255906 18.240054 
L 162.144716 15.975616 
L 162.922425 14.593726 
L 163.589033 13.864873 
L 164.14454 13.582664 
L 164.588945 13.570776 
L 165.03335 13.749077 
L 165.588857 14.23855 
L 166.144363 15.022057 
L 166.810971 16.34518 
L 167.58868 18.405321 
L 168.477491 21.417479 
L 169.477403 25.601308 
L 170.699517 31.768006 
L 172.143834 40.36731 
L 173.810354 51.713954 
L 176.143481 69.277452 
L 180.920838 105.602252 
L 182.698459 117.246349 
L 184.142776 125.311473 
L 185.36489 130.951509 
L 186.364802 134.662366 
L 187.253612 137.228538 
L 188.031322 138.883064 
L 188.69793 139.850034 
L 189.253436 140.332583 
L 189.808943 140.518801 
L 190.253348 140.453792 
L 190.808854 140.105367 
L 191.364361 139.461666 
L 192.030969 138.303758 
L 192.808678 136.431456 
L 193.697489 133.6254 
L 194.6974 129.65957 
L 195.808413 124.31931 
L 197.141629 116.75098 
L 198.697048 106.582147 
L 200.807972 91.122806 
L 207.140747 43.460068 
L 208.807267 33.174732 
L 210.140483 26.258276 
L 211.251496 21.533768 
L 212.251407 18.168321 
L 213.140218 15.925074 
L 213.917927 14.562227 
L 214.584535 13.84993 
L 215.140042 13.5816 
L 215.584447 13.58082 
L 216.028852 13.770201 
L 216.584359 14.273431 
L 217.250966 15.264917 
L 217.917574 16.672888 
L 218.695283 18.829212 
L 219.584094 21.946518 
L 220.584006 26.241054 
L 221.80612 32.529798 
L 223.250437 41.250975 
L 225.028058 53.508976 
L 227.583388 72.944425 
L 231.694137 104.219823 
L 233.471758 116.043044 
L 234.916075 124.296491 
L 236.138189 130.121092 
L 237.249202 134.375323 
L 238.138013 137.00893 
L 238.915722 138.724628 
L 239.58233 139.745199 
L 240.137836 140.272965 
L 240.693343 140.504677 
L 241.137748 140.47612 
L 241.582154 140.257459 
L 242.13766 139.717843 
L 242.804268 138.683227 
L 243.581977 136.951504 
L 244.470788 134.300245 
L 245.470699 130.498878 
L 246.581713 125.326417 
L 247.914928 117.934411 
L 249.470347 107.930778 
L 251.47017 93.457427 
L 258.580654 40.39654 
L 260.136072 31.189586 
L 261.469288 24.625823 
L 262.580301 20.229066 
L 263.580213 17.179505 
L 264.357922 15.433297 
L 265.02453 14.385973 
L 265.580037 13.835625 
L 266.135543 13.581181 
L 266.579948 13.591516 
L 267.024354 13.791979 
L 267.57986 14.308966 
L 268.246468 15.316739 
L 268.913076 16.74065 
L 269.690785 18.914991 
L 270.579596 22.051924 
L 271.690609 26.89528 
L 272.912723 33.304276 
L 274.35704 42.144838 
L 276.134661 54.510681 
L 278.801093 74.885389 
L 282.578537 103.614021 
L 284.356158 115.51228 
L 285.800475 123.845562 
L 287.02259 129.748917 
L 288.133603 134.08206 
L 289.022413 136.782791 
L 289.800122 138.559456 
L 290.46673 139.633499 
L 291.133338 140.285564 
L 291.688845 140.503382 
L 292.13325 140.463711 
L 292.577655 140.233973 
L 293.133162 139.680612 
L 293.79977 138.629736 
L 294.577479 136.879503 
L 295.466289 134.2079 
L 296.466201 130.384971 
L 297.577214 125.190578 
L 298.91043 117.775629 
L 300.465848 107.750663 
L 302.465672 93.25967 
L 309.465054 40.945357 
L 311.020473 31.656236 
L 312.353689 25.008352 
L 313.464702 20.533565 
L 314.464613 17.408897 
L 315.242323 15.601829 
L 315.90893 14.501099 
L 316.575538 13.821959 
L 317.131045 13.58141 
L 317.57545 13.602863 
L 318.019855 13.814411 
L 318.575362 14.345156 
L 319.24197 15.369212 
L 319.908578 16.809056 
L 320.686287 19.0014 
L 321.575097 22.157935 
L 322.68611 27.023993 
L 323.908225 33.455178 
L 325.352542 42.317535 
L 327.130163 54.702654 
L 329.796594 75.088852 
L 333.574039 103.79653 
L 335.35166 115.670845 
L 336.795977 123.979033 
L 338.018091 129.857837 
L 339.129104 134.166518 
L 340.017915 136.846527 
L 340.795624 138.604431 
L 341.462232 139.662061 
L 342.017739 140.221145 
L 342.573245 140.484414 
L 343.01765 140.481177 
L 343.462056 140.287822 
L 344.017562 139.779702 
L 344.68417 138.78249 
L 345.350778 137.368985 
L 346.128487 135.206498 
L 347.017298 132.082602 
L 348.128311 127.254547 
L 349.350425 120.860787 
L 350.794742 112.035621 
L 352.572363 99.684159 
L 355.238795 79.320219 
L 359.016239 50.583065 
L 360.904961 37.982629 
L 362.349278 29.739692 
L 363.571393 23.92498 
L 364.682406 19.680334 
L 365.571216 17.054679 
L 366.348926 15.346063 
L 367.015533 14.331605 
L 367.57104 13.808932 
L 368.126547 13.582287 
L 368.570952 13.614863 
L 369.015357 13.837498 
L 369.570864 14.382002 
L 370.237471 15.422337 
L 371.015181 17.160481 
L 371.903991 19.818678 
L 372.903903 23.627237 
L 374.014916 28.806802 
L 375.348132 36.205921 
L 376.90355 46.21566 
L 378.903374 60.693056 
L 386.013858 113.732748 
L 387.569276 122.92872 
L 388.902492 129.48183 
L 390.013505 133.869052 
L 391.013417 136.909679 
L 391.791126 138.648795 
L 392.457734 139.689995 
L 393.01324 140.235239 
L 393.568747 140.484604 
L 394.013152 140.47024 
L 394.457557 140.26579 
L 395.013064 139.743898 
L 395.679672 138.730383 
L 396.34628 137.300924 
L 397.123989 135.120405 
L 397.790597 132.826122 
L 397.790597 132.826122 
" clip-path="url(#pbf6affaff3)" style="fill: none; stroke: #1f77b4; stroke-width: 1.5; stroke-linecap: square"/>
   </g>
   <g id="patch_3">
    <path d="M 49.104688 146.88 
L 49.104688 7.2 
" style="fill: none; stroke: #000000; stroke-width: 0.8; stroke-linejoin: miter; stroke-linecap: square"/>
   </g>
   <g id="patch_4">
    <path d="M 414.394687 146.88 
L 414.394687 7.2 
" style="fill: none; stroke: #000000; stroke-width: 0.8; stroke-linejoin: miter; stroke-linecap: square"/>
   </g>
   <g id="patch_5">
    <path d="M 49.104688 146.88 
L 414.394687 146.88 
" style="fill: none; stroke: #000000; stroke-width: 0.8; stroke-linejoin: miter; stroke-linecap: square"/>
   </g>
   <g id="patch_6">
    <path d="M 49.104688 7.2 
L 414.394687 7.2 
" style="fill: none; stroke: #000000; stroke-width: 0.8; stroke-linejoin: miter; stroke-linecap: square"/>
   </g>
  </g>
  <g id="axes_2">
   <g id="patch_7">
    <path d="M 49.104688 314.44 
L 414.394687 314.44 
L 414.394687 174.76 
L 49.104688 174.76 
z
" style="fill: #ffffff"/>
   </g>
   <g id="matplotlib.axis_3">
    <g id="xtick_8">
     <g id="line2d_26">
      <path d="M 65.708778 314.44 
L 65.708778 174.76 
" clip-path="url(#pab0f456cbd)" style="fill: none; stroke: #b0b0b0; stroke-width: 0.8; stroke-linecap: square"/>
     </g>
     <g id="line2d_27">
      <g>
       <use xlink:href="#mf19528be2c" x="65.708778" y="314.44" style="stroke: #000000; stroke-width: 0.8"/>
      </g>
     </g>
     <g id="text_14">
      <!-- 0 -->
      <g transform="translate(62.527528 329.038437)scale(0.1 -0.1)">
       <use xlink:href="#DejaVuSans-30"/>
      </g>
     </g>
    </g>
    <g id="xtick_9">
     <g id="line2d_28">
      <path d="M 121.259434 314.44 
L 121.259434 174.76 
" clip-path="url(#pab0f456cbd)" style="fill: none; stroke: #b0b0b0; stroke-width: 0.8; stroke-linecap: square"/>
     </g>
     <g id="line2d_29">
      <g>
       <use xlink:href="#mf19528be2c" x="121.259434" y="314.44" style="stroke: #000000; stroke-width: 0.8"/>
      </g>
     </g>
     <g id="text_15">
      <!-- 5 -->
      <g transform="translate(118.078184 329.038437)scale(0.1 -0.1)">
       <use xlink:href="#DejaVuSans-35"/>
      </g>
     </g>
    </g>
    <g id="xtick_10">
     <g id="line2d_30">
      <path d="M 176.810089 314.44 
L 176.810089 174.76 
" clip-path="url(#pab0f456cbd)" style="fill: none; stroke: #b0b0b0; stroke-width: 0.8; stroke-linecap: square"/>
     </g>
     <g id="line2d_31">
      <g>
       <use xlink:href="#mf19528be2c" x="176.810089" y="314.44" style="stroke: #000000; stroke-width: 0.8"/>
      </g>
     </g>
     <g id="text_16">
      <!-- 10 -->
      <g transform="translate(170.447589 329.038437)scale(0.1 -0.1)">
       <use xlink:href="#DejaVuSans-31"/>
       <use xlink:href="#DejaVuSans-30" x="63.623047"/>
      </g>
     </g>
    </g>
    <g id="xtick_11">
     <g id="line2d_32">
      <path d="M 232.360745 314.44 
L 232.360745 174.76 
" clip-path="url(#pab0f456cbd)" style="fill: none; stroke: #b0b0b0; stroke-width: 0.8; stroke-linecap: square"/>
     </g>
     <g id="line2d_33">
      <g>
       <use xlink:href="#mf19528be2c" x="232.360745" y="314.44" style="stroke: #000000; stroke-width: 0.8"/>
      </g>
     </g>
     <g id="text_17">
      <!-- 15 -->
      <g transform="translate(225.998245 329.038437)scale(0.1 -0.1)">
       <use xlink:href="#DejaVuSans-31"/>
       <use xlink:href="#DejaVuSans-35" x="63.623047"/>
      </g>
     </g>
    </g>
    <g id="xtick_12">
     <g id="line2d_34">
      <path d="M 287.9114 314.44 
L 287.9114 174.76 
" clip-path="url(#pab0f456cbd)" style="fill: none; stroke: #b0b0b0; stroke-width: 0.8; stroke-linecap: square"/>
     </g>
     <g id="line2d_35">
      <g>
       <use xlink:href="#mf19528be2c" x="287.9114" y="314.44" style="stroke: #000000; stroke-width: 0.8"/>
      </g>
     </g>
     <g id="text_18">
      <!-- 20 -->
      <g transform="translate(281.5489 329.038437)scale(0.1 -0.1)">
       <use xlink:href="#DejaVuSans-32"/>
       <use xlink:href="#DejaVuSans-30" x="63.623047"/>
      </g>
     </g>
    </g>
    <g id="xtick_13">
     <g id="line2d_36">
      <path d="M 343.462056 314.44 
L 343.462056 174.76 
" clip-path="url(#pab0f456cbd)" style="fill: none; stroke: #b0b0b0; stroke-width: 0.8; stroke-linecap: square"/>
     </g>
     <g id="line2d_37">
      <g>
       <use xlink:href="#mf19528be2c" x="343.462056" y="314.44" style="stroke: #000000; stroke-width: 0.8"/>
      </g>
     </g>
     <g id="text_19">
      <!-- 25 -->
      <g transform="translate(337.099556 329.038437)scale(0.1 -0.1)">
       <use xlink:href="#DejaVuSans-32"/>
       <use xlink:href="#DejaVuSans-35" x="63.623047"/>
      </g>
     </g>
    </g>
    <g id="xtick_14">
     <g id="line2d_38">
      <path d="M 399.012711 314.44 
L 399.012711 174.76 
" clip-path="url(#pab0f456cbd)" style="fill: none; stroke: #b0b0b0; stroke-width: 0.8; stroke-linecap: square"/>
     </g>
     <g id="line2d_39">
      <g>
       <use xlink:href="#mf19528be2c" x="399.012711" y="314.44" style="stroke: #000000; stroke-width: 0.8"/>
      </g>
     </g>
     <g id="text_20">
      <!-- 30 -->
      <g transform="translate(392.650211 329.038437)scale(0.1 -0.1)">
       <use xlink:href="#DejaVuSans-33"/>
       <use xlink:href="#DejaVuSans-30" x="63.623047"/>
      </g>
     </g>
    </g>
    <g id="text_21">
     <!-- Time (s) -->
     <g transform="translate(211.420781 342.716562)scale(0.1 -0.1)">
      <defs>
       <path id="DejaVuSans-54" d="M -19 4666 
L 3928 4666 
L 3928 4134 
L 2272 4134 
L 2272 0 
L 1638 0 
L 1638 4134 
L -19 4134 
L -19 4666 
z
" transform="scale(0.015625)"/>
       <path id="DejaVuSans-69" d="M 603 3500 
L 1178 3500 
L 1178 0 
L 603 0 
L 603 3500 
z
M 603 4863 
L 1178 4863 
L 1178 4134 
L 603 4134 
L 603 4863 
z
" transform="scale(0.015625)"/>
       <path id="DejaVuSans-6d" d="M 3328 2828 
Q 3544 3216 3844 3400 
Q 4144 3584 4550 3584 
Q 5097 3584 5394 3201 
Q 5691 2819 5691 2113 
L 5691 0 
L 5113 0 
L 5113 2094 
Q 5113 2597 4934 2840 
Q 4756 3084 4391 3084 
Q 3944 3084 3684 2787 
Q 3425 2491 3425 1978 
L 3425 0 
L 2847 0 
L 2847 2094 
Q 2847 2600 2669 2842 
Q 2491 3084 2119 3084 
Q 1678 3084 1418 2786 
Q 1159 2488 1159 1978 
L 1159 0 
L 581 0 
L 581 3500 
L 1159 3500 
L 1159 2956 
Q 1356 3278 1631 3431 
Q 1906 3584 2284 3584 
Q 2666 3584 2933 3390 
Q 3200 3197 3328 2828 
z
" transform="scale(0.015625)"/>
       <path id="DejaVuSans-73" d="M 2834 3397 
L 2834 2853 
Q 2591 2978 2328 3040 
Q 2066 3103 1784 3103 
Q 1356 3103 1142 2972 
Q 928 2841 928 2578 
Q 928 2378 1081 2264 
Q 1234 2150 1697 2047 
L 1894 2003 
Q 2506 1872 2764 1633 
Q 3022 1394 3022 966 
Q 3022 478 2636 193 
Q 2250 -91 1575 -91 
Q 1294 -91 989 -36 
Q 684 19 347 128 
L 347 722 
Q 666 556 975 473 
Q 1284 391 1588 391 
Q 1994 391 2212 530 
Q 2431 669 2431 922 
Q 2431 1156 2273 1281 
Q 2116 1406 1581 1522 
L 1381 1569 
Q 847 1681 609 1914 
Q 372 2147 372 2553 
Q 372 3047 722 3315 
Q 1072 3584 1716 3584 
Q 2034 3584 2315 3537 
Q 2597 3491 2834 3397 
z
" transform="scale(0.015625)"/>
      </defs>
      <use xlink:href="#DejaVuSans-54"/>
      <use xlink:href="#DejaVuSans-69" x="57.958984"/>
      <use xlink:href="#DejaVuSans-6d" x="85.742188"/>
      <use xlink:href="#DejaVuSans-65" x="183.154297"/>
      <use xlink:href="#DejaVuSans-20" x="244.677734"/>
      <use xlink:href="#DejaVuSans-28" x="276.464844"/>
      <use xlink:href="#DejaVuSans-73" x="315.478516"/>
      <use xlink:href="#DejaVuSans-29" x="367.578125"/>
     </g>
    </g>
   </g>
   <g id="matplotlib.axis_4">
    <g id="ytick_6">
     <g id="line2d_40">
      <path d="M 49.104688 308.086355 
L 414.394687 308.086355 
" clip-path="url(#pab0f456cbd)" style="fill: none; stroke: #b0b0b0; stroke-width: 0.8; stroke-linecap: square"/>
     </g>
     <g id="line2d_41">
      <g>
       <use xlink:href="#m2d2aed39fe" x="49.104688" y="308.086355" style="stroke: #000000; stroke-width: 0.8"/>
      </g>
     </g>
     <g id="text_22">
      <!-- 0 -->
      <g transform="translate(35.742188 311.885574)scale(0.1 -0.1)">
       <use xlink:href="#DejaVuSans-30"/>
      </g>
     </g>
    </g>
    <g id="ytick_7">
     <g id="line2d_42">
      <path d="M 49.104688 280.83049 
L 414.394687 280.83049 
" clip-path="url(#pab0f456cbd)" style="fill: none; stroke: #b0b0b0; stroke-width: 0.8; stroke-linecap: square"/>
     </g>
     <g id="line2d_43">
      <g>
       <use xlink:href="#m2d2aed39fe" x="49.104688" y="280.83049" style="stroke: #000000; stroke-width: 0.8"/>
      </g>
     </g>
     <g id="text_23">
      <!-- 5 -->
      <g transform="translate(35.742188 284.629708)scale(0.1 -0.1)">
       <use xlink:href="#DejaVuSans-35"/>
      </g>
     </g>
    </g>
    <g id="ytick_8">
     <g id="line2d_44">
      <path d="M 49.104688 253.574624 
L 414.394687 253.574624 
" clip-path="url(#pab0f456cbd)" style="fill: none; stroke: #b0b0b0; stroke-width: 0.8; stroke-linecap: square"/>
     </g>
     <g id="line2d_45">
      <g>
       <use xlink:href="#m2d2aed39fe" x="49.104688" y="253.574624" style="stroke: #000000; stroke-width: 0.8"/>
      </g>
     </g>
     <g id="text_24">
      <!-- 10 -->
      <g transform="translate(29.379688 257.373843)scale(0.1 -0.1)">
       <use xlink:href="#DejaVuSans-31"/>
       <use xlink:href="#DejaVuSans-30" x="63.623047"/>
      </g>
     </g>
    </g>
    <g id="ytick_9">
     <g id="line2d_46">
      <path d="M 49.104688 226.318758 
L 414.394687 226.318758 
" clip-path="url(#pab0f456cbd)" style="fill: none; stroke: #b0b0b0; stroke-width: 0.8; stroke-linecap: square"/>
     </g>
     <g id="line2d_47">
      <g>
       <use xlink:href="#m2d2aed39fe" x="49.104688" y="226.318758" style="stroke: #000000; stroke-width: 0.8"/>
      </g>
     </g>
     <g id="text_25">
      <!-- 15 -->
      <g transform="translate(29.379688 230.117977)scale(0.1 -0.1)">
       <use xlink:href="#DejaVuSans-31"/>
       <use xlink:href="#DejaVuSans-35" x="63.623047"/>
      </g>
     </g>
    </g>
    <g id="ytick_10">
     <g id="line2d_48">
      <path d="M 49.104688 199.062892 
L 414.394687 199.062892 
" clip-path="url(#pab0f456cbd)" style="fill: none; stroke: #b0b0b0; stroke-width: 0.8; stroke-linecap: square"/>
     </g>
     <g id="line2d_49">
      <g>
       <use xlink:href="#m2d2aed39fe" x="49.104688" y="199.062892" style="stroke: #000000; stroke-width: 0.8"/>
      </g>
     </g>
     <g id="text_26">
      <!-- 20 -->
      <g transform="translate(29.379688 202.862111)scale(0.1 -0.1)">
       <use xlink:href="#DejaVuSans-32"/>
       <use xlink:href="#DejaVuSans-30" x="63.623047"/>
      </g>
     </g>
    </g>
    <g id="text_27">
     <!-- Energy (J) -->
     <g transform="translate(23.3 269.071875)rotate(-90)scale(0.1 -0.1)">
      <defs>
       <path id="DejaVuSans-45" d="M 628 4666 
L 3578 4666 
L 3578 4134 
L 1259 4134 
L 1259 2753 
L 3481 2753 
L 3481 2222 
L 1259 2222 
L 1259 531 
L 3634 531 
L 3634 0 
L 628 0 
L 628 4666 
z
" transform="scale(0.015625)"/>
       <path id="DejaVuSans-72" d="M 2631 2963 
Q 2534 3019 2420 3045 
Q 2306 3072 2169 3072 
Q 1681 3072 1420 2755 
Q 1159 2438 1159 1844 
L 1159 0 
L 581 0 
L 581 3500 
L 1159 3500 
L 1159 2956 
Q 1341 3275 1631 3429 
Q 1922 3584 2338 3584 
Q 2397 3584 2469 3576 
Q 2541 3569 2628 3553 
L 2631 2963 
z
" transform="scale(0.015625)"/>
       <path id="DejaVuSans-79" d="M 2059 -325 
Q 1816 -950 1584 -1140 
Q 1353 -1331 966 -1331 
L 506 -1331 
L 506 -850 
L 844 -850 
Q 1081 -850 1212 -737 
Q 1344 -625 1503 -206 
L 1606 56 
L 191 3500 
L 800 3500 
L 1894 763 
L 2988 3500 
L 3597 3500 
L 2059 -325 
z
" transform="scale(0.015625)"/>
       <path id="DejaVuSans-4a" d="M 628 4666 
L 1259 4666 
L 1259 325 
Q 1259 -519 939 -900 
Q 619 -1281 -91 -1281 
L -331 -1281 
L -331 -750 
L -134 -750 
Q 284 -750 456 -515 
Q 628 -281 628 325 
L 628 4666 
z
" transform="scale(0.015625)"/>
      </defs>
      <use xlink:href="#DejaVuSans-45"/>
      <use xlink:href="#DejaVuSans-6e" x="63.183594"/>
      <use xlink:href="#DejaVuSans-65" x="126.5625"/>
      <use xlink:href="#DejaVuSans-72" x="188.085938"/>
      <use xlink:href="#DejaVuSans-67" x="227.449219"/>
      <use xlink:href="#DejaVuSans-79" x="290.925781"/>
      <use xlink:href="#DejaVuSans-20" x="350.105469"/>
      <use xlink:href="#DejaVuSans-28" x="381.892578"/>
      <use xlink:href="#DejaVuSans-4a" x="420.90625"/>
      <use xlink:href="#DejaVuSans-29" x="450.398438"/>
     </g>
    </g>
   </g>
   <g id="line2d_50">
    <path d="M 65.708778 308.086355 
L 88.151243 308.000716 
L 88.484547 307.517493 
L 88.817851 306.611203 
L 89.262256 304.755569 
L 89.817763 301.428288 
L 90.484371 296.041605 
L 91.373181 286.73785 
L 92.484194 272.337779 
L 94.150714 247.231432 
L 96.483842 212.283621 
L 97.594855 198.691237 
L 98.483665 190.244629 
L 99.150273 185.602458 
L 99.70578 182.948382 
L 100.150185 181.65774 
L 100.483489 181.186439 
L 100.705691 181.110835 
L 100.927894 181.226443 
L 101.261198 181.75745 
L 101.705603 183.126611 
L 102.26111 185.875657 
L 102.927718 190.624794 
L 103.705427 197.997378 
L 104.705339 209.944593 
L 106.038554 228.987785 
L 109.704898 283.280537 
L 110.704809 294.383465 
L 111.482518 300.97004 
L 112.149126 304.983068 
L 112.704633 307.091644 
L 113.149038 307.94009 
L 113.482342 308.080022 
L 113.704545 307.936142 
L 114.037849 307.365645 
L 114.482254 305.949566 
L 115.03776 303.151294 
L 115.704368 298.356559 
L 116.482077 290.947588 
L 117.481989 278.974636 
L 118.815205 259.919842 
L 122.481548 205.650204 
L 123.48146 194.58186 
L 124.259169 188.040299 
L 124.925777 184.081019 
L 125.481284 182.028615 
L 125.925689 181.232445 
L 126.147892 181.120201 
L 126.370094 181.199166 
L 126.703398 181.675422 
L 127.036702 182.577973 
L 127.481107 184.433406 
L 128.036614 187.767431 
L 128.703222 193.170518 
L 129.592032 202.504742 
L 130.703045 216.94428 
L 132.369565 242.081109 
L 134.702692 276.981481 
L 135.813706 290.531108 
L 136.702516 298.948974 
L 137.369124 303.578494 
L 137.92463 306.230248 
L 138.369036 307.525281 
L 138.70234 308.003707 
L 138.924542 308.085932 
L 139.146745 307.978412 
L 139.480049 307.462208 
L 139.924454 306.11751 
L 140.479961 303.405642 
L 141.146568 298.708354 
L 141.924278 291.401198 
L 142.924189 279.534724 
L 144.257405 260.569157 
L 148.03485 204.81591 
L 149.034762 193.936446 
L 149.812471 187.569892 
L 150.479079 183.774877 
L 151.034585 181.866036 
L 151.367889 181.285466 
L 151.701193 181.13387 
L 151.923396 181.271756 
L 152.2567 181.835962 
L 152.701105 183.248615 
L 153.256611 186.050055 
L 153.923219 190.857869 
L 154.700928 198.291127 
L 155.70084 210.300663 
L 157.034056 229.39371 
L 160.589298 282.220141 
L 161.58921 293.548745 
L 162.47802 301.156349 
L 163.144628 305.107414 
L 163.700135 307.161948 
L 164.14454 307.966303 
L 164.366742 308.084874 
L 164.588945 308.013712 
L 164.922249 307.551847 
L 165.255553 306.666782 
L 165.699958 304.838998 
L 166.255465 301.545339 
L 166.922073 296.196445 
L 167.810883 286.93709 
L 168.921896 272.579969 
L 170.588416 247.505718 
L 172.921543 212.530371 
L 174.032557 198.896949 
L 174.921367 190.40699 
L 175.699076 185.099532 
L 176.254583 182.640086 
L 176.698988 181.509701 
L 177.032292 181.160036 
L 177.254495 181.1657 
L 177.476697 181.36246 
L 177.810001 182.01446 
L 178.254406 183.542189 
L 178.809913 186.482408 
L 179.476521 191.445881 
L 180.25423 199.040393 
L 181.254142 211.216118 
L 182.587357 230.443352 
L 186.031498 281.683893 
L 187.03141 293.123438 
L 187.92022 300.851553 
L 188.586828 304.902964 
L 189.142335 307.045498 
L 189.58674 307.921955 
L 189.920044 308.083162 
L 190.142247 307.953521 
L 190.475551 307.404347 
L 190.919956 306.01643 
L 191.475462 303.252445 
L 192.14207 298.496682 
L 192.919779 291.128875 
L 193.919691 279.199754 
L 195.252907 260.183367 
L 198.91925 205.879869 
L 199.919162 194.768869 
L 200.696871 188.186709 
L 201.363479 184.188702 
L 201.918986 182.102023 
L 202.363391 181.277612 
L 202.585593 181.151077 
L 202.807796 181.215702 
L 203.1411 181.670473 
L 203.474404 182.551666 
L 203.918809 184.379067 
L 204.474316 187.679282 
L 205.140924 193.044394 
L 206.029734 202.33414 
L 207.140747 216.730832 
L 208.807267 241.836055 
L 211.140394 276.764606 
L 212.251407 290.355257 
L 213.140218 298.816274 
L 213.917927 304.109643 
L 214.473434 306.568159 
L 214.917839 307.704116 
L 215.251143 308.061854 
L 215.473345 308.063408 
L 215.695548 307.875325 
L 216.028852 307.239011 
L 216.473257 305.736766 
L 217.028764 302.834777 
L 217.695372 297.923962 
L 218.473081 290.395016 
L 219.472993 278.298896 
L 220.806208 259.145817 
L 224.36145 206.4181 
L 225.361362 195.193226 
L 226.139071 188.504391 
L 226.805679 184.405556 
L 227.361186 182.230334 
L 227.805591 181.333342 
L 228.138895 181.160317 
L 228.361098 181.283881 
L 228.694401 181.826618 
L 229.138807 183.21094 
L 229.694313 185.977878 
L 230.360921 190.746536 
L 231.13863 198.138497 
L 232.138542 210.104203 
L 233.471758 229.159143 
L 237.138101 283.405197 
L 238.138013 294.478771 
L 238.915722 301.039473 
L 239.58233 305.028981 
L 240.137836 307.117487 
L 240.582242 307.949843 
L 240.915546 308.077803 
L 241.137748 307.926041 
L 241.471052 307.343911 
L 241.915457 305.912819 
L 242.470964 303.096814 
L 243.137572 298.282752 
L 243.915281 290.854577 
L 244.915193 278.863276 
L 246.248409 259.796828 
L 249.914752 205.574186 
L 250.914664 194.535435 
L 251.692373 188.019983 
L 252.358981 184.084456 
L 252.914487 182.052291 
L 253.358892 181.272351 
L 253.581095 181.168156 
L 253.803298 181.255097 
L 254.136602 181.743152 
L 254.469906 182.657201 
L 254.914311 184.527354 
L 255.469817 187.878589 
L 256.136425 193.300114 
L 257.025236 202.654428 
L 258.136249 217.110497 
L 259.802768 242.252017 
L 262.135896 277.118596 
L 263.246909 290.638242 
L 264.13572 299.027595 
L 264.802327 303.633958 
L 265.357834 306.26575 
L 265.802239 307.544649 
L 266.135543 308.011001 
L 266.357746 308.085236 
L 266.579948 307.969795 
L 266.913252 307.441907 
L 267.357658 306.0821 
L 267.913164 303.352366 
L 268.579772 298.63556 
L 269.357481 291.308939 
L 270.357393 279.42375 
L 271.690609 260.445997 
L 275.356952 206.109673 
L 276.356864 194.956324 
L 277.134573 188.333779 
L 277.801181 184.297181 
L 278.356687 182.176355 
L 278.801093 181.323799 
L 279.134397 181.184284 
L 279.356599 181.330149 
L 279.689903 181.906107 
L 280.134308 183.333947 
L 280.689815 186.15329 
L 281.356423 190.980612 
L 282.134132 198.433199 
L 283.134044 210.461112 
L 284.46726 229.56568 
L 288.022501 282.347499 
L 289.022413 293.6471 
L 289.800122 300.419282 
L 290.46673 304.608565 
L 291.022237 306.872547 
L 291.466642 307.848836 
L 291.799946 308.085701 
L 292.022149 308.006594 
L 292.355453 307.532986 
L 292.688757 306.636467 
L 293.133162 304.793989 
L 293.688668 301.483141 
L 294.355276 296.115761 
L 295.244087 286.836185 
L 296.3551 272.462241 
L 298.021619 247.3827 
L 300.354747 212.440561 
L 301.46576 198.837116 
L 302.354571 190.375805 
L 303.021178 185.719632 
L 303.576685 183.052261 
L 304.02109 181.750059 
L 304.354394 181.269687 
L 304.576597 181.187841 
L 304.798799 181.297102 
L 305.132103 181.81843 
L 305.576509 183.174443 
L 306.132015 185.906929 
L 306.798623 190.636448 
L 307.576332 197.987089 
L 308.576244 209.908865 
L 309.90946 228.925459 
L 313.575803 283.205298 
L 314.575715 294.321107 
L 315.353424 300.921947 
L 316.020032 304.949735 
L 316.575538 307.072098 
L 317.019944 307.932364 
L 317.353248 308.08153 
L 317.57545 307.943948 
L 317.908754 307.383066 
L 318.353159 305.980016 
L 318.908666 303.198151 
L 319.575274 298.42288 
L 320.352983 291.035654 
L 321.352895 279.087929 
L 322.68611 260.05958 
L 326.352454 205.802736 
L 327.352366 194.721392 
L 328.130075 188.16543 
L 328.796683 184.191252 
L 329.352189 182.124924 
L 329.796594 181.316851 
L 330.018797 181.198424 
L 330.241 181.271078 
L 330.574304 181.737725 
L 330.907607 182.630476 
L 331.352013 184.472743 
L 331.907519 187.790311 
L 332.574127 193.174052 
L 333.462938 202.48413 
L 334.573951 216.897619 
L 336.24047 242.00787 
L 338.573598 276.902824 
L 339.684611 290.463472 
L 340.573421 298.895888 
L 341.240029 303.53922 
L 341.795536 306.204094 
L 342.239941 307.5105 
L 342.573245 307.997881 
L 342.795448 308.086244 
L 343.01765 307.984977 
L 343.350954 307.478325 
L 343.79536 306.146588 
L 344.350866 303.451065 
L 345.017474 298.7732 
L 345.795183 291.487791 
L 346.795095 279.646622 
L 348.128311 260.707735 
L 351.905755 204.967375 
L 352.905667 194.074543 
L 353.683376 187.693367 
L 354.349984 183.883334 
L 354.905491 181.960493 
L 355.238795 181.37098 
L 355.572098 181.210138 
L 355.794301 181.341719 
L 356.127605 181.896307 
L 356.57201 183.295907 
L 357.127517 186.08091 
L 357.794125 190.869264 
L 358.571834 198.280771 
L 359.571746 210.265117 
L 360.904961 229.331879 
L 364.571305 283.530712 
L 365.571216 294.574643 
L 366.348926 301.109221 
L 367.015533 305.074985 
L 367.57104 307.143236 
L 368.015445 307.959345 
L 368.237648 308.084004 
L 368.459851 308.019049 
L 368.793154 307.566674 
L 369.126458 306.691258 
L 369.570864 304.876478 
L 370.12637 301.599077 
L 370.792978 296.269301 
L 371.681789 287.033933 
L 372.792802 272.702806 
L 374.459321 247.655382 
L 376.792449 212.686184 
L 377.903462 199.042057 
L 378.792272 190.537706 
L 379.569982 185.214018 
L 380.125488 182.741224 
L 380.569893 181.599327 
L 380.903197 181.24058 
L 381.1254 181.240053 
L 381.347603 181.430518 
L 381.680907 182.072873 
L 382.125312 183.587603 
L 382.680818 186.511447 
L 383.347426 191.455539 
L 384.125135 199.028501 
L 385.125047 211.179388 
L 386.458263 230.380891 
L 389.902404 281.608639 
L 390.902315 293.059994 
L 391.791126 300.80378 
L 392.457734 304.869684 
L 393.01324 307.02578 
L 393.457645 307.913879 
L 393.790949 308.08419 
L 394.013152 307.960763 
L 394.346456 307.421078 
L 394.790861 306.046032 
L 395.346368 303.298269 
L 396.012976 298.561773 
L 396.790685 291.215523 
L 397.790597 279.311461 
L 397.790597 279.311461 
" clip-path="url(#pab0f456cbd)" style="fill: none; stroke: #1f77b4; stroke-width: 1.5; stroke-linecap: square"/>
   </g>
   <g id="line2d_51">
    <path d="M 65.708778 181.109343 
L 88.151243 181.194744 
L 88.484547 181.678159 
L 88.817851 182.584463 
L 89.262256 184.440054 
L 89.817763 187.767424 
L 90.484371 193.153925 
L 91.373181 202.457933 
L 92.484194 216.858317 
L 94.150714 241.965006 
L 96.483842 276.914114 
L 97.594855 290.507039 
L 98.483665 298.954295 
L 99.150273 303.597024 
L 99.70578 306.25143 
L 100.150185 307.542614 
L 100.483489 308.014012 
L 100.705691 308.089911 
L 100.927894 307.974497 
L 101.261198 307.443643 
L 101.705603 306.074889 
L 102.26111 303.326283 
L 102.927718 298.577338 
L 103.705427 291.205278 
L 104.705339 279.258809 
L 106.038554 260.216258 
L 109.704898 205.924647 
L 110.704809 194.821872 
L 111.482518 188.23531 
L 112.149126 184.222084 
L 112.704633 182.113492 
L 113.149038 181.26522 
L 113.482342 181.125119 
L 113.704545 181.269086 
L 114.037849 181.839501 
L 114.482254 183.255715 
L 115.03776 186.053923 
L 115.704368 190.848853 
L 116.482077 198.257857 
L 117.481989 210.230808 
L 118.815205 229.285963 
L 122.481548 283.557314 
L 123.48146 294.626424 
L 124.259169 301.168591 
L 124.925777 305.128364 
L 125.481284 307.181271 
L 125.925689 307.977554 
L 126.147892 308.089997 
L 126.370094 308.011327 
L 126.703398 307.535163 
L 127.036702 306.633 
L 127.481107 304.777772 
L 128.036614 301.444139 
L 128.703222 296.041783 
L 129.592032 286.70788 
L 130.703045 272.268997 
L 132.369565 247.133138 
L 134.702692 212.233266 
L 135.813706 198.683903 
L 136.702516 190.265904 
L 137.369124 185.63654 
L 137.92463 182.984842 
L 138.369036 181.689595 
L 138.70234 181.21136 
L 138.924542 181.129019 
L 139.146745 181.236437 
L 139.480049 181.752826 
L 139.924454 183.097332 
L 140.479961 185.809249 
L 141.146568 190.50675 
L 141.924278 197.81401 
L 142.924189 209.680613 
L 144.257405 228.646537 
L 148.03485 284.401522 
L 149.034762 295.281765 
L 149.812471 301.648866 
L 150.479079 305.444113 
L 151.034585 307.353379 
L 151.367889 307.934394 
L 151.701193 308.086306 
L 151.923396 307.948593 
L 152.2567 307.384568 
L 152.701105 305.972287 
L 153.256611 303.171298 
L 153.923219 298.363678 
L 154.700928 290.93095 
L 155.70084 278.922172 
L 157.034056 259.829762 
L 160.589298 207.004331 
L 161.58921 195.675726 
L 162.47802 188.068385 
L 163.144628 184.117147 
L 163.700135 182.062585 
L 164.14454 181.258422 
L 164.366742 181.139921 
L 164.588945 181.211029 
L 164.922249 181.672917 
L 165.255553 182.557793 
L 165.699958 184.385802 
L 166.255465 187.679429 
L 166.922073 193.028241 
L 167.810883 202.287882 
L 168.921896 216.645084 
L 170.588416 241.719726 
L 172.921543 276.696252 
L 174.032557 290.330366 
L 174.921367 298.821197 
L 175.699076 304.129204 
L 176.254583 306.589098 
L 176.698988 307.719618 
L 177.032292 308.06973 
L 177.254495 308.06413 
L 177.476697 307.867411 
L 177.810001 307.215869 
L 178.254406 305.688239 
L 178.809913 302.748483 
L 179.476521 297.785601 
L 180.25423 290.191646 
L 181.254142 278.016547 
L 182.587357 258.789995 
L 186.031498 207.550433 
L 187.03141 196.110881 
L 187.92022 188.382872 
L 188.586828 184.331326 
L 189.142335 182.188875 
L 189.58674 181.312282 
L 189.920044 181.151165 
L 190.142247 181.280716 
L 190.475551 181.830064 
L 190.919956 183.217807 
L 191.475462 185.98183 
L 192.14207 190.737834 
L 192.919779 198.10574 
L 193.919691 210.034967 
L 195.252907 229.051719 
L 198.91925 283.356881 
L 199.919162 294.468403 
L 200.696871 301.051113 
L 201.363479 305.049894 
L 201.918986 307.136958 
L 202.363391 307.961642 
L 202.585593 308.088215 
L 202.807796 308.023712 
L 203.1411 307.569323 
L 203.474404 306.688532 
L 203.918809 304.861261 
L 204.474316 301.561535 
L 205.140924 296.196804 
L 206.029734 286.907618 
L 207.140747 272.511726 
L 208.807267 247.40721 
L 211.140394 212.479359 
L 212.251407 198.888742 
L 213.140218 190.427641 
L 213.917927 185.134279 
L 214.473434 182.675804 
L 214.917839 181.539895 
L 215.251143 181.182084 
L 215.473345 181.180539 
L 215.695548 181.368732 
L 216.028852 182.004918 
L 216.473257 183.507345 
L 217.028764 186.409268 
L 217.695372 191.320211 
L 218.473081 198.849188 
L 219.472993 210.945333 
L 220.806208 230.098769 
L 224.36145 282.828443 
L 225.361362 294.053909 
L 226.139071 300.74325 
L 226.805679 304.842526 
L 227.361186 307.018095 
L 227.805591 307.915661 
L 228.138895 308.088741 
L 228.361098 307.965481 
L 228.694401 307.422805 
L 229.138807 306.039048 
L 229.694313 303.272438 
L 230.360921 298.504223 
L 231.13863 291.112733 
L 232.138542 279.147551 
L 233.471758 260.09329 
L 237.138101 205.848302 
L 238.138013 194.774987 
L 238.915722 188.21436 
L 239.58233 184.224686 
L 240.137836 182.136259 
L 240.582242 181.303794 
L 240.915546 181.175897 
L 241.137748 181.327584 
L 241.471052 181.909874 
L 241.915457 183.340814 
L 242.470964 186.156845 
L 243.137572 190.97117 
L 243.915281 198.39944 
L 244.915193 210.390824 
L 246.248409 229.457644 
L 249.914752 283.681952 
L 250.914664 294.721243 
L 251.692373 301.237252 
L 252.358981 305.173552 
L 252.914487 307.206114 
L 253.358892 307.986294 
L 253.581095 308.090534 
L 253.803298 308.003732 
L 254.136602 307.516034 
L 254.469906 306.602406 
L 254.914311 304.732366 
L 255.469817 301.381617 
L 256.136425 295.960513 
L 257.025236 286.60672 
L 258.136249 272.15145 
L 259.802768 247.010667 
L 262.135896 212.144764 
L 263.246909 198.625169 
L 264.13572 190.235703 
L 264.802327 185.629599 
L 265.357834 182.997752 
L 265.802239 181.718883 
L 266.135543 181.252541 
L 266.357746 181.178341 
L 266.579948 181.293696 
L 266.913252 181.821663 
L 267.357658 183.181352 
L 267.913164 185.911181 
L 268.579772 190.627854 
L 269.357481 197.954585 
L 270.357393 209.840089 
L 271.690609 228.818149 
L 275.468053 284.524244 
L 276.467965 295.374527 
L 277.245674 301.71534 
L 277.912282 305.486851 
L 278.467789 307.37589 
L 278.801093 307.944623 
L 279.134397 308.084203 
L 279.356599 307.938641 
L 279.689903 307.362735 
L 280.134308 305.935464 
L 280.689815 303.116455 
L 281.356423 298.289535 
L 282.134132 290.837419 
L 283.134044 278.810051 
L 284.46726 259.706153 
L 288.022501 206.925608 
L 289.022413 195.625966 
L 289.800122 188.853779 
L 290.46673 184.664615 
L 291.022237 182.400555 
L 291.466642 181.424437 
L 291.799946 181.187447 
L 292.022149 181.266663 
L 292.355453 181.740085 
L 292.688757 182.636576 
L 293.133162 184.479136 
L 293.688668 187.789936 
L 294.355276 193.157574 
L 295.244087 202.437117 
L 296.3551 216.811162 
L 298.021619 241.891383 
L 300.354747 276.834545 
L 301.46576 290.438858 
L 302.354571 298.90079 
L 303.021178 303.557353 
L 303.576685 306.225229 
L 304.02109 307.527582 
L 304.354394 308.008345 
L 304.576597 308.090244 
L 304.798799 307.981143 
L 305.132103 307.460145 
L 305.576509 306.104415 
L 306.132015 303.372298 
L 306.798623 298.64353 
L 307.576332 291.293398 
L 308.576244 279.372076 
L 309.90946 260.356202 
L 313.575803 206.077303 
L 314.575715 194.961555 
L 315.353424 188.36078 
L 316.020032 184.333201 
L 316.575538 182.21087 
L 317.019944 181.350414 
L 317.353248 181.201428 
L 317.57545 181.338912 
L 317.908754 181.899899 
L 318.353159 183.302805 
L 318.908666 186.084767 
L 319.575274 190.859938 
L 320.352983 198.247279 
L 321.352895 210.195314 
L 322.68611 229.223978 
L 326.352454 283.482623 
L 327.352366 294.564518 
L 328.130075 301.120985 
L 328.796683 305.095688 
L 329.352189 307.162352 
L 329.796594 307.970983 
L 330.018797 308.089535 
L 330.241 308.016918 
L 330.574304 307.550699 
L 330.907607 306.658075 
L 331.352013 304.816243 
L 331.907519 301.499096 
L 332.574127 296.115542 
L 333.462938 286.806286 
L 334.573951 272.393426 
L 336.24047 247.283699 
L 338.573598 212.389487 
L 339.684611 198.828848 
L 340.573421 190.39666 
L 341.240029 185.753236 
L 341.795536 183.088315 
L 342.239941 181.782127 
L 342.573245 181.294554 
L 342.795448 181.20631 
L 343.01765 181.307675 
L 343.350954 181.814149 
L 343.79536 183.146079 
L 344.350866 185.84159 
L 345.017474 190.519292 
L 345.795183 197.804746 
L 346.795095 209.646106 
L 348.128311 228.585297 
L 351.905755 284.32753 
L 352.905667 295.220946 
L 353.683376 301.602695 
L 354.349984 305.413479 
L 354.905491 307.336744 
L 355.238795 307.926326 
L 355.572098 308.087343 
L 355.794301 307.955941 
L 356.127605 307.401654 
L 356.57201 306.002372 
L 357.127517 303.217726 
L 357.794125 298.430116 
L 358.571834 291.01911 
L 359.571746 279.035204 
L 360.904961 259.969158 
L 364.571305 205.771264 
L 365.571216 194.727415 
L 366.348926 188.192907 
L 367.015533 184.227323 
L 367.57104 182.159115 
L 368.015445 181.342801 
L 368.237648 181.218087 
L 368.459851 181.283104 
L 368.793154 181.735441 
L 369.126458 182.61105 
L 369.570864 184.42563 
L 370.12637 187.703095 
L 370.792978 193.033065 
L 371.681789 202.268337 
L 372.792802 216.599787 
L 374.459321 241.647876 
L 376.90355 278.108272 
L 378.014563 291.454902 
L 378.903374 299.655765 
L 379.569982 304.092054 
L 380.125488 306.565229 
L 380.569893 307.707675 
L 380.903197 308.066479 
L 381.1254 308.067285 
L 381.347603 307.877114 
L 381.680907 307.234806 
L 382.125312 305.720637 
L 382.680818 302.797145 
L 383.347426 297.853374 
L 384.125135 290.28089 
L 385.125047 278.130593 
L 386.458263 258.929743 
L 389.902404 207.702972 
L 390.902315 196.251843 
L 391.791126 188.508021 
L 392.457734 184.442303 
L 393.01324 182.286131 
L 393.457645 181.398153 
L 393.790949 181.227766 
L 394.013152 181.351278 
L 394.346456 181.890797 
L 394.790861 183.266018 
L 395.346368 186.013781 
L 396.012976 190.750091 
L 396.790685 198.096393 
L 397.790597 210.000672 
L 397.790597 210.000672 
" clip-path="url(#pab0f456cbd)" style="fill: none; stroke: #ff7f0e; stroke-width: 1.5; stroke-linecap: square"/>
   </g>
   <g id="line2d_52">
    <path d="M 65.708778 181.109343 
L 380.347691 181.220343 
L 397.790597 181.225777 
L 397.790597 181.225777 
" clip-path="url(#pab0f456cbd)" style="fill: none; stroke: #2ca02c; stroke-width: 1.5; stroke-linecap: square"/>
   </g>
   <g id="patch_8">
    <path d="M 49.104688 314.44 
L 49.104688 174.76 
" style="fill: none; stroke: #000000; stroke-width: 0.8; stroke-linejoin: miter; stroke-linecap: square"/>
   </g>
   <g id="patch_9">
    <path d="M 414.394687 314.44 
L 414.394687 174.76 
" style="fill: none; stroke: #000000; stroke-width: 0.8; stroke-linejoin: miter; stroke-linecap: square"/>
   </g>
   <g id="patch_10">
    <path d="M 49.104688 314.44 
L 414.394687 314.44 
" style="fill: none; stroke: #000000; stroke-width: 0.8; stroke-linejoin: miter; stroke-linecap: square"/>
   </g>
   <g id="patch_11">
    <path d="M 49.104688 174.76 
L 414.394687 174.76 
" style="fill: none; stroke: #000000; stroke-width: 0.8; stroke-linejoin: miter; stroke-linecap: square"/>
   </g>
   <g id="legend_1">
    <g id="patch_12">
     <path d="M 56.104688 268.627344 
L 99.204688 268.627344 
Q 101.204688 268.627344 101.204688 266.627344 
L 101.204688 222.572656 
Q 101.204688 220.572656 99.204688 220.572656 
L 56.104688 220.572656 
Q 54.104688 220.572656 54.104688 222.572656 
L 54.104688 266.627344 
Q 54.104688 268.627344 56.104688 268.627344 
z
" style="fill: #ffffff; opacity: 0.8; stroke: #cccccc; stroke-linejoin: miter"/>
    </g>
    <g id="line2d_53">
     <path d="M 58.104688 228.671094 
L 68.104688 228.671094 
L 78.104688 228.671094 
" style="fill: none; stroke: #1f77b4; stroke-width: 1.5; stroke-linecap: square"/>
    </g>
    <g id="text_28">
     <!-- $E_k$ -->
     <g transform="translate(86.104688 232.171094)scale(0.1 -0.1)">
      <defs>
       <path id="DejaVuSans-Oblique-45" d="M 1081 4666 
L 4031 4666 
L 3928 4134 
L 1606 4134 
L 1338 2753 
L 3566 2753 
L 3463 2222 
L 1234 2222 
L 909 531 
L 3284 531 
L 3181 0 
L 172 0 
L 1081 4666 
z
" transform="scale(0.015625)"/>
       <path id="DejaVuSans-Oblique-6b" d="M 1172 4863 
L 1747 4863 
L 1197 2028 
L 3169 3500 
L 3916 3500 
L 1716 1825 
L 3322 0 
L 2625 0 
L 1131 1709 
L 800 0 
L 225 0 
L 1172 4863 
z
" transform="scale(0.015625)"/>
      </defs>
      <use xlink:href="#DejaVuSans-Oblique-45" transform="translate(0 0.09375)"/>
      <use xlink:href="#DejaVuSans-Oblique-6b" transform="translate(63.183594 -16.3125)scale(0.7)"/>
     </g>
    </g>
    <g id="line2d_54">
     <path d="M 58.104688 243.349219 
L 68.104688 243.349219 
L 78.104688 243.349219 
" style="fill: none; stroke: #ff7f0e; stroke-width: 1.5; stroke-linecap: square"/>
    </g>
    <g id="text_29">
     <!-- $E_p$ -->
     <g transform="translate(86.104688 246.849219)scale(0.1 -0.1)">
      <defs>
       <path id="DejaVuSans-Oblique-70" d="M 3175 2156 
Q 3175 2616 2975 2859 
Q 2775 3103 2400 3103 
Q 2144 3103 1911 2972 
Q 1678 2841 1497 2591 
Q 1319 2344 1212 1994 
Q 1106 1644 1106 1300 
Q 1106 863 1306 627 
Q 1506 391 1875 391 
Q 2147 391 2380 519 
Q 2613 647 2778 891 
Q 2956 1147 3065 1494 
Q 3175 1841 3175 2156 
z
M 1394 2969 
Q 1625 3272 1939 3428 
Q 2253 3584 2638 3584 
Q 3175 3584 3472 3232 
Q 3769 2881 3769 2247 
Q 3769 1728 3584 1258 
Q 3400 788 3053 416 
Q 2822 169 2531 39 
Q 2241 -91 1919 -91 
Q 1547 -91 1294 64 
Q 1041 219 916 525 
L 556 -1331 
L -19 -1331 
L 922 3500 
L 1497 3500 
L 1394 2969 
z
" transform="scale(0.015625)"/>
      </defs>
      <use xlink:href="#DejaVuSans-Oblique-45" transform="translate(0 0.09375)"/>
      <use xlink:href="#DejaVuSans-Oblique-70" transform="translate(63.183594 -16.3125)scale(0.7)"/>
     </g>
    </g>
    <g id="line2d_55">
     <path d="M 58.104688 259.047656 
L 68.104688 259.047656 
L 78.104688 259.047656 
" style="fill: none; stroke: #2ca02c; stroke-width: 1.5; stroke-linecap: square"/>
    </g>
    <g id="text_30">
     <!-- $E$ -->
     <g transform="translate(86.104688 262.547656)scale(0.1 -0.1)">
      <use xlink:href="#DejaVuSans-Oblique-45" transform="translate(0 0.09375)"/>
     </g>
    </g>
   </g>
  </g>
 </g>
 <defs>
  <clipPath id="pbf6affaff3">
   <rect x="49.104688" y="7.2" width="365.29" height="139.68"/>
  </clipPath>
  <clipPath id="pab0f456cbd">
   <rect x="49.104688" y="174.76" width="365.29" height="139.68"/>
  </clipPath>
 </defs>
</svg>
