<?xml version="1.0" encoding="UTF-8" standalone="no"?>
<!-- Created with Inkscape (http://www.inkscape.org/) -->

<svg
   xmlns:ns0="http://www.iki.fi/pav/software/textext/"
   xmlns:dc="http://purl.org/dc/elements/1.1/"
   xmlns:cc="http://creativecommons.org/ns#"
   xmlns:rdf="http://www.w3.org/1999/02/22-rdf-syntax-ns#"
   xmlns:svg="http://www.w3.org/2000/svg"
   xmlns="http://www.w3.org/2000/svg"
   xmlns:sodipodi="http://sodipodi.sourceforge.net/DTD/sodipodi-0.dtd"
   xmlns:inkscape="http://www.inkscape.org/namespaces/inkscape"
   width="404.77679"
   height="145.35454"
   id="svg3564"
   version="1.1"
   inkscape:version="0.48.5 r10040"
   sodipodi:docname="New document 3">
  <sodipodi:namedview
     id="base"
     pagecolor="#ffffff"
     bordercolor="#666666"
     borderopacity="1.0"
     inkscape:pageopacity="0.0"
     inkscape:pageshadow="2"
     inkscape:zoom="1.4"
     inkscape:cx="191.2562"
     inkscape:cy="145.6618"
     inkscape:document-units="px"
     inkscape:current-layer="layer1"
     showgrid="false"
     inkscape:window-width="959"
     inkscape:window-height="1027"
     inkscape:window-x="960"
     inkscape:window-y="0"
     inkscape:window-maximized="0"
     fit-margin-top="0"
     fit-margin-left="0"
     fit-margin-right="0"
     fit-margin-bottom="0" />
  <defs
     id="defs3566">
    <clipPath
       id="clipPath70"
       clipPathUnits="userSpaceOnUse">
      <path
         id="path72"
         clip-rule="evenodd"
         d="m 72,695.16 433.02,0 0,-148.86 -433.02,0 0,148.86 z"
         inkscape:connector-curvature="0" />
    </clipPath>
    <clipPath
       id="clipPath76"
       clipPathUnits="userSpaceOnUse">
      <path
         id="path78"
         d="m 0,792.03 612,0 0,-792 -612,0 0,792 z"
         inkscape:connector-curvature="0" />
    </clipPath>
  </defs>
  <metadata
     id="metadata3569">
    <rdf:RDF>
      <cc:Work
         rdf:about="">
        <dc:format>image/svg+xml</dc:format>
        <dc:type
           rdf:resource="http://purl.org/dc/dcmitype/StillImage" />
        <dc:title></dc:title>
      </cc:Work>
    </rdf:RDF>
  </metadata>
  <g
     id="layer1"
     inkscape:groupmode="layer"
     inkscape:label="Layer 1"
     transform="translate(-117.61161,-433.97066)">
    <g
       id="g66"
       transform="matrix(1.25,0,0,-1.25,-40.58363,1285.1502)">
      <g
         clip-path="url(#clipPath70)"
         id="g68">
        <g
           clip-path="url(#clipPath76)"
           id="g74">
          <text
             id="text80"
             transform="matrix(1,0,0,-1,128.58,635.4)">
            <tspan
               id="tspan82"
               sodipodi:role="line"
               y="0"
               x="0 4.738524 10.55754 15.897756 18.53754 23.398956"
               style="font-size:7.98000002px;font-variant:normal;font-weight:normal;font-stretch:normal;writing-mode:lr-tb;fill:#000000;fill-opacity:1;fill-rule:nonzero;stroke:none;font-family:Times New Roman;-inkscape-font-specification:TimesNewRomanPSMT">VAR(L)</tspan>
            <tspan
               id="tspan84"
               sodipodi:role="line"
               y="-6.6002579"
               x="-2.1601861 3.15609 6.6928258 9.3437824 12.945156 15.596112 19.132849 23.153172 26.694696"
               style="font-size:7.98000002px;font-variant:normal;font-weight:normal;font-stretch:normal;writing-mode:lr-tb;fill:#000000;fill-opacity:1;fill-rule:nonzero;stroke:none;font-family:Times New Roman;-inkscape-font-specification:TimesNewRomanPSMT">Reference</tspan>
          </text>
          <g
             transform="translate(179.04,640.92)"
             id="g86">
            <path
               id="path88"
               style="fill:#000000;fill-opacity:1;fill-rule:nonzero;stroke:none"
               d="M 0,0 0,2.94 0.72,2.52 4.38,0.42 5.16,-0.06 4.44,-0.48 0.78,-2.64 0,-3.12 l 0,0.96 0.24,0.42 3.66,2.16 0.54,-0.9 -0.54,0 -3.66,2.1 0.48,0.9 0.3,-0.42 0,-2.1"
               inkscape:connector-curvature="0" />
          </g>
          <path
             id="path90"
             style="fill:#000000;fill-opacity:1;fill-rule:nonzero;stroke:none"
             d="m 179.04,638.76 1.02,0 0,2.16 -1.02,0 0,-2.16 z"
             inkscape:connector-curvature="0" />
          <g
             transform="translate(179.52,640.92)"
             id="g92">
            <path
               id="path94"
               style="fill:#000000;fill-opacity:1;fill-rule:evenodd;stroke:none"
               d="M 0,0 0,2.1 3.66,0 0,-2.16"
               inkscape:connector-curvature="0" />
          </g>
          <path
             id="path96"
             style="fill:#000000;fill-opacity:1;fill-rule:nonzero;stroke:none"
             d="m 161.64,640.68 17.34,0 0,0.47998 -17.34,0 0,-0.47998 z"
             inkscape:connector-curvature="0" />
          <path
             id="path98"
             style="fill:#000000;fill-opacity:1;fill-rule:nonzero;stroke:none"
             d="m 216.18,658.68 25.26,0 0,0.47998 -25.26,0 0,-0.47998 z"
             inkscape:connector-curvature="0" />
          <path
             id="path100"
             style="fill:#000000;fill-opacity:1;fill-rule:nonzero;stroke:none"
             d="m 240.96,622.68 0.47998,0 0,36.24 -0.47998,0 0,-36.24 z"
             inkscape:connector-curvature="0" />
          <path
             id="path102"
             style="fill:#000000;fill-opacity:1;fill-rule:nonzero;stroke:none"
             d="m 215.94,622.68 25.26,0 0,0.47998 -25.26,0 0,-0.47998 z"
             inkscape:connector-curvature="0" />
          <path
             id="path104"
             style="fill:#000000;fill-opacity:1;fill-rule:nonzero;stroke:none"
             d="m 215.94,622.92 0.48001,0 0,36.24 -0.48001,0 0,-36.24 z"
             inkscape:connector-curvature="0" />
          <text
             id="text106"
             transform="matrix(1,0,0,-1,227.22,644.88)">
            <tspan
               id="tspan108"
               y="0"
               x="0"
               style="font-size:7.98000002px;font-variant:normal;font-weight:normal;font-stretch:normal;writing-mode:lr-tb;fill:#000000;fill-opacity:1;fill-rule:nonzero;stroke:none;font-family:Times New Roman;-inkscape-font-specification:TimesNewRomanPSMT">1</tspan>
            <tspan
               id="tspan110"
               y="12.000324"
               x="-0.719796"
               style="font-size:7.98000002px;font-variant:normal;font-weight:normal;font-stretch:normal;writing-mode:lr-tb;fill:#000000;fill-opacity:1;fill-rule:nonzero;stroke:none;font-family:Times New Roman;-inkscape-font-specification:TimesNewRomanPSMT">R</tspan>
          </text>
          <path
             id="path112"
             style="fill:#000000;fill-opacity:1;fill-rule:nonzero;stroke:none"
             d="m 225.06,641.64 0.24001,0 0,0.48004 -0.24001,0 0,-0.48004 z"
             inkscape:connector-curvature="0" />
          <path
             id="path114"
             style="fill:#000000;fill-opacity:1;fill-rule:nonzero;stroke:none"
             d="m 225.3,641.64 7.98,0 0,0.48004 -7.98,0 0,-0.48004 z"
             inkscape:connector-curvature="0" />
          <g
             transform="translate(210,640.92)"
             id="g116">
            <path
               id="path118"
               style="fill:#000000;fill-opacity:1;fill-rule:nonzero;stroke:none"
               d="M 0,0 0,2.94 0.72,2.52 4.44,0.42 5.22,-0.06 4.5,-0.48 0.78,-2.64 0,-3.12 l 0,0.96 0.24,0.42 3.72,2.16 0.54,-0.9 -0.54,0 -3.72,2.1 0.48,0.9 0.3,-0.42 0,-2.1"
               inkscape:connector-curvature="0" />
          </g>
          <path
             id="path120"
             style="fill:#000000;fill-opacity:1;fill-rule:nonzero;stroke:none"
             d="m 210,638.76 1.02,0 0,2.16 -1.02,0 0,-2.16 z"
             inkscape:connector-curvature="0" />
          <g
             transform="translate(210.48,640.92)"
             id="g122">
            <path
               id="path124"
               style="fill:#000000;fill-opacity:1;fill-rule:evenodd;stroke:none"
               d="M 0,0 0,2.1 3.72,0 0,-2.16"
               inkscape:connector-curvature="0" />
          </g>
          <path
             id="path126"
             style="fill:#000000;fill-opacity:1;fill-rule:nonzero;stroke:none"
             d="m 202.2,640.68 7.8,0 0,0.47998 -7.8,0 0,-0.47998 z"
             inkscape:connector-curvature="0" />
          <g
             transform="translate(201.96,640.86)"
             id="g128">
            <path
               id="path130"
               style="fill:#000000;fill-opacity:1;fill-rule:nonzero;stroke:none"
               d="m 0,0 -0.06,0.9 -0.12,0.9 -0.24,0.84 0,-0.06 -0.3,0.84 0.06,0 -0.36,0.78 -0.48,0.78 0,-0.06 -0.48,0.66 -0.6,0.66 0.06,0 -0.66,0.6 -0.66,0.48 0,-0.06 -0.78,0.48 0.06,0 -0.78,0.36 -0.84,0.3 -0.84,0.24 0.06,0 -0.9,0.12 -0.9,0.06 -0.96,-0.06 0.06,0 -0.84,-0.12 -0.9,-0.24 0.06,0 -0.84,-0.3 -0.78,-0.36 -1.44,-0.96 0.06,0.06 -0.6,-0.6 -0.6,-0.66 -0.54,-0.66 0.06,0.06 -0.42,-0.78 -0.36,-0.78 -0.3,-0.84 0,0.06 -0.24,-0.84 -0.12,-0.9 -0.06,-0.9 0,0.06 0.06,-0.96 0.12,-0.84 0,0.06 0.24,-0.9 0.3,-0.84 0.36,-0.78 0,0.06 0.42,-0.72 -0.06,0 0.54,-0.72 0,0.06 1.2,-1.2 -0.3,-0.36 -0.06,0 -1.2,1.2 -0.54,0.72 0,0.06 -0.42,0.72 -0.36,0.78 -0.06,0 -0.3,0.84 0,0.06 -0.24,0.9 -0.12,0.84 0,0.06 -0.06,0.96 0.06,0.9 0.12,0.9 0,0.06 0.24,0.84 0.3,0.84 0.06,0 0.36,0.78 0,0.06 0.42,0.78 0.54,0.66 0.6,0.66 0,0.06 0.6,0.6 0.06,0 1.44,0.96 0.06,0 0.78,0.36 0,0.06 0.84,0.3 0.9,0.24 0.06,0 0.84,0.12 0.96,0.06 0.06,0 0.9,-0.06 0.9,-0.12 0.84,-0.24 0.06,0 0.84,-0.3 0,-0.06 0.78,-0.36 0.78,-0.48 0.06,0 0.66,-0.48 0.66,-0.6 0,-0.06 0.6,-0.66 0.48,-0.66 0.06,0 0.48,-0.78 0,-0.06 0.36,-0.78 0.3,-0.84 0.24,-0.84 0,-0.06 0.12,-0.9 0.06,-0.9"
               inkscape:connector-curvature="0" />
          </g>
          <g
             transform="translate(187.62,634.14)"
             id="g132">
            <path
               id="path134"
               style="fill:#000000;fill-opacity:1;fill-rule:nonzero;stroke:none"
               d="m 0,0 0.72,-0.54 -0.06,0 0.72,-0.42 0.78,-0.36 0.84,-0.36 -0.06,0.06 0.9,-0.18 0.84,-0.12 -0.06,0 0.96,-0.06 0.9,0.06 0.9,0.12 -0.06,0 0.84,0.18 0,-0.06 0.84,0.36 0.78,0.36 -0.06,0 0.78,0.42 0.66,0.54 0.66,0.6 -0.06,0 0.6,0.6 0,-0.06 0.96,1.44 0,-0.06 0.36,0.78 -0.06,0 0.3,0.84 0.24,0.9 0,-0.06 0.12,0.84 0.06,0.96 0,-0.06 0.48,0.06 -0.06,-0.96 0,-0.06 L 14.64,4.92 14.4,4.02 14.4,3.96 14.1,3.12 13.74,2.34 12.78,0.9 12.12,0.24 11.46,-0.36 10.8,-0.9 10.74,-0.96 9.96,-1.38 9.18,-1.74 8.34,-2.1 l -0.06,0 -0.84,-0.18 -0.9,-0.12 -0.9,-0.06 -0.06,0 -0.96,0.06 -0.84,0.12 -0.06,0 -0.9,0.18 -0.84,0.36 -0.78,0.36 -0.06,0 -0.72,0.42 0,0.06 -0.72,0.54"
               inkscape:connector-curvature="0" />
          </g>
          <text
             id="text136"
             transform="matrix(1,0,0,-1,196.08,620.82)">
            <tspan
               id="tspan138"
               y="0"
               x="0"
               style="font-size:7.98000002px;font-variant:normal;font-weight:normal;font-stretch:normal;writing-mode:lr-tb;fill:#000000;fill-opacity:1;fill-rule:nonzero;stroke:none;font-family:Times New Roman;-inkscape-font-specification:TimesNewRomanPSMT">–</tspan>
          </text>
          <g
             transform="translate(193.2,626.7)"
             id="g144">
            <path
               id="path146"
               style="fill:#000000;fill-opacity:1;fill-rule:nonzero;stroke:none"
               d="M 0,0 -3.06,0 -2.58,0.78 -0.42,4.5 0,5.28 0.48,4.44 2.58,0.72 3,0 2.1,0 1.68,0.24 l -2.1,3.72 0.9,0.48 0,-0.48 -2.16,-3.72 -0.9,0.54 0.42,0.24 2.16,0"
               inkscape:connector-curvature="0" />
          </g>
          <path
             id="path148"
             style="fill:#000000;fill-opacity:1;fill-rule:nonzero;stroke:none"
             d="m 193.2,626.7 2.1,0 0,1.02 -2.1,0 0,-1.02 z"
             inkscape:connector-curvature="0" />
          <g
             transform="translate(193.2,627.18)"
             id="g150">
            <path
               id="path152"
               style="fill:#000000;fill-opacity:1;fill-rule:evenodd;stroke:none"
               d="M 0,0 -2.16,0 0,3.72 2.1,0"
               inkscape:connector-curvature="0" />
          </g>
          <path
             id="path154"
             style="fill:#000000;fill-opacity:1;fill-rule:nonzero;stroke:none"
             d="m 192.96,575.88 0.47998,0 0,50.82 -0.47998,0 0,-50.82 z"
             inkscape:connector-curvature="0" />
          <path
             id="path156"
             style="fill:#000000;fill-opacity:1;fill-rule:nonzero;stroke:none"
             d="m 255.18,586.68 25.26,0 0,0.47998 -25.26,0 0,-0.47998 z"
             inkscape:connector-curvature="0" />
          <path
             id="path158"
             style="fill:#000000;fill-opacity:1;fill-rule:nonzero;stroke:none"
             d="m 279.96,564.66 0.48001,0 0,22.26 -0.48001,0 0,-22.26 z"
             inkscape:connector-curvature="0" />
          <path
             id="path160"
             style="fill:#000000;fill-opacity:1;fill-rule:nonzero;stroke:none"
             d="m 254.94,564.66 25.26,0 0,0.47998 -25.26,0 0,-0.47998 z"
             inkscape:connector-curvature="0" />
          <path
             id="path162"
             style="fill:#000000;fill-opacity:1;fill-rule:nonzero;stroke:none"
             d="m 254.94,564.9 0.48,0 0,22.26 -0.48,0 0,-22.26 z"
             inkscape:connector-curvature="0" />
          <text
             id="text164"
             transform="matrix(1,0,0,-1,263.04,574.92)">
            <tspan
               id="tspan166"
               y="0"
               x="0"
               style="font-size:7.98000002px;font-variant:normal;font-weight:normal;font-stretch:normal;writing-mode:lr-tb;fill:#000000;fill-opacity:1;fill-rule:nonzero;stroke:none;font-family:Times New Roman;-inkscape-font-specification:TimesNewRomanPSMT">D</tspan>
          </text>
          <text
             id="text168"
             transform="matrix(1,0,0,-1,268.8,572.64)">
            <tspan
               id="tspan170"
               y="0"
               x="0"
               style="font-size:9px;font-variant:normal;font-weight:normal;font-stretch:normal;writing-mode:lr-tb;fill:#000000;fill-opacity:1;fill-rule:nonzero;stroke:none;font-family:Times New Roman;-inkscape-font-specification:TimesNewRomanPSMT">t</tspan>
          </text>
          <g
             transform="translate(250.02,575.88)"
             id="g172">
            <path
               id="path174"
               style="fill:#000000;fill-opacity:1;fill-rule:nonzero;stroke:none"
               d="M 0,0 0,3.06 0.78,2.58 4.5,0.42 5.28,0 4.44,-0.48 0.72,-2.58 0,-3 l 0,0.9 0.24,0.42 3.72,2.1 0.48,-0.9 -0.48,0 -3.72,2.16 0.54,0.9 0.24,-0.42 0,-2.16"
               inkscape:connector-curvature="0" />
          </g>
          <path
             id="path176"
             style="fill:#000000;fill-opacity:1;fill-rule:nonzero;stroke:none"
             d="m 250.02,573.78 1.02,0 0,2.1 -1.02,0 0,-2.1 z"
             inkscape:connector-curvature="0" />
          <g
             transform="translate(250.5,575.88)"
             id="g178">
            <path
               id="path180"
               style="fill:#000000;fill-opacity:1;fill-rule:evenodd;stroke:none"
               d="M 0,0 0,2.16 3.72,0 0,-2.1"
               inkscape:connector-curvature="0" />
          </g>
          <path
             id="path182"
             style="fill:#000000;fill-opacity:1;fill-rule:nonzero;stroke:none"
             d="m 152.88,575.64 97.14,0 0,0.47998 -97.14,0 0,-0.47998 z"
             inkscape:connector-curvature="0" />
          <g
             transform="translate(252,640.92)"
             id="g184">
            <path
               id="path186"
               style="fill:#000000;fill-opacity:1;fill-rule:nonzero;stroke:none"
               d="M 0,0 0,2.94 0.72,2.52 4.44,0.42 5.22,-0.06 4.5,-0.48 0.78,-2.64 0,-3.12 l 0,0.96 0.24,0.42 3.72,2.16 0.54,-0.9 -0.54,0 -3.72,2.1 0.48,0.9 0.3,-0.42 0,-2.1"
               inkscape:connector-curvature="0" />
          </g>
          <path
             id="path188"
             style="fill:#000000;fill-opacity:1;fill-rule:nonzero;stroke:none"
             d="m 252,638.76 1.02,0 0,2.16 -1.02,0 0,-2.16 z"
             inkscape:connector-curvature="0" />
          <g
             transform="translate(252.48,640.92)"
             id="g190">
            <path
               id="path192"
               style="fill:#000000;fill-opacity:1;fill-rule:evenodd;stroke:none"
               d="M 0,0 0,2.1 3.72,0 0,-2.16"
               inkscape:connector-curvature="0" />
          </g>
          <path
             id="path194"
             style="fill:#000000;fill-opacity:1;fill-rule:nonzero;stroke:none"
             d="m 241.2,640.68 10.8,0 0,0.47998 -10.8,0 0,-0.47998 z"
             inkscape:connector-curvature="0" />
          <path
             id="path196"
             style="fill:#000000;fill-opacity:1;fill-rule:nonzero;stroke:none"
             d="m 257.22,658.68 36.24,0 0,0.47998 -36.24,0 0,-0.47998 z"
             inkscape:connector-curvature="0" />
          <path
             id="path198"
             style="fill:#000000;fill-opacity:1;fill-rule:nonzero;stroke:none"
             d="m 292.98,622.68 0.47998,0 0,36.24 -0.47998,0 0,-36.24 z"
             inkscape:connector-curvature="0" />
          <path
             id="path200"
             style="fill:#000000;fill-opacity:1;fill-rule:nonzero;stroke:none"
             d="m 256.98,622.68 36.24,0 0,0.47998 -36.24,0 0,-0.47998 z"
             inkscape:connector-curvature="0" />
          <path
             id="path202"
             style="fill:#000000;fill-opacity:1;fill-rule:nonzero;stroke:none"
             d="m 256.98,622.92 0.47998,0 0,36.24 -0.47998,0 0,-36.24 z"
             inkscape:connector-curvature="0" />
          <text
             id="text204"
             transform="matrix(1,0,0,-1,273.18,645.9)">
            <tspan
               id="tspan206"
               y="0"
               x="0"
               style="font-size:7.98000002px;font-variant:normal;font-weight:normal;font-stretch:normal;writing-mode:lr-tb;fill:#000000;fill-opacity:1;fill-rule:nonzero;stroke:none;font-family:Times New Roman;-inkscape-font-specification:TimesNewRomanPSMT">1</tspan>
            <tspan
               id="tspan208"
               sodipodi:role="line"
               y="13.980162"
               x="-10.500084 -6.4949222 -4.5150838 0.00079800002 2.0404861"
               style="font-size:7.98000002px;font-variant:normal;font-weight:normal;font-stretch:normal;writing-mode:lr-tb;fill:#000000;fill-opacity:1;fill-rule:nonzero;stroke:none;font-family:Times New Roman;-inkscape-font-specification:TimesNewRomanPSMT">1 + T</tspan>
          </text>
          <text
             id="text210"
             transform="matrix(1,0,0,-1,280.08,629.64)">
            <tspan
               id="tspan212"
               y="0"
               x="0"
               style="font-size:9px;font-variant:normal;font-weight:normal;font-stretch:normal;writing-mode:lr-tb;fill:#000000;fill-opacity:1;fill-rule:nonzero;stroke:none;font-family:Times New Roman;-inkscape-font-specification:TimesNewRomanPSMT">1</tspan>
          </text>
          <text
             id="text214"
             transform="matrix(1,0,0,-1,284.58,631.92)">
            <tspan
               id="tspan216"
               y="0"
               x="0"
               style="font-size:7.98000002px;font-variant:normal;font-weight:normal;font-stretch:normal;writing-mode:lr-tb;fill:#000000;fill-opacity:1;fill-rule:nonzero;stroke:none;font-family:Times New Roman;-inkscape-font-specification:TimesNewRomanPSMT">s</tspan>
          </text>
          <path
             id="path218"
             style="fill:#000000;fill-opacity:1;fill-rule:nonzero;stroke:none"
             d="m 261.96,640.68 0.24002,0 0,0.47998 -0.24002,0 0,-0.47998 z"
             inkscape:connector-curvature="0" />
          <path
             id="path220"
             style="fill:#000000;fill-opacity:1;fill-rule:nonzero;stroke:none"
             d="m 262.2,640.68 26.22,0 0,0.47998 -26.22,0 0,-0.47998 z"
             inkscape:connector-curvature="0" />
          <g
             transform="translate(307.02,640.92)"
             id="g222">
            <path
               id="path224"
               style="fill:#000000;fill-opacity:1;fill-rule:nonzero;stroke:none"
               d="M 0,0 0,2.94 0.72,2.52 4.44,0.42 5.22,-0.06 4.5,-0.48 0.78,-2.64 0,-3.12 l 0,0.96 0.24,0.42 3.72,2.16 0.54,-0.9 -0.54,0 -3.72,2.1 0.48,0.9 0.3,-0.42 0,-2.1"
               inkscape:connector-curvature="0" />
          </g>
          <path
             id="path226"
             style="fill:#000000;fill-opacity:1;fill-rule:nonzero;stroke:none"
             d="m 307.02,638.76 1.02,0 0,2.16 -1.02,0 0,-2.16 z"
             inkscape:connector-curvature="0" />
          <g
             transform="translate(307.5,640.92)"
             id="g228">
            <path
               id="path230"
               style="fill:#000000;fill-opacity:1;fill-rule:evenodd;stroke:none"
               d="M 0,0 0,2.1 3.72,0 0,-2.16"
               inkscape:connector-curvature="0" />
          </g>
          <path
             id="path232"
             style="fill:#000000;fill-opacity:1;fill-rule:nonzero;stroke:none"
             d="m 294.18,640.68 12.84,0 0,0.47998 -12.84,0 0,-0.47998 z"
             inkscape:connector-curvature="0" />
          <path
             id="path234"
             style="fill:#000000;fill-opacity:1;fill-rule:nonzero;stroke:none"
             d="m 312.18,658.68 36.24,0 0,0.47998 -36.24,0 0,-0.47998 z"
             inkscape:connector-curvature="0" />
          <path
             id="path236"
             style="fill:#000000;fill-opacity:1;fill-rule:nonzero;stroke:none"
             d="m 347.94,622.68 0.48001,0 0,36.24 -0.48001,0 0,-36.24 z"
             inkscape:connector-curvature="0" />
          <path
             id="path238"
             style="fill:#000000;fill-opacity:1;fill-rule:nonzero;stroke:none"
             d="m 311.94,622.68 36.24,0 0,0.47998 -36.24,0 0,-0.47998 z"
             inkscape:connector-curvature="0" />
          <path
             id="path240"
             style="fill:#000000;fill-opacity:1;fill-rule:nonzero;stroke:none"
             d="m 311.94,622.92 0.48001,0 0,36.24 -0.48001,0 0,-36.24 z"
             inkscape:connector-curvature="0" />
          <text
             id="text242"
             transform="matrix(1,0,0,-1,317.7,631.92)">
            <tspan
               id="tspan244"
               sodipodi:role="line"
               y="0"
               x="0 3.97404 6.0137281 10.498488 12.478326"
               style="font-size:7.98000002px;font-variant:normal;font-weight:normal;font-stretch:normal;writing-mode:lr-tb;fill:#000000;fill-opacity:1;fill-rule:nonzero;stroke:none;font-family:Times New Roman;-inkscape-font-specification:TimesNewRomanPSMT">1 + T</tspan>
          </text>
          <text
             id="text246"
             transform="matrix(1,0,0,-1,335.1,629.64)">
            <tspan
               id="tspan248"
               y="0"
               x="0"
               style="font-size:9px;font-variant:normal;font-weight:normal;font-stretch:normal;writing-mode:lr-tb;fill:#000000;fill-opacity:1;fill-rule:nonzero;stroke:none;font-family:Times New Roman;-inkscape-font-specification:TimesNewRomanPSMT">3</tspan>
          </text>
          <text
             id="text250"
             transform="matrix(1,0,0,-1,339.6,631.92)">
            <tspan
               id="tspan252"
               y="0"
               x="0"
               style="font-size:7.98000002px;font-variant:normal;font-weight:normal;font-stretch:normal;writing-mode:lr-tb;fill:#000000;fill-opacity:1;fill-rule:nonzero;stroke:none;font-family:Times New Roman;-inkscape-font-specification:TimesNewRomanPSMT">s</tspan>
          </text>
          <path
             id="path254"
             style="fill:#000000;fill-opacity:1;fill-rule:nonzero;stroke:none"
             d="m 316.98,640.68 0.23999,0 0,0.47998 -0.23999,0 0,-0.47998 z"
             inkscape:connector-curvature="0" />
          <path
             id="path256"
             style="fill:#000000;fill-opacity:1;fill-rule:nonzero;stroke:none"
             d="m 317.22,640.68 26.22,0 0,0.47998 -26.22,0 0,-0.47998 z"
             inkscape:connector-curvature="0" />
          <path
             id="path258"
             style="fill:#000000;fill-opacity:1;fill-rule:nonzero;stroke:none"
             d="m 297.54,670.8 0.23999,0 0,0.47998 -0.23999,0 0,-0.47998 z"
             inkscape:connector-curvature="0" />
          <g
             transform="translate(297.54,670.8)"
             id="g260">
            <path
               id="path262"
               style="fill:#000000;fill-opacity:1;fill-rule:nonzero;stroke:none"
               d="m 0,0 0,0.48 -9.12,0 L -9.18,0.36 -9,0"
               inkscape:connector-curvature="0" />
          </g>
          <g
             transform="translate(279.78,657.84)"
             id="g264">
            <path
               sodipodi:nodetypes="cccc"
               id="path266"
               style="fill:#000000;fill-opacity:1;fill-rule:nonzero;stroke:none"
               d="M 1.6,1.6 1.48,1.42 1.06,1.72 1.18,1.9"
               inkscape:connector-curvature="0" />
          </g>
          <g
             transform="translate(288.78,670.86)"
             id="g268">
            <path
               sodipodi:nodetypes="cccc"
               id="path270"
               style="fill:#000000;fill-opacity:1;fill-rule:nonzero;stroke:none"
               d="m 0,0 -0.42,0.3 -7.4,-11.42 0.42,-0.3"
               inkscape:connector-curvature="0" />
          </g>
          <text
             id="text272"
             transform="matrix(1,0,0,-1,278.7,675.66)">
            <tspan
               id="tspan274"
               y="0"
               x="0"
               style="font-size:7.98000002px;font-variant:normal;font-weight:normal;font-stretch:normal;writing-mode:lr-tb;fill:#000000;fill-opacity:1;fill-rule:nonzero;stroke:none;font-family:Times New Roman;-inkscape-font-specification:TimesNewRomanPSMT">V</tspan>
          </text>
          <text
             id="text276"
             transform="matrix(1,0,0,-1,284.52,673.44)">
            <tspan
               id="tspan278"
               sodipodi:role="line"
               y="0"
               x="0 7.9794002 14.4558"
               style="font-size:9px;font-variant:normal;font-weight:normal;font-stretch:normal;writing-mode:lr-tb;fill:#000000;fill-opacity:1;fill-rule:nonzero;stroke:none;font-family:Times New Roman;-inkscape-font-specification:TimesNewRomanPSMT">MAX</tspan>
          </text>
          <path
             id="path280"
             style="fill:#000000;fill-opacity:1;fill-rule:nonzero;stroke:none"
             d="m 253.56,610.62 0.24001,0 0,0.48004 -0.24001,0 0,-0.48004 z"
             inkscape:connector-curvature="0" />
          <g
             transform="translate(253.8,611.1)"
             id="g282">
            <path
               id="path284"
               style="fill:#000000;fill-opacity:1;fill-rule:nonzero;stroke:none"
               d="m 0,0 0,-0.48 9.12,0 0.06,0.06 L 9,0"
               inkscape:connector-curvature="0" />
          </g>
          <g
             transform="translate(271.62,622.98)"
             id="g286">
            <path
               id="path288"
               style="fill:#000000;fill-opacity:1;fill-rule:nonzero;stroke:none"
               d="M 0,0 0.12,0.18 0.48,-0.12 0.36,-0.3"
               inkscape:connector-curvature="0" />
          </g>
          <g
             transform="translate(262.62,610.98)"
             id="g290">
            <path
               id="path292"
               style="fill:#000000;fill-opacity:1;fill-rule:nonzero;stroke:none"
               d="m 0,0 0.36,-0.3 9,12 L 9,12"
               inkscape:connector-curvature="0" />
          </g>
          <text
             id="text294"
             transform="matrix(1,0,0,-1,245.7,604.6801)">
            <tspan
               id="tspan296"
               y="0"
               x="0"
               style="font-size:7.98000002px;font-variant:normal;font-weight:normal;font-stretch:normal;writing-mode:lr-tb;fill:#000000;fill-opacity:1;fill-rule:nonzero;stroke:none;font-family:Times New Roman;-inkscape-font-specification:TimesNewRomanPSMT">V</tspan>
          </text>
          <text
             id="text298"
             transform="matrix(1,0,0,-1,251.52,602.4)">
            <tspan
               id="tspan300"
               sodipodi:role="line"
               y="0"
               x="0 8.0216999 11.0394"
               style="font-size:9px;font-variant:normal;font-weight:normal;font-stretch:normal;writing-mode:lr-tb;fill:#000000;fill-opacity:1;fill-rule:nonzero;stroke:none;font-family:Times New Roman;-inkscape-font-specification:TimesNewRomanPSMT">MIN</tspan>
          </text>
          <text
             id="text302"
             transform="matrix(1,0,0,-1,317.7,646.92)">
            <tspan
               id="tspan304"
               sodipodi:role="line"
               y="0"
               x="0 3.97404 6.0137281 10.498488 12.478326"
               style="font-size:7.98000002px;font-variant:normal;font-weight:normal;font-stretch:normal;writing-mode:lr-tb;fill:#000000;fill-opacity:1;fill-rule:nonzero;stroke:none;font-family:Times New Roman;-inkscape-font-specification:TimesNewRomanPSMT">1 + T</tspan>
          </text>
          <text
             id="text306"
             transform="matrix(1,0,0,-1,335.1,644.64)">
            <tspan
               id="tspan308"
               y="0"
               x="0"
               style="font-size:9px;font-variant:normal;font-weight:normal;font-stretch:normal;writing-mode:lr-tb;fill:#000000;fill-opacity:1;fill-rule:nonzero;stroke:none;font-family:Times New Roman;-inkscape-font-specification:TimesNewRomanPSMT">2</tspan>
          </text>
          <text
             id="text310"
             transform="matrix(1,0,0,-1,339.6,646.92)">
            <tspan
               id="tspan312"
               y="0"
               x="0"
               style="font-size:7.98000002px;font-variant:normal;font-weight:normal;font-stretch:normal;writing-mode:lr-tb;fill:#000000;fill-opacity:1;fill-rule:nonzero;stroke:none;font-family:Times New Roman;-inkscape-font-specification:TimesNewRomanPSMT">s</tspan>
          </text>
          <g
             transform="translate(195.18,575.4)"
             id="g314">
            <path
               id="path316"
               style="fill:#000000;fill-opacity:1;fill-rule:evenodd;stroke:none"
               d="M 0,0 0,0.3 -0.12,0.6 -0.24,0.84 -0.42,1.08 -0.66,1.26 -0.9,1.38 -1.2,1.5 -1.8,1.5 -2.1,1.38 -2.34,1.26 -2.58,1.08 -2.76,0.84 -2.88,0.6 -2.94,0.3 -3,0 l 0.06,-0.3 0.06,-0.3 0.12,-0.24 0.18,-0.24 0.24,-0.18 0.24,-0.12 0.6,-0.12 0.6,0.12 0.24,0.12 0.24,0.18 0.18,0.24 0.12,0.24 L 0,-0.3 0,0"
               inkscape:connector-curvature="0" />
          </g>
          <g
             transform="translate(194.94,575.4)"
             id="g318">
            <path
               id="path320"
               style="fill:#000000;fill-opacity:1;fill-rule:nonzero;stroke:none"
               d="m 0,0 0,0.3 0.06,-0.12 -0.12,0.3 -0.12,0.24 0,-0.06 -0.18,0.24 0.06,0 -0.24,0.18 0,-0.06 -0.24,0.12 0.06,0 -0.3,0.12 0.06,0 -0.6,0 0.12,0 -0.3,-0.12 -0.24,-0.12 0.06,0.06 -0.24,-0.18 -0.18,-0.24 0.06,0.06 -0.12,-0.24 0,0.06 -0.12,-0.6 0,0.12 0.06,-0.3 0.06,-0.3 0,0.06 0.12,-0.24 -0.06,0 0.18,-0.24 0,0.06 0.24,-0.18 -0.06,0 0.24,-0.12 -0.06,0.06 0.6,-0.12 -0.12,0 0.6,0.12 -0.06,-0.06 0.24,0.12 0.24,0.18 -0.06,-0.06 0.18,0.24 0.12,0.24 0,-0.06 0.12,0.3 L 0,-0.3 0,0 0.48,0 0.48,-0.42 0.36,-0.72 0.24,-0.96 0.18,-1.02 0,-1.26 -0.24,-1.44 -0.3,-1.5 l -0.24,-0.12 -0.06,0 -0.6,-0.12 -0.12,0 -0.6,0.12 -0.06,0 -0.24,0.12 0,0.06 -0.24,0.18 -0.06,0 -0.18,0.24 0,0.06 -0.12,0.24 -0.06,0.06 -0.12,0.6 0,0.12 0.12,0.6 0.06,0.06 0.12,0.24 0.18,0.24 0.06,0.06 0.24,0.18 0.24,0.12 0.06,0 0.3,0.12 0.06,0.06 0.6,0 0.12,-0.06 0.3,-0.12 0.24,-0.12 0.06,0 L 0,1.26 0,1.2 0.18,0.96 l 0.06,0 0.12,-0.24 0,-0.06 0.12,-0.3 0,-0.36"
               inkscape:connector-curvature="0" />
          </g>
          <g
             transform="translate(194.94,575.4)"
             id="g322">
            <path
               id="path324"
               style="fill:#000000;fill-opacity:1;fill-rule:nonzero;stroke:none"
               d="M 0,0 0.48,0"
               inkscape:connector-curvature="0" />
          </g>
          <text
             id="text330"
             transform="matrix(1,0,0,-1,128.58,567.42)">
            <tspan
               id="tspan332"
               sodipodi:role="line"
               y="0"
               x="0 4.4320922 8.8641844 13.78545 18.656443"
               style="font-size:7.98000002px;font-variant:normal;font-weight:normal;font-stretch:normal;writing-mode:lr-tb;fill:#000000;fill-opacity:1;fill-rule:nonzero;stroke:none;font-family:Times New Roman;-inkscape-font-specification:TimesNewRomanPSMT">SPEED</tspan>
            <tspan
               id="tspan334"
               y="-75.779678"
               x="43.980175"
               style="font-size:7.98000002px;font-variant:normal;font-weight:normal;font-stretch:normal;writing-mode:lr-tb;fill:#000000;fill-opacity:1;fill-rule:nonzero;stroke:none;font-family:Times New Roman;-inkscape-font-specification:TimesNewRomanPSMT">+</tspan>
          </text>
          <path
             id="path336"
             style="fill:#000000;fill-opacity:1;fill-rule:nonzero;stroke:none"
             d="m 362.76,640.68 2.94,0 0,0.47998 -2.94,0 0,-0.47998 z"
             inkscape:connector-curvature="0" />
          <g
             transform="translate(363.12,642.66)"
             id="g338">
            <path
               id="path340"
               style="fill:#000000;fill-opacity:1;fill-rule:nonzero;stroke:none"
               d="m 0,0 -0.24,-0.42 2.7,-1.56 0.24,0 0.42,0.24 -0.42,0.18"
               inkscape:connector-curvature="0" />
          </g>
          <g
             transform="translate(365.82,640.68)"
             id="g342">
            <path
               id="path344"
               style="fill:#000000;fill-opacity:1;fill-rule:nonzero;stroke:none"
               d="m 0,0 -0.24,0.42 -2.7,-1.56 0.24,-0.42"
               inkscape:connector-curvature="0" />
          </g>
          <path
             id="path346"
             style="fill:#000000;fill-opacity:1;fill-rule:nonzero;stroke:none"
             d="m 347.94,640.68 0.23999,0 0,0.47998 -0.23999,0 0,-0.47998 z"
             inkscape:connector-curvature="0" />
          <path
             id="path348"
             style="fill:#000000;fill-opacity:1;fill-rule:nonzero;stroke:none"
             d="m 348.18,640.68 14.82,0 0,0.47998 -14.82,0 0,-0.47998 z"
             inkscape:connector-curvature="0" />
          <g
             transform="translate(361.02,640.92)"
             id="g350">
            <path
               id="path352"
               style="fill:#000000;fill-opacity:1;fill-rule:nonzero;stroke:none"
               d="M 0,0 0,2.94 0.72,2.52 4.44,0.42 5.22,-0.06 4.5,-0.48 0.78,-2.64 0,-3.12 l 0,0.96 0.24,0.42 3.72,2.16 0.54,-0.9 -0.54,0 -3.72,2.1 0.48,0.9 0.3,-0.42 0,-2.1"
               inkscape:connector-curvature="0" />
          </g>
          <path
             id="path354"
             style="fill:#000000;fill-opacity:1;fill-rule:nonzero;stroke:none"
             d="m 361.02,638.76 1.02,0 0,2.16 -1.02,0 0,-2.16 z"
             inkscape:connector-curvature="0" />
          <g
             transform="translate(361.5,640.92)"
             id="g356">
            <path
               id="path358"
               style="fill:#000000;fill-opacity:1;fill-rule:evenodd;stroke:none"
               d="M 0,0 0,2.1 3.72,0 0,-2.16"
               inkscape:connector-curvature="0" />
          </g>
          <path
             id="path360"
             style="fill:#000000;fill-opacity:1;fill-rule:nonzero;stroke:none"
             d="m 348.18,640.68 12.84,0 0,0.47998 -12.84,0 0,-0.47998 z"
             inkscape:connector-curvature="0" />
          <g
             transform="translate(383.94,640.86)"
             id="g362">
            <path
               id="path364"
               style="fill:#000000;fill-opacity:1;fill-rule:nonzero;stroke:none"
               d="m 0,0 -0.06,0.9 -0.12,0.9 -0.18,0.84 0.06,-0.06 -0.36,0.84 -0.36,0.78 -0.42,0.78 0,-0.06 -0.54,0.66 -0.6,0.66 -0.6,0.6 0.06,-0.06 -1.44,0.96 0.06,0 -0.78,0.36 -0.84,0.3 -0.9,0.24 0.06,0 -0.84,0.12 -0.96,0.06 0.06,0 -0.9,-0.06 -0.9,-0.12 -0.84,-0.24 0.06,0 -0.84,-0.3 -0.78,-0.36 -0.78,-0.48 0.06,0.06 -0.66,-0.48 -0.66,-0.6 -1.08,-1.32 0.06,0.06 -0.48,-0.78 -0.36,-0.78 -0.3,-0.84 0,0.06 -0.24,-0.84 -0.12,-0.9 -0.06,-0.9 0,0.06 0.06,-0.96 0.12,-0.84 0,0.06 0.24,-0.9 0.3,-0.84 0.36,-0.78 0,0.06 0.48,-0.72 -0.06,0 0.54,-0.72 0.54,-0.6 0,0.06 0.66,-0.6 -0.3,-0.36 -0.66,0.6 -0.06,0 -0.54,0.6 -0.54,0.72 0,0.06 -0.48,0.72 -0.36,0.78 -0.06,0 -0.3,0.84 0,0.06 -0.24,0.9 -0.12,0.84 0,0.06 -0.06,0.96 0.06,0.9 0.12,0.9 0,0.06 0.24,0.84 0.3,0.84 0.06,0 0.36,0.78 0,0.06 0.48,0.78 1.08,1.32 0.06,0.06 0.66,0.6 0.66,0.48 0.78,0.48 0.06,0 0.78,0.36 0,0.06 0.84,0.3 0.84,0.24 0.06,0 0.9,0.12 0.9,0.06 0.96,-0.06 0.06,0 0.84,-0.12 0.9,-0.24 0.06,0 0.84,-0.3 0,-0.06 0.78,-0.36 1.44,-0.96 0.06,0 0.6,-0.6 0,-0.06 0.6,-0.66 0.54,-0.66 0.06,0 0.42,-0.78 0,-0.06 L -0.24,3.6 0.12,2.76 0.3,1.92 0.3,1.86 0.42,0.96 0.48,0.06"
               inkscape:connector-curvature="0" />
          </g>
          <g
             transform="translate(369.66,634.14)"
             id="g366">
            <path
               id="path368"
               style="fill:#000000;fill-opacity:1;fill-rule:nonzero;stroke:none"
               d="m 0,0 0.66,-0.54 -0.06,0 0.78,-0.42 0.78,-0.36 0.84,-0.36 -0.06,0.06 0.84,-0.18 0.9,-0.12 0.9,-0.06 -0.06,0 0.96,0.06 0.84,0.12 -0.06,0 0.9,0.18 0,-0.06 0.84,0.36 0.78,0.36 -0.06,0 0.72,0.42 0.72,0.54 -0.06,0 1.2,1.2 0,-0.06 0.54,0.72 0.42,0.72 0,-0.06 0.36,0.78 0.36,0.84 -0.06,0 0.18,0.9 0,-0.06 0.12,0.84 0.06,0.96 0,-0.06 0.48,0.06 L 14.7,5.82 14.7,5.76 14.58,4.92 14.4,4.02 14.4,3.96 14.04,3.12 13.68,2.34 13.26,1.62 13.2,1.56 12.66,0.84 11.46,-0.36 10.74,-0.9 10.68,-0.96 9.96,-1.38 9.18,-1.74 8.34,-2.1 l -0.06,0 -0.9,-0.18 -0.84,-0.12 -0.06,0 -0.96,-0.06 -0.9,0.06 -0.9,0.12 -0.06,0 -0.84,0.18 -0.84,0.36 -0.78,0.36 -0.06,0 -0.78,0.42 0,0.06 -0.66,0.54"
               inkscape:connector-curvature="0" />
          </g>
          <text
             id="text374"
             transform="matrix(1,0,0,-1,378.84,622.08)">
            <tspan
               id="tspan376"
               y="0"
               x="0"
               style="font-size:7.98000002px;font-variant:normal;font-weight:normal;font-stretch:normal;writing-mode:lr-tb;fill:#000000;fill-opacity:1;fill-rule:nonzero;stroke:none;font-family:Times New Roman;-inkscape-font-specification:TimesNewRomanPSMT">–</tspan>
            <tspan
               id="tspan378"
               y="-21.900312"
               x="-22.739807"
               style="font-size:7.98000002px;font-variant:normal;font-weight:normal;font-stretch:normal;writing-mode:lr-tb;fill:#000000;fill-opacity:1;fill-rule:nonzero;stroke:none;font-family:Times New Roman;-inkscape-font-specification:TimesNewRomanPSMT">+</tspan>
          </text>
          <g
             transform="translate(375.18,626.7)"
             id="g380">
            <path
               id="path382"
               style="fill:#000000;fill-opacity:1;fill-rule:nonzero;stroke:none"
               d="m 0,0 -2.94,0 0.42,0.72 2.1,3.72 L 0.06,5.22 0.48,4.5 2.64,0.78 3.12,0 2.16,0 1.74,0.24 l -2.16,3.72 0.9,0.54 0,-0.54 -2.1,-3.72 -0.9,0.48 0.42,0.3 2.1,0"
               inkscape:connector-curvature="0" />
          </g>
          <path
             id="path384"
             style="fill:#000000;fill-opacity:1;fill-rule:nonzero;stroke:none"
             d="m 375.18,626.7 2.16,0 0,1.02 -2.16,0 0,-1.02 z"
             inkscape:connector-curvature="0" />
          <g
             transform="translate(375.18,627.18)"
             id="g386">
            <path
               id="path388"
               style="fill:#000000;fill-opacity:1;fill-rule:evenodd;stroke:none"
               d="M 0,0 -2.1,0 0,3.72 2.16,0"
               inkscape:connector-curvature="0" />
          </g>
          <path
             id="path390"
             style="fill:#000000;fill-opacity:1;fill-rule:nonzero;stroke:none"
             d="m 374.94,575.88 0.48001,0 0,50.82 -0.48001,0 0,-50.82 z"
             inkscape:connector-curvature="0" />
          <path
             id="path392"
             style="fill:#000000;fill-opacity:1;fill-rule:nonzero;stroke:none"
             d="m 279.96,575.64 0.24002,0 0,0.47998 -0.24002,0 0,-0.47998 z"
             inkscape:connector-curvature="0" />
          <path
             id="path394"
             style="fill:#000000;fill-opacity:1;fill-rule:nonzero;stroke:none"
             d="m 280.2,575.64 95.22,0 0,0.47998 -95.22,0 0,-0.47998 z"
             inkscape:connector-curvature="0" />
          <g
             transform="translate(413.04,640.92)"
             id="g396">
            <path
               id="path398"
               style="fill:#000000;fill-opacity:1;fill-rule:nonzero;stroke:none"
               d="M 0,0 0,2.94 0.72,2.52 4.38,0.42 5.16,-0.06 4.44,-0.48 0.78,-2.64 0,-3.12 l 0,0.96 0.24,0.42 3.66,2.16 0.54,-0.9 -0.54,0 -3.66,2.1 0.48,0.9 0.3,-0.42 0,-2.1"
               inkscape:connector-curvature="0" />
          </g>
          <path
             id="path400"
             style="fill:#000000;fill-opacity:1;fill-rule:nonzero;stroke:none"
             d="m 413.04,638.76 1.02,0 0,2.16 -1.02,0 0,-2.16 z"
             inkscape:connector-curvature="0" />
          <g
             transform="translate(413.52,640.92)"
             id="g402">
            <path
               id="path404"
               style="fill:#000000;fill-opacity:1;fill-rule:evenodd;stroke:none"
               d="M 0,0 0,2.1 3.66,0 0,-2.16"
               inkscape:connector-curvature="0" />
          </g>
          <path
             id="path406"
             style="fill:#000000;fill-opacity:1;fill-rule:nonzero;stroke:none"
             d="m 385.2,640.68 27.78,0 0,0.47998 -27.78,0 0,-0.47998 z"
             inkscape:connector-curvature="0" />
          <text
             id="text408"
             transform="matrix(1,0,0,-1,423.06,639.1801)">
            <tspan
               id="tspan410"
               sodipodi:role="line"
               y="0"
               x="0 4.429698 11.516736 16.438002 21.718369"
               style="font-size:7.98000002px;font-variant:normal;font-weight:normal;font-stretch:normal;writing-mode:lr-tb;fill:#000000;fill-opacity:1;fill-rule:nonzero;stroke:none;font-family:Times New Roman;-inkscape-font-specification:TimesNewRomanPSMT">PMECH</tspan>
          </text>
        </g>
      </g>
    </g>
    <g
       ns0:preamble="/home/jmmauricio/ink_preamble.tex"
       ns0:text="$\\Delta \\omega$"
       word-spacing="normal"
       letter-spacing="normal"
       font-size-adjust="none"
       font-stretch="normal"
       font-weight="normal"
       font-variant="normal"
       font-style="normal"
       stroke-miterlimit="10.433"
       xml:space="preserve"
       transform="matrix(1.127743,0,0,-1.1375743,-126.64523,1365.7981)"
       id="content"
       style="font-style:normal;font-variant:normal;font-weight:normal;font-stretch:normal;letter-spacing:normal;word-spacing:normal;text-anchor:start;fill:none;stroke:#000000;stroke-width:0.88288683;stroke-linecap:butt;stroke-linejoin:miter;stroke-miterlimit:10.43299961;stroke-opacity:1;stroke-dasharray:none;stroke-dashoffset:0"><path
         id="path4084"
         d="m 227.83,714.06 -0.01,0.01 0,0.01 -0.01,0.01 0,0.01 -0.01,0.01 -0.01,0.01 0,0.01 -0.01,0.01 0,0.01 -0.01,0.01 0,0.01 -0.01,0 0,0.01 -0.01,0.01 -0.01,0 0,0.01 -0.01,0 -0.01,0.01 0,0 -0.01,0.01 -0.01,0 -0.01,0 -0.01,0.01 -0.01,0 -0.01,0 -0.01,0 -0.01,0 -0.01,0.01 -0.02,0 -0.01,0 -0.01,0 -0.02,0 c -0.17,0 -0.19,-0.05 -0.26,-0.18 l -0.06,-0.82 2.68,-5.36 h -5.36 l 2.68,5.36 0.06,0.82 -3.36,-6.74 c -0.05,-0.09 -0.05,-0.11 -0.05,-0.12 0,-0.08 0.06,-0.08 0.22,-0.08 h 6.9 c 0.16,0 0.22,0 0.22,0.08 0,0.01 0,0.03 -0.05,0.12 z"
         inkscape:connector-curvature="0"
         style="fill:#000000;stroke-width:0" /><path
         id="path4086"
         d="m 237.75,710.82 0,0.04 0,0.04 0,0.04 -0.01,0.04 0,0.03 0,0.04 -0.01,0.03 -0.01,0.04 -0.01,0.03 -0.01,0.03 0,0.03 -0.02,0.03 -0.01,0.02 -0.01,0.03 -0.01,0.02 -0.01,0.03 -0.02,0.02 -0.01,0.02 -0.02,0.02 -0.01,0.01 -0.02,0.02 -0.02,0.01 -0.01,0.02 -0.02,0.01 -0.02,0.01 -0.02,0.01 -0.02,0.01 -0.02,0 -0.01,0.01 -0.02,0 -0.02,0.01 -0.03,0 c -0.25,0 -0.52,-0.24 -0.52,-0.47 0,-0.1 0.05,-0.21 0.15,-0.3 0.17,-0.15 0.35,-0.42 0.35,-0.83 0,-0.4 -0.19,-0.97 -0.5,-1.42 -0.3,-0.43 -0.67,-0.77 -1.14,-0.77 -0.56,0 -0.87,0.36 -0.96,0.89 0.11,0.26 0.34,0.9 0.34,1.18 0,0.12 -0.05,0.22 -0.18,0.22 -0.08,0 -0.19,-0.02 -0.27,-0.17 -0.11,-0.2 -0.23,-0.85 -0.23,-1.2 -0.33,-0.47 -0.73,-0.92 -1.35,-0.92 -0.66,0 -0.87,0.59 -0.87,1.14 0,1.24 1.02,2.29 1.02,2.42 0,0.11 -0.08,0.19 -0.19,0.19 -0.13,0 -0.2,-0.13 -0.26,-0.22 -0.51,-0.74 -0.89,-1.92 -0.89,-2.82 0,-0.69 0.23,-1.42 1.05,-1.42 0.7,0 1.17,0.49 1.53,1.04 0.09,-0.58 0.48,-1.04 1.09,-1.04 0.78,0 1.26,0.6 1.62,1.35 0.24,0.48 0.61,1.83 0.61,2.45 z"
         inkscape:connector-curvature="0"
         style="fill:#000000;stroke-width:0" /></g>  </g>
</svg>
